<?xml version="1.0" encoding="UTF-8" standalone="no"?>
<!-- Created with Inkscape (http://www.inkscape.org/) -->

<svg
   width="24in"
   height="12in"
   viewBox="0 0 2160 1080"
   id="svg4382"
   version="1.1"
   inkscape:version="1.1.1 (c3084ef, 2021-09-22)"
   sodipodi:docname="LargeWoodGibbon.svg"
   xmlns:inkscape="http://www.inkscape.org/namespaces/inkscape"
   xmlns:sodipodi="http://sodipodi.sourceforge.net/DTD/sodipodi-0.dtd"
   xmlns="http://www.w3.org/2000/svg"
   xmlns:svg="http://www.w3.org/2000/svg"
   xmlns:rdf="http://www.w3.org/1999/02/22-rdf-syntax-ns#"
   xmlns:cc="http://creativecommons.org/ns#"
   xmlns:dc="http://purl.org/dc/elements/1.1/">
  <defs
     id="defs4384" />
  <sodipodi:namedview
     id="base"
     pagecolor="#ffffff"
     bordercolor="#666666"
     borderopacity="1.0"
     inkscape:pageopacity="0.0"
     inkscape:pageshadow="2"
     inkscape:zoom="0.0875"
     inkscape:cx="554.28571"
     inkscape:cy="491.42857"
     inkscape:document-units="px"
     inkscape:current-layer="layer1"
     showgrid="false"
     inkscape:window-width="1312"
     inkscape:window-height="812"
     inkscape:window-x="0"
     inkscape:window-y="25"
     inkscape:window-maximized="0"
     inkscape:pagecheckerboard="0"
     units="in" />
  <metadata
     id="metadata4387">
    <rdf:RDF>
      <cc:Work
         rdf:about="">
        <dc:format>image/svg+xml</dc:format>
        <dc:type
           rdf:resource="http://purl.org/dc/dcmitype/StillImage" />
      </cc:Work>
    </rdf:RDF>
  </metadata>
  <g
     inkscape:label="Layer 1"
     inkscape:groupmode="layer"
     id="layer1">
    <path
       id="path92855"
       style="fill:#ff0000;stroke:#000000;stroke-width:7.89065;stroke-linecap:round;stroke-linejoin:round"
       d="m 2556.4407,1744.7709 c -0.8756,-123.5641 -38.1211,-186.6242 -98.5646,-238.4635 -80.9198,-69.3998 -367.3163,-146.3705 -512.6652,-174.3221 -145.3491,-27.9526 -391.335,-150.9481 -464.0095,-245.9845 -72.6744,-95.03571 -60.1507,-256.54661 -60.1507,-256.54661 33.0416,-7.4126 62.0301,-12.1943 79.0904,-11.1284 17.6704,1.1055 41.0951,6.1946 65.7149,12.8407 39.1696,54.6759 87.6056,84.4666 137.5137,84.5777 30.8632,0 61.385,-11.4221 89.6223,-33.4457 12.8425,6.546 26.8902,10.7417 41.5782,11.9539 l 66.9073,5.5181 c 58.5573,4.8304 104.3327,-39.5798 102.646,-99.5736 l -2.3388,-83.0953 c -0.2971,-10.57801 -2.0683,-20.89487 -5.0749,-30.77076 19.1317,-50.96584 29.1134,-107.31603 29.1353,-164.47846 -0.2018,-55.56721 -9.8129,-110.33281 -28.0958,-160.0913 2.3843,-8.79573 3.7733,-17.93425 4.0354,-27.25507 l 2.3388,-83.08002 c 1.6873,-59.99346 -44.0887,-104.40343 -102.646,-99.57354 l -66.9073,5.5183 c -10.6479,0.87733 -20.9483,3.33585 -30.7098,7.10806 -3.8028,-0.61906 -7.615,-1.13026 -11.4341,-1.52818 -28.0661,-21.86203 -58.3868,-33.22323 -89.0566,-33.36967 -42.4417,0.27418 -83.9526,22.01645 -119.6289,62.65776 -28.1292,2.81159 -57.6737,4.10612 -83.5997,1.51404 -20.7427,-2.0742 -50.6092,-5.82697 -83.1716,-10.16532 8.8161,-76.16617 17.9331,-214.864645 -21.5534,-289.38092 -69.526,-131.20452 -161.3116,-190.87413 -283.8476,-293.27904 -105.846,-88.45698 -189.71924,-329.82178 -263.30294,-423.13448 -56.3508,-71.4589 -148.5754,-125.1903 -304.49912,-79.4113 -130.00672,38.1697 -188.40176,114.4172 -209.43475,169.9967 -35.41609,93.5857 -14.52425,188.5468 39.75903,230.04031 45.72695,34.95355 102.9506,5.20348 95.46172,-38.88771 -7.48883,-44.0915 -33.82916,-43.6585 -20.20822,-97.0055 13.62071,-53.3471 39.78644,-117.5033 142.20644,-108.944 235.1033,19.6476 225.5862,260.35972 329.0027,433.91111 67.5069,113.28871 107.96454,85.15913 233.00604,241.459085 36.3431,45.42844 41.7518,175.837875 36.1056,225.255875 -15.0333,-1.48578 -30.1484,-2.39844 -45.2925,-2.7363 -90.0288,0.24967 -178.09944,20.81444 -253.87154,59.2796 C 853.93446,176.90529 683.14466,19.111595 586.99546,-59.232185 480.26539,-146.19761 264.07823,-227.64258 132.40239,-209.44877 15.343417,-193.27429 -107.86494,-122.71489 -169.98692,-82.986765 V -291.15286 c 0,-72.13819 -58.06855,-130.22211 -130.20763,-130.22211 h -7.12291 c -72.1382,0 -130.20675,58.08392 -130.20675,130.22211 v 468.80934 c 0,72.1382 58.06855,130.22212 130.20675,130.22212 h 7.12291 c 71.927,0 129.83743,-57.75125 130.17704,-129.59549 82.088081,-38.74905 194.355867,-89.057595 258.930567,-111.022915 86.965573,-23.71763 201.599963,7.91527 284.612023,55.351055 64.37889,36.78787 251.10088,191.77562 333.32868,260.87243 -23.5067,45.14876 -35.622,93.49988 -35.6624,142.32883 0.3608,43.95167 10.5028,87.50989 29.9607,128.67824 -86.439,72.48574 -265.53863,220.59344 -327.62698,256.07264 -83.01206,47.4356 -197.64645,79.0688 -284.612023,55.3515 -11.92204,-3.2518 -149.48268,-29.5797 -260.261017,-61.7104 -8.68736,-63.5902 -62.7957,-112.3222 -128.84659,-112.3222 h -7.12291 c -72.1382,0 -130.20675,58.0688 -130.20675,130.2068 v 468.80911 c 0,72.1389 58.06855,130.2227 130.20675,130.2227 h 7.12291 c 72.13908,0 130.20763,-58.0838 130.20763,-130.2227 v -274.7366 c 62.12198,39.7284 185.330337,110.2879 302.38931,126.4616 131.67584,18.1941 347.863,-63.2513 454.59307,-150.2165 90.6227,-73.8403 240.4293,-211.80171 290.6651,-258.21221 78.4835,42.7272 171.44184,65.7166 266.71194,65.9596 11.3095,-0.6086 22.5879,-1.546 33.8129,-2.7975 0.3539,5.4739 0.8259,9.5763 1.1462,15.3474 5.5904,100.62551 61.4851,346.61161 223.605,464.00881 162.12,117.3972 380.1497,145.3446 536.6794,190.0679 194.254,55.5008 385.738,27.9448 436.0512,206.836 27.8263,98.9386 -11.183,167.7212 -61.4959,190.082 -50.3131,22.3619 -78.2692,-27.9581 -122.992,-27.9581 -44.7228,0 -50.3153,50.3157 -22.3635,100.629 27.9516,50.3122 205.1544,92.4334 291.3835,7.8413 42.4213,-41.6159 83.1649,-80.5162 94.3458,-242.6358 1.3972,-20.2654 2.0206,-39.1517 1.8953,-56.8032 z"
       sodipodi:nodetypes="sssscsccccscccccccssccccscssssssssssscccsscsssssssccscccsscssssssscssccccsssssssss" />
  </g>
</svg>
