solid OpenSCAD_Model
  facet normal 0.766044 -0 0.642788
    outer loop
      vertex -4.91699 22.86 6.53072
      vertex -1.95436 27.94 3
      vertex -4.91699 27.94 6.53072
    endloop
  endfacet
  facet normal 0.766044 0 0.642788
    outer loop
      vertex -1.95436 27.94 3
      vertex -4.91699 22.86 6.53072
      vertex -1.95436 22.86 3
    endloop
  endfacet
  facet normal 0 1 -0
    outer loop
      vertex 4.08077 27.94 4.5
      vertex 4.06327 27.94 8.03072
      vertex 7.0259 27.94 4.5
    endloop
  endfacet
  facet normal 0 1 0
    outer loop
      vertex -1.93211 27.94 3
      vertex 4.08077 27.94 4.5
      vertex 4.08077 27.94 3
    endloop
  endfacet
  facet normal 0 1 0
    outer loop
      vertex 4.08077 27.94 4.5
      vertex -1.93211 27.94 3
      vertex 4.06327 27.94 8.03072
    endloop
  endfacet
  facet normal 0 1 -0
    outer loop
      vertex -4.89949 27.94 3
      vertex -4.91699 27.94 6.53072
      vertex -1.95436 27.94 3
    endloop
  endfacet
  facet normal 0 1 0
    outer loop
      vertex -10.9124 27.94 1.5
      vertex -4.89949 27.94 3
      vertex -4.89949 27.94 1.5
    endloop
  endfacet
  facet normal 0 1 0
    outer loop
      vertex -4.89949 27.94 3
      vertex -10.9124 27.94 1.5
      vertex -4.91699 27.94 6.53072
    endloop
  endfacet
  facet normal 0 -1 0
    outer loop
      vertex -1.93211 22.86 3
      vertex 4.08077 22.86 4.5
      vertex 4.06327 22.86 8.03072
    endloop
  endfacet
  facet normal 0 -1 -0
    outer loop
      vertex 4.08077 22.86 4.5
      vertex -1.93211 22.86 3
      vertex 4.08077 22.86 3
    endloop
  endfacet
  facet normal 0 -1 0
    outer loop
      vertex 4.06327 22.86 8.03072
      vertex 4.08077 22.86 4.5
      vertex 7.0259 22.86 4.5
    endloop
  endfacet
  facet normal 0 -1 0
    outer loop
      vertex -10.9124 22.86 1.5
      vertex -4.89949 22.86 3
      vertex -4.91699 22.86 6.53072
    endloop
  endfacet
  facet normal 0 -1 -0
    outer loop
      vertex -4.89949 22.86 3
      vertex -10.9124 22.86 1.5
      vertex -4.89949 22.86 1.5
    endloop
  endfacet
  facet normal 0 -1 0
    outer loop
      vertex -4.91699 22.86 6.53072
      vertex -4.89949 22.86 3
      vertex -1.95436 22.86 3
    endloop
  endfacet
  facet normal -0.642786 0 0.766046
    outer loop
      vertex -10.9124 27.94 1.5
      vertex -4.91699 22.86 6.53072
      vertex -4.91699 27.94 6.53072
    endloop
  endfacet
  facet normal -0.642786 0 0.766046
    outer loop
      vertex -4.91699 22.86 6.53072
      vertex -10.9124 27.94 1.5
      vertex -10.9124 22.86 1.5
    endloop
  endfacet
  facet normal -0 0 1
    outer loop
      vertex 8.98026 50.8 1.5
      vertex -4.89949 27.94 1.5
      vertex 17.9605 50.8 1.5
    endloop
  endfacet
  facet normal 0 0 1
    outer loop
      vertex 8.98026 50.8 1.5
      vertex -10.9124 27.94 1.5
      vertex -4.89949 27.94 1.5
    endloop
  endfacet
  facet normal 0 0 1
    outer loop
      vertex -10.9124 27.94 1.5
      vertex -16.4197 25.4 1.5
      vertex -10.9124 22.86 1.5
    endloop
  endfacet
  facet normal 0 0 1
    outer loop
      vertex -16.4197 25.4 1.5
      vertex -10.9124 27.94 1.5
      vertex 8.98026 50.8 1.5
    endloop
  endfacet
  facet normal 0 0 1
    outer loop
      vertex -4.89949 22.86 1.5
      vertex 8.98026 4.04417e-08 1.5
      vertex 17.9605 0 1.5
    endloop
  endfacet
  facet normal -0 0 1
    outer loop
      vertex -10.9124 22.86 1.5
      vertex 8.98026 4.04417e-08 1.5
      vertex -4.89949 22.86 1.5
    endloop
  endfacet
  facet normal 0 0 1
    outer loop
      vertex 8.98026 4.04417e-08 1.5
      vertex -10.9124 22.86 1.5
      vertex -16.4197 25.4 1.5
    endloop
  endfacet
  facet normal 0 0 1
    outer loop
      vertex 17.9605 0 1.5
      vertex 8.98026 4.04417e-08 1.5
      vertex 8.98026 0 1.5
    endloop
  endfacet
  facet normal 0 0 1
    outer loop
      vertex 26.9408 50.8 1.5
      vertex 17.9605 50.8 1.5
      vertex 22.4506 46.3099 1.5
    endloop
  endfacet
  facet normal 0 0 1
    outer loop
      vertex 35.921 50.8 1.5
      vertex 26.9408 50.8 1.5
      vertex 31.4309 46.3099 1.5
    endloop
  endfacet
  facet normal 0 0 1
    outer loop
      vertex 44.9013 50.8 1.5
      vertex 35.921 50.8 1.5
      vertex 40.4112 46.3099 1.5
    endloop
  endfacet
  facet normal 0 0 1
    outer loop
      vertex 53.8815 50.8 1.5
      vertex 44.9013 50.8 1.5
      vertex 49.3914 46.3099 1.5
    endloop
  endfacet
  facet normal 0 0 1
    outer loop
      vertex 22.4506 4.49013 1.5
      vertex 17.9605 0 1.5
      vertex 26.9408 0 1.5
    endloop
  endfacet
  facet normal 0 0 1
    outer loop
      vertex 31.4309 4.49013 1.5
      vertex 26.9408 0 1.5
      vertex 35.921 0 1.5
    endloop
  endfacet
  facet normal 0 0 1
    outer loop
      vertex 40.4112 4.49013 1.5
      vertex 35.921 0 1.5
      vertex 44.9013 0 1.5
    endloop
  endfacet
  facet normal 0 0 1
    outer loop
      vertex 49.3914 4.49013 1.5
      vertex 44.9013 0 1.5
      vertex 53.8815 0 1.5
    endloop
  endfacet
  facet normal -0.707107 -0.707106 0
    outer loop
      vertex 8.98026 4.04417e-08 0
      vertex -16.4197 25.4 1.5
      vertex -16.4197 25.4 0
    endloop
  endfacet
  facet normal -0.707107 -0.707106 0
    outer loop
      vertex -16.4197 25.4 1.5
      vertex 8.98026 4.04417e-08 0
      vertex 8.98026 4.04417e-08 1.5
    endloop
  endfacet
  facet normal -0.707107 0.707106 0
    outer loop
      vertex -16.4197 25.4 0
      vertex 8.98026 50.8 1.5
      vertex 8.98026 50.8 0
    endloop
  endfacet
  facet normal -0.707107 0.707106 0
    outer loop
      vertex 8.98026 50.8 1.5
      vertex -16.4197 25.4 0
      vertex -16.4197 25.4 1.5
    endloop
  endfacet
  facet normal 0 0 -1
    outer loop
      vertex 8.98026 4.04417e-08 0
      vertex 53.8815 0 0
      vertex 8.98026 0 0
    endloop
  endfacet
  facet normal 0 0 -1
    outer loop
      vertex 53.8815 0 0
      vertex 8.98026 4.04417e-08 0
      vertex 28.4815 25.4 0
    endloop
  endfacet
  facet normal 0 0 -1
    outer loop
      vertex 28.4815 25.4 0
      vertex 8.98026 50.8 0
      vertex 53.8815 50.8 0
    endloop
  endfacet
  facet normal 0 0 -1
    outer loop
      vertex -16.4197 25.4 0
      vertex 28.4815 25.4 0
      vertex 8.98026 4.04417e-08 0
    endloop
  endfacet
  facet normal 0 0 -1
    outer loop
      vertex 28.4815 25.4 0
      vertex -16.4197 25.4 0
      vertex 8.98026 50.8 0
    endloop
  endfacet
  facet normal 0.766044 -0 0.642788
    outer loop
      vertex 4.06327 22.86 8.03072
      vertex 7.0259 27.94 4.5
      vertex 4.06327 27.94 8.03072
    endloop
  endfacet
  facet normal 0.766044 0 0.642788
    outer loop
      vertex 7.0259 27.94 4.5
      vertex 4.06327 22.86 8.03072
      vertex 7.0259 22.86 4.5
    endloop
  endfacet
  facet normal -0.642788 0 0.766045
    outer loop
      vertex -1.93211 27.94 3
      vertex 4.06327 22.86 8.03072
      vertex 4.06327 27.94 8.03072
    endloop
  endfacet
  facet normal -0.642788 0 0.766045
    outer loop
      vertex 4.06327 22.86 8.03072
      vertex -1.93211 27.94 3
      vertex -1.93211 22.86 3
    endloop
  endfacet
  facet normal 0 0 1
    outer loop
      vertex 17.9605 50.8 3
      vertex 4.08077 27.94 3
      vertex 22.4506 46.3099 3
    endloop
  endfacet
  facet normal 0 0 1
    outer loop
      vertex 17.9605 50.8 3
      vertex -1.93211 27.94 3
      vertex 4.08077 27.94 3
    endloop
  endfacet
  facet normal 0 0 1
    outer loop
      vertex -1.93211 27.94 3
      vertex -1.95436 27.94 3
      vertex -1.93211 22.86 3
    endloop
  endfacet
  facet normal 0 0 1
    outer loop
      vertex 17.9605 50.8 3
      vertex -1.95436 27.94 3
      vertex -1.93211 27.94 3
    endloop
  endfacet
  facet normal 0 -0 1
    outer loop
      vertex -1.95436 27.94 3
      vertex 17.9605 50.8 3
      vertex -4.89949 27.94 3
    endloop
  endfacet
  facet normal 0 0 1
    outer loop
      vertex 4.08077 22.86 3
      vertex 17.9605 0 3
      vertex 22.4506 4.49013 3
    endloop
  endfacet
  facet normal -0 0 1
    outer loop
      vertex -1.93211 22.86 3
      vertex 17.9605 0 3
      vertex 4.08077 22.86 3
    endloop
  endfacet
  facet normal 0 0 1
    outer loop
      vertex -1.95436 22.86 3
      vertex -1.93211 22.86 3
      vertex -1.95436 27.94 3
    endloop
  endfacet
  facet normal -0 0 1
    outer loop
      vertex -1.95436 22.86 3
      vertex 17.9605 0 3
      vertex -1.93211 22.86 3
    endloop
  endfacet
  facet normal 0 0 1
    outer loop
      vertex 17.9605 0 3
      vertex -1.95436 22.86 3
      vertex -4.89949 22.86 3
    endloop
  endfacet
  facet normal 0.707107 0.707107 0
    outer loop
      vertex 22.4506 46.3099 3
      vertex 17.9605 50.8 1.5
      vertex 17.9605 50.8 3
    endloop
  endfacet
  facet normal 0.707107 0.707107 0
    outer loop
      vertex 17.9605 50.8 1.5
      vertex 22.4506 46.3099 3
      vertex 22.4506 46.3099 1.5
    endloop
  endfacet
  facet normal -0.707107 -0.707107 0
    outer loop
      vertex 17.9605 0 1.5
      vertex -4.89949 22.86 3
      vertex -4.89949 22.86 1.5
    endloop
  endfacet
  facet normal -0.707107 -0.707107 0
    outer loop
      vertex -4.89949 22.86 3
      vertex 17.9605 0 1.5
      vertex 17.9605 0 3
    endloop
  endfacet
  facet normal -0.707107 0.707107 0
    outer loop
      vertex -4.89949 27.94 1.5
      vertex 17.9605 50.8 3
      vertex 17.9605 50.8 1.5
    endloop
  endfacet
  facet normal -0.707107 0.707107 0
    outer loop
      vertex 17.9605 50.8 3
      vertex -4.89949 27.94 1.5
      vertex -4.89949 27.94 3
    endloop
  endfacet
  facet normal 0.707109 -0.707104 0
    outer loop
      vertex 17.9605 0 3
      vertex 22.4506 4.49013 1.5
      vertex 22.4506 4.49013 3
    endloop
  endfacet
  facet normal 0.707109 -0.707104 0
    outer loop
      vertex 22.4506 4.49013 1.5
      vertex 17.9605 0 3
      vertex 17.9605 0 1.5
    endloop
  endfacet
  facet normal 0 1 -0
    outer loop
      vertex 22.0413 27.94 7.5
      vertex 22.0238 27.94 11.0307
      vertex 24.9864 27.94 7.5
    endloop
  endfacet
  facet normal 0 1 0
    outer loop
      vertex 16.0284 27.94 6
      vertex 22.0413 27.94 7.5
      vertex 22.0413 27.94 6
    endloop
  endfacet
  facet normal 0 1 0
    outer loop
      vertex 22.0413 27.94 7.5
      vertex 16.0284 27.94 6
      vertex 22.0238 27.94 11.0307
    endloop
  endfacet
  facet normal 0 1 -0
    outer loop
      vertex 13.061 27.94 6
      vertex 13.0435 27.94 9.53072
      vertex 16.0062 27.94 6
    endloop
  endfacet
  facet normal 0 1 0
    outer loop
      vertex 7.04814 27.94 4.5
      vertex 13.061 27.94 6
      vertex 13.061 27.94 4.5
    endloop
  endfacet
  facet normal 0 1 0
    outer loop
      vertex 13.061 27.94 6
      vertex 7.04814 27.94 4.5
      vertex 13.0435 27.94 9.53072
    endloop
  endfacet
  facet normal 0 -1 0
    outer loop
      vertex 16.0284 22.86 6
      vertex 22.0413 22.86 7.5
      vertex 22.0238 22.86 11.0307
    endloop
  endfacet
  facet normal 0 -1 -0
    outer loop
      vertex 22.0413 22.86 7.5
      vertex 16.0284 22.86 6
      vertex 22.0413 22.86 6
    endloop
  endfacet
  facet normal 0 -1 0
    outer loop
      vertex 22.0238 22.86 11.0307
      vertex 22.0413 22.86 7.5
      vertex 24.9864 22.86 7.5
    endloop
  endfacet
  facet normal 0 -1 0
    outer loop
      vertex 7.04814 22.86 4.5
      vertex 13.061 22.86 6
      vertex 13.0435 22.86 9.53072
    endloop
  endfacet
  facet normal 0 -1 -0
    outer loop
      vertex 13.061 22.86 6
      vertex 7.04814 22.86 4.5
      vertex 13.061 22.86 4.5
    endloop
  endfacet
  facet normal 0 -1 0
    outer loop
      vertex 13.0435 22.86 9.53072
      vertex 13.061 22.86 6
      vertex 16.0062 22.86 6
    endloop
  endfacet
  facet normal 0.766037 -0 0.642797
    outer loop
      vertex 13.0435 22.86 9.53072
      vertex 16.0062 27.94 6
      vertex 13.0435 27.94 9.53072
    endloop
  endfacet
  facet normal 0.766037 0 0.642797
    outer loop
      vertex 16.0062 27.94 6
      vertex 13.0435 22.86 9.53072
      vertex 16.0062 22.86 6
    endloop
  endfacet
  facet normal -0.642789 0 0.766043
    outer loop
      vertex 7.04814 27.94 4.5
      vertex 13.0435 22.86 9.53072
      vertex 13.0435 27.94 9.53072
    endloop
  endfacet
  facet normal -0.642789 0 0.766043
    outer loop
      vertex 13.0435 22.86 9.53072
      vertex 7.04814 27.94 4.5
      vertex 7.04814 22.86 4.5
    endloop
  endfacet
  facet normal 0 0 1
    outer loop
      vertex 26.9408 50.8 4.5
      vertex 13.061 27.94 4.5
      vertex 31.4309 46.3099 4.5
    endloop
  endfacet
  facet normal 0 0 1
    outer loop
      vertex 26.9408 50.8 4.5
      vertex 7.04814 27.94 4.5
      vertex 13.061 27.94 4.5
    endloop
  endfacet
  facet normal 0 0 1
    outer loop
      vertex 7.04814 27.94 4.5
      vertex 7.0259 27.94 4.5
      vertex 7.04814 22.86 4.5
    endloop
  endfacet
  facet normal 0 0 1
    outer loop
      vertex 26.9408 50.8 4.5
      vertex 7.0259 27.94 4.5
      vertex 7.04814 27.94 4.5
    endloop
  endfacet
  facet normal 0 -0 1
    outer loop
      vertex 7.0259 27.94 4.5
      vertex 26.9408 50.8 4.5
      vertex 4.08077 27.94 4.5
    endloop
  endfacet
  facet normal 0 0 1
    outer loop
      vertex 13.061 22.86 4.5
      vertex 26.9408 0 4.5
      vertex 31.4309 4.49013 4.5
    endloop
  endfacet
  facet normal -0 0 1
    outer loop
      vertex 7.04814 22.86 4.5
      vertex 26.9408 0 4.5
      vertex 13.061 22.86 4.5
    endloop
  endfacet
  facet normal 0 0 1
    outer loop
      vertex 7.0259 22.86 4.5
      vertex 7.04814 22.86 4.5
      vertex 7.0259 27.94 4.5
    endloop
  endfacet
  facet normal -0 0 1
    outer loop
      vertex 7.0259 22.86 4.5
      vertex 26.9408 0 4.5
      vertex 7.04814 22.86 4.5
    endloop
  endfacet
  facet normal 0 0 1
    outer loop
      vertex 26.9408 0 4.5
      vertex 7.0259 22.86 4.5
      vertex 4.08077 22.86 4.5
    endloop
  endfacet
  facet normal -0.707101 -0.707112 0
    outer loop
      vertex 22.4506 4.49013 1.5
      vertex 26.9408 0 1.5
      vertex 22.4506 4.49013 3
    endloop
  endfacet
  facet normal -0.707108 -0.707106 0
    outer loop
      vertex 22.4506 4.49013 3
      vertex 4.08077 22.86 4.5
      vertex 4.08077 22.86 3
    endloop
  endfacet
  facet normal -0.707106 -0.707107 3.02205e-05
    outer loop
      vertex 22.4506 4.49013 3
      vertex 26.9408 0 4.5
      vertex 4.08077 22.86 4.5
    endloop
  endfacet
  facet normal -0.707101 -0.707112 -0
    outer loop
      vertex 26.9408 0 4.5
      vertex 22.4506 4.49013 3
      vertex 26.9408 0 1.5
    endloop
  endfacet
  facet normal -0.707099 0.707115 0
    outer loop
      vertex 22.4506 46.3099 3
      vertex 26.9408 50.8 1.5
      vertex 22.4506 46.3099 1.5
    endloop
  endfacet
  facet normal -0.707099 0.707115 0
    outer loop
      vertex 26.9408 50.8 1.5
      vertex 22.4506 46.3099 3
      vertex 26.9408 50.8 4.5
    endloop
  endfacet
  facet normal -0.707108 0.707105 0
    outer loop
      vertex 4.08077 27.94 4.5
      vertex 22.4506 46.3099 3
      vertex 4.08077 27.94 3
    endloop
  endfacet
  facet normal -0.707106 0.707107 4.43627e-05
    outer loop
      vertex 22.4506 46.3099 3
      vertex 4.08077 27.94 4.5
      vertex 26.9408 50.8 4.5
    endloop
  endfacet
  facet normal 0.707109 -0.707104 0
    outer loop
      vertex 26.9408 0 4.5
      vertex 31.4309 4.49013 1.5
      vertex 31.4309 4.49013 4.5
    endloop
  endfacet
  facet normal 0.707109 -0.707104 0
    outer loop
      vertex 31.4309 4.49013 1.5
      vertex 26.9408 0 4.5
      vertex 26.9408 0 1.5
    endloop
  endfacet
  facet normal 0.707107 0.707107 0
    outer loop
      vertex 31.4309 46.3099 4.5
      vertex 26.9408 50.8 1.5
      vertex 26.9408 50.8 4.5
    endloop
  endfacet
  facet normal 0.707107 0.707107 0
    outer loop
      vertex 26.9408 50.8 1.5
      vertex 31.4309 46.3099 4.5
      vertex 31.4309 46.3099 1.5
    endloop
  endfacet
  facet normal 0.766045 -0 0.642786
    outer loop
      vertex 22.0238 22.86 11.0307
      vertex 24.9864 27.94 7.5
      vertex 22.0238 27.94 11.0307
    endloop
  endfacet
  facet normal 0.766045 0 0.642786
    outer loop
      vertex 24.9864 27.94 7.5
      vertex 22.0238 22.86 11.0307
      vertex 24.9864 22.86 7.5
    endloop
  endfacet
  facet normal -0.642785 0 0.766047
    outer loop
      vertex 16.0284 27.94 6
      vertex 22.0238 22.86 11.0307
      vertex 22.0238 27.94 11.0307
    endloop
  endfacet
  facet normal -0.642785 0 0.766047
    outer loop
      vertex 22.0238 22.86 11.0307
      vertex 16.0284 27.94 6
      vertex 16.0284 22.86 6
    endloop
  endfacet
  facet normal 0 0 1
    outer loop
      vertex 35.921 50.8 6
      vertex 22.0413 27.94 6
      vertex 40.4112 46.3099 6
    endloop
  endfacet
  facet normal 0 0 1
    outer loop
      vertex 35.921 50.8 6
      vertex 16.0284 27.94 6
      vertex 22.0413 27.94 6
    endloop
  endfacet
  facet normal 0 0 1
    outer loop
      vertex 16.0284 27.94 6
      vertex 16.0062 27.94 6
      vertex 16.0284 22.86 6
    endloop
  endfacet
  facet normal 0 0 1
    outer loop
      vertex 35.921 50.8 6
      vertex 16.0062 27.94 6
      vertex 16.0284 27.94 6
    endloop
  endfacet
  facet normal 0 -0 1
    outer loop
      vertex 16.0062 27.94 6
      vertex 35.921 50.8 6
      vertex 13.061 27.94 6
    endloop
  endfacet
  facet normal 0 0 1
    outer loop
      vertex 22.0413 22.86 6
      vertex 35.921 0 6
      vertex 40.4112 4.49013 6
    endloop
  endfacet
  facet normal -0 0 1
    outer loop
      vertex 16.0284 22.86 6
      vertex 35.921 0 6
      vertex 22.0413 22.86 6
    endloop
  endfacet
  facet normal 0 0 1
    outer loop
      vertex 16.0062 22.86 6
      vertex 16.0284 22.86 6
      vertex 16.0062 27.94 6
    endloop
  endfacet
  facet normal -0 0 1
    outer loop
      vertex 16.0062 22.86 6
      vertex 35.921 0 6
      vertex 16.0284 22.86 6
    endloop
  endfacet
  facet normal 0 0 1
    outer loop
      vertex 35.921 0 6
      vertex 16.0062 22.86 6
      vertex 13.061 22.86 6
    endloop
  endfacet
  facet normal -0.707109 -0.707104 0
    outer loop
      vertex 31.4309 4.49013 1.5
      vertex 35.921 0 1.5
      vertex 31.4309 4.49013 4.5
    endloop
  endfacet
  facet normal -0.707106 -0.707107 0
    outer loop
      vertex 31.4309 4.49013 4.5
      vertex 13.061 22.86 6
      vertex 13.061 22.86 4.5
    endloop
  endfacet
  facet normal -0.707107 -0.707107 -1.41421e-05
    outer loop
      vertex 31.4309 4.49013 4.5
      vertex 35.921 0 6
      vertex 13.061 22.86 6
    endloop
  endfacet
  facet normal -0.707109 -0.707104 -0
    outer loop
      vertex 35.921 0 6
      vertex 31.4309 4.49013 4.5
      vertex 35.921 0 1.5
    endloop
  endfacet
  facet normal -0.707107 0.707107 0
    outer loop
      vertex 31.4309 46.3099 4.5
      vertex 35.921 50.8 1.5
      vertex 31.4309 46.3099 1.5
    endloop
  endfacet
  facet normal -0.707107 0.707107 0
    outer loop
      vertex 35.921 50.8 1.5
      vertex 31.4309 46.3099 4.5
      vertex 35.921 50.8 6
    endloop
  endfacet
  facet normal -0.707107 0.707107 0
    outer loop
      vertex 13.061 27.94 6
      vertex 31.4309 46.3099 4.5
      vertex 13.061 27.94 4.5
    endloop
  endfacet
  facet normal -0.707107 0.707107 -2.93047e-16
    outer loop
      vertex 31.4309 46.3099 4.5
      vertex 13.061 27.94 6
      vertex 35.921 50.8 6
    endloop
  endfacet
  facet normal 0.707101 -0.707112 0
    outer loop
      vertex 35.921 0 6
      vertex 40.4112 4.49013 1.5
      vertex 40.4112 4.49013 6
    endloop
  endfacet
  facet normal 0.707101 -0.707112 0
    outer loop
      vertex 40.4112 4.49013 1.5
      vertex 35.921 0 6
      vertex 35.921 0 1.5
    endloop
  endfacet
  facet normal 0.707099 0.707115 0
    outer loop
      vertex 40.4112 46.3099 6
      vertex 35.921 50.8 1.5
      vertex 35.921 50.8 6
    endloop
  endfacet
  facet normal 0.707099 0.707115 0
    outer loop
      vertex 35.921 50.8 1.5
      vertex 40.4112 46.3099 6
      vertex 40.4112 46.3099 1.5
    endloop
  endfacet
  facet normal 0 0 1
    outer loop
      vertex 44.9013 50.8 7.5
      vertex 28.4815 25.4 7.5
      vertex 49.3914 46.3099 7.5
    endloop
  endfacet
  facet normal 0 0 1
    outer loop
      vertex 44.9013 50.8 7.5
      vertex 24.9864 27.94 7.5
      vertex 28.4815 25.4 7.5
    endloop
  endfacet
  facet normal 0 -0 1
    outer loop
      vertex 24.9864 27.94 7.5
      vertex 44.9013 50.8 7.5
      vertex 22.0413 27.94 7.5
    endloop
  endfacet
  facet normal 0 0 1
    outer loop
      vertex 28.4815 25.4 7.5
      vertex 44.9013 0 7.5
      vertex 49.3914 4.49013 7.5
    endloop
  endfacet
  facet normal 0 0 1
    outer loop
      vertex 24.9864 22.86 7.5
      vertex 28.4815 25.4 7.5
      vertex 24.9864 27.94 7.5
    endloop
  endfacet
  facet normal 0 0 1
    outer loop
      vertex 28.4815 25.4 7.5
      vertex 24.9864 22.86 7.5
      vertex 44.9013 0 7.5
    endloop
  endfacet
  facet normal 0 0 1
    outer loop
      vertex 44.9013 0 7.5
      vertex 24.9864 22.86 7.5
      vertex 22.0413 22.86 7.5
    endloop
  endfacet
  facet normal 0.707107 0.707107 0
    outer loop
      vertex 49.3914 46.3099 7.5
      vertex 44.9013 50.8 1.5
      vertex 44.9013 50.8 7.5
    endloop
  endfacet
  facet normal 0.707107 0.707107 0
    outer loop
      vertex 44.9013 50.8 1.5
      vertex 49.3914 46.3099 7.5
      vertex 49.3914 46.3099 1.5
    endloop
  endfacet
  facet normal -0.707109 -0.707104 0
    outer loop
      vertex 40.4112 4.49013 1.5
      vertex 44.9013 0 1.5
      vertex 40.4112 4.49013 6
    endloop
  endfacet
  facet normal -0.707106 -0.707107 0
    outer loop
      vertex 40.4112 4.49013 6
      vertex 22.0413 22.86 7.5
      vertex 22.0413 22.86 6
    endloop
  endfacet
  facet normal -0.707107 -0.707107 -1.41421e-05
    outer loop
      vertex 40.4112 4.49013 6
      vertex 44.9013 0 7.5
      vertex 22.0413 22.86 7.5
    endloop
  endfacet
  facet normal -0.707109 -0.707104 -0
    outer loop
      vertex 44.9013 0 7.5
      vertex 40.4112 4.49013 6
      vertex 44.9013 0 1.5
    endloop
  endfacet
  facet normal -0.707107 0.707107 0
    outer loop
      vertex 40.4112 46.3099 6
      vertex 44.9013 50.8 1.5
      vertex 40.4112 46.3099 1.5
    endloop
  endfacet
  facet normal -0.707107 0.707107 0
    outer loop
      vertex 44.9013 50.8 1.5
      vertex 40.4112 46.3099 6
      vertex 44.9013 50.8 7.5
    endloop
  endfacet
  facet normal -0.707107 0.707107 0
    outer loop
      vertex 22.0413 27.94 7.5
      vertex 40.4112 46.3099 6
      vertex 22.0413 27.94 6
    endloop
  endfacet
  facet normal -0.707107 0.707107 -2.93047e-16
    outer loop
      vertex 40.4112 46.3099 6
      vertex 22.0413 27.94 7.5
      vertex 44.9013 50.8 7.5
    endloop
  endfacet
  facet normal 0.707109 -0.707104 0
    outer loop
      vertex 44.9013 0 7.5
      vertex 49.3914 4.49013 1.5
      vertex 49.3914 4.49013 7.5
    endloop
  endfacet
  facet normal 0.707109 -0.707104 0
    outer loop
      vertex 49.3914 4.49013 1.5
      vertex 44.9013 0 7.5
      vertex 44.9013 0 1.5
    endloop
  endfacet
  facet normal -1 0 0
    outer loop
      vertex 8.98026 0 0
      vertex 8.98026 4.04417e-08 1.5
      vertex 8.98026 4.04417e-08 0
    endloop
  endfacet
  facet normal -1 -0 0
    outer loop
      vertex 8.98026 4.04417e-08 1.5
      vertex 8.98026 0 0
      vertex 8.98026 0 1.5
    endloop
  endfacet
  facet normal 0 1 -0
    outer loop
      vertex 53.8815 50.8 0
      vertex 44.9013 50.8 1.5
      vertex 53.8815 50.8 1.5
    endloop
  endfacet
  facet normal 0 1 0
    outer loop
      vertex 44.9013 50.8 1.5
      vertex 53.8815 50.8 0
      vertex 35.921 50.8 1.5
    endloop
  endfacet
  facet normal 0 1 0
    outer loop
      vertex 35.921 50.8 1.5
      vertex 53.8815 50.8 0
      vertex 26.9408 50.8 1.5
    endloop
  endfacet
  facet normal 0 1 0
    outer loop
      vertex 8.98026 50.8 0
      vertex 26.9408 50.8 1.5
      vertex 53.8815 50.8 0
    endloop
  endfacet
  facet normal 0 1 0
    outer loop
      vertex 26.9408 50.8 1.5
      vertex 8.98026 50.8 0
      vertex 17.9605 50.8 1.5
    endloop
  endfacet
  facet normal 0 1 0
    outer loop
      vertex 17.9605 50.8 1.5
      vertex 8.98026 50.8 0
      vertex 8.98026 50.8 1.5
    endloop
  endfacet
  facet normal 0 -1 0
    outer loop
      vertex 8.98026 0 0
      vertex 17.9605 0 1.5
      vertex 8.98026 0 1.5
    endloop
  endfacet
  facet normal 0 -1 -0
    outer loop
      vertex 17.9605 0 1.5
      vertex 8.98026 0 0
      vertex 26.9408 0 1.5
    endloop
  endfacet
  facet normal 0 -1 -0
    outer loop
      vertex 26.9408 0 1.5
      vertex 8.98026 0 0
      vertex 35.921 0 1.5
    endloop
  endfacet
  facet normal 0 -1 0
    outer loop
      vertex 53.8815 0 0
      vertex 35.921 0 1.5
      vertex 8.98026 0 0
    endloop
  endfacet
  facet normal 0 -1 0
    outer loop
      vertex 35.921 0 1.5
      vertex 53.8815 0 0
      vertex 44.9013 0 1.5
    endloop
  endfacet
  facet normal 0 -1 0
    outer loop
      vertex 44.9013 0 1.5
      vertex 53.8815 0 0
      vertex 53.8815 0 1.5
    endloop
  endfacet
  facet normal 0.707109 0.707104 0
    outer loop
      vertex 53.8815 0 1.5
      vertex 53.8815 0 0
      vertex 49.3914 4.49013 1.5
    endloop
  endfacet
  facet normal 0.707106 0.707107 -0
    outer loop
      vertex 49.3914 4.49013 1.5
      vertex 28.4815 25.4 7.5
      vertex 49.3914 4.49013 7.5
    endloop
  endfacet
  facet normal 0.707107 0.707107 -1.41421e-05
    outer loop
      vertex 28.4815 25.4 0
      vertex 49.3914 4.49013 1.5
      vertex 53.8815 0 0
    endloop
  endfacet
  facet normal 0.707106 0.707107 0
    outer loop
      vertex 49.3914 4.49013 1.5
      vertex 28.4815 25.4 0
      vertex 28.4815 25.4 7.5
    endloop
  endfacet
  facet normal 0.707107 -0.707107 0
    outer loop
      vertex 28.4815 25.4 7.5
      vertex 49.3914 46.3099 1.5
      vertex 49.3914 46.3099 7.5
    endloop
  endfacet
  facet normal 0.707107 -0.707107 0
    outer loop
      vertex 28.4815 25.4 0
      vertex 49.3914 46.3099 1.5
      vertex 28.4815 25.4 7.5
    endloop
  endfacet
  facet normal 0.707107 -0.707107 3.16491e-15
    outer loop
      vertex 53.8815 50.8 0
      vertex 49.3914 46.3099 1.5
      vertex 28.4815 25.4 0
    endloop
  endfacet
  facet normal 0.707107 -0.707107 0
    outer loop
      vertex 49.3914 46.3099 1.5
      vertex 53.8815 50.8 0
      vertex 53.8815 50.8 1.5
    endloop
  endfacet
endsolid OpenSCAD_Model
