<?xml version="1.0" encoding="UTF-8" standalone="no"?>
<!-- Created with Inkscape (http://www.inkscape.org/) -->

<svg
   width="3in"
   height="3in"
   viewBox="0 0 270 270.00001"
   id="svg4382"
   version="1.1"
   inkscape:version="1.1.1 (c3084ef, 2021-09-22)"
   sodipodi:docname="GibbonPatch.svg"
   xmlns:inkscape="http://www.inkscape.org/namespaces/inkscape"
   xmlns:sodipodi="http://sodipodi.sourceforge.net/DTD/sodipodi-0.dtd"
   xmlns="http://www.w3.org/2000/svg"
   xmlns:svg="http://www.w3.org/2000/svg"
   xmlns:rdf="http://www.w3.org/1999/02/22-rdf-syntax-ns#"
   xmlns:cc="http://creativecommons.org/ns#"
   xmlns:dc="http://purl.org/dc/elements/1.1/">
  <defs
     id="defs4384" />
  <sodipodi:namedview
     id="base"
     pagecolor="#ffffff"
     bordercolor="#666666"
     borderopacity="1.0"
     inkscape:pageopacity="0.0"
     inkscape:pageshadow="2"
     inkscape:zoom="1.4142136"
     inkscape:cx="155.91705"
     inkscape:cy="139.30004"
     inkscape:document-units="px"
     inkscape:current-layer="layer1"
     showgrid="false"
     inkscape:window-width="1312"
     inkscape:window-height="812"
     inkscape:window-x="0"
     inkscape:window-y="25"
     inkscape:window-maximized="0"
     inkscape:pagecheckerboard="0"
     units="in" />
  <metadata
     id="metadata4387">
    <rdf:RDF>
      <cc:Work
         rdf:about="">
        <dc:format>image/svg+xml</dc:format>
        <dc:type
           rdf:resource="http://purl.org/dc/dcmitype/StillImage" />
      </cc:Work>
    </rdf:RDF>
  </metadata>
  <g
     inkscape:label="Layer 1"
     inkscape:groupmode="layer"
     id="layer1">
    <path
       id="path123331"
       style="fill:#ffff00;fill-rule:evenodd;stroke:#fe0000;stroke-width:8;stroke-linecap:butt;stroke-linejoin:miter;stroke-miterlimit:4;stroke-dasharray:none;stroke-opacity:1"
       sodipodi:type="inkscape:offset"
       inkscape:radius="15.556349"
       inkscape:original="M 284.19141 105 C 279.64505 105.00095 275.6048 107.89896 274.14648 112.20508 L 266.51562 134.73828 C 264.26 123.96265 254.61683 115.75781 243.21484 115.75781 L 224.88086 115.75781 C 197.35137 120.72052 197.43437 149.76908 193.29883 170.80859 L 127.01172 224.9082 C 122.919 228.24999 121.90969 234.09432 124.64453 238.61523 L 148.7207 278.41406 C 151.58528 283.15023 157.60995 284.88773 162.55664 282.4043 L 163.26758 282.04883 L 163.03906 307.49609 C 162.98676 313.41624 167.79066 318.23334 173.71094 318.19727 L 306.9082 317.38477 C 314.10005 317.33947 319.16313 310.30196 316.91992 303.46875 L 288.41602 216.73633 L 304.69141 205.04297 C 306.58246 203.68379 307.97368 201.74006 308.65039 199.51172 L 319.03125 165.33789 L 336.27734 165.33789 C 342.13484 165.33689 346.88268 160.58797 346.88281 154.73047 L 346.88281 115.60547 C 346.8816 109.74873 342.13408 105.00121 336.27734 105 L 284.19141 105 z "
       d="m 284.1875,89.443359 c -10.1282,0.0021 -19.28396,5.973246 -23.57227,14.974611 -5.27178,-2.62857 -11.1422,-4.2168 -17.40039,-4.2168 h -18.33398 a 15.557904,15.557904 0 0 0 -2.75977,0.2461 c -18.98273,3.42199 -31.31792,17.86008 -36.37109,31.35156 -4.23245,11.30024 -5.49085,21.95875 -6.85742,30.6875 l -61.7168,50.36914 a 15.557904,15.557904 0 0 0 -0.004,0.004 c -10.00477,8.16909 -12.52327,22.75712 -5.8379,33.80859 l 24.07618,39.79883 c 2.91125,4.81267 7.25495,8.28654 12.16601,10.36718 l -0.0937,10.52149 a 15.557904,15.557904 0 0 0 0,0.004 c -0.12729,14.40916 11.91475,26.48232 26.32422,26.39453 l 133.19727,-0.8125 a 15.557904,15.557904 0 0 0 0.002,0 c 17.2936,-0.10893 30.08938,-17.89295 24.69531,-34.32422 a 15.557904,15.557904 0 0 0 -0.002,-0.006 l -24.94336,-75.89649 7.01172,-5.03906 a 15.557904,15.557904 0 0 0 0.004,0 c 4.6619,-3.35071 8.09505,-8.14933 9.76368,-13.64258 v -0.002 l 7.02929,-23.13672 h 5.71289 a 15.557904,15.557904 0 0 0 0.002,0 c 14.26418,-0.002 26.15984,-11.90054 26.16015,-26.16406 v -39.125 a 15.557904,15.557904 0 0 0 0,-0.002 15.557904,15.557904 0 0 0 0,-0.002 c -0.003,-14.26173 -11.89646,-26.155254 -26.1582,-26.158201 a 15.557904,15.557904 0 0 0 -0.004,0 h -52.08593 a 15.557904,15.557904 0 0 0 -0.004,0 z"
       transform="matrix(0.9375,0,0,0.9375,-88.167378,-66.291262)" />
    <path
       id="path121945"
       style="fill:#ffff00;fill-rule:evenodd;stroke:#fe0000;stroke-width:7.5;stroke-linecap:butt;stroke-linejoin:miter;stroke-miterlimit:4;stroke-dasharray:none;stroke-opacity:1"
       d="m 178.26207,32.146238 c -4.26221,8.91e-4 -8.04995,2.717775 -9.41712,6.754763 l -7.15393,21.124875 C 159.57637,49.923722 150.5359,42.231685 139.84653,42.231685 h -17.1881 C 96.849531,46.884226 96.927343,74.117251 93.050275,93.841791 L 30.906109,144.56018 c -3.836925,3.13292 -4.783153,8.61198 -2.219241,12.85034 l 22.57141,37.3114 c 2.685544,4.44016 8.333672,6.06906 12.971194,3.74085 l 0.666506,-0.33325 -0.214238,23.8568 c -0.04903,5.55014 4.454625,10.06617 10.004888,10.03236 l 124.872432,-0.76172 c 6.74236,-0.0425 11.489,-6.64013 9.38599,-13.04627 l -26.72241,-81.31164 15.25818,-10.96253 c 1.77286,-1.27423 3.07713,-3.09648 3.71154,-5.18554 l 9.73206,-32.03797 h 16.16821 c 5.4914,-9.38e-4 9.9425,-4.45305 9.94263,-9.944456 V 42.088866 c -0.001,-5.490694 -4.45194,-9.941494 -9.94263,-9.942628 z"
       sodipodi:nodetypes="cccscccccccccccccccccccc" />
    <path
       inkscape:connector-curvature="0"
       id="path92847"
       d="m 178.26259,42.089128 -17.75285,52.432 -3.89846,-25.71456 h -48.36787 l -6.15097,30.48855 -64.898978,52.967932 22.57227,37.31287 15.21953,-7.64323 -0.35945,40.14227 124.873188,-0.76101 -28.99889,-88.23705 21.1785,-15.21658 11.87367,-39.091382 h 23.53956 v -36.67981 z"
       style="fill:#000000;fill-rule:evenodd;stroke:#000000;stroke-width:0.456023px;stroke-linecap:butt;stroke-linejoin:miter;stroke-opacity:1"
       sodipodi:nodetypes="cccccccccccccccc" />
    <path
       style="fill:#000000;fill-opacity:1;stroke:#000000;stroke-width:0.570029;stroke-linecap:round;stroke-miterlimit:4;stroke-dasharray:none;stroke-opacity:1"
       d="m 122.65783,54.164138 c -5.75095,0 -10.38077,4.62982 -10.38077,10.38077 v 2.73168 c 0,0.63104 0.0588,1.24785 0.16566,1.84725 0.5365,-0.13803 1.09638,-0.2191 1.67714,-0.2191 h 4.43108 c -0.18257,-0.49774 -0.28501,-1.04367 -0.28501,-1.62815 v -2.73168 c 0,-2.53691 1.85499,-4.3919 4.3919,-4.3919 h 17.18816 c 2.5369,0 4.3919,1.85499 4.3919,4.3919 v 2.73168 c 0,0.58448 -0.10244,1.13041 -0.28502,1.62815 h 6.14652 c 0.0828,-0.53022 0.12737,-1.07397 0.12737,-1.62815 v -2.73168 c 0,-5.75095 -4.62983,-10.38077 -10.38077,-10.38077 z"
       id="path92849"
       inkscape:connector-curvature="0" />
    <path
       id="path92855"
       style="fill:#ff00ff;stroke:#000000;stroke-width:0.431028;stroke-linecap:round;stroke-linejoin:round"
       d="m 199.07189,49.397528 c -6.74969,0.0478 -10.19435,2.08236 -13.02608,5.3841 -3.79096,4.42024 -7.9955,20.06466 -9.52236,28.00436 -1.5269,7.9397 -8.24554,21.376682 -13.43691,25.346532 -5.19132,3.96985 -14.01387,3.28575 -14.01387,3.28575 -0.4049,-1.80491 -0.66611,-3.3884 -0.60788,-4.32031 0.0603,-0.96526 0.33837,-2.24483 0.70141,-3.58969 2.98668,-2.13964 4.614,-4.785462 4.62006,-7.511692 0,-1.68591 -0.62393,-3.35316 -1.82696,-4.89563 0.35757,-0.70152 0.58676,-1.46888 0.65298,-2.27121 l 0.30143,-3.65481 c 0.26385,-3.1987 -2.16205,-5.69918 -5.43922,-5.60705 l -4.53908,0.12776 c -0.57783,0.0162 -1.14138,0.11297 -1.68086,0.27722 -2.78401,-1.04507 -5.86214,-1.59032 -8.98464,-1.59152 -3.03537,0.011 -6.02694,0.53604 -8.745,1.53474 -0.48047,-0.13024 -0.97966,-0.20612 -1.48881,-0.22044 l -4.53825,-0.12776 c -3.27715,-0.0921 -5.70304,2.40835 -5.43921,5.60705 l 0.30144,3.65481 c 0.048,0.58164 0.18222,1.1443 0.38828,1.67752 -0.0338,0.20774 -0.0617,0.41597 -0.0835,0.62459 -1.19421,1.53311 -1.81482,3.18939 -1.82282,4.86473 0.015,2.31838 1.20265,4.585912 3.42268,6.534742 0.15359,1.53655 0.2243,3.15042 0.0827,4.56664 -0.11331,1.13306 -0.3183,2.76452 -0.55528,4.54325 -4.16058,-0.48158 -11.737,-0.97961 -15.807448,1.17735 -7.16705,3.79786 -10.42651,8.81165 -16.02038,15.50519 -4.83196,5.78184 -18.01654,10.36342 -23.11375,14.38294 -3.90343,3.07815 -6.83852,8.11593 -4.33784,16.63328 2.08502,7.10161 6.25005,10.29144 9.28608,11.44038 5.11212,1.9346 10.29938,0.79338 12.56597,-2.17185 1.90933,-2.49784 0.28423,-5.62368 -2.12425,-5.21459 -2.40849,0.40907 -2.38484,1.84791 -5.29893,1.10387 -2.91408,-0.74403 -6.41863,-2.17333 -5.95108,-7.76804 1.07326,-12.84252 14.22217,-12.32266 23.70242,-17.97178 6.1884,-3.68757 4.65183,-5.89757 13.18972,-12.72797 2.481528,-1.98524 9.605158,-2.28069 12.304608,-1.97227 -0.0811,0.8212 -0.13101,1.64686 -0.14946,2.47411 0.0136,4.91783 1.13698,9.72868 3.23814,13.86774 -1.84881,1.99744 -10.4683,11.32685 -14.74784,16.579 -4.750478,5.83014 -9.199418,17.63937 -8.205578,24.83217 0.88353,6.39436 4.73784,13.12462 6.90799,16.51803 h -11.37108 c -3.94056,0 -7.1134,3.172 -7.1134,7.1126 v 0.38909 c 0,3.94055 3.17284,7.11255 7.1134,7.11255 h 25.608728 c 3.94056,0 7.11339,-3.172 7.11339,-7.11255 v -0.38909 c 0,-3.92901 -3.15466,-7.09237 -7.07916,-7.11093 -2.11667,-4.48406 -4.86478,-10.61669 -6.06463,-14.14409 -1.29558,-4.7505 0.43237,-11.01241 3.02355,-15.54695 2.00954,-3.51669 10.47575,-13.71639 14.25017,-18.20809 2.46626,1.28406 5.10744,1.94585 7.77472,1.94806 2.40087,-0.0197 4.78023,-0.57371 7.02906,-1.63661 3.95954,4.72174 12.04993,14.50506 13.98798,17.89664 2.59117,4.53454 4.31913,10.79645 3.02357,15.54695 -0.17762,0.65125 -1.61578,8.1655 -3.37092,14.21677 -3.47362,0.47455 -6.13561,3.43022 -6.13561,7.03825 v 0.38909 c 0,3.94055 3.172,7.11255 7.11255,7.11255 h 25.60872 c 3.94059,0 7.11342,-3.172 7.11342,-7.11255 v -0.38909 c 0,-3.9406 -3.17283,-7.1126 -7.11342,-7.1126 h -15.0075 c 2.17017,-3.39341 6.02448,-10.12367 6.90798,-16.51803 0.99385,-7.1928 -3.45511,-19.00203 -8.2056,-24.83217 -4.03352,-4.95027 -11.56968,-13.13346 -14.10485,-15.87759 2.33398,-4.28716 3.58977,-9.36503 3.60304,-14.56915 -0.0333,-0.61779 -0.0844,-1.23386 -0.15281,-1.84703 0.29902,-0.0193 0.52311,-0.0451 0.83835,-0.0626 5.49668,-0.30538 18.93368,-3.35864 25.34651,-12.21444 6.41283,-8.85581 7.93946,-20.765702 10.38247,-29.316142 3.03173,-10.61114 1.52649,-21.07096 11.29843,-23.81932 5.40452,-1.52002 9.16179,0.61087 10.38325,3.35922 1.2215,2.74836 -1.52723,4.27545 -1.52723,6.71844 0,2.44298 2.7485,2.74847 5.49686,1.22161 2.74832,-1.52687 5.04919,-11.20657 0.42835,-15.91684 -2.27328,-2.31727 -4.39821,-4.54289 -13.254,-5.15365 -1.107,-0.0763 -2.13866,-0.11037 -3.10288,-0.10353 z"
       sodipodi:nodetypes="sssscsccccscccccccssccccscssssssssssscccsscsssssssccscccsscssssssscssccccsssssssss" />
  </g>
</svg>
