solid OpenSCAD_Model
  facet normal -1.37898e-07 0.648119 0.761539
    outer loop
      vertex 188 4.99375 0.75
      vertex 182.125 3.39193 2.11325
      vertex 188 0 5
    endloop
  endfacet
  facet normal 0 0.648119 0.761539
    outer loop
      vertex 182.125 3.39193 2.11325
      vertex 170.375 3.39193 2.11325
      vertex 176.25 0 5
    endloop
  endfacet
  facet normal 0 0.648118 0.76154
    outer loop
      vertex 188 4.99375 0.75
      vertex 170.375 3.39193 2.11325
      vertex 182.125 3.39193 2.11325
    endloop
  endfacet
  facet normal 0 0.648119 0.761539
    outer loop
      vertex 170.375 3.39193 2.11325
      vertex 158.625 3.39193 2.11325
      vertex 164.5 0 5
    endloop
  endfacet
  facet normal 0 0.648118 0.76154
    outer loop
      vertex 188 4.99375 0.75
      vertex 158.625 3.39193 2.11325
      vertex 170.375 3.39193 2.11325
    endloop
  endfacet
  facet normal 0 0.648119 0.761539
    outer loop
      vertex 158.625 3.39193 2.11325
      vertex 146.875 3.39193 2.11325
      vertex 152.75 0 5
    endloop
  endfacet
  facet normal 0 0.648118 0.76154
    outer loop
      vertex 188 4.99375 0.75
      vertex 146.875 3.39193 2.11325
      vertex 158.625 3.39193 2.11325
    endloop
  endfacet
  facet normal 0 0.648119 0.761539
    outer loop
      vertex 146.875 3.39193 2.11325
      vertex 135.125 3.39193 2.11325
      vertex 141 0 5
    endloop
  endfacet
  facet normal 0 0.648118 0.76154
    outer loop
      vertex 188 4.99375 0.75
      vertex 135.125 3.39193 2.11325
      vertex 146.875 3.39193 2.11325
    endloop
  endfacet
  facet normal 0 0.648119 0.761539
    outer loop
      vertex 135.125 3.39193 2.11325
      vertex 123.375 3.39193 2.11325
      vertex 129.25 0 5
    endloop
  endfacet
  facet normal 0 0.648118 0.76154
    outer loop
      vertex 188 4.99375 0.75
      vertex 123.375 3.39193 2.11325
      vertex 135.125 3.39193 2.11325
    endloop
  endfacet
  facet normal 0 0.648119 0.761539
    outer loop
      vertex 123.375 3.39193 2.11325
      vertex 111.625 3.39193 2.11325
      vertex 117.5 0 5
    endloop
  endfacet
  facet normal 0 0.648118 0.76154
    outer loop
      vertex 188 4.99375 0.75
      vertex 111.625 3.39193 2.11325
      vertex 123.375 3.39193 2.11325
    endloop
  endfacet
  facet normal 0 0.648119 0.761539
    outer loop
      vertex 111.625 3.39193 2.11325
      vertex 99.875 3.39193 2.11325
      vertex 105.75 0 5
    endloop
  endfacet
  facet normal 0 0.648118 0.76154
    outer loop
      vertex 188 4.99375 0.75
      vertex 99.875 3.39193 2.11325
      vertex 111.625 3.39193 2.11325
    endloop
  endfacet
  facet normal 0 0.648119 0.761539
    outer loop
      vertex 99.875 3.39193 2.11325
      vertex 88.125 3.39193 2.11325
      vertex 94 0 5
    endloop
  endfacet
  facet normal 0 0.648118 0.76154
    outer loop
      vertex 188 4.99375 0.75
      vertex 88.125 3.39193 2.11325
      vertex 99.875 3.39193 2.11325
    endloop
  endfacet
  facet normal 0 0.648119 0.761539
    outer loop
      vertex 88.125 3.39193 2.11325
      vertex 76.375 3.39193 2.11325
      vertex 82.25 0 5
    endloop
  endfacet
  facet normal 0 0.648118 0.76154
    outer loop
      vertex 188 4.99375 0.75
      vertex 76.375 3.39193 2.11325
      vertex 88.125 3.39193 2.11325
    endloop
  endfacet
  facet normal 0 0.648119 0.761539
    outer loop
      vertex 76.375 3.39193 2.11325
      vertex 64.625 3.39193 2.11325
      vertex 70.5 0 5
    endloop
  endfacet
  facet normal -0 0.648118 0.76154
    outer loop
      vertex 0 4.99375 0.75
      vertex 76.375 3.39193 2.11325
      vertex 188 4.99375 0.75
    endloop
  endfacet
  facet normal 0 0.648119 0.761539
    outer loop
      vertex 64.625 3.39193 2.11325
      vertex 52.875 3.39193 2.11325
      vertex 58.75 0 5
    endloop
  endfacet
  facet normal 0 0.648118 0.76154
    outer loop
      vertex 76.375 3.39193 2.11325
      vertex 0 4.99375 0.75
      vertex 64.625 3.39193 2.11325
    endloop
  endfacet
  facet normal 0 0.648119 0.761539
    outer loop
      vertex 52.875 3.39193 2.11325
      vertex 41.125 3.39193 2.11325
      vertex 47 0 5
    endloop
  endfacet
  facet normal 0 0.648118 0.76154
    outer loop
      vertex 64.625 3.39193 2.11325
      vertex 0 4.99375 0.75
      vertex 52.875 3.39193 2.11325
    endloop
  endfacet
  facet normal 0 0.648119 0.761539
    outer loop
      vertex 41.125 3.39193 2.11325
      vertex 29.375 3.39193 2.11325
      vertex 35.25 0 5
    endloop
  endfacet
  facet normal 0 0.648118 0.76154
    outer loop
      vertex 52.875 3.39193 2.11325
      vertex 0 4.99375 0.75
      vertex 41.125 3.39193 2.11325
    endloop
  endfacet
  facet normal 0 0.648119 0.761539
    outer loop
      vertex 29.375 3.39193 2.11325
      vertex 17.625 3.39193 2.11325
      vertex 23.5 0 5
    endloop
  endfacet
  facet normal 0 0.648118 0.76154
    outer loop
      vertex 41.125 3.39193 2.11325
      vertex 0 4.99375 0.75
      vertex 29.375 3.39193 2.11325
    endloop
  endfacet
  facet normal 0 0.648119 0.761539
    outer loop
      vertex 17.625 3.39193 2.11325
      vertex 5.875 3.39193 2.11325
      vertex 11.75 0 5
    endloop
  endfacet
  facet normal 0 0.648118 0.76154
    outer loop
      vertex 29.375 3.39193 2.11325
      vertex 0 4.99375 0.75
      vertex 17.625 3.39193 2.11325
    endloop
  endfacet
  facet normal 0 0.648118 0.76154
    outer loop
      vertex 17.625 3.39193 2.11325
      vertex 0 4.99375 0.75
      vertex 5.875 3.39193 2.11325
    endloop
  endfacet
  facet normal 1.37898e-07 0.648119 0.761539
    outer loop
      vertex 5.875 3.39193 2.11325
      vertex 0 4.99375 0.75
      vertex 0 0 5
    endloop
  endfacet
  facet normal -0.561288 -0.324059 0.761539
    outer loop
      vertex 0 -10 0.744681
      vertex -1.01036 -10 0
      vertex 0 -11.75 0
    endloop
  endfacet
  facet normal 0.561287 -0.32406 0.761539
    outer loop
      vertex 0 0 5
      vertex 5.875 0.188298 0.75
      vertex 5.875 3.39193 2.11325
    endloop
  endfacet
  facet normal 0.561287 -0.324059 0.761539
    outer loop
      vertex 5.875 0.188298 0.75
      vertex 0 0 5
      vertex 0 -9.9875 0.75
    endloop
  endfacet
  facet normal -0 0 -1
    outer loop
      vertex 189.01 -10 0
      vertex 188 -11.75 0
      vertex 188 -10 0
    endloop
  endfacet
  facet normal 0 0 -1
    outer loop
      vertex 0 -11.75 0
      vertex -1.01036 -10 0
      vertex 0 -10 0
    endloop
  endfacet
  facet normal -0.561287 -0.32406 0.761539
    outer loop
      vertex 5.875 0.188298 0.75
      vertex 11.75 0 5
      vertex 5.875 3.39193 2.11325
    endloop
  endfacet
  facet normal -0.561287 -0.324059 0.761539
    outer loop
      vertex 11.75 0 5
      vertex 5.875 0.188298 0.75
      vertex 11.75 -9.9875 0.75
    endloop
  endfacet
  facet normal 0.561287 -0.32406 0.761539
    outer loop
      vertex 11.75 0 5
      vertex 17.625 0.188298 0.75
      vertex 17.625 3.39193 2.11325
    endloop
  endfacet
  facet normal 0.561287 -0.324059 0.761539
    outer loop
      vertex 17.625 0.188298 0.75
      vertex 11.75 0 5
      vertex 11.75 -9.9875 0.75
    endloop
  endfacet
  facet normal -0.561287 -0.32406 0.761539
    outer loop
      vertex 17.625 0.188298 0.75
      vertex 23.5 0 5
      vertex 17.625 3.39193 2.11325
    endloop
  endfacet
  facet normal -0.561287 -0.324059 0.761539
    outer loop
      vertex 23.5 0 5
      vertex 17.625 0.188298 0.75
      vertex 23.5 -9.9875 0.75
    endloop
  endfacet
  facet normal 0.561287 -0.32406 0.761539
    outer loop
      vertex 23.5 0 5
      vertex 29.375 0.188298 0.75
      vertex 29.375 3.39193 2.11325
    endloop
  endfacet
  facet normal 0.561287 -0.324059 0.761539
    outer loop
      vertex 29.375 0.188298 0.75
      vertex 23.5 0 5
      vertex 23.5 -9.9875 0.75
    endloop
  endfacet
  facet normal -0.561287 -0.32406 0.761539
    outer loop
      vertex 29.375 0.188298 0.75
      vertex 35.25 0 5
      vertex 29.375 3.39193 2.11325
    endloop
  endfacet
  facet normal -0.561287 -0.324059 0.761539
    outer loop
      vertex 35.25 0 5
      vertex 29.375 0.188298 0.75
      vertex 35.25 -9.9875 0.75
    endloop
  endfacet
  facet normal 0.561287 -0.32406 0.761539
    outer loop
      vertex 35.25 0 5
      vertex 41.125 0.188298 0.75
      vertex 41.125 3.39193 2.11325
    endloop
  endfacet
  facet normal 0.561287 -0.324059 0.761539
    outer loop
      vertex 41.125 0.188298 0.75
      vertex 35.25 0 5
      vertex 35.25 -9.9875 0.75
    endloop
  endfacet
  facet normal -0.561287 -0.32406 0.761539
    outer loop
      vertex 41.125 0.188298 0.75
      vertex 47 0 5
      vertex 41.125 3.39193 2.11325
    endloop
  endfacet
  facet normal -0.561287 -0.324059 0.761539
    outer loop
      vertex 47 0 5
      vertex 41.125 0.188298 0.75
      vertex 47 -9.9875 0.75
    endloop
  endfacet
  facet normal 0.561287 -0.32406 0.761539
    outer loop
      vertex 47 0 5
      vertex 52.875 0.188298 0.75
      vertex 52.875 3.39193 2.11325
    endloop
  endfacet
  facet normal 0.561287 -0.324059 0.761539
    outer loop
      vertex 52.875 0.188298 0.75
      vertex 47 0 5
      vertex 47 -9.9875 0.75
    endloop
  endfacet
  facet normal -0.561287 -0.32406 0.761539
    outer loop
      vertex 52.875 0.188298 0.75
      vertex 58.75 0 5
      vertex 52.875 3.39193 2.11325
    endloop
  endfacet
  facet normal -0.561287 -0.324059 0.761539
    outer loop
      vertex 58.75 0 5
      vertex 52.875 0.188298 0.75
      vertex 58.75 -9.9875 0.75
    endloop
  endfacet
  facet normal 0.561287 -0.32406 0.761539
    outer loop
      vertex 58.75 0 5
      vertex 64.625 0.188298 0.75
      vertex 64.625 3.39193 2.11325
    endloop
  endfacet
  facet normal 0.561287 -0.324059 0.761539
    outer loop
      vertex 64.625 0.188298 0.75
      vertex 58.75 0 5
      vertex 58.75 -9.9875 0.75
    endloop
  endfacet
  facet normal -0.561287 -0.32406 0.761539
    outer loop
      vertex 64.625 0.188298 0.75
      vertex 70.5 0 5
      vertex 64.625 3.39193 2.11325
    endloop
  endfacet
  facet normal -0.561287 -0.324059 0.761539
    outer loop
      vertex 70.5 0 5
      vertex 64.625 0.188298 0.75
      vertex 70.5 -9.9875 0.75
    endloop
  endfacet
  facet normal 0.561287 -0.32406 0.761539
    outer loop
      vertex 70.5 0 5
      vertex 76.375 0.188298 0.75
      vertex 76.375 3.39193 2.11325
    endloop
  endfacet
  facet normal 0.561287 -0.324059 0.761539
    outer loop
      vertex 76.375 0.188298 0.75
      vertex 70.5 0 5
      vertex 70.5 -9.9875 0.75
    endloop
  endfacet
  facet normal -0.561287 -0.32406 0.761539
    outer loop
      vertex 76.375 0.188298 0.75
      vertex 82.25 0 5
      vertex 76.375 3.39193 2.11325
    endloop
  endfacet
  facet normal -0.561287 -0.324059 0.761539
    outer loop
      vertex 82.25 0 5
      vertex 76.375 0.188298 0.75
      vertex 82.25 -9.9875 0.75
    endloop
  endfacet
  facet normal 0.561287 -0.32406 0.761539
    outer loop
      vertex 82.25 0 5
      vertex 88.125 0.188298 0.75
      vertex 88.125 3.39193 2.11325
    endloop
  endfacet
  facet normal 0.561287 -0.324059 0.761539
    outer loop
      vertex 88.125 0.188298 0.75
      vertex 82.25 0 5
      vertex 82.25 -9.9875 0.75
    endloop
  endfacet
  facet normal -0.561287 -0.32406 0.761539
    outer loop
      vertex 88.125 0.188298 0.75
      vertex 94 0 5
      vertex 88.125 3.39193 2.11325
    endloop
  endfacet
  facet normal -0.561287 -0.324059 0.761539
    outer loop
      vertex 94 0 5
      vertex 88.125 0.188298 0.75
      vertex 94 -9.9875 0.75
    endloop
  endfacet
  facet normal 0.561287 -0.32406 0.761539
    outer loop
      vertex 94 0 5
      vertex 99.875 0.188298 0.75
      vertex 99.875 3.39193 2.11325
    endloop
  endfacet
  facet normal 0.561287 -0.324059 0.761539
    outer loop
      vertex 99.875 0.188298 0.75
      vertex 94 0 5
      vertex 94 -9.9875 0.75
    endloop
  endfacet
  facet normal -0.561287 -0.32406 0.761539
    outer loop
      vertex 99.875 0.188298 0.75
      vertex 105.75 0 5
      vertex 99.875 3.39193 2.11325
    endloop
  endfacet
  facet normal -0.561287 -0.324059 0.761539
    outer loop
      vertex 105.75 0 5
      vertex 99.875 0.188298 0.75
      vertex 105.75 -9.9875 0.75
    endloop
  endfacet
  facet normal 0.561287 -0.32406 0.761539
    outer loop
      vertex 105.75 0 5
      vertex 111.625 0.188298 0.75
      vertex 111.625 3.39193 2.11325
    endloop
  endfacet
  facet normal 0.561287 -0.324059 0.761539
    outer loop
      vertex 111.625 0.188298 0.75
      vertex 105.75 0 5
      vertex 105.75 -9.9875 0.75
    endloop
  endfacet
  facet normal -0.561287 -0.32406 0.761539
    outer loop
      vertex 111.625 0.188298 0.75
      vertex 117.5 0 5
      vertex 111.625 3.39193 2.11325
    endloop
  endfacet
  facet normal -0.561287 -0.324059 0.761539
    outer loop
      vertex 117.5 0 5
      vertex 111.625 0.188298 0.75
      vertex 117.5 -9.9875 0.75
    endloop
  endfacet
  facet normal 0.561287 -0.32406 0.761539
    outer loop
      vertex 117.5 0 5
      vertex 123.375 0.188298 0.75
      vertex 123.375 3.39193 2.11325
    endloop
  endfacet
  facet normal 0.561287 -0.324059 0.761539
    outer loop
      vertex 123.375 0.188298 0.75
      vertex 117.5 0 5
      vertex 117.5 -9.9875 0.75
    endloop
  endfacet
  facet normal -0.561287 -0.32406 0.761539
    outer loop
      vertex 123.375 0.188298 0.75
      vertex 129.25 0 5
      vertex 123.375 3.39193 2.11325
    endloop
  endfacet
  facet normal -0.561287 -0.324059 0.761539
    outer loop
      vertex 129.25 0 5
      vertex 123.375 0.188298 0.75
      vertex 129.25 -9.9875 0.75
    endloop
  endfacet
  facet normal 0.561287 -0.32406 0.761539
    outer loop
      vertex 129.25 0 5
      vertex 135.125 0.188298 0.75
      vertex 135.125 3.39193 2.11325
    endloop
  endfacet
  facet normal 0.561287 -0.324059 0.761539
    outer loop
      vertex 135.125 0.188298 0.75
      vertex 129.25 0 5
      vertex 129.25 -9.9875 0.75
    endloop
  endfacet
  facet normal -0.561287 -0.32406 0.761539
    outer loop
      vertex 135.125 0.188298 0.75
      vertex 141 0 5
      vertex 135.125 3.39193 2.11325
    endloop
  endfacet
  facet normal -0.561287 -0.324059 0.761539
    outer loop
      vertex 141 0 5
      vertex 135.125 0.188298 0.75
      vertex 141 -9.9875 0.75
    endloop
  endfacet
  facet normal 0.561287 -0.32406 0.761539
    outer loop
      vertex 141 0 5
      vertex 146.875 0.188298 0.75
      vertex 146.875 3.39193 2.11325
    endloop
  endfacet
  facet normal 0.561287 -0.324059 0.761539
    outer loop
      vertex 146.875 0.188298 0.75
      vertex 141 0 5
      vertex 141 -9.9875 0.75
    endloop
  endfacet
  facet normal -0.561287 -0.32406 0.761539
    outer loop
      vertex 146.875 0.188298 0.75
      vertex 152.75 0 5
      vertex 146.875 3.39193 2.11325
    endloop
  endfacet
  facet normal -0.561287 -0.324059 0.761539
    outer loop
      vertex 152.75 0 5
      vertex 146.875 0.188298 0.75
      vertex 152.75 -9.9875 0.75
    endloop
  endfacet
  facet normal 0.561287 -0.32406 0.761539
    outer loop
      vertex 152.75 0 5
      vertex 158.625 0.188298 0.75
      vertex 158.625 3.39193 2.11325
    endloop
  endfacet
  facet normal 0.561287 -0.324059 0.761539
    outer loop
      vertex 158.625 0.188298 0.75
      vertex 152.75 0 5
      vertex 152.75 -9.9875 0.75
    endloop
  endfacet
  facet normal -0.561287 -0.32406 0.761539
    outer loop
      vertex 158.625 0.188298 0.75
      vertex 164.5 0 5
      vertex 158.625 3.39193 2.11325
    endloop
  endfacet
  facet normal -0.561287 -0.324059 0.761539
    outer loop
      vertex 164.5 0 5
      vertex 158.625 0.188298 0.75
      vertex 164.5 -9.9875 0.75
    endloop
  endfacet
  facet normal 0.561287 -0.32406 0.761539
    outer loop
      vertex 164.5 0 5
      vertex 170.375 0.188298 0.75
      vertex 170.375 3.39193 2.11325
    endloop
  endfacet
  facet normal 0.561287 -0.324059 0.761539
    outer loop
      vertex 170.375 0.188298 0.75
      vertex 164.5 0 5
      vertex 164.5 -9.9875 0.75
    endloop
  endfacet
  facet normal -0.561287 -0.32406 0.761539
    outer loop
      vertex 170.375 0.188298 0.75
      vertex 176.25 0 5
      vertex 170.375 3.39193 2.11325
    endloop
  endfacet
  facet normal -0.561287 -0.324059 0.761539
    outer loop
      vertex 176.25 0 5
      vertex 170.375 0.188298 0.75
      vertex 176.25 -9.9875 0.75
    endloop
  endfacet
  facet normal 0.561287 -0.32406 0.761539
    outer loop
      vertex 176.25 0 5
      vertex 182.125 0.188298 0.75
      vertex 182.125 3.39193 2.11325
    endloop
  endfacet
  facet normal 0.561287 -0.324059 0.761539
    outer loop
      vertex 182.125 0.188298 0.75
      vertex 176.25 0 5
      vertex 176.25 -9.9875 0.75
    endloop
  endfacet
  facet normal -0.561287 -0.32406 0.761539
    outer loop
      vertex 182.125 0.188298 0.75
      vertex 188 0 5
      vertex 182.125 3.39193 2.11325
    endloop
  endfacet
  facet normal -0.561287 -0.324059 0.761539
    outer loop
      vertex 188 0 5
      vertex 182.125 0.188298 0.75
      vertex 188 -9.9875 0.75
    endloop
  endfacet
  facet normal 0.561425 -0.324023 0.761453
    outer loop
      vertex 188 -10 0.744681
      vertex 188 -11.75 0
      vertex 189.01 -10 0
    endloop
  endfacet
  facet normal 1 -0 0
    outer loop
      vertex 188 10 0.75
      vertex 188 11.75 -0.75
      vertex 188 11.75 0.75
    endloop
  endfacet
  facet normal 1 0 0
    outer loop
      vertex 188 11.75 -0.75
      vertex 188 10 0.75
      vertex 188 10 -0.75
    endloop
  endfacet
  facet normal 1 -0 0
    outer loop
      vertex 188 -11.75 0.75
      vertex 188 -10 0.744681
      vertex 188 -10 0.75
    endloop
  endfacet
  facet normal 1 0 0
    outer loop
      vertex 188 -10 0.744681
      vertex 188 -11.75 0.75
      vertex 188 -11.75 0
    endloop
  endfacet
  facet normal 1 -0 0
    outer loop
      vertex 188 -11.75 0
      vertex 188 -10 -0.75
      vertex 188 -10 0
    endloop
  endfacet
  facet normal 1 0 0
    outer loop
      vertex 188 -10 -0.75
      vertex 188 -11.75 0
      vertex 188 -11.75 -0.75
    endloop
  endfacet
  facet normal 1 -0 0
    outer loop
      vertex 188 4.99375 0.75
      vertex 188 10 -0.75
      vertex 188 10 0.75
    endloop
  endfacet
  facet normal 1 0 0
    outer loop
      vertex 188 -10 0
      vertex 188 0 5
      vertex 188 -9.9875 0.75
    endloop
  endfacet
  facet normal 1 0 0
    outer loop
      vertex 188 -10 -0.75
      vertex 188 0 5
      vertex 188 -10 0
    endloop
  endfacet
  facet normal 1 0 0
    outer loop
      vertex 188 -10 0.744681
      vertex 188 -9.9875 0.75
      vertex 188 -10 0.75
    endloop
  endfacet
  facet normal 1 0 0
    outer loop
      vertex 188 -10 0
      vertex 188 -9.9875 0.75
      vertex 188 -10 0.744681
    endloop
  endfacet
  facet normal 1 0 0
    outer loop
      vertex 188 0 5
      vertex 188 -10 -0.75
      vertex 188 4.99375 0.75
    endloop
  endfacet
  facet normal 1 0 0
    outer loop
      vertex 188 4.99375 0.75
      vertex 188 -10 -0.75
      vertex 188 10 -0.75
    endloop
  endfacet
  facet normal 0 0 1
    outer loop
      vertex 0 10 0.75
      vertex 188 10 0.75
      vertex 188 11.75 0.75
    endloop
  endfacet
  facet normal 0 0 1
    outer loop
      vertex 0 10 0.75
      vertex 188 11.75 0.75
      vertex 0 11.75 0.75
    endloop
  endfacet
  facet normal 0 0 1
    outer loop
      vertex 188 10 0.75
      vertex 0 10 0.75
      vertex 188 4.99375 0.75
    endloop
  endfacet
  facet normal 0 0 1
    outer loop
      vertex 188 4.99375 0.75
      vertex 0 10 0.75
      vertex 0 4.99375 0.75
    endloop
  endfacet
  facet normal -0 0 1
    outer loop
      vertex 176.25 -9.9875 0.75
      vertex 188 -10 0.75
      vertex 188 -9.9875 0.75
    endloop
  endfacet
  facet normal 0 0 1
    outer loop
      vertex 176.25 -9.9875 0.75
      vertex 188 -9.9875 0.75
      vertex 182.125 0.188298 0.75
    endloop
  endfacet
  facet normal 0 0 1
    outer loop
      vertex 188 -10 0.75
      vertex 176.25 -9.9875 0.75
      vertex 188 -11.75 0.75
    endloop
  endfacet
  facet normal 0 0 1
    outer loop
      vertex 164.5 -9.9875 0.75
      vertex 176.25 -9.9875 0.75
      vertex 170.375 0.188298 0.75
    endloop
  endfacet
  facet normal -0 0 1
    outer loop
      vertex 164.5 -9.9875 0.75
      vertex 188 -11.75 0.75
      vertex 176.25 -9.9875 0.75
    endloop
  endfacet
  facet normal 0 0 1
    outer loop
      vertex 152.75 -9.9875 0.75
      vertex 164.5 -9.9875 0.75
      vertex 158.625 0.188298 0.75
    endloop
  endfacet
  facet normal -0 0 1
    outer loop
      vertex 152.75 -9.9875 0.75
      vertex 188 -11.75 0.75
      vertex 164.5 -9.9875 0.75
    endloop
  endfacet
  facet normal 0 0 1
    outer loop
      vertex 141 -9.9875 0.75
      vertex 152.75 -9.9875 0.75
      vertex 146.875 0.188298 0.75
    endloop
  endfacet
  facet normal -0 0 1
    outer loop
      vertex 141 -9.9875 0.75
      vertex 188 -11.75 0.75
      vertex 152.75 -9.9875 0.75
    endloop
  endfacet
  facet normal 0 0 1
    outer loop
      vertex 129.25 -9.9875 0.75
      vertex 141 -9.9875 0.75
      vertex 135.125 0.188298 0.75
    endloop
  endfacet
  facet normal -0 0 1
    outer loop
      vertex 129.25 -9.9875 0.75
      vertex 188 -11.75 0.75
      vertex 141 -9.9875 0.75
    endloop
  endfacet
  facet normal 0 0 1
    outer loop
      vertex 117.5 -9.9875 0.75
      vertex 129.25 -9.9875 0.75
      vertex 123.375 0.188298 0.75
    endloop
  endfacet
  facet normal -0 0 1
    outer loop
      vertex 117.5 -9.9875 0.75
      vertex 188 -11.75 0.75
      vertex 129.25 -9.9875 0.75
    endloop
  endfacet
  facet normal 0 0 1
    outer loop
      vertex 105.75 -9.9875 0.75
      vertex 117.5 -9.9875 0.75
      vertex 111.625 0.188298 0.75
    endloop
  endfacet
  facet normal -0 0 1
    outer loop
      vertex 105.75 -9.9875 0.75
      vertex 188 -11.75 0.75
      vertex 117.5 -9.9875 0.75
    endloop
  endfacet
  facet normal 0 0 1
    outer loop
      vertex 94 -9.9875 0.75
      vertex 105.75 -9.9875 0.75
      vertex 99.875 0.188298 0.75
    endloop
  endfacet
  facet normal -0 0 1
    outer loop
      vertex 94 -9.9875 0.75
      vertex 188 -11.75 0.75
      vertex 105.75 -9.9875 0.75
    endloop
  endfacet
  facet normal 0 0 1
    outer loop
      vertex 82.25 -9.9875 0.75
      vertex 94 -9.9875 0.75
      vertex 88.125 0.188298 0.75
    endloop
  endfacet
  facet normal -0 0 1
    outer loop
      vertex 82.25 -9.9875 0.75
      vertex 188 -11.75 0.75
      vertex 94 -9.9875 0.75
    endloop
  endfacet
  facet normal 0 0 1
    outer loop
      vertex 70.5 -9.9875 0.75
      vertex 82.25 -9.9875 0.75
      vertex 76.375 0.188298 0.75
    endloop
  endfacet
  facet normal -0 0 1
    outer loop
      vertex 70.5 -9.9875 0.75
      vertex 188 -11.75 0.75
      vertex 82.25 -9.9875 0.75
    endloop
  endfacet
  facet normal 0 0 1
    outer loop
      vertex 58.75 -9.9875 0.75
      vertex 70.5 -9.9875 0.75
      vertex 64.625 0.188298 0.75
    endloop
  endfacet
  facet normal 0 0 1
    outer loop
      vertex 0 -11.75 0.75
      vertex 70.5 -9.9875 0.75
      vertex 58.75 -9.9875 0.75
    endloop
  endfacet
  facet normal 0 0 1
    outer loop
      vertex 47 -9.9875 0.75
      vertex 58.75 -9.9875 0.75
      vertex 52.875 0.188298 0.75
    endloop
  endfacet
  facet normal 0 0 1
    outer loop
      vertex 0 -11.75 0.75
      vertex 58.75 -9.9875 0.75
      vertex 47 -9.9875 0.75
    endloop
  endfacet
  facet normal 0 0 1
    outer loop
      vertex 35.25 -9.9875 0.75
      vertex 47 -9.9875 0.75
      vertex 41.125 0.188298 0.75
    endloop
  endfacet
  facet normal 0 0 1
    outer loop
      vertex 0 -11.75 0.75
      vertex 47 -9.9875 0.75
      vertex 35.25 -9.9875 0.75
    endloop
  endfacet
  facet normal 0 0 1
    outer loop
      vertex 23.5 -9.9875 0.75
      vertex 35.25 -9.9875 0.75
      vertex 29.375 0.188298 0.75
    endloop
  endfacet
  facet normal 0 0 1
    outer loop
      vertex 0 -11.75 0.75
      vertex 35.25 -9.9875 0.75
      vertex 23.5 -9.9875 0.75
    endloop
  endfacet
  facet normal 0 0 1
    outer loop
      vertex 11.75 -9.9875 0.75
      vertex 23.5 -9.9875 0.75
      vertex 17.625 0.188298 0.75
    endloop
  endfacet
  facet normal 0 0 1
    outer loop
      vertex 0 -11.75 0.75
      vertex 23.5 -9.9875 0.75
      vertex 11.75 -9.9875 0.75
    endloop
  endfacet
  facet normal 0 0 1
    outer loop
      vertex 0 -9.9875 0.75
      vertex 11.75 -9.9875 0.75
      vertex 5.875 0.188298 0.75
    endloop
  endfacet
  facet normal 0 0 1
    outer loop
      vertex 0 -10 0.75
      vertex 11.75 -9.9875 0.75
      vertex 0 -9.9875 0.75
    endloop
  endfacet
  facet normal 0 0 1
    outer loop
      vertex 0 -11.75 0.75
      vertex 11.75 -9.9875 0.75
      vertex 0 -10 0.75
    endloop
  endfacet
  facet normal 0 0 1
    outer loop
      vertex 70.5 -9.9875 0.75
      vertex 0 -11.75 0.75
      vertex 188 -11.75 0.75
    endloop
  endfacet
  facet normal 0 0 -1
    outer loop
      vertex 0 -10 -0.75
      vertex 188 -10 -0.75
      vertex 188 -11.75 -0.75
    endloop
  endfacet
  facet normal 0 0 -1
    outer loop
      vertex 188 -10 -0.75
      vertex 0 -10 -0.75
      vertex 188 10 -0.75
    endloop
  endfacet
  facet normal 0 0 -1
    outer loop
      vertex 0 -10 -0.75
      vertex 188 -11.75 -0.75
      vertex 0 -11.75 -0.75
    endloop
  endfacet
  facet normal 0 0 -1
    outer loop
      vertex 0 10 -0.75
      vertex 188 10 -0.75
      vertex 0 -10 -0.75
    endloop
  endfacet
  facet normal 0 0 -1
    outer loop
      vertex 188 10 -0.75
      vertex 0 10 -0.75
      vertex 188 11.75 -0.75
    endloop
  endfacet
  facet normal -0 0 -1
    outer loop
      vertex 188 11.75 -0.75
      vertex 0 10 -0.75
      vertex 0 11.75 -0.75
    endloop
  endfacet
  facet normal -1 0 0
    outer loop
      vertex 0 10 -0.75
      vertex 0 11.75 0.75
      vertex 0 11.75 -0.75
    endloop
  endfacet
  facet normal -1 -0 0
    outer loop
      vertex 0 11.75 0.75
      vertex 0 10 -0.75
      vertex 0 10 0.75
    endloop
  endfacet
  facet normal -1 0 0
    outer loop
      vertex 0 -11.75 0.75
      vertex 0 -10 0.744681
      vertex 0 -11.75 0
    endloop
  endfacet
  facet normal -1 0 0
    outer loop
      vertex 0 -10 0.744681
      vertex 0 -11.75 0.75
      vertex 0 -10 0.75
    endloop
  endfacet
  facet normal -1 0 0
    outer loop
      vertex 0 -11.75 -0.75
      vertex 0 -10 0
      vertex 0 -10 -0.75
    endloop
  endfacet
  facet normal -1 -0 0
    outer loop
      vertex 0 -10 0
      vertex 0 -11.75 -0.75
      vertex 0 -11.75 0
    endloop
  endfacet
  facet normal -1 0 0
    outer loop
      vertex 0 10 -0.75
      vertex 0 4.99375 0.75
      vertex 0 10 0.75
    endloop
  endfacet
  facet normal -1 0 0
    outer loop
      vertex 0 -10 -0.75
      vertex 0 0 5
      vertex 0 4.99375 0.75
    endloop
  endfacet
  facet normal -1 0 0
    outer loop
      vertex 0 -10 -0.75
      vertex 0 4.99375 0.75
      vertex 0 10 -0.75
    endloop
  endfacet
  facet normal -1 0 0
    outer loop
      vertex 0 0 5
      vertex 0 -10 -0.75
      vertex 0 -10 0
    endloop
  endfacet
  facet normal -1 0 0
    outer loop
      vertex 0 0 5
      vertex 0 -10 0
      vertex 0 -9.9875 0.75
    endloop
  endfacet
  facet normal -1 0 0
    outer loop
      vertex 0 -10 0.744681
      vertex 0 -9.9875 0.75
      vertex 0 -10 0
    endloop
  endfacet
  facet normal -1 -0 0
    outer loop
      vertex 0 -9.9875 0.75
      vertex 0 -10 0.744681
      vertex 0 -10 0.75
    endloop
  endfacet
  facet normal 0 1 -0
    outer loop
      vertex 188 11.75 -0.75
      vertex 0 11.75 0.75
      vertex 188 11.75 0.75
    endloop
  endfacet
  facet normal 0 1 0
    outer loop
      vertex 0 11.75 0.75
      vertex 188 11.75 -0.75
      vertex 0 11.75 -0.75
    endloop
  endfacet
  facet normal 0 -1 0
    outer loop
      vertex 0 -11.75 0
      vertex 188 -11.75 0.75
      vertex 0 -11.75 0.75
    endloop
  endfacet
  facet normal 0 -1 0
    outer loop
      vertex 0 -11.75 0
      vertex 188 -11.75 0
      vertex 188 -11.75 0.75
    endloop
  endfacet
  facet normal 0 -1 0
    outer loop
      vertex 0 -11.75 -0.75
      vertex 188 -11.75 0
      vertex 0 -11.75 0
    endloop
  endfacet
  facet normal 0 -1 -0
    outer loop
      vertex 188 -11.75 0
      vertex 0 -11.75 -0.75
      vertex 188 -11.75 -0.75
    endloop
  endfacet
  facet normal 0 1 0
    outer loop
      vertex 0 -10 0.744681
      vertex 0 -10 0
      vertex -1.01036 -10 0
    endloop
  endfacet
  facet normal 0 1 0
    outer loop
      vertex 188 -10 0.744681
      vertex 189.01 -10 0
      vertex 188 -10 0
    endloop
  endfacet
endsolid OpenSCAD_Model
