solid OpenSCAD_Model
  facet normal -0 0 1
    outer loop
      vertex 0 50.8 1.5
      vertex -16.4197 25.4 1.5
      vertex 8.98026 50.8 1.5
    endloop
  endfacet
  facet normal 0 -0 1
    outer loop
      vertex -16.4197 25.4 1.5
      vertex 0 50.8 1.5
      vertex -25.4 25.4 1.5
    endloop
  endfacet
  facet normal 0 0 1
    outer loop
      vertex -16.4197 25.4 1.5
      vertex 0 0 1.5
      vertex 8.98026 0 1.5
    endloop
  endfacet
  facet normal 0 0 1
    outer loop
      vertex 0 0 1.5
      vertex -16.4197 25.4 1.5
      vertex -25.4 25.4 1.5
    endloop
  endfacet
  facet normal 0 0 1
    outer loop
      vertex 17.9605 50.8 1.5
      vertex 8.98026 50.8 1.5
      vertex 13.4704 46.3099 1.5
    endloop
  endfacet
  facet normal 0 0 1
    outer loop
      vertex 26.9408 50.8 1.5
      vertex 17.9605 50.8 1.5
      vertex 22.4506 46.3099 1.5
    endloop
  endfacet
  facet normal 0 0 1
    outer loop
      vertex 35.921 50.8 1.5
      vertex 26.9408 50.8 1.5
      vertex 31.4309 46.3099 1.5
    endloop
  endfacet
  facet normal 0 0 1
    outer loop
      vertex 44.9013 50.8 1.5
      vertex 35.921 50.8 1.5
      vertex 40.4112 46.3099 1.5
    endloop
  endfacet
  facet normal 0 0 1
    outer loop
      vertex 53.8815 50.8 1.5
      vertex 44.9013 50.8 1.5
      vertex 49.3914 46.3099 1.5
    endloop
  endfacet
  facet normal 0 0 1
    outer loop
      vertex 13.4704 4.49013 1.5
      vertex 8.98026 0 1.5
      vertex 17.9605 0 1.5
    endloop
  endfacet
  facet normal 0 0 1
    outer loop
      vertex 22.4506 4.49013 1.5
      vertex 17.9605 0 1.5
      vertex 26.9408 0 1.5
    endloop
  endfacet
  facet normal 0 0 1
    outer loop
      vertex 31.4309 4.49013 1.5
      vertex 26.9408 0 1.5
      vertex 35.921 0 1.5
    endloop
  endfacet
  facet normal 0 0 1
    outer loop
      vertex 40.4112 4.49013 1.5
      vertex 35.921 0 1.5
      vertex 44.9013 0 1.5
    endloop
  endfacet
  facet normal 0 0 1
    outer loop
      vertex 49.3914 4.49013 1.5
      vertex 44.9013 0 1.5
      vertex 53.8815 0 1.5
    endloop
  endfacet
  facet normal -0.707107 -0.707107 0
    outer loop
      vertex 0 0 0
      vertex -25.4 25.4 1.5
      vertex -25.4 25.4 0
    endloop
  endfacet
  facet normal -0.707107 -0.707107 0
    outer loop
      vertex -25.4 25.4 1.5
      vertex 0 0 0
      vertex 0 0 1.5
    endloop
  endfacet
  facet normal -0.707107 0.707107 0
    outer loop
      vertex -25.4 25.4 0
      vertex 0 50.8 1.5
      vertex 0 50.8 0
    endloop
  endfacet
  facet normal -0.707107 0.707107 0
    outer loop
      vertex 0 50.8 1.5
      vertex -25.4 25.4 0
      vertex -25.4 25.4 1.5
    endloop
  endfacet
  facet normal 0 0 -1
    outer loop
      vertex 53.8815 0 0
      vertex 0 0 0
      vertex 28.4815 25.4 0
    endloop
  endfacet
  facet normal 0 0 -1
    outer loop
      vertex 0 50.8 0
      vertex 28.4815 25.4 0
      vertex 0 0 0
    endloop
  endfacet
  facet normal 0 0 -1
    outer loop
      vertex 28.4815 25.4 0
      vertex 0 50.8 0
      vertex 53.8815 50.8 0
    endloop
  endfacet
  facet normal 0 -0 -1
    outer loop
      vertex 0 50.8 0
      vertex 0 0 0
      vertex -25.4 25.4 0
    endloop
  endfacet
  facet normal 0 0 1
    outer loop
      vertex 8.98026 50.8 3
      vertex -7.43949 25.4 3
      vertex 13.4704 46.3099 3
    endloop
  endfacet
  facet normal 0 -0 1
    outer loop
      vertex -7.43949 25.4 3
      vertex 8.98026 50.8 3
      vertex -16.4197 25.4 3
    endloop
  endfacet
  facet normal 0 0 1
    outer loop
      vertex -7.43949 25.4 3
      vertex 8.98026 0 3
      vertex 13.4704 4.49013 3
    endloop
  endfacet
  facet normal 0 0 1
    outer loop
      vertex 8.98026 0 3
      vertex -7.43949 25.4 3
      vertex -16.4197 25.4 3
    endloop
  endfacet
  facet normal 0.707104 0.70711 -0
    outer loop
      vertex 13.4704 46.3099 1.5
      vertex 8.98026 50.8 3
      vertex 13.4704 46.3099 3
    endloop
  endfacet
  facet normal 0.707104 0.70711 0
    outer loop
      vertex 8.98026 50.8 3
      vertex 13.4704 46.3099 1.5
      vertex 8.98026 50.8 1.5
    endloop
  endfacet
  facet normal -0.707107 -0.707106 0
    outer loop
      vertex 8.98026 0 1.5
      vertex -16.4197 25.4 3
      vertex -16.4197 25.4 1.5
    endloop
  endfacet
  facet normal -0.707107 -0.707106 0
    outer loop
      vertex -16.4197 25.4 3
      vertex 8.98026 0 1.5
      vertex 8.98026 0 3
    endloop
  endfacet
  facet normal -0.707107 0.707106 0
    outer loop
      vertex -16.4197 25.4 1.5
      vertex 8.98026 50.8 3
      vertex 8.98026 50.8 1.5
    endloop
  endfacet
  facet normal -0.707107 0.707106 0
    outer loop
      vertex 8.98026 50.8 3
      vertex -16.4197 25.4 1.5
      vertex -16.4197 25.4 3
    endloop
  endfacet
  facet normal 0.707106 -0.707108 0
    outer loop
      vertex 8.98026 0 1.5
      vertex 13.4704 4.49013 3
      vertex 8.98026 0 3
    endloop
  endfacet
  facet normal 0.707106 -0.707108 0
    outer loop
      vertex 13.4704 4.49013 3
      vertex 8.98026 0 1.5
      vertex 13.4704 4.49013 1.5
    endloop
  endfacet
  facet normal 0 0 1
    outer loop
      vertex 17.9605 50.8 4.5
      vertex 1.54077 25.4 4.5
      vertex 22.4506 46.3099 4.5
    endloop
  endfacet
  facet normal 0 -0 1
    outer loop
      vertex 1.54077 25.4 4.5
      vertex 17.9605 50.8 4.5
      vertex -7.43949 25.4 4.5
    endloop
  endfacet
  facet normal 0 0 1
    outer loop
      vertex 1.54077 25.4 4.5
      vertex 17.9605 0 4.5
      vertex 22.4506 4.49013 4.5
    endloop
  endfacet
  facet normal 0 0 1
    outer loop
      vertex 17.9605 0 4.5
      vertex 1.54077 25.4 4.5
      vertex -7.43949 25.4 4.5
    endloop
  endfacet
  facet normal 0.707107 0.707107 0
    outer loop
      vertex 22.4506 46.3099 4.5
      vertex 17.9605 50.8 1.5
      vertex 17.9605 50.8 4.5
    endloop
  endfacet
  facet normal 0.707107 0.707107 0
    outer loop
      vertex 17.9605 50.8 1.5
      vertex 22.4506 46.3099 4.5
      vertex 22.4506 46.3099 1.5
    endloop
  endfacet
  facet normal -0.707109 -0.707104 0
    outer loop
      vertex 13.4704 4.49013 1.5
      vertex 17.9605 0 1.5
      vertex 13.4704 4.49013 3
    endloop
  endfacet
  facet normal -0.707106 -0.707107 0
    outer loop
      vertex 13.4704 4.49013 3
      vertex -7.43949 25.4 4.5
      vertex -7.43949 25.4 3
    endloop
  endfacet
  facet normal -0.707107 -0.707107 -1.33088e-05
    outer loop
      vertex 13.4704 4.49013 3
      vertex 17.9605 0 4.5
      vertex -7.43949 25.4 4.5
    endloop
  endfacet
  facet normal -0.707109 -0.707104 -0
    outer loop
      vertex 17.9605 0 4.5
      vertex 13.4704 4.49013 3
      vertex 17.9605 0 1.5
    endloop
  endfacet
  facet normal -0.707107 0.707107 0
    outer loop
      vertex 13.4704 46.3099 3
      vertex 17.9605 50.8 1.5
      vertex 13.4704 46.3099 1.5
    endloop
  endfacet
  facet normal -0.707107 0.707107 0
    outer loop
      vertex 17.9605 50.8 1.5
      vertex 13.4704 46.3099 3
      vertex 17.9605 50.8 4.5
    endloop
  endfacet
  facet normal -0.707107 0.707107 0
    outer loop
      vertex -7.43949 25.4 4.5
      vertex 13.4704 46.3099 3
      vertex -7.43949 25.4 3
    endloop
  endfacet
  facet normal -0.707107 0.707107 8.33328e-07
    outer loop
      vertex 13.4704 46.3099 3
      vertex -7.43949 25.4 4.5
      vertex 17.9605 50.8 4.5
    endloop
  endfacet
  facet normal 0.707109 -0.707104 0
    outer loop
      vertex 17.9605 0 4.5
      vertex 22.4506 4.49013 1.5
      vertex 22.4506 4.49013 4.5
    endloop
  endfacet
  facet normal 0.707109 -0.707104 0
    outer loop
      vertex 22.4506 4.49013 1.5
      vertex 17.9605 0 4.5
      vertex 17.9605 0 1.5
    endloop
  endfacet
  facet normal 0 0 1
    outer loop
      vertex 26.9408 50.8 6
      vertex 10.521 25.4 6
      vertex 31.4309 46.3099 6
    endloop
  endfacet
  facet normal 0 -0 1
    outer loop
      vertex 10.521 25.4 6
      vertex 26.9408 50.8 6
      vertex 1.54077 25.4 6
    endloop
  endfacet
  facet normal 0 0 1
    outer loop
      vertex 10.521 25.4 6
      vertex 26.9408 0 6
      vertex 31.4309 4.49013 6
    endloop
  endfacet
  facet normal 0 0 1
    outer loop
      vertex 26.9408 0 6
      vertex 10.521 25.4 6
      vertex 1.54077 25.4 6
    endloop
  endfacet
  facet normal 0.707107 0.707107 0
    outer loop
      vertex 31.4309 46.3099 6
      vertex 26.9408 50.8 1.5
      vertex 26.9408 50.8 6
    endloop
  endfacet
  facet normal 0.707107 0.707107 0
    outer loop
      vertex 26.9408 50.8 1.5
      vertex 31.4309 46.3099 6
      vertex 31.4309 46.3099 1.5
    endloop
  endfacet
  facet normal -0.707107 -0.707106 0
    outer loop
      vertex 22.4506 4.49013 4.5
      vertex 1.54077 25.4 6
      vertex 1.54077 25.4 4.5
    endloop
  endfacet
  facet normal -0.707106 -0.707107 3.04983e-05
    outer loop
      vertex 1.54077 25.4 6
      vertex 22.4506 4.49013 4.5
      vertex 26.9408 0 6
    endloop
  endfacet
  facet normal -0.707101 -0.707112 0
    outer loop
      vertex 26.9408 0 1.5
      vertex 22.4506 4.49013 4.5
      vertex 22.4506 4.49013 1.5
    endloop
  endfacet
  facet normal -0.707101 -0.707112 0
    outer loop
      vertex 22.4506 4.49013 4.5
      vertex 26.9408 0 1.5
      vertex 26.9408 0 6
    endloop
  endfacet
  facet normal -0.707106 0.707107 4.46404e-05
    outer loop
      vertex 26.9408 50.8 6
      vertex 22.4506 46.3099 4.5
      vertex 1.54077 25.4 6
    endloop
  endfacet
  facet normal -0.707099 0.707115 0
    outer loop
      vertex 26.9408 50.8 1.5
      vertex 22.4506 46.3099 4.5
      vertex 26.9408 50.8 6
    endloop
  endfacet
  facet normal -0.707099 0.707115 0
    outer loop
      vertex 22.4506 46.3099 4.5
      vertex 26.9408 50.8 1.5
      vertex 22.4506 46.3099 1.5
    endloop
  endfacet
  facet normal -0.707108 0.707106 0
    outer loop
      vertex 1.54077 25.4 6
      vertex 22.4506 46.3099 4.5
      vertex 1.54077 25.4 4.5
    endloop
  endfacet
  facet normal 0.707109 -0.707104 0
    outer loop
      vertex 26.9408 0 6
      vertex 31.4309 4.49013 1.5
      vertex 31.4309 4.49013 6
    endloop
  endfacet
  facet normal 0.707109 -0.707104 0
    outer loop
      vertex 31.4309 4.49013 1.5
      vertex 26.9408 0 6
      vertex 26.9408 0 1.5
    endloop
  endfacet
  facet normal 0 0 1
    outer loop
      vertex 35.921 50.8 7.5
      vertex 19.5013 25.4 7.5
      vertex 40.4112 46.3099 7.5
    endloop
  endfacet
  facet normal 0 -0 1
    outer loop
      vertex 19.5013 25.4 7.5
      vertex 35.921 50.8 7.5
      vertex 10.521 25.4 7.5
    endloop
  endfacet
  facet normal 0 0 1
    outer loop
      vertex 19.5013 25.4 7.5
      vertex 35.921 0 7.5
      vertex 40.4112 4.49013 7.5
    endloop
  endfacet
  facet normal 0 0 1
    outer loop
      vertex 35.921 0 7.5
      vertex 19.5013 25.4 7.5
      vertex 10.521 25.4 7.5
    endloop
  endfacet
  facet normal 0.707099 0.707115 0
    outer loop
      vertex 40.4112 46.3099 7.5
      vertex 35.921 50.8 1.5
      vertex 35.921 50.8 7.5
    endloop
  endfacet
  facet normal 0.707099 0.707115 0
    outer loop
      vertex 35.921 50.8 1.5
      vertex 40.4112 46.3099 7.5
      vertex 40.4112 46.3099 1.5
    endloop
  endfacet
  facet normal -0.707106 -0.707107 0
    outer loop
      vertex 31.4309 4.49013 6
      vertex 10.521 25.4 7.5
      vertex 10.521 25.4 6
    endloop
  endfacet
  facet normal -0.707107 -0.707107 -1.41421e-05
    outer loop
      vertex 10.521 25.4 7.5
      vertex 31.4309 4.49013 6
      vertex 35.921 0 7.5
    endloop
  endfacet
  facet normal -0.707109 -0.707104 0
    outer loop
      vertex 35.921 0 1.5
      vertex 31.4309 4.49013 6
      vertex 31.4309 4.49013 1.5
    endloop
  endfacet
  facet normal -0.707109 -0.707104 0
    outer loop
      vertex 31.4309 4.49013 6
      vertex 35.921 0 1.5
      vertex 35.921 0 7.5
    endloop
  endfacet
  facet normal -0.707107 0.707107 0
    outer loop
      vertex 35.921 50.8 7.5
      vertex 31.4309 46.3099 6
      vertex 10.521 25.4 7.5
    endloop
  endfacet
  facet normal -0.707107 0.707107 0
    outer loop
      vertex 35.921 50.8 1.5
      vertex 31.4309 46.3099 6
      vertex 35.921 50.8 7.5
    endloop
  endfacet
  facet normal -0.707107 0.707107 0
    outer loop
      vertex 31.4309 46.3099 6
      vertex 35.921 50.8 1.5
      vertex 31.4309 46.3099 1.5
    endloop
  endfacet
  facet normal -0.707107 0.707107 0
    outer loop
      vertex 10.521 25.4 7.5
      vertex 31.4309 46.3099 6
      vertex 10.521 25.4 6
    endloop
  endfacet
  facet normal 0.707101 -0.707112 0
    outer loop
      vertex 35.921 0 7.5
      vertex 40.4112 4.49013 1.5
      vertex 40.4112 4.49013 7.5
    endloop
  endfacet
  facet normal 0.707101 -0.707112 0
    outer loop
      vertex 40.4112 4.49013 1.5
      vertex 35.921 0 7.5
      vertex 35.921 0 1.5
    endloop
  endfacet
  facet normal 0 0 1
    outer loop
      vertex 44.9013 50.8 9
      vertex 28.4815 25.4 9
      vertex 49.3914 46.3099 9
    endloop
  endfacet
  facet normal 0 -0 1
    outer loop
      vertex 28.4815 25.4 9
      vertex 44.9013 50.8 9
      vertex 19.5013 25.4 9
    endloop
  endfacet
  facet normal 0 0 1
    outer loop
      vertex 28.4815 25.4 9
      vertex 44.9013 0 9
      vertex 49.3914 4.49013 9
    endloop
  endfacet
  facet normal 0 0 1
    outer loop
      vertex 44.9013 0 9
      vertex 28.4815 25.4 9
      vertex 19.5013 25.4 9
    endloop
  endfacet
  facet normal 0.707107 0.707107 0
    outer loop
      vertex 49.3914 46.3099 9
      vertex 44.9013 50.8 1.5
      vertex 44.9013 50.8 9
    endloop
  endfacet
  facet normal 0.707107 0.707107 0
    outer loop
      vertex 44.9013 50.8 1.5
      vertex 49.3914 46.3099 9
      vertex 49.3914 46.3099 1.5
    endloop
  endfacet
  facet normal -0.707109 -0.707104 0
    outer loop
      vertex 40.4112 4.49013 1.5
      vertex 44.9013 0 1.5
      vertex 40.4112 4.49013 7.5
    endloop
  endfacet
  facet normal -0.707106 -0.707107 0
    outer loop
      vertex 40.4112 4.49013 7.5
      vertex 19.5013 25.4 9
      vertex 19.5013 25.4 7.5
    endloop
  endfacet
  facet normal -0.707107 -0.707107 -1.41421e-05
    outer loop
      vertex 40.4112 4.49013 7.5
      vertex 44.9013 0 9
      vertex 19.5013 25.4 9
    endloop
  endfacet
  facet normal -0.707109 -0.707104 -0
    outer loop
      vertex 44.9013 0 9
      vertex 40.4112 4.49013 7.5
      vertex 44.9013 0 1.5
    endloop
  endfacet
  facet normal -0.707107 0.707107 0
    outer loop
      vertex 40.4112 46.3099 7.5
      vertex 44.9013 50.8 1.5
      vertex 40.4112 46.3099 1.5
    endloop
  endfacet
  facet normal -0.707107 0.707107 0
    outer loop
      vertex 44.9013 50.8 1.5
      vertex 40.4112 46.3099 7.5
      vertex 44.9013 50.8 9
    endloop
  endfacet
  facet normal -0.707107 0.707107 0
    outer loop
      vertex 19.5013 25.4 9
      vertex 40.4112 46.3099 7.5
      vertex 19.5013 25.4 7.5
    endloop
  endfacet
  facet normal -0.707107 0.707107 0
    outer loop
      vertex 40.4112 46.3099 7.5
      vertex 19.5013 25.4 9
      vertex 44.9013 50.8 9
    endloop
  endfacet
  facet normal 0.707109 -0.707104 0
    outer loop
      vertex 44.9013 0 9
      vertex 49.3914 4.49013 1.5
      vertex 49.3914 4.49013 9
    endloop
  endfacet
  facet normal 0.707109 -0.707104 0
    outer loop
      vertex 49.3914 4.49013 1.5
      vertex 44.9013 0 9
      vertex 44.9013 0 1.5
    endloop
  endfacet
  facet normal 0 1 -0
    outer loop
      vertex 53.8815 50.8 0
      vertex 44.9013 50.8 1.5
      vertex 53.8815 50.8 1.5
    endloop
  endfacet
  facet normal 0 1 0
    outer loop
      vertex 44.9013 50.8 1.5
      vertex 53.8815 50.8 0
      vertex 35.921 50.8 1.5
    endloop
  endfacet
  facet normal 0 1 0
    outer loop
      vertex 35.921 50.8 1.5
      vertex 53.8815 50.8 0
      vertex 26.9408 50.8 1.5
    endloop
  endfacet
  facet normal 0 1 0
    outer loop
      vertex 0 50.8 0
      vertex 26.9408 50.8 1.5
      vertex 53.8815 50.8 0
    endloop
  endfacet
  facet normal 0 1 0
    outer loop
      vertex 26.9408 50.8 1.5
      vertex 0 50.8 0
      vertex 17.9605 50.8 1.5
    endloop
  endfacet
  facet normal 0 1 0
    outer loop
      vertex 17.9605 50.8 1.5
      vertex 0 50.8 0
      vertex 8.98026 50.8 1.5
    endloop
  endfacet
  facet normal 0 1 0
    outer loop
      vertex 8.98026 50.8 1.5
      vertex 0 50.8 0
      vertex 0 50.8 1.5
    endloop
  endfacet
  facet normal 0 -1 0
    outer loop
      vertex 0 0 0
      vertex 8.98026 0 1.5
      vertex 0 0 1.5
    endloop
  endfacet
  facet normal 0 -1 -0
    outer loop
      vertex 8.98026 0 1.5
      vertex 0 0 0
      vertex 17.9605 0 1.5
    endloop
  endfacet
  facet normal 0 -1 -0
    outer loop
      vertex 17.9605 0 1.5
      vertex 0 0 0
      vertex 26.9408 0 1.5
    endloop
  endfacet
  facet normal 0 -1 0
    outer loop
      vertex 53.8815 0 0
      vertex 26.9408 0 1.5
      vertex 0 0 0
    endloop
  endfacet
  facet normal 0 -1 0
    outer loop
      vertex 26.9408 0 1.5
      vertex 53.8815 0 0
      vertex 35.921 0 1.5
    endloop
  endfacet
  facet normal 0 -1 0
    outer loop
      vertex 35.921 0 1.5
      vertex 53.8815 0 0
      vertex 44.9013 0 1.5
    endloop
  endfacet
  facet normal 0 -1 0
    outer loop
      vertex 44.9013 0 1.5
      vertex 53.8815 0 0
      vertex 53.8815 0 1.5
    endloop
  endfacet
  facet normal 0.707109 0.707104 0
    outer loop
      vertex 53.8815 0 1.5
      vertex 53.8815 0 0
      vertex 49.3914 4.49013 1.5
    endloop
  endfacet
  facet normal 0.707106 0.707107 -0
    outer loop
      vertex 49.3914 4.49013 1.5
      vertex 28.4815 25.4 9
      vertex 49.3914 4.49013 9
    endloop
  endfacet
  facet normal 0.707106 0.707107 0
    outer loop
      vertex 49.3914 4.49013 1.5
      vertex 28.4815 25.4 0
      vertex 28.4815 25.4 9
    endloop
  endfacet
  facet normal 0.707107 0.707107 -1.41421e-05
    outer loop
      vertex 28.4815 25.4 0
      vertex 49.3914 4.49013 1.5
      vertex 53.8815 0 0
    endloop
  endfacet
  facet normal 0.707107 -0.707107 0
    outer loop
      vertex 28.4815 25.4 9
      vertex 49.3914 46.3099 1.5
      vertex 49.3914 46.3099 9
    endloop
  endfacet
  facet normal 0.707107 -0.707107 0
    outer loop
      vertex 28.4815 25.4 0
      vertex 49.3914 46.3099 1.5
      vertex 28.4815 25.4 9
    endloop
  endfacet
  facet normal 0.707107 -0.707107 3.16491e-15
    outer loop
      vertex 53.8815 50.8 0
      vertex 49.3914 46.3099 1.5
      vertex 28.4815 25.4 0
    endloop
  endfacet
  facet normal 0.707107 -0.707107 0
    outer loop
      vertex 49.3914 46.3099 1.5
      vertex 53.8815 50.8 0
      vertex 53.8815 50.8 1.5
    endloop
  endfacet
endsolid OpenSCAD_Model
