solid OpenSCAD_Model
  facet normal 1 -0 0
    outer loop
      vertex 94.68 -3.945 0.75
      vertex 94.68 3.945 -0.75
      vertex 94.68 3.945 0.75
    endloop
  endfacet
  facet normal 1 0 0
    outer loop
      vertex 94.68 3.945 -0.75
      vertex 94.68 -3.945 0.75
      vertex 94.68 -3.945 -0.75
    endloop
  endfacet
  facet normal -0 0 1
    outer loop
      vertex 0 3.945 0.75
      vertex 94.68 -3.945 0.75
      vertex 94.68 3.945 0.75
    endloop
  endfacet
  facet normal 0 0 1
    outer loop
      vertex 94.68 -3.945 0.75
      vertex 0 3.945 0.75
      vertex 0 -3.945 0.75
    endloop
  endfacet
  facet normal 0 0 -1
    outer loop
      vertex 0 -3.945 -0.75
      vertex 94.68 3.945 -0.75
      vertex 94.68 -3.945 -0.75
    endloop
  endfacet
  facet normal -0 0 -1
    outer loop
      vertex 94.68 3.945 -0.75
      vertex 0 -3.945 -0.75
      vertex 0 3.945 -0.75
    endloop
  endfacet
  facet normal -1 0 0
    outer loop
      vertex 0 -3.945 -0.75
      vertex 0 3.945 0.75
      vertex 0 3.945 -0.75
    endloop
  endfacet
  facet normal -1 -0 0
    outer loop
      vertex 0 3.945 0.75
      vertex 0 -3.945 -0.75
      vertex 0 -3.945 0.75
    endloop
  endfacet
  facet normal 0 1 -0
    outer loop
      vertex 94.68 3.945 -0.75
      vertex 0 3.945 0.75
      vertex 94.68 3.945 0.75
    endloop
  endfacet
  facet normal 0 1 0
    outer loop
      vertex 0 3.945 0.75
      vertex 94.68 3.945 -0.75
      vertex 0 3.945 -0.75
    endloop
  endfacet
  facet normal 0 -1 0
    outer loop
      vertex 0 -3.945 -0.75
      vertex 94.68 -3.945 0.75
      vertex 0 -3.945 0.75
    endloop
  endfacet
  facet normal 0 -1 -0
    outer loop
      vertex 94.68 -3.945 0.75
      vertex 0 -3.945 -0.75
      vertex 94.68 -3.945 -0.75
    endloop
  endfacet
endsolid OpenSCAD_Model
