solid OpenSCAD_Model
  facet normal 0.207629 0.774882 0.597032
    outer loop
      vertex 0 6.54911 1.5
      vertex 5.6341 3.25285 3.81882
      vertex 4.41382 5.36643 1.5
    endloop
  endfacet
  facet normal 0.207628 0.774882 0.597034
    outer loop
      vertex 5.6341 3.25285 3.81882
      vertex 0 6.54911 1.5
      vertex 0 0 10
    endloop
  endfacet
  facet normal 0.774881 -0.207629 0.597034
    outer loop
      vertex 0 0 10
      vertex 3.8909 -3.25285 3.81882
      vertex 5.6341 3.25285 3.81882
    endloop
  endfacet
  facet normal 0.774881 -0.20763 0.597034
    outer loop
      vertex 4.47312 -7.74768 1.5
      vertex 3.8909 -3.25285 3.81882
      vertex 0 0 10
    endloop
  endfacet
  facet normal 0.77488 -0.207631 0.597034
    outer loop
      vertex 3.8909 -3.25285 3.81882
      vertex 4.47312 -7.74768 1.5
      vertex 5.11118 -5.36643 1.5
    endloop
  endfacet
  facet normal -0.207629 -0.774881 0.597033
    outer loop
      vertex 0 0 10
      vertex 0 -6.54911 1.5
      vertex 4.47312 -7.74768 1.5
    endloop
  endfacet
  facet normal 0 0 -1
    outer loop
      vertex 0 -9.525 0
      vertex 94.75 4.92692 0
      vertex 94.75 -9.525 0
    endloop
  endfacet
  facet normal 0 0 -1
    outer loop
      vertex 0 9.525 0
      vertex 94.75 4.92692 0
      vertex 0 -9.525 0
    endloop
  endfacet
  facet normal 0 0 -1
    outer loop
      vertex 94.75 4.92692 0
      vertex 0 9.525 0
      vertex 94.75 5.28659 0
    endloop
  endfacet
  facet normal 0 0 -1
    outer loop
      vertex 94.75 5.28659 0
      vertex 0 9.525 0
      vertex 94.75 9.525 0
    endloop
  endfacet
  facet normal -0 0 -1
    outer loop
      vertex 94.8399 5.2625 0
      vertex 94.75 4.92692 0
      vertex 94.75 5.28659 0
    endloop
  endfacet
  facet normal 0.207626 0.774883 0.597032
    outer loop
      vertex 13.9388 5.36643 1.5
      vertex 9.525 0 10
      vertex 15.1591 3.25285 3.81882
    endloop
  endfacet
  facet normal 0.207629 0.774882 0.597033
    outer loop
      vertex 9.525 0 10
      vertex 13.9388 5.36643 1.5
      vertex 5.05187 7.74768 1.5
    endloop
  endfacet
  facet normal -0.774882 0.207628 0.597033
    outer loop
      vertex 5.6341 3.25285 3.81882
      vertex 5.05187 7.74768 1.5
      vertex 4.41382 5.36643 1.5
    endloop
  endfacet
  facet normal -0.774882 0.207628 0.597033
    outer loop
      vertex 5.6341 3.25285 3.81882
      vertex 9.525 0 10
      vertex 5.05187 7.74768 1.5
    endloop
  endfacet
  facet normal -0.774881 0.207629 0.597034
    outer loop
      vertex 9.525 0 10
      vertex 5.6341 3.25285 3.81882
      vertex 3.8909 -3.25285 3.81882
    endloop
  endfacet
  facet normal 0.774881 -0.207629 0.597034
    outer loop
      vertex 9.525 0 10
      vertex 13.4159 -3.25285 3.81882
      vertex 15.1591 3.25285 3.81882
    endloop
  endfacet
  facet normal 0.774879 -0.207635 0.597035
    outer loop
      vertex 13.9981 -7.74768 1.5
      vertex 13.4159 -3.25285 3.81882
      vertex 9.525 0 10
    endloop
  endfacet
  facet normal 0.77487 -0.207641 0.597045
    outer loop
      vertex 13.4159 -3.25285 3.81882
      vertex 13.9981 -7.74768 1.5
      vertex 14.6362 -5.36643 1.5
    endloop
  endfacet
  facet normal -0.207627 -0.774882 0.597033
    outer loop
      vertex 5.11118 -5.36643 1.5
      vertex 9.525 0 10
      vertex 3.8909 -3.25285 3.81882
    endloop
  endfacet
  facet normal -0.207629 -0.774881 0.597034
    outer loop
      vertex 9.525 0 10
      vertex 5.11118 -5.36643 1.5
      vertex 13.9981 -7.74768 1.5
    endloop
  endfacet
  facet normal 0.207626 0.774883 0.597032
    outer loop
      vertex 23.4638 5.36643 1.5
      vertex 19.05 0 10
      vertex 24.6841 3.25285 3.81882
    endloop
  endfacet
  facet normal 0.20763 0.774881 0.597033
    outer loop
      vertex 19.05 0 10
      vertex 23.4638 5.36643 1.5
      vertex 14.5769 7.74768 1.5
    endloop
  endfacet
  facet normal -0.77487 0.207641 0.597045
    outer loop
      vertex 15.1591 3.25285 3.81882
      vertex 14.5769 7.74768 1.5
      vertex 13.9388 5.36643 1.5
    endloop
  endfacet
  facet normal -0.774879 0.207635 0.597035
    outer loop
      vertex 15.1591 3.25285 3.81882
      vertex 19.05 0 10
      vertex 14.5769 7.74768 1.5
    endloop
  endfacet
  facet normal -0.774881 0.207629 0.597034
    outer loop
      vertex 19.05 0 10
      vertex 15.1591 3.25285 3.81882
      vertex 13.4159 -3.25285 3.81882
    endloop
  endfacet
  facet normal 0.774881 -0.207629 0.597034
    outer loop
      vertex 19.05 0 10
      vertex 22.9409 -3.25285 3.81882
      vertex 24.6841 3.25285 3.81882
    endloop
  endfacet
  facet normal 0.774879 -0.207635 0.597035
    outer loop
      vertex 23.5231 -7.74768 1.5
      vertex 22.9409 -3.25285 3.81882
      vertex 19.05 0 10
    endloop
  endfacet
  facet normal 0.77487 -0.207641 0.597045
    outer loop
      vertex 22.9409 -3.25285 3.81882
      vertex 23.5231 -7.74768 1.5
      vertex 24.1612 -5.36643 1.5
    endloop
  endfacet
  facet normal -0.207626 -0.774883 0.597032
    outer loop
      vertex 14.6362 -5.36643 1.5
      vertex 19.05 0 10
      vertex 13.4159 -3.25285 3.81882
    endloop
  endfacet
  facet normal -0.20763 -0.774881 0.597033
    outer loop
      vertex 19.05 0 10
      vertex 14.6362 -5.36643 1.5
      vertex 23.5231 -7.74768 1.5
    endloop
  endfacet
  facet normal 0.207626 0.774883 0.597032
    outer loop
      vertex 32.9888 5.36643 1.5
      vertex 28.575 0 10
      vertex 34.2091 3.25285 3.81882
    endloop
  endfacet
  facet normal 0.20763 0.774881 0.597033
    outer loop
      vertex 28.575 0 10
      vertex 32.9888 5.36643 1.5
      vertex 24.1019 7.74768 1.5
    endloop
  endfacet
  facet normal -0.77487 0.207641 0.597045
    outer loop
      vertex 24.6841 3.25285 3.81882
      vertex 24.1019 7.74768 1.5
      vertex 23.4638 5.36643 1.5
    endloop
  endfacet
  facet normal -0.774879 0.207635 0.597035
    outer loop
      vertex 24.6841 3.25285 3.81882
      vertex 28.575 0 10
      vertex 24.1019 7.74768 1.5
    endloop
  endfacet
  facet normal -0.774881 0.207629 0.597034
    outer loop
      vertex 28.575 0 10
      vertex 24.6841 3.25285 3.81882
      vertex 22.9409 -3.25285 3.81882
    endloop
  endfacet
  facet normal 0.774881 -0.207629 0.597034
    outer loop
      vertex 28.575 0 10
      vertex 32.4659 -3.25285 3.81882
      vertex 34.2091 3.25285 3.81882
    endloop
  endfacet
  facet normal 0.774879 -0.207635 0.597035
    outer loop
      vertex 33.0481 -7.74768 1.5
      vertex 32.4659 -3.25285 3.81882
      vertex 28.575 0 10
    endloop
  endfacet
  facet normal 0.77487 -0.207641 0.597045
    outer loop
      vertex 32.4659 -3.25285 3.81882
      vertex 33.0481 -7.74768 1.5
      vertex 33.6862 -5.36643 1.5
    endloop
  endfacet
  facet normal -0.207626 -0.774883 0.597032
    outer loop
      vertex 24.1612 -5.36643 1.5
      vertex 28.575 0 10
      vertex 22.9409 -3.25285 3.81882
    endloop
  endfacet
  facet normal -0.20763 -0.774881 0.597033
    outer loop
      vertex 28.575 0 10
      vertex 24.1612 -5.36643 1.5
      vertex 33.0481 -7.74768 1.5
    endloop
  endfacet
  facet normal 0.207626 0.774883 0.597032
    outer loop
      vertex 42.5138 5.36643 1.5
      vertex 38.1 0 10
      vertex 43.7341 3.25285 3.81882
    endloop
  endfacet
  facet normal 0.20763 0.774881 0.597033
    outer loop
      vertex 38.1 0 10
      vertex 42.5138 5.36643 1.5
      vertex 33.6269 7.74768 1.5
    endloop
  endfacet
  facet normal -0.77487 0.207641 0.597045
    outer loop
      vertex 34.2091 3.25285 3.81882
      vertex 33.6269 7.74768 1.5
      vertex 32.9888 5.36643 1.5
    endloop
  endfacet
  facet normal -0.774879 0.207635 0.597035
    outer loop
      vertex 34.2091 3.25285 3.81882
      vertex 38.1 0 10
      vertex 33.6269 7.74768 1.5
    endloop
  endfacet
  facet normal -0.774881 0.207629 0.597034
    outer loop
      vertex 38.1 0 10
      vertex 34.2091 3.25285 3.81882
      vertex 32.4659 -3.25285 3.81882
    endloop
  endfacet
  facet normal 0.774881 -0.207629 0.597034
    outer loop
      vertex 38.1 0 10
      vertex 41.9909 -3.25285 3.81882
      vertex 43.7341 3.25285 3.81882
    endloop
  endfacet
  facet normal 0.774879 -0.207635 0.597035
    outer loop
      vertex 42.5731 -7.74768 1.5
      vertex 41.9909 -3.25285 3.81882
      vertex 38.1 0 10
    endloop
  endfacet
  facet normal 0.77487 -0.207641 0.597045
    outer loop
      vertex 41.9909 -3.25285 3.81882
      vertex 42.5731 -7.74768 1.5
      vertex 43.2112 -5.36643 1.5
    endloop
  endfacet
  facet normal -0.207626 -0.774883 0.597032
    outer loop
      vertex 33.6862 -5.36643 1.5
      vertex 38.1 0 10
      vertex 32.4659 -3.25285 3.81882
    endloop
  endfacet
  facet normal -0.20763 -0.774881 0.597033
    outer loop
      vertex 38.1 0 10
      vertex 33.6862 -5.36643 1.5
      vertex 42.5731 -7.74768 1.5
    endloop
  endfacet
  facet normal 0.207626 0.774883 0.597032
    outer loop
      vertex 52.0388 5.36643 1.5
      vertex 47.625 0 10
      vertex 53.2591 3.25285 3.81882
    endloop
  endfacet
  facet normal 0.20763 0.774881 0.597033
    outer loop
      vertex 47.625 0 10
      vertex 52.0388 5.36643 1.5
      vertex 43.1519 7.74768 1.5
    endloop
  endfacet
  facet normal -0.77487 0.207641 0.597045
    outer loop
      vertex 43.7341 3.25285 3.81882
      vertex 43.1519 7.74768 1.5
      vertex 42.5138 5.36643 1.5
    endloop
  endfacet
  facet normal -0.774879 0.207635 0.597035
    outer loop
      vertex 43.7341 3.25285 3.81882
      vertex 47.625 0 10
      vertex 43.1519 7.74768 1.5
    endloop
  endfacet
  facet normal -0.774881 0.207629 0.597034
    outer loop
      vertex 47.625 0 10
      vertex 43.7341 3.25285 3.81882
      vertex 41.9909 -3.25285 3.81882
    endloop
  endfacet
  facet normal 0.774881 -0.207629 0.597034
    outer loop
      vertex 47.625 0 10
      vertex 51.5159 -3.25285 3.81882
      vertex 53.2591 3.25285 3.81882
    endloop
  endfacet
  facet normal 0.774879 -0.207635 0.597035
    outer loop
      vertex 52.0981 -7.74768 1.5
      vertex 51.5159 -3.25285 3.81882
      vertex 47.625 0 10
    endloop
  endfacet
  facet normal 0.77487 -0.207641 0.597045
    outer loop
      vertex 51.5159 -3.25285 3.81882
      vertex 52.0981 -7.74768 1.5
      vertex 52.7362 -5.36643 1.5
    endloop
  endfacet
  facet normal -0.207626 -0.774883 0.597032
    outer loop
      vertex 43.2112 -5.36643 1.5
      vertex 47.625 0 10
      vertex 41.9909 -3.25285 3.81882
    endloop
  endfacet
  facet normal -0.20763 -0.774881 0.597033
    outer loop
      vertex 47.625 0 10
      vertex 43.2112 -5.36643 1.5
      vertex 52.0981 -7.74768 1.5
    endloop
  endfacet
  facet normal 0.207626 0.774883 0.597032
    outer loop
      vertex 61.5638 5.36643 1.5
      vertex 57.15 0 10
      vertex 62.7841 3.25285 3.81882
    endloop
  endfacet
  facet normal 0.20763 0.774881 0.597033
    outer loop
      vertex 57.15 0 10
      vertex 61.5638 5.36643 1.5
      vertex 52.6769 7.74768 1.5
    endloop
  endfacet
  facet normal -0.77487 0.207641 0.597045
    outer loop
      vertex 53.2591 3.25285 3.81882
      vertex 52.6769 7.74768 1.5
      vertex 52.0388 5.36643 1.5
    endloop
  endfacet
  facet normal -0.774879 0.207635 0.597035
    outer loop
      vertex 53.2591 3.25285 3.81882
      vertex 57.15 0 10
      vertex 52.6769 7.74768 1.5
    endloop
  endfacet
  facet normal -0.774881 0.207629 0.597034
    outer loop
      vertex 57.15 0 10
      vertex 53.2591 3.25285 3.81882
      vertex 51.5159 -3.25285 3.81882
    endloop
  endfacet
  facet normal 0.774881 -0.207629 0.597034
    outer loop
      vertex 57.15 0 10
      vertex 61.0409 -3.25285 3.81882
      vertex 62.7841 3.25285 3.81882
    endloop
  endfacet
  facet normal 0.774879 -0.207635 0.597035
    outer loop
      vertex 61.6231 -7.74768 1.5
      vertex 61.0409 -3.25285 3.81882
      vertex 57.15 0 10
    endloop
  endfacet
  facet normal 0.77487 -0.207641 0.597045
    outer loop
      vertex 61.0409 -3.25285 3.81882
      vertex 61.6231 -7.74768 1.5
      vertex 62.2612 -5.36643 1.5
    endloop
  endfacet
  facet normal -0.207626 -0.774883 0.597032
    outer loop
      vertex 52.7362 -5.36643 1.5
      vertex 57.15 0 10
      vertex 51.5159 -3.25285 3.81882
    endloop
  endfacet
  facet normal -0.20763 -0.774881 0.597033
    outer loop
      vertex 57.15 0 10
      vertex 52.7362 -5.36643 1.5
      vertex 61.6231 -7.74768 1.5
    endloop
  endfacet
  facet normal 0.207626 0.774883 0.597032
    outer loop
      vertex 71.0888 5.36643 1.5
      vertex 66.675 0 10
      vertex 72.3091 3.25285 3.81882
    endloop
  endfacet
  facet normal 0.20763 0.774881 0.597033
    outer loop
      vertex 66.675 0 10
      vertex 71.0888 5.36643 1.5
      vertex 62.2019 7.74768 1.5
    endloop
  endfacet
  facet normal -0.77487 0.207641 0.597045
    outer loop
      vertex 62.7841 3.25285 3.81882
      vertex 62.2019 7.74768 1.5
      vertex 61.5638 5.36643 1.5
    endloop
  endfacet
  facet normal -0.774879 0.207635 0.597035
    outer loop
      vertex 62.7841 3.25285 3.81882
      vertex 66.675 0 10
      vertex 62.2019 7.74768 1.5
    endloop
  endfacet
  facet normal -0.774881 0.207629 0.597034
    outer loop
      vertex 66.675 0 10
      vertex 62.7841 3.25285 3.81882
      vertex 61.0409 -3.25285 3.81882
    endloop
  endfacet
  facet normal 0.774881 -0.207629 0.597034
    outer loop
      vertex 66.675 0 10
      vertex 70.5659 -3.25285 3.81882
      vertex 72.3091 3.25285 3.81882
    endloop
  endfacet
  facet normal 0.774879 -0.207635 0.597035
    outer loop
      vertex 71.1481 -7.74768 1.5
      vertex 70.5659 -3.25285 3.81882
      vertex 66.675 0 10
    endloop
  endfacet
  facet normal 0.77487 -0.207641 0.597045
    outer loop
      vertex 70.5659 -3.25285 3.81882
      vertex 71.1481 -7.74768 1.5
      vertex 71.7862 -5.36643 1.5
    endloop
  endfacet
  facet normal -0.207626 -0.774883 0.597032
    outer loop
      vertex 62.2612 -5.36643 1.5
      vertex 66.675 0 10
      vertex 61.0409 -3.25285 3.81882
    endloop
  endfacet
  facet normal -0.20763 -0.774881 0.597033
    outer loop
      vertex 66.675 0 10
      vertex 62.2612 -5.36643 1.5
      vertex 71.1481 -7.74768 1.5
    endloop
  endfacet
  facet normal 0.207626 0.774883 0.597032
    outer loop
      vertex 80.6138 5.36643 1.5
      vertex 76.2 0 10
      vertex 81.8341 3.25285 3.81882
    endloop
  endfacet
  facet normal 0.20763 0.774881 0.597033
    outer loop
      vertex 76.2 0 10
      vertex 80.6138 5.36643 1.5
      vertex 71.7269 7.74768 1.5
    endloop
  endfacet
  facet normal -0.77487 0.207641 0.597045
    outer loop
      vertex 72.3091 3.25285 3.81882
      vertex 71.7269 7.74768 1.5
      vertex 71.0888 5.36643 1.5
    endloop
  endfacet
  facet normal -0.774879 0.207635 0.597035
    outer loop
      vertex 72.3091 3.25285 3.81882
      vertex 76.2 0 10
      vertex 71.7269 7.74768 1.5
    endloop
  endfacet
  facet normal -0.774881 0.207629 0.597034
    outer loop
      vertex 76.2 0 10
      vertex 72.3091 3.25285 3.81882
      vertex 70.5659 -3.25285 3.81882
    endloop
  endfacet
  facet normal 0.774881 -0.207629 0.597034
    outer loop
      vertex 76.2 0 10
      vertex 80.0909 -3.25285 3.81882
      vertex 81.8341 3.25285 3.81882
    endloop
  endfacet
  facet normal 0.774879 -0.207635 0.597035
    outer loop
      vertex 80.6731 -7.74768 1.5
      vertex 80.0909 -3.25285 3.81882
      vertex 76.2 0 10
    endloop
  endfacet
  facet normal 0.77487 -0.207641 0.597045
    outer loop
      vertex 80.0909 -3.25285 3.81882
      vertex 80.6731 -7.74768 1.5
      vertex 81.3112 -5.36643 1.5
    endloop
  endfacet
  facet normal -0.207626 -0.774883 0.597032
    outer loop
      vertex 71.7862 -5.36643 1.5
      vertex 76.2 0 10
      vertex 70.5659 -3.25285 3.81882
    endloop
  endfacet
  facet normal -0.20763 -0.774881 0.597033
    outer loop
      vertex 76.2 0 10
      vertex 71.7862 -5.36643 1.5
      vertex 80.6731 -7.74768 1.5
    endloop
  endfacet
  facet normal 0.207647 0.774905 0.596997
    outer loop
      vertex 94.75 5.28659 0
      vertex 94.75 5.21059 0.0986484
      vertex 94.8399 5.2625 0
    endloop
  endfacet
  facet normal 0.207629 0.774881 0.597034
    outer loop
      vertex 93.4727 4.47312 1.5
      vertex 81.2519 7.74768 1.5
      vertex 85.725 0 10
    endloop
  endfacet
  facet normal -0.77487 0.207641 0.597045
    outer loop
      vertex 81.8341 3.25285 3.81882
      vertex 81.2519 7.74768 1.5
      vertex 80.6138 5.36643 1.5
    endloop
  endfacet
  facet normal -0.774879 0.207635 0.597035
    outer loop
      vertex 81.8341 3.25285 3.81882
      vertex 85.725 0 10
      vertex 81.2519 7.74768 1.5
    endloop
  endfacet
  facet normal -0.774881 0.207629 0.597034
    outer loop
      vertex 85.725 0 10
      vertex 81.8341 3.25285 3.81882
      vertex 80.0909 -3.25285 3.81882
    endloop
  endfacet
  facet normal 0.774937 -0.207601 0.596971
    outer loop
      vertex 94.75 5.21059 0.0986484
      vertex 94.75 4.92692 0
      vertex 94.8399 5.2625 0
    endloop
  endfacet
  facet normal 0.774881 -0.207632 0.597033
    outer loop
      vertex 93.4727 4.47312 1.5
      vertex 85.725 0 10
      vertex 90.1981 -7.74768 1.5
    endloop
  endfacet
  facet normal -0.207626 -0.774883 0.597032
    outer loop
      vertex 81.3112 -5.36643 1.5
      vertex 85.725 0 10
      vertex 80.0909 -3.25285 3.81882
    endloop
  endfacet
  facet normal -0.20763 -0.774881 0.597033
    outer loop
      vertex 85.725 0 10
      vertex 81.3112 -5.36643 1.5
      vertex 90.1981 -7.74768 1.5
    endloop
  endfacet
  facet normal 1 0 0
    outer loop
      vertex 94.75 9.525 1.5
      vertex 94.75 5.28659 0
      vertex 94.75 9.525 0
    endloop
  endfacet
  facet normal 1 0 0
    outer loop
      vertex 94.75 9.525 1.5
      vertex 94.75 5.21059 0.0986484
      vertex 94.75 5.28659 0
    endloop
  endfacet
  facet normal 1 -0 0
    outer loop
      vertex 94.75 -9.525 1.5
      vertex 94.75 5.21059 0.0986484
      vertex 94.75 9.525 1.5
    endloop
  endfacet
  facet normal 1 0 0
    outer loop
      vertex 94.75 -9.525 1.5
      vertex 94.75 4.92692 0
      vertex 94.75 5.21059 0.0986484
    endloop
  endfacet
  facet normal 1 0 0
    outer loop
      vertex 94.75 4.92692 0
      vertex 94.75 -9.525 1.5
      vertex 94.75 -9.525 0
    endloop
  endfacet
  facet normal 0 0 1
    outer loop
      vertex 94.75 9.525 1.5
      vertex 93.4727 4.47312 1.5
      vertex 94.75 -9.525 1.5
    endloop
  endfacet
  facet normal 0 0 1
    outer loop
      vertex 94.75 9.525 1.5
      vertex 81.2519 7.74768 1.5
      vertex 93.4727 4.47312 1.5
    endloop
  endfacet
  facet normal 0 0 1
    outer loop
      vertex 81.2519 7.74768 1.5
      vertex 71.7269 7.74768 1.5
      vertex 80.6138 5.36643 1.5
    endloop
  endfacet
  facet normal 0 0 1
    outer loop
      vertex 94.75 9.525 1.5
      vertex 71.7269 7.74768 1.5
      vertex 81.2519 7.74768 1.5
    endloop
  endfacet
  facet normal 0 0 1
    outer loop
      vertex 71.7269 7.74768 1.5
      vertex 62.2019 7.74768 1.5
      vertex 71.0888 5.36643 1.5
    endloop
  endfacet
  facet normal 0 0 1
    outer loop
      vertex 94.75 9.525 1.5
      vertex 62.2019 7.74768 1.5
      vertex 71.7269 7.74768 1.5
    endloop
  endfacet
  facet normal 0 0 1
    outer loop
      vertex 62.2019 7.74768 1.5
      vertex 52.6769 7.74768 1.5
      vertex 61.5638 5.36643 1.5
    endloop
  endfacet
  facet normal 0 0 1
    outer loop
      vertex 94.75 9.525 1.5
      vertex 52.6769 7.74768 1.5
      vertex 62.2019 7.74768 1.5
    endloop
  endfacet
  facet normal 0 0 1
    outer loop
      vertex 52.6769 7.74768 1.5
      vertex 43.1519 7.74768 1.5
      vertex 52.0388 5.36643 1.5
    endloop
  endfacet
  facet normal 0 0 1
    outer loop
      vertex 94.75 9.525 1.5
      vertex 43.1519 7.74768 1.5
      vertex 52.6769 7.74768 1.5
    endloop
  endfacet
  facet normal 0 0 1
    outer loop
      vertex 43.1519 7.74768 1.5
      vertex 33.6269 7.74768 1.5
      vertex 42.5138 5.36643 1.5
    endloop
  endfacet
  facet normal -0 0 1
    outer loop
      vertex 0 9.525 1.5
      vertex 43.1519 7.74768 1.5
      vertex 94.75 9.525 1.5
    endloop
  endfacet
  facet normal 0 0 1
    outer loop
      vertex 33.6269 7.74768 1.5
      vertex 24.1019 7.74768 1.5
      vertex 32.9888 5.36643 1.5
    endloop
  endfacet
  facet normal 0 0 1
    outer loop
      vertex 43.1519 7.74768 1.5
      vertex 0 9.525 1.5
      vertex 33.6269 7.74768 1.5
    endloop
  endfacet
  facet normal 0 0 1
    outer loop
      vertex 24.1019 7.74768 1.5
      vertex 14.5769 7.74768 1.5
      vertex 23.4638 5.36643 1.5
    endloop
  endfacet
  facet normal 0 0 1
    outer loop
      vertex 33.6269 7.74768 1.5
      vertex 0 9.525 1.5
      vertex 24.1019 7.74768 1.5
    endloop
  endfacet
  facet normal 0 0 1
    outer loop
      vertex 14.5769 7.74768 1.5
      vertex 5.05187 7.74768 1.5
      vertex 13.9388 5.36643 1.5
    endloop
  endfacet
  facet normal 0 0 1
    outer loop
      vertex 24.1019 7.74768 1.5
      vertex 0 9.525 1.5
      vertex 14.5769 7.74768 1.5
    endloop
  endfacet
  facet normal 0 0 1
    outer loop
      vertex 14.5769 7.74768 1.5
      vertex 0 9.525 1.5
      vertex 5.05187 7.74768 1.5
    endloop
  endfacet
  facet normal 0 0 1
    outer loop
      vertex 0 6.54911 1.5
      vertex 5.05187 7.74768 1.5
      vertex 0 9.525 1.5
    endloop
  endfacet
  facet normal 0 0 1
    outer loop
      vertex 5.05187 7.74768 1.5
      vertex 0 6.54911 1.5
      vertex 4.41382 5.36643 1.5
    endloop
  endfacet
  facet normal -0 0 1
    outer loop
      vertex 90.1981 -7.74768 1.5
      vertex 94.75 -9.525 1.5
      vertex 93.4727 4.47312 1.5
    endloop
  endfacet
  facet normal 0 0 1
    outer loop
      vertex 80.6731 -7.74768 1.5
      vertex 90.1981 -7.74768 1.5
      vertex 81.3112 -5.36643 1.5
    endloop
  endfacet
  facet normal 0 0 1
    outer loop
      vertex 90.1981 -7.74768 1.5
      vertex 80.6731 -7.74768 1.5
      vertex 94.75 -9.525 1.5
    endloop
  endfacet
  facet normal 0 0 1
    outer loop
      vertex 71.1481 -7.74768 1.5
      vertex 80.6731 -7.74768 1.5
      vertex 71.7862 -5.36643 1.5
    endloop
  endfacet
  facet normal -0 0 1
    outer loop
      vertex 71.1481 -7.74768 1.5
      vertex 94.75 -9.525 1.5
      vertex 80.6731 -7.74768 1.5
    endloop
  endfacet
  facet normal 0 0 1
    outer loop
      vertex 61.6231 -7.74768 1.5
      vertex 71.1481 -7.74768 1.5
      vertex 62.2612 -5.36643 1.5
    endloop
  endfacet
  facet normal -0 0 1
    outer loop
      vertex 61.6231 -7.74768 1.5
      vertex 94.75 -9.525 1.5
      vertex 71.1481 -7.74768 1.5
    endloop
  endfacet
  facet normal 0 0 1
    outer loop
      vertex 52.0981 -7.74768 1.5
      vertex 61.6231 -7.74768 1.5
      vertex 52.7362 -5.36643 1.5
    endloop
  endfacet
  facet normal -0 0 1
    outer loop
      vertex 52.0981 -7.74768 1.5
      vertex 94.75 -9.525 1.5
      vertex 61.6231 -7.74768 1.5
    endloop
  endfacet
  facet normal 0 0 1
    outer loop
      vertex 42.5731 -7.74768 1.5
      vertex 52.0981 -7.74768 1.5
      vertex 43.2112 -5.36643 1.5
    endloop
  endfacet
  facet normal -0 0 1
    outer loop
      vertex 42.5731 -7.74768 1.5
      vertex 94.75 -9.525 1.5
      vertex 52.0981 -7.74768 1.5
    endloop
  endfacet
  facet normal 0 0 1
    outer loop
      vertex 33.0481 -7.74768 1.5
      vertex 42.5731 -7.74768 1.5
      vertex 33.6862 -5.36643 1.5
    endloop
  endfacet
  facet normal 0 0 1
    outer loop
      vertex 0 -9.525 1.5
      vertex 42.5731 -7.74768 1.5
      vertex 33.0481 -7.74768 1.5
    endloop
  endfacet
  facet normal 0 0 1
    outer loop
      vertex 23.5231 -7.74768 1.5
      vertex 33.0481 -7.74768 1.5
      vertex 24.1612 -5.36643 1.5
    endloop
  endfacet
  facet normal 0 0 1
    outer loop
      vertex 0 -9.525 1.5
      vertex 33.0481 -7.74768 1.5
      vertex 23.5231 -7.74768 1.5
    endloop
  endfacet
  facet normal 0 0 1
    outer loop
      vertex 13.9981 -7.74768 1.5
      vertex 23.5231 -7.74768 1.5
      vertex 14.6362 -5.36643 1.5
    endloop
  endfacet
  facet normal 0 0 1
    outer loop
      vertex 0 -9.525 1.5
      vertex 23.5231 -7.74768 1.5
      vertex 13.9981 -7.74768 1.5
    endloop
  endfacet
  facet normal 0 0 1
    outer loop
      vertex 4.47312 -7.74768 1.5
      vertex 13.9981 -7.74768 1.5
      vertex 5.11118 -5.36643 1.5
    endloop
  endfacet
  facet normal 0 0 1
    outer loop
      vertex 0 -9.525 1.5
      vertex 13.9981 -7.74768 1.5
      vertex 4.47312 -7.74768 1.5
    endloop
  endfacet
  facet normal 0 0 1
    outer loop
      vertex 42.5731 -7.74768 1.5
      vertex 0 -9.525 1.5
      vertex 94.75 -9.525 1.5
    endloop
  endfacet
  facet normal 0 0 1
    outer loop
      vertex 0 -9.525 1.5
      vertex 4.47312 -7.74768 1.5
      vertex 0 -6.54911 1.5
    endloop
  endfacet
  facet normal -1 0 0
    outer loop
      vertex 0 9.525 0
      vertex 0 6.54911 1.5
      vertex 0 9.525 1.5
    endloop
  endfacet
  facet normal -1 0 0
    outer loop
      vertex 0 6.54911 1.5
      vertex 0 -6.54911 1.5
      vertex 0 0 10
    endloop
  endfacet
  facet normal -1 0 0
    outer loop
      vertex 0 9.525 0
      vertex 0 -6.54911 1.5
      vertex 0 6.54911 1.5
    endloop
  endfacet
  facet normal -1 0 0
    outer loop
      vertex 0 -9.525 0
      vertex 0 -6.54911 1.5
      vertex 0 9.525 0
    endloop
  endfacet
  facet normal -1 -0 0
    outer loop
      vertex 0 -6.54911 1.5
      vertex 0 -9.525 0
      vertex 0 -9.525 1.5
    endloop
  endfacet
  facet normal 0 1 -0
    outer loop
      vertex 94.75 9.525 0
      vertex 0 9.525 1.5
      vertex 94.75 9.525 1.5
    endloop
  endfacet
  facet normal 0 1 0
    outer loop
      vertex 0 9.525 1.5
      vertex 94.75 9.525 0
      vertex 0 9.525 0
    endloop
  endfacet
  facet normal 0 -1 0
    outer loop
      vertex 0 -9.525 0
      vertex 94.75 -9.525 1.5
      vertex 0 -9.525 1.5
    endloop
  endfacet
  facet normal 0 -1 -0
    outer loop
      vertex 94.75 -9.525 1.5
      vertex 0 -9.525 0
      vertex 94.75 -9.525 0
    endloop
  endfacet
endsolid OpenSCAD_Model
