solid OpenSCAD_Model
  facet normal -0 0.64812 0.761538
    outer loop
      vertex 102.1 5.875 0
      vertex 102.1 4.67654 1.01997
      vertex 104.176 5.875 0
    endloop
  endfacet
  facet normal -6.89491e-08 0.648119 0.761539
    outer loop
      vertex 101.123 4.1125 1.5
      vertex 88.125 3.39193 2.11325
      vertex 94 0 5
    endloop
  endfacet
  facet normal 0 0.648119 0.761539
    outer loop
      vertex 88.125 3.39193 2.11325
      vertex 76.375 3.39193 2.11325
      vertex 82.25 0 5
    endloop
  endfacet
  facet normal 0 0.648118 0.76154
    outer loop
      vertex 101.123 4.1125 1.5
      vertex 76.375 3.39193 2.11325
      vertex 88.125 3.39193 2.11325
    endloop
  endfacet
  facet normal 0 0.648119 0.761539
    outer loop
      vertex 76.375 3.39193 2.11325
      vertex 64.625 3.39193 2.11325
      vertex 70.5 0 5
    endloop
  endfacet
  facet normal 0 0.648118 0.76154
    outer loop
      vertex 101.123 4.1125 1.5
      vertex 64.625 3.39193 2.11325
      vertex 76.375 3.39193 2.11325
    endloop
  endfacet
  facet normal 0 0.648119 0.761539
    outer loop
      vertex 64.625 3.39193 2.11325
      vertex 52.875 3.39193 2.11325
      vertex 58.75 0 5
    endloop
  endfacet
  facet normal 0 0.648118 0.76154
    outer loop
      vertex 101.123 4.1125 1.5
      vertex 52.875 3.39193 2.11325
      vertex 64.625 3.39193 2.11325
    endloop
  endfacet
  facet normal 0 0.648119 0.761539
    outer loop
      vertex 52.875 3.39193 2.11325
      vertex 41.125 3.39193 2.11325
      vertex 47 0 5
    endloop
  endfacet
  facet normal 0 0.648118 0.76154
    outer loop
      vertex 101.123 4.1125 1.5
      vertex 41.125 3.39193 2.11325
      vertex 52.875 3.39193 2.11325
    endloop
  endfacet
  facet normal 0 0.648119 0.761539
    outer loop
      vertex 41.125 3.39193 2.11325
      vertex 29.375 3.39193 2.11325
      vertex 35.25 0 5
    endloop
  endfacet
  facet normal -0 0.648118 0.76154
    outer loop
      vertex 0 4.1125 1.5
      vertex 41.125 3.39193 2.11325
      vertex 101.123 4.1125 1.5
    endloop
  endfacet
  facet normal 0 0.648119 0.761539
    outer loop
      vertex 29.375 3.39193 2.11325
      vertex 17.625 3.39193 2.11325
      vertex 23.5 0 5
    endloop
  endfacet
  facet normal 0 0.648118 0.76154
    outer loop
      vertex 41.125 3.39193 2.11325
      vertex 0 4.1125 1.5
      vertex 29.375 3.39193 2.11325
    endloop
  endfacet
  facet normal 0 0.648119 0.761539
    outer loop
      vertex 17.625 3.39193 2.11325
      vertex 5.875 3.39193 2.11325
      vertex 11.75 0 5
    endloop
  endfacet
  facet normal 0 0.648118 0.76154
    outer loop
      vertex 29.375 3.39193 2.11325
      vertex 0 4.1125 1.5
      vertex 17.625 3.39193 2.11325
    endloop
  endfacet
  facet normal 0 0.648118 0.76154
    outer loop
      vertex 17.625 3.39193 2.11325
      vertex 0 4.1125 1.5
      vertex 5.875 3.39193 2.11325
    endloop
  endfacet
  facet normal 1.37898e-07 0.648119 0.761539
    outer loop
      vertex 5.875 3.39193 2.11325
      vertex 0 4.1125 1.5
      vertex 0 0 5
    endloop
  endfacet
  facet normal -0.561288 -0.324059 0.761539
    outer loop
      vertex 0 -10 0.744681
      vertex -1.01036 -10 0
      vertex 0 -11.75 0
    endloop
  endfacet
  facet normal 0.561287 -0.324061 0.761539
    outer loop
      vertex 0 0 5
      vertex 5.875 1.9508 1.5
      vertex 5.875 3.39193 2.11325
    endloop
  endfacet
  facet normal 0.561287 -0.324059 0.761539
    outer loop
      vertex 5.875 1.9508 1.5
      vertex 0 0 5
      vertex 0 -8.225 1.5
    endloop
  endfacet
  facet normal 0 0 -1
    outer loop
      vertex 0 -11.75 0
      vertex -1.01036 -10 0
      vertex 0 -10 0
    endloop
  endfacet
  facet normal 0 0 -1
    outer loop
      vertex 0 -10 0
      vertex 102.1 2.27961 0
      vertex 102.1 -11.75 0
    endloop
  endfacet
  facet normal 0 0 -1
    outer loop
      vertex 0 10 0
      vertex 102.1 2.27961 0
      vertex 0 -10 0
    endloop
  endfacet
  facet normal 0 0 -1
    outer loop
      vertex 0 -10 0
      vertex 102.1 -11.75 0
      vertex 0 -11.75 0
    endloop
  endfacet
  facet normal 0 0 -1
    outer loop
      vertex 102.1 2.27961 0
      vertex 0 10 0
      vertex 102.1 5.875 0
    endloop
  endfacet
  facet normal 0 0 -1
    outer loop
      vertex 102.1 5.875 0
      vertex 0 10 0
      vertex 102.1 11.75 0
    endloop
  endfacet
  facet normal -0 0 -1
    outer loop
      vertex 102.1 11.75 0
      vertex 0 10 0
      vertex 0 11.75 0
    endloop
  endfacet
  facet normal -0 0 -1
    outer loop
      vertex 104.176 5.875 0
      vertex 102.1 2.27961 0
      vertex 102.1 5.875 0
    endloop
  endfacet
  facet normal -0.561287 -0.324061 0.761539
    outer loop
      vertex 5.875 1.9508 1.5
      vertex 11.75 0 5
      vertex 5.875 3.39193 2.11325
    endloop
  endfacet
  facet normal -0.561287 -0.324059 0.761539
    outer loop
      vertex 11.75 0 5
      vertex 5.875 1.9508 1.5
      vertex 11.75 -8.225 1.5
    endloop
  endfacet
  facet normal 0.561287 -0.324061 0.761539
    outer loop
      vertex 11.75 0 5
      vertex 17.625 1.9508 1.5
      vertex 17.625 3.39193 2.11325
    endloop
  endfacet
  facet normal 0.561287 -0.324059 0.761539
    outer loop
      vertex 17.625 1.9508 1.5
      vertex 11.75 0 5
      vertex 11.75 -8.225 1.5
    endloop
  endfacet
  facet normal -0.561287 -0.324061 0.761539
    outer loop
      vertex 17.625 1.9508 1.5
      vertex 23.5 0 5
      vertex 17.625 3.39193 2.11325
    endloop
  endfacet
  facet normal -0.561287 -0.324059 0.761539
    outer loop
      vertex 23.5 0 5
      vertex 17.625 1.9508 1.5
      vertex 23.5 -8.225 1.5
    endloop
  endfacet
  facet normal 0.561287 -0.324061 0.761539
    outer loop
      vertex 23.5 0 5
      vertex 29.375 1.9508 1.5
      vertex 29.375 3.39193 2.11325
    endloop
  endfacet
  facet normal 0.561287 -0.324059 0.761539
    outer loop
      vertex 29.375 1.9508 1.5
      vertex 23.5 0 5
      vertex 23.5 -8.225 1.5
    endloop
  endfacet
  facet normal -0.561287 -0.324061 0.761539
    outer loop
      vertex 29.375 1.9508 1.5
      vertex 35.25 0 5
      vertex 29.375 3.39193 2.11325
    endloop
  endfacet
  facet normal -0.561287 -0.324059 0.761539
    outer loop
      vertex 35.25 0 5
      vertex 29.375 1.9508 1.5
      vertex 35.25 -8.225 1.5
    endloop
  endfacet
  facet normal 0.561287 -0.324061 0.761539
    outer loop
      vertex 35.25 0 5
      vertex 41.125 1.9508 1.5
      vertex 41.125 3.39193 2.11325
    endloop
  endfacet
  facet normal 0.561287 -0.324059 0.761539
    outer loop
      vertex 41.125 1.9508 1.5
      vertex 35.25 0 5
      vertex 35.25 -8.225 1.5
    endloop
  endfacet
  facet normal -0.561287 -0.324061 0.761539
    outer loop
      vertex 41.125 1.9508 1.5
      vertex 47 0 5
      vertex 41.125 3.39193 2.11325
    endloop
  endfacet
  facet normal -0.561287 -0.324059 0.761539
    outer loop
      vertex 47 0 5
      vertex 41.125 1.9508 1.5
      vertex 47 -8.225 1.5
    endloop
  endfacet
  facet normal 0.561287 -0.324061 0.761539
    outer loop
      vertex 47 0 5
      vertex 52.875 1.9508 1.5
      vertex 52.875 3.39193 2.11325
    endloop
  endfacet
  facet normal 0.561287 -0.324059 0.761539
    outer loop
      vertex 52.875 1.9508 1.5
      vertex 47 0 5
      vertex 47 -8.225 1.5
    endloop
  endfacet
  facet normal -0.561287 -0.324061 0.761539
    outer loop
      vertex 52.875 1.9508 1.5
      vertex 58.75 0 5
      vertex 52.875 3.39193 2.11325
    endloop
  endfacet
  facet normal -0.561287 -0.324059 0.761539
    outer loop
      vertex 58.75 0 5
      vertex 52.875 1.9508 1.5
      vertex 58.75 -8.225 1.5
    endloop
  endfacet
  facet normal 0.561287 -0.324061 0.761539
    outer loop
      vertex 58.75 0 5
      vertex 64.625 1.9508 1.5
      vertex 64.625 3.39193 2.11325
    endloop
  endfacet
  facet normal 0.561287 -0.324059 0.761539
    outer loop
      vertex 64.625 1.9508 1.5
      vertex 58.75 0 5
      vertex 58.75 -8.225 1.5
    endloop
  endfacet
  facet normal -0.561287 -0.324061 0.761539
    outer loop
      vertex 64.625 1.9508 1.5
      vertex 70.5 0 5
      vertex 64.625 3.39193 2.11325
    endloop
  endfacet
  facet normal -0.561287 -0.324059 0.761539
    outer loop
      vertex 70.5 0 5
      vertex 64.625 1.9508 1.5
      vertex 70.5 -8.225 1.5
    endloop
  endfacet
  facet normal 0.561287 -0.324061 0.761539
    outer loop
      vertex 70.5 0 5
      vertex 76.375 1.9508 1.5
      vertex 76.375 3.39193 2.11325
    endloop
  endfacet
  facet normal 0.561287 -0.324059 0.761539
    outer loop
      vertex 76.375 1.9508 1.5
      vertex 70.5 0 5
      vertex 70.5 -8.225 1.5
    endloop
  endfacet
  facet normal -0.561287 -0.324061 0.761539
    outer loop
      vertex 76.375 1.9508 1.5
      vertex 82.25 0 5
      vertex 76.375 3.39193 2.11325
    endloop
  endfacet
  facet normal -0.561287 -0.324059 0.761539
    outer loop
      vertex 82.25 0 5
      vertex 76.375 1.9508 1.5
      vertex 82.25 -8.225 1.5
    endloop
  endfacet
  facet normal 0.561287 -0.324061 0.761539
    outer loop
      vertex 82.25 0 5
      vertex 88.125 1.9508 1.5
      vertex 88.125 3.39193 2.11325
    endloop
  endfacet
  facet normal 0.561287 -0.324059 0.761539
    outer loop
      vertex 88.125 1.9508 1.5
      vertex 82.25 0 5
      vertex 82.25 -8.225 1.5
    endloop
  endfacet
  facet normal -0.561287 -0.324061 0.761539
    outer loop
      vertex 88.125 1.9508 1.5
      vertex 94 0 5
      vertex 88.125 3.39193 2.11325
    endloop
  endfacet
  facet normal -0.561287 -0.324059 0.761539
    outer loop
      vertex 94 0 5
      vertex 88.125 1.9508 1.5
      vertex 94 -8.225 1.5
    endloop
  endfacet
  facet normal 0.56125 -0.324069 0.761563
    outer loop
      vertex 102.1 4.67654 1.01997
      vertex 102.1 2.27961 0
      vertex 104.176 5.875 0
    endloop
  endfacet
  facet normal 0.56129 -0.324058 0.761537
    outer loop
      vertex 94 0 5
      vertex 94 -8.225 1.5
      vertex 101.123 4.1125 1.5
    endloop
  endfacet
  facet normal 1 0 0
    outer loop
      vertex 102.1 11.75 1.5
      vertex 102.1 5.875 0
      vertex 102.1 11.75 0
    endloop
  endfacet
  facet normal 1 0 0
    outer loop
      vertex 102.1 11.75 1.5
      vertex 102.1 4.67654 1.01997
      vertex 102.1 5.875 0
    endloop
  endfacet
  facet normal 1 -0 0
    outer loop
      vertex 102.1 -11.75 1.5
      vertex 102.1 4.67654 1.01997
      vertex 102.1 11.75 1.5
    endloop
  endfacet
  facet normal 1 0 0
    outer loop
      vertex 102.1 -11.75 1.5
      vertex 102.1 2.27961 0
      vertex 102.1 4.67654 1.01997
    endloop
  endfacet
  facet normal 1 0 0
    outer loop
      vertex 102.1 2.27961 0
      vertex 102.1 -11.75 1.5
      vertex 102.1 -11.75 0
    endloop
  endfacet
  facet normal 0 0 1
    outer loop
      vertex 102.1 11.75 1.5
      vertex 101.123 4.1125 1.5
      vertex 102.1 -11.75 1.5
    endloop
  endfacet
  facet normal -0 0 1
    outer loop
      vertex 0 11.75 1.5
      vertex 101.123 4.1125 1.5
      vertex 102.1 11.75 1.5
    endloop
  endfacet
  facet normal -0 0 1
    outer loop
      vertex 0 10 1.5
      vertex 101.123 4.1125 1.5
      vertex 0 11.75 1.5
    endloop
  endfacet
  facet normal 0 0 1
    outer loop
      vertex 101.123 4.1125 1.5
      vertex 0 10 1.5
      vertex 0 4.1125 1.5
    endloop
  endfacet
  facet normal -0 0 1
    outer loop
      vertex 94 -8.225 1.5
      vertex 102.1 -11.75 1.5
      vertex 101.123 4.1125 1.5
    endloop
  endfacet
  facet normal 0 0 1
    outer loop
      vertex 82.25 -8.225 1.5
      vertex 94 -8.225 1.5
      vertex 88.125 1.9508 1.5
    endloop
  endfacet
  facet normal -0 0 1
    outer loop
      vertex 82.25 -8.225 1.5
      vertex 102.1 -11.75 1.5
      vertex 94 -8.225 1.5
    endloop
  endfacet
  facet normal 0 0 1
    outer loop
      vertex 70.5 -8.225 1.5
      vertex 82.25 -8.225 1.5
      vertex 76.375 1.9508 1.5
    endloop
  endfacet
  facet normal -0 0 1
    outer loop
      vertex 70.5 -8.225 1.5
      vertex 102.1 -11.75 1.5
      vertex 82.25 -8.225 1.5
    endloop
  endfacet
  facet normal 0 0 1
    outer loop
      vertex 58.75 -8.225 1.5
      vertex 70.5 -8.225 1.5
      vertex 64.625 1.9508 1.5
    endloop
  endfacet
  facet normal -0 0 1
    outer loop
      vertex 58.75 -8.225 1.5
      vertex 102.1 -11.75 1.5
      vertex 70.5 -8.225 1.5
    endloop
  endfacet
  facet normal 0 0 1
    outer loop
      vertex 47 -8.225 1.5
      vertex 58.75 -8.225 1.5
      vertex 52.875 1.9508 1.5
    endloop
  endfacet
  facet normal -0 0 1
    outer loop
      vertex 47 -8.225 1.5
      vertex 102.1 -11.75 1.5
      vertex 58.75 -8.225 1.5
    endloop
  endfacet
  facet normal 0 0 1
    outer loop
      vertex 35.25 -8.225 1.5
      vertex 47 -8.225 1.5
      vertex 41.125 1.9508 1.5
    endloop
  endfacet
  facet normal 0 0 1
    outer loop
      vertex 0 -11.75 1.5
      vertex 47 -8.225 1.5
      vertex 35.25 -8.225 1.5
    endloop
  endfacet
  facet normal 0 0 1
    outer loop
      vertex 23.5 -8.225 1.5
      vertex 35.25 -8.225 1.5
      vertex 29.375 1.9508 1.5
    endloop
  endfacet
  facet normal 0 0 1
    outer loop
      vertex 0 -11.75 1.5
      vertex 35.25 -8.225 1.5
      vertex 23.5 -8.225 1.5
    endloop
  endfacet
  facet normal 0 0 1
    outer loop
      vertex 11.75 -8.225 1.5
      vertex 23.5 -8.225 1.5
      vertex 17.625 1.9508 1.5
    endloop
  endfacet
  facet normal 0 0 1
    outer loop
      vertex 0 -11.75 1.5
      vertex 23.5 -8.225 1.5
      vertex 11.75 -8.225 1.5
    endloop
  endfacet
  facet normal 0 0 1
    outer loop
      vertex 0 -8.225 1.5
      vertex 11.75 -8.225 1.5
      vertex 5.875 1.9508 1.5
    endloop
  endfacet
  facet normal 0 0 1
    outer loop
      vertex 0 -10 1.5
      vertex 11.75 -8.225 1.5
      vertex 0 -8.225 1.5
    endloop
  endfacet
  facet normal 0 0 1
    outer loop
      vertex 0 -11.75 1.5
      vertex 11.75 -8.225 1.5
      vertex 0 -10 1.5
    endloop
  endfacet
  facet normal 0 0 1
    outer loop
      vertex 47 -8.225 1.5
      vertex 0 -11.75 1.5
      vertex 102.1 -11.75 1.5
    endloop
  endfacet
  facet normal -1 0 0
    outer loop
      vertex 0 10 0
      vertex 0 11.75 1.5
      vertex 0 11.75 0
    endloop
  endfacet
  facet normal -1 -0 0
    outer loop
      vertex 0 11.75 1.5
      vertex 0 10 0
      vertex 0 10 1.5
    endloop
  endfacet
  facet normal -1 0 0
    outer loop
      vertex 0 -11.75 1.5
      vertex 0 -10 0.744681
      vertex 0 -11.75 0
    endloop
  endfacet
  facet normal -1 0 0
    outer loop
      vertex 0 -10 0.744681
      vertex 0 -11.75 1.5
      vertex 0 -10 1.5
    endloop
  endfacet
  facet normal -1 0 0
    outer loop
      vertex 0 10 0
      vertex 0 4.1125 1.5
      vertex 0 10 1.5
    endloop
  endfacet
  facet normal -1 0 0
    outer loop
      vertex 0 4.1125 1.5
      vertex 0 -8.225 1.5
      vertex 0 0 5
    endloop
  endfacet
  facet normal -1 0 0
    outer loop
      vertex 0 -10 0
      vertex 0 4.1125 1.5
      vertex 0 10 0
    endloop
  endfacet
  facet normal -1 -0 0
    outer loop
      vertex 0 4.1125 1.5
      vertex 0 -10 0
      vertex 0 -8.225 1.5
    endloop
  endfacet
  facet normal -1 0 0
    outer loop
      vertex 0 -10 0.744681
      vertex 0 -8.225 1.5
      vertex 0 -10 0
    endloop
  endfacet
  facet normal -1 -0 0
    outer loop
      vertex 0 -8.225 1.5
      vertex 0 -10 0.744681
      vertex 0 -10 1.5
    endloop
  endfacet
  facet normal 0 1 -0
    outer loop
      vertex 102.1 11.75 0
      vertex 0 11.75 1.5
      vertex 102.1 11.75 1.5
    endloop
  endfacet
  facet normal 0 1 0
    outer loop
      vertex 0 11.75 1.5
      vertex 102.1 11.75 0
      vertex 0 11.75 0
    endloop
  endfacet
  facet normal 0 -1 0
    outer loop
      vertex 0 -11.75 0
      vertex 102.1 -11.75 1.5
      vertex 0 -11.75 1.5
    endloop
  endfacet
  facet normal 0 -1 -0
    outer loop
      vertex 102.1 -11.75 1.5
      vertex 0 -11.75 0
      vertex 102.1 -11.75 0
    endloop
  endfacet
  facet normal 0 1 0
    outer loop
      vertex 0 -10 0.744681
      vertex 0 -10 0
      vertex -1.01036 -10 0
    endloop
  endfacet
endsolid OpenSCAD_Model
