solid OpenSCAD_Model
  facet normal 0 0 1
    outer loop
      vertex 106.42 43 1.5
      vertex 0 43 1.5
      vertex 84.9196 21.5 1.5
    endloop
  endfacet
  facet normal 0 0 1
    outer loop
      vertex 0 0 1.5
      vertex 84.9196 21.5 1.5
      vertex 0 43 1.5
    endloop
  endfacet
  facet normal 0 0 1
    outer loop
      vertex 84.9196 21.5 1.5
      vertex 0 0 1.5
      vertex 106.42 0 1.5
    endloop
  endfacet
  facet normal 0 -0 1
    outer loop
      vertex 0 0 1.5
      vertex 0 43 1.5
      vertex -21.5 21.5 1.5
    endloop
  endfacet
  facet normal 0 0 -1
    outer loop
      vertex 106.42 0 0
      vertex 0 0 0
      vertex 84.9196 21.5 0
    endloop
  endfacet
  facet normal 0 0 -1
    outer loop
      vertex 0 43 0
      vertex 84.9196 21.5 0
      vertex 0 0 0
    endloop
  endfacet
  facet normal 0 0 -1
    outer loop
      vertex 84.9196 21.5 0
      vertex 0 43 0
      vertex 106.42 43 0
    endloop
  endfacet
  facet normal 0 -0 -1
    outer loop
      vertex 0 43 0
      vertex 0 0 0
      vertex -21.5 21.5 0
    endloop
  endfacet
  facet normal 0 1 -0
    outer loop
      vertex 106.42 43 0
      vertex 0 43 1.5
      vertex 106.42 43 1.5
    endloop
  endfacet
  facet normal 0 1 0
    outer loop
      vertex 0 43 1.5
      vertex 106.42 43 0
      vertex 0 43 0
    endloop
  endfacet
  facet normal 0 -1 0
    outer loop
      vertex 0 0 0
      vertex 106.42 0 1.5
      vertex 0 0 1.5
    endloop
  endfacet
  facet normal 0 -1 -0
    outer loop
      vertex 106.42 0 1.5
      vertex 0 0 0
      vertex 106.42 0 0
    endloop
  endfacet
  facet normal -0.707107 -0.707107 0
    outer loop
      vertex 0 0 0
      vertex -21.5 21.5 1.5
      vertex -21.5 21.5 0
    endloop
  endfacet
  facet normal -0.707107 -0.707107 0
    outer loop
      vertex -21.5 21.5 1.5
      vertex 0 0 0
      vertex 0 0 1.5
    endloop
  endfacet
  facet normal -0.707107 0.707107 0
    outer loop
      vertex -21.5 21.5 0
      vertex 0 43 1.5
      vertex 0 43 0
    endloop
  endfacet
  facet normal -0.707107 0.707107 0
    outer loop
      vertex 0 43 1.5
      vertex -21.5 21.5 0
      vertex -21.5 21.5 1.5
    endloop
  endfacet
  facet normal 0.7071 0.707113 0
    outer loop
      vertex 106.42 0 1.5
      vertex 84.9196 21.5 0
      vertex 84.9196 21.5 1.5
    endloop
  endfacet
  facet normal 0.7071 0.707113 0
    outer loop
      vertex 84.9196 21.5 0
      vertex 106.42 0 1.5
      vertex 106.42 0 0
    endloop
  endfacet
  facet normal 0.7071 -0.707113 0
    outer loop
      vertex 84.9196 21.5 1.5
      vertex 106.42 43 0
      vertex 106.42 43 1.5
    endloop
  endfacet
  facet normal 0.7071 -0.707113 0
    outer loop
      vertex 106.42 43 0
      vertex 84.9196 21.5 1.5
      vertex 84.9196 21.5 0
    endloop
  endfacet
endsolid OpenSCAD_Model
