solid OpenSCAD_Model
  facet normal 1 -0 0
    outer loop
      vertex 160 0 25.4
      vertex 160 108 0
      vertex 160 108 87.7538
    endloop
  endfacet
  facet normal 1 0 0
    outer loop
      vertex 160 108 0
      vertex 160 0 25.4
      vertex 160 0 0
    endloop
  endfacet
  facet normal 0 0 -1
    outer loop
      vertex 160 0 0
      vertex 150 20 0
      vertex 160 108 0
    endloop
  endfacet
  facet normal 0 0 -1
    outer loop
      vertex 160 0 0
      vertex 10 20 0
      vertex 150 20 0
    endloop
  endfacet
  facet normal 0 0 -1
    outer loop
      vertex 0 108 0
      vertex 10 20 0
      vertex 0 0 0
    endloop
  endfacet
  facet normal 0 0 -1
    outer loop
      vertex 0 0 0
      vertex 10 20 0
      vertex 160 0 0
    endloop
  endfacet
  facet normal 0 0 -1
    outer loop
      vertex 150 100 0
      vertex 160 108 0
      vertex 150 20 0
    endloop
  endfacet
  facet normal 0 0 -1
    outer loop
      vertex 10 100 0
      vertex 160 108 0
      vertex 150 100 0
    endloop
  endfacet
  facet normal 0 0 -1
    outer loop
      vertex 10 100 0
      vertex 0 108 0
      vertex 160 108 0
    endloop
  endfacet
  facet normal 0 0 -1
    outer loop
      vertex 10 20 0
      vertex 0 108 0
      vertex 10 100 0
    endloop
  endfacet
  facet normal -1 0 0
    outer loop
      vertex 0 0 25.4
      vertex 0 108 0
      vertex 0 0 0
    endloop
  endfacet
  facet normal -1 0 0
    outer loop
      vertex 0 108 0
      vertex 0 0 25.4
      vertex 0 108 87.7538
    endloop
  endfacet
  facet normal 0 1 -0
    outer loop
      vertex 160 108 0
      vertex 0 108 87.7538
      vertex 160 108 87.7538
    endloop
  endfacet
  facet normal 0 1 0
    outer loop
      vertex 0 108 87.7538
      vertex 160 108 0
      vertex 0 108 0
    endloop
  endfacet
  facet normal 0 -1 0
    outer loop
      vertex 0 0 0
      vertex 160 0 25.4
      vertex 0 0 25.4
    endloop
  endfacet
  facet normal 0 -1 -0
    outer loop
      vertex 160 0 25.4
      vertex 0 0 0
      vertex 160 0 0
    endloop
  endfacet
  facet normal 3.81744e-15 -0.5 0.866026
    outer loop
      vertex 160 108 87.7538
      vertex 158 106 86.5991
      vertex 160 0 25.4
    endloop
  endfacet
  facet normal 0 -0.5 0.866026
    outer loop
      vertex 160 108 87.7538
      vertex 2 106 86.5991
      vertex 158 106 86.5991
    endloop
  endfacet
  facet normal -3.90509e-15 -0.5 0.866026
    outer loop
      vertex 2 106 86.5991
      vertex 0 108 87.7538
      vertex 2 2 26.5547
    endloop
  endfacet
  facet normal 0 -0.5 0.866026
    outer loop
      vertex 0 108 87.7538
      vertex 2 106 86.5991
      vertex 160 108 87.7538
    endloop
  endfacet
  facet normal 7.10017e-16 -0.5 0.866026
    outer loop
      vertex 158 2 26.5547
      vertex 160 0 25.4
      vertex 158 106 86.5991
    endloop
  endfacet
  facet normal 0 -0.5 0.866026
    outer loop
      vertex 2 2 26.5547
      vertex 160 0 25.4
      vertex 158 2 26.5547
    endloop
  endfacet
  facet normal 0 -0.5 0.866026
    outer loop
      vertex 2 2 26.5547
      vertex 0 0 25.4
      vertex 160 0 25.4
    endloop
  endfacet
  facet normal -7.97674e-16 -0.5 0.866026
    outer loop
      vertex 0 0 25.4
      vertex 2 2 26.5547
      vertex 0 108 87.7538
    endloop
  endfacet
  facet normal -1 0 0
    outer loop
      vertex 158 20 10
      vertex 158 106 2
      vertex 158 20 2
    endloop
  endfacet
  facet normal -1 0 0
    outer loop
      vertex 158 106 2
      vertex 158 20 10
      vertex 158 106 86.5991
    endloop
  endfacet
  facet normal -1 0 0
    outer loop
      vertex 158 2 26.5547
      vertex 158 20 10
      vertex 158 2 10
    endloop
  endfacet
  facet normal -1 0 0
    outer loop
      vertex 158 20 10
      vertex 158 2 26.5547
      vertex 158 106 86.5991
    endloop
  endfacet
  facet normal 0 0 1
    outer loop
      vertex 158 106 2
      vertex 150 100 2
      vertex 158 20 2
    endloop
  endfacet
  facet normal 0 0 1
    outer loop
      vertex 158 106 2
      vertex 10 100 2
      vertex 150 100 2
    endloop
  endfacet
  facet normal -0 0 1
    outer loop
      vertex 2 106 2
      vertex 10 100 2
      vertex 158 106 2
    endloop
  endfacet
  facet normal 0 0 1
    outer loop
      vertex 2 20 2
      vertex 10 100 2
      vertex 2 106 2
    endloop
  endfacet
  facet normal 0 0 1
    outer loop
      vertex 10 100 2
      vertex 2 20 2
      vertex 10 20 2
    endloop
  endfacet
  facet normal 0 0 1
    outer loop
      vertex 158 20 2
      vertex 150 100 2
      vertex 150 20 2
    endloop
  endfacet
  facet normal 1 0 0
    outer loop
      vertex 2 106 86.5991
      vertex 2 20 10
      vertex 2 106 2
    endloop
  endfacet
  facet normal 1 -0 0
    outer loop
      vertex 2 2 26.5547
      vertex 2 20 10
      vertex 2 106 86.5991
    endloop
  endfacet
  facet normal 1 0 0
    outer loop
      vertex 2 20 10
      vertex 2 2 26.5547
      vertex 2 2 10
    endloop
  endfacet
  facet normal 1 0 0
    outer loop
      vertex 2 106 2
      vertex 2 20 10
      vertex 2 20 2
    endloop
  endfacet
  facet normal 0 -1 0
    outer loop
      vertex 2 106 2
      vertex 158 106 86.5991
      vertex 2 106 86.5991
    endloop
  endfacet
  facet normal 0 -1 -0
    outer loop
      vertex 158 106 86.5991
      vertex 2 106 2
      vertex 158 106 2
    endloop
  endfacet
  facet normal 0 1 -0
    outer loop
      vertex 158 2 10
      vertex 2 2 26.5547
      vertex 158 2 26.5547
    endloop
  endfacet
  facet normal 0 1 0
    outer loop
      vertex 2 2 26.5547
      vertex 158 2 10
      vertex 2 2 10
    endloop
  endfacet
  facet normal -1 0 0
    outer loop
      vertex 150 20 0
      vertex 150 100 2
      vertex 150 100 0
    endloop
  endfacet
  facet normal -1 -0 0
    outer loop
      vertex 150 100 2
      vertex 150 20 0
      vertex 150 20 2
    endloop
  endfacet
  facet normal 1 -0 0
    outer loop
      vertex 10 20 2
      vertex 10 100 0
      vertex 10 100 2
    endloop
  endfacet
  facet normal 1 0 0
    outer loop
      vertex 10 100 0
      vertex 10 20 2
      vertex 10 20 0
    endloop
  endfacet
  facet normal 0 -1 0
    outer loop
      vertex 10 100 0
      vertex 150 100 2
      vertex 10 100 2
    endloop
  endfacet
  facet normal 0 -1 -0
    outer loop
      vertex 150 100 2
      vertex 10 100 0
      vertex 150 100 0
    endloop
  endfacet
  facet normal 0 1 -0
    outer loop
      vertex 150 20 0
      vertex 10 20 2
      vertex 150 20 2
    endloop
  endfacet
  facet normal 0 1 0
    outer loop
      vertex 10 20 2
      vertex 150 20 0
      vertex 10 20 0
    endloop
  endfacet
  facet normal 0 1 0
    outer loop
      vertex 150 20 2
      vertex 158 20 10
      vertex 158 20 2
    endloop
  endfacet
  facet normal 0 1 0
    outer loop
      vertex 158 20 10
      vertex 150 20 2
      vertex 2 20 10
    endloop
  endfacet
  facet normal 0 1 -0
    outer loop
      vertex 10 20 2
      vertex 2 20 10
      vertex 150 20 2
    endloop
  endfacet
  facet normal 0 1 0
    outer loop
      vertex 2 20 10
      vertex 10 20 2
      vertex 2 20 2
    endloop
  endfacet
  facet normal -0 0 1
    outer loop
      vertex 2 20 10
      vertex 158 2 10
      vertex 158 20 10
    endloop
  endfacet
  facet normal 0 0 1
    outer loop
      vertex 158 2 10
      vertex 2 20 10
      vertex 2 2 10
    endloop
  endfacet
endsolid OpenSCAD_Model
