solid OpenSCAD_Model
  facet normal 1 -0 0
    outer loop
      vertex 165 0 3.5
      vertex 165 127 0
      vertex 165 127 3.5
    endloop
  endfacet
  facet normal 1 0 0
    outer loop
      vertex 165 127 0
      vertex 165 0 3.5
      vertex 165 0 0
    endloop
  endfacet
  facet normal 0 0 1
    outer loop
      vertex 127.116 25.9573 3.5
      vertex 97.5418 26.8589 3.5
      vertex 98 25 3.5
    endloop
  endfacet
  facet normal 0 0 1
    outer loop
      vertex 103 50 3.5
      vertex 96.2723 28.2919 3.5
      vertex 97.5418 26.8589 3.5
    endloop
  endfacet
  facet normal 0 0 1
    outer loop
      vertex 103 50 3.5
      vertex 94.4821 28.9708 3.5
      vertex 96.2723 28.2919 3.5
    endloop
  endfacet
  facet normal 0 0 1
    outer loop
      vertex 103 50 3.5
      vertex 92.5816 28.7401 3.5
      vertex 94.4821 28.9708 3.5
    endloop
  endfacet
  facet normal 0 0 1
    outer loop
      vertex 103 50 3.5
      vertex 91.006 27.6525 3.5
      vertex 92.5816 28.7401 3.5
    endloop
  endfacet
  facet normal 0 0 1
    outer loop
      vertex 90.1162 25.9573 3.5
      vertex 61 25 3.5
      vertex 90.1162 24.0427 3.5
    endloop
  endfacet
  facet normal -0 0 1
    outer loop
      vertex 60.5418 26.8589 3.5
      vertex 90.1162 25.9573 3.5
      vertex 91.006 27.6525 3.5
    endloop
  endfacet
  facet normal -0 0 1
    outer loop
      vertex 59.2723 28.2919 3.5
      vertex 91.006 27.6525 3.5
      vertex 103 50 3.5
    endloop
  endfacet
  facet normal 0 0 1
    outer loop
      vertex 90.1162 25.9573 3.5
      vertex 60.5418 26.8589 3.5
      vertex 61 25 3.5
    endloop
  endfacet
  facet normal 0 0 1
    outer loop
      vertex 91.006 27.6525 3.5
      vertex 59.2723 28.2919 3.5
      vertex 60.5418 26.8589 3.5
    endloop
  endfacet
  facet normal 0 0 1
    outer loop
      vertex 103 50 3.5
      vertex 57.4821 28.9708 3.5
      vertex 59.2723 28.2919 3.5
    endloop
  endfacet
  facet normal -0 0 1
    outer loop
      vertex 18 50 3.5
      vertex 57.4821 28.9708 3.5
      vertex 103 50 3.5
    endloop
  endfacet
  facet normal 0 0 1
    outer loop
      vertex 53.1162 25.9573 3.5
      vertex 24 25 3.5
      vertex 53.1162 24.0427 3.5
    endloop
  endfacet
  facet normal -0 0 1
    outer loop
      vertex 23.5418 26.8589 3.5
      vertex 53.1162 25.9573 3.5
      vertex 54.006 27.6525 3.5
    endloop
  endfacet
  facet normal 0 0 1
    outer loop
      vertex 18 50 3.5
      vertex 54.006 27.6525 3.5
      vertex 55.5816 28.7401 3.5
    endloop
  endfacet
  facet normal 0 0 1
    outer loop
      vertex 57.4821 28.9708 3.5
      vertex 18 50 3.5
      vertex 55.5816 28.7401 3.5
    endloop
  endfacet
  facet normal 0 0 1
    outer loop
      vertex 53.1162 25.9573 3.5
      vertex 23.5418 26.8589 3.5
      vertex 24 25 3.5
    endloop
  endfacet
  facet normal 0 0 1
    outer loop
      vertex 54.006 27.6525 3.5
      vertex 18 50 3.5
      vertex 22.2723 28.2919 3.5
    endloop
  endfacet
  facet normal 0 0 1
    outer loop
      vertex 54.006 27.6525 3.5
      vertex 22.2723 28.2919 3.5
      vertex 23.5418 26.8589 3.5
    endloop
  endfacet
  facet normal 0 0 1
    outer loop
      vertex 22.2723 28.2919 3.5
      vertex 18 50 3.5
      vertex 20.4821 28.9708 3.5
    endloop
  endfacet
  facet normal 0 0 1
    outer loop
      vertex 20.4821 28.9708 3.5
      vertex 18 50 3.5
      vertex 18.5816 28.7401 3.5
    endloop
  endfacet
  facet normal 0 0 1
    outer loop
      vertex 18.5816 28.7401 3.5
      vertex 18 50 3.5
      vertex 17.006 27.6525 3.5
    endloop
  endfacet
  facet normal -0 0 1
    outer loop
      vertex 134.542 26.8589 3.5
      vertex 165 0 3.5
      vertex 134.542 60.1411 3.5
    endloop
  endfacet
  facet normal 0 0 1
    outer loop
      vertex 165 0 3.5
      vertex 134.542 26.8589 3.5
      vertex 135 25 3.5
    endloop
  endfacet
  facet normal -0 0 1
    outer loop
      vertex 133.272 58.7081 3.5
      vertex 134.542 26.8589 3.5
      vertex 134.542 60.1411 3.5
    endloop
  endfacet
  facet normal 0 0 1
    outer loop
      vertex 133.272 58.7081 3.5
      vertex 133.272 28.2919 3.5
      vertex 134.542 26.8589 3.5
    endloop
  endfacet
  facet normal -0 0 1
    outer loop
      vertex 131.482 58.0292 3.5
      vertex 133.272 28.2919 3.5
      vertex 133.272 58.7081 3.5
    endloop
  endfacet
  facet normal 0 0 1
    outer loop
      vertex 131.482 58.0292 3.5
      vertex 131.482 28.9708 3.5
      vertex 133.272 28.2919 3.5
    endloop
  endfacet
  facet normal 0 0 1
    outer loop
      vertex 129.582 58.2599 3.5
      vertex 131.482 28.9708 3.5
      vertex 131.482 58.0292 3.5
    endloop
  endfacet
  facet normal 0 0 1
    outer loop
      vertex 129.582 58.2599 3.5
      vertex 129.582 28.7401 3.5
      vertex 131.482 28.9708 3.5
    endloop
  endfacet
  facet normal 0 0 1
    outer loop
      vertex 103 50 3.5
      vertex 129.582 58.2599 3.5
      vertex 128.006 59.3475 3.5
    endloop
  endfacet
  facet normal 0 0 1
    outer loop
      vertex 129.582 58.2599 3.5
      vertex 103 50 3.5
      vertex 129.582 28.7401 3.5
    endloop
  endfacet
  facet normal 0 0 1
    outer loop
      vertex 103 50 3.5
      vertex 128.006 59.3475 3.5
      vertex 127.116 61.0427 3.5
    endloop
  endfacet
  facet normal 0 0 1
    outer loop
      vertex 129.582 28.7401 3.5
      vertex 103 50 3.5
      vertex 128.006 27.6525 3.5
    endloop
  endfacet
  facet normal 0 0 1
    outer loop
      vertex 134.542 63.8589 3.5
      vertex 165 127 3.5
      vertex 134.542 95.1411 3.5
    endloop
  endfacet
  facet normal 0 0 1
    outer loop
      vertex 165 127 3.5
      vertex 134.542 63.8589 3.5
      vertex 135 62 3.5
    endloop
  endfacet
  facet normal -0 0 1
    outer loop
      vertex 133.272 93.7081 3.5
      vertex 134.542 63.8589 3.5
      vertex 134.542 95.1411 3.5
    endloop
  endfacet
  facet normal 0 0 1
    outer loop
      vertex 133.272 93.7081 3.5
      vertex 133.272 65.2919 3.5
      vertex 134.542 63.8589 3.5
    endloop
  endfacet
  facet normal -0 0 1
    outer loop
      vertex 131.482 93.0292 3.5
      vertex 133.272 65.2919 3.5
      vertex 133.272 93.7081 3.5
    endloop
  endfacet
  facet normal 0 0 1
    outer loop
      vertex 131.482 93.0292 3.5
      vertex 131.482 65.9708 3.5
      vertex 133.272 65.2919 3.5
    endloop
  endfacet
  facet normal 0 0 1
    outer loop
      vertex 129.582 93.2599 3.5
      vertex 131.482 65.9708 3.5
      vertex 131.482 93.0292 3.5
    endloop
  endfacet
  facet normal 0 0 1
    outer loop
      vertex 129.582 93.2599 3.5
      vertex 129.582 65.7401 3.5
      vertex 131.482 65.9708 3.5
    endloop
  endfacet
  facet normal 0 0 1
    outer loop
      vertex 128.006 94.3475 3.5
      vertex 129.582 65.7401 3.5
      vertex 129.582 93.2599 3.5
    endloop
  endfacet
  facet normal 0 0 1
    outer loop
      vertex 128.006 94.3475 3.5
      vertex 128.006 64.6525 3.5
      vertex 129.582 65.7401 3.5
    endloop
  endfacet
  facet normal 0 0 1
    outer loop
      vertex 103 110 3.5
      vertex 128.006 94.3475 3.5
      vertex 127.116 96.0427 3.5
    endloop
  endfacet
  facet normal 0 0 1
    outer loop
      vertex 128.006 94.3475 3.5
      vertex 103 50 3.5
      vertex 128.006 64.6525 3.5
    endloop
  endfacet
  facet normal 0 0 1
    outer loop
      vertex 134.542 95.1411 3.5
      vertex 165 127 3.5
      vertex 135 97 3.5
    endloop
  endfacet
  facet normal 0 0 1
    outer loop
      vertex 165 127 3.5
      vertex 134.542 98.8589 3.5
      vertex 135 97 3.5
    endloop
  endfacet
  facet normal 0 0 1
    outer loop
      vertex 165 127 3.5
      vertex 133.272 100.292 3.5
      vertex 134.542 98.8589 3.5
    endloop
  endfacet
  facet normal 0 0 1
    outer loop
      vertex 165 127 3.5
      vertex 131.482 100.971 3.5
      vertex 133.272 100.292 3.5
    endloop
  endfacet
  facet normal -0 0 1
    outer loop
      vertex 103 110 3.5
      vertex 131.482 100.971 3.5
      vertex 165 127 3.5
    endloop
  endfacet
  facet normal 0 0 1
    outer loop
      vertex 131.482 100.971 3.5
      vertex 103 110 3.5
      vertex 129.582 100.74 3.5
    endloop
  endfacet
  facet normal 0 0 1
    outer loop
      vertex 103 110 3.5
      vertex 127.116 96.0427 3.5
      vertex 127.116 97.9573 3.5
    endloop
  endfacet
  facet normal 0 0 1
    outer loop
      vertex 128.006 94.3475 3.5
      vertex 103 110 3.5
      vertex 103 50 3.5
    endloop
  endfacet
  facet normal 0 0 1
    outer loop
      vertex 127.116 62.9573 3.5
      vertex 103 50 3.5
      vertex 127.116 61.0427 3.5
    endloop
  endfacet
  facet normal 0 0 1
    outer loop
      vertex 97.5418 26.8589 3.5
      vertex 128.006 27.6525 3.5
      vertex 103 50 3.5
    endloop
  endfacet
  facet normal 0 0 1
    outer loop
      vertex 128.006 64.6525 3.5
      vertex 103 50 3.5
      vertex 127.116 62.9573 3.5
    endloop
  endfacet
  facet normal 0 0 1
    outer loop
      vertex 128.006 99.6525 3.5
      vertex 103 110 3.5
      vertex 127.116 97.9573 3.5
    endloop
  endfacet
  facet normal 0 0 1
    outer loop
      vertex 129.582 100.74 3.5
      vertex 103 110 3.5
      vertex 128.006 99.6525 3.5
    endloop
  endfacet
  facet normal -0 0 1
    outer loop
      vertex 0 127 3.5
      vertex 103 110 3.5
      vertex 165 127 3.5
    endloop
  endfacet
  facet normal 0 0 1
    outer loop
      vertex 0 127 3.5
      vertex 18 50 3.5
      vertex 18 110 3.5
    endloop
  endfacet
  facet normal 0 0 1
    outer loop
      vertex 0 0 3.5
      vertex 18 50 3.5
      vertex 0 127 3.5
    endloop
  endfacet
  facet normal 0 0 1
    outer loop
      vertex 18 50 3.5
      vertex 0 0 3.5
      vertex 16.1162 25.9573 3.5
    endloop
  endfacet
  facet normal 0 0 1
    outer loop
      vertex 18 50 3.5
      vertex 16.1162 25.9573 3.5
      vertex 17.006 27.6525 3.5
    endloop
  endfacet
  facet normal 0 0 1
    outer loop
      vertex 103 110 3.5
      vertex 0 127 3.5
      vertex 18 110 3.5
    endloop
  endfacet
  facet normal 0 0 1
    outer loop
      vertex 165 127 3.5
      vertex 135 62 3.5
      vertex 165 0 3.5
    endloop
  endfacet
  facet normal -0 0 1
    outer loop
      vertex 134.542 60.1411 3.5
      vertex 165 0 3.5
      vertex 135 62 3.5
    endloop
  endfacet
  facet normal -0 0 1
    outer loop
      vertex 134.542 23.1411 3.5
      vertex 165 0 3.5
      vertex 135 25 3.5
    endloop
  endfacet
  facet normal -0 0 1
    outer loop
      vertex 133.272 21.7081 3.5
      vertex 165 0 3.5
      vertex 134.542 23.1411 3.5
    endloop
  endfacet
  facet normal -0 0 1
    outer loop
      vertex 131.482 21.0292 3.5
      vertex 165 0 3.5
      vertex 133.272 21.7081 3.5
    endloop
  endfacet
  facet normal 0 0 1
    outer loop
      vertex 129.582 21.2599 3.5
      vertex 165 0 3.5
      vertex 131.482 21.0292 3.5
    endloop
  endfacet
  facet normal -0 0 1
    outer loop
      vertex 97.5418 26.8589 3.5
      vertex 127.116 25.9573 3.5
      vertex 128.006 27.6525 3.5
    endloop
  endfacet
  facet normal 0 0 1
    outer loop
      vertex 127.116 25.9573 3.5
      vertex 98 25 3.5
      vertex 127.116 24.0427 3.5
    endloop
  endfacet
  facet normal 0 0 1
    outer loop
      vertex 97.5418 23.1411 3.5
      vertex 127.116 24.0427 3.5
      vertex 98 25 3.5
    endloop
  endfacet
  facet normal 0 0 1
    outer loop
      vertex 127.116 24.0427 3.5
      vertex 97.5418 23.1411 3.5
      vertex 128.006 22.3475 3.5
    endloop
  endfacet
  facet normal 0 0 1
    outer loop
      vertex 96.2723 21.7081 3.5
      vertex 128.006 22.3475 3.5
      vertex 97.5418 23.1411 3.5
    endloop
  endfacet
  facet normal 0 0 1
    outer loop
      vertex 128.006 22.3475 3.5
      vertex 96.2723 21.7081 3.5
      vertex 129.582 21.2599 3.5
    endloop
  endfacet
  facet normal 0 0 1
    outer loop
      vertex 94.4821 21.0292 3.5
      vertex 129.582 21.2599 3.5
      vertex 96.2723 21.7081 3.5
    endloop
  endfacet
  facet normal 0 0 1
    outer loop
      vertex 129.582 21.2599 3.5
      vertex 94.4821 21.0292 3.5
      vertex 165 0 3.5
    endloop
  endfacet
  facet normal 0 0 1
    outer loop
      vertex 0 0 3.5
      vertex 94.4821 21.0292 3.5
      vertex 92.5816 21.2599 3.5
    endloop
  endfacet
  facet normal 0 0 1
    outer loop
      vertex 60.5418 23.1411 3.5
      vertex 90.1162 24.0427 3.5
      vertex 61 25 3.5
    endloop
  endfacet
  facet normal 0 0 1
    outer loop
      vertex 90.1162 24.0427 3.5
      vertex 60.5418 23.1411 3.5
      vertex 91.006 22.3475 3.5
    endloop
  endfacet
  facet normal 0 0 1
    outer loop
      vertex 59.2723 21.7081 3.5
      vertex 91.006 22.3475 3.5
      vertex 60.5418 23.1411 3.5
    endloop
  endfacet
  facet normal 0 0 1
    outer loop
      vertex 91.006 22.3475 3.5
      vertex 59.2723 21.7081 3.5
      vertex 92.5816 21.2599 3.5
    endloop
  endfacet
  facet normal 0 0 1
    outer loop
      vertex 57.4821 21.0292 3.5
      vertex 92.5816 21.2599 3.5
      vertex 59.2723 21.7081 3.5
    endloop
  endfacet
  facet normal 0 0 1
    outer loop
      vertex 0 0 3.5
      vertex 92.5816 21.2599 3.5
      vertex 57.4821 21.0292 3.5
    endloop
  endfacet
  facet normal 0 0 1
    outer loop
      vertex 0 0 3.5
      vertex 57.4821 21.0292 3.5
      vertex 55.5816 21.2599 3.5
    endloop
  endfacet
  facet normal 0 0 1
    outer loop
      vertex 23.5418 23.1411 3.5
      vertex 53.1162 24.0427 3.5
      vertex 24 25 3.5
    endloop
  endfacet
  facet normal 0 0 1
    outer loop
      vertex 53.1162 24.0427 3.5
      vertex 23.5418 23.1411 3.5
      vertex 54.006 22.3475 3.5
    endloop
  endfacet
  facet normal 0 0 1
    outer loop
      vertex 22.2723 21.7081 3.5
      vertex 54.006 22.3475 3.5
      vertex 23.5418 23.1411 3.5
    endloop
  endfacet
  facet normal 0 0 1
    outer loop
      vertex 54.006 22.3475 3.5
      vertex 22.2723 21.7081 3.5
      vertex 55.5816 21.2599 3.5
    endloop
  endfacet
  facet normal 0 0 1
    outer loop
      vertex 0 0 3.5
      vertex 55.5816 21.2599 3.5
      vertex 22.2723 21.7081 3.5
    endloop
  endfacet
  facet normal 0 0 1
    outer loop
      vertex 0 0 3.5
      vertex 22.2723 21.7081 3.5
      vertex 20.4821 21.0292 3.5
    endloop
  endfacet
  facet normal 0 0 1
    outer loop
      vertex 0 0 3.5
      vertex 20.4821 21.0292 3.5
      vertex 18.5816 21.2599 3.5
    endloop
  endfacet
  facet normal 0 0 1
    outer loop
      vertex 94.4821 21.0292 3.5
      vertex 0 0 3.5
      vertex 165 0 3.5
    endloop
  endfacet
  facet normal 0 0 1
    outer loop
      vertex 17.006 22.3475 3.5
      vertex 0 0 3.5
      vertex 18.5816 21.2599 3.5
    endloop
  endfacet
  facet normal 0 0 1
    outer loop
      vertex 16.1162 24.0427 3.5
      vertex 0 0 3.5
      vertex 17.006 22.3475 3.5
    endloop
  endfacet
  facet normal 0 0 1
    outer loop
      vertex 16.1162 25.9573 3.5
      vertex 0 0 3.5
      vertex 16.1162 24.0427 3.5
    endloop
  endfacet
  facet normal 0 0 -1
    outer loop
      vertex 134.542 95.1411 0
      vertex 165 127 0
      vertex 134.542 63.8589 0
    endloop
  endfacet
  facet normal 0 0 -1
    outer loop
      vertex 165 127 0
      vertex 134.542 95.1411 0
      vertex 135 97 0
    endloop
  endfacet
  facet normal 0 0 -1
    outer loop
      vertex 133.272 65.2919 0
      vertex 134.542 95.1411 0
      vertex 134.542 63.8589 0
    endloop
  endfacet
  facet normal 0 0 -1
    outer loop
      vertex 133.272 65.2919 0
      vertex 133.272 93.7081 0
      vertex 134.542 95.1411 0
    endloop
  endfacet
  facet normal 0 0 -1
    outer loop
      vertex 131.482 65.9708 0
      vertex 133.272 93.7081 0
      vertex 133.272 65.2919 0
    endloop
  endfacet
  facet normal 0 0 -1
    outer loop
      vertex 131.482 65.9708 0
      vertex 131.482 93.0292 0
      vertex 133.272 93.7081 0
    endloop
  endfacet
  facet normal 0 0 -1
    outer loop
      vertex 129.582 65.7401 0
      vertex 131.482 93.0292 0
      vertex 131.482 65.9708 0
    endloop
  endfacet
  facet normal 0 0 -1
    outer loop
      vertex 129.582 65.7401 0
      vertex 129.582 93.2599 0
      vertex 131.482 93.0292 0
    endloop
  endfacet
  facet normal 0 0 -1
    outer loop
      vertex 128.006 64.6525 0
      vertex 129.582 93.2599 0
      vertex 129.582 65.7401 0
    endloop
  endfacet
  facet normal 0 0 -1
    outer loop
      vertex 128.006 64.6525 0
      vertex 128.006 94.3475 0
      vertex 129.582 93.2599 0
    endloop
  endfacet
  facet normal 0 0 -1
    outer loop
      vertex 103 50 0
      vertex 128.006 64.6525 0
      vertex 127.116 62.9573 0
    endloop
  endfacet
  facet normal -0 0 -1
    outer loop
      vertex 128.006 64.6525 0
      vertex 103 50 0
      vertex 128.006 94.3475 0
    endloop
  endfacet
  facet normal 0 0 -1
    outer loop
      vertex 134.542 60.1411 0
      vertex 165 0 0
      vertex 134.542 26.8589 0
    endloop
  endfacet
  facet normal 0 0 -1
    outer loop
      vertex 165 0 0
      vertex 134.542 60.1411 0
      vertex 135 62 0
    endloop
  endfacet
  facet normal 0 0 -1
    outer loop
      vertex 133.272 28.2919 0
      vertex 134.542 60.1411 0
      vertex 134.542 26.8589 0
    endloop
  endfacet
  facet normal 0 0 -1
    outer loop
      vertex 133.272 28.2919 0
      vertex 133.272 58.7081 0
      vertex 134.542 60.1411 0
    endloop
  endfacet
  facet normal 0 0 -1
    outer loop
      vertex 131.482 28.9708 0
      vertex 133.272 58.7081 0
      vertex 133.272 28.2919 0
    endloop
  endfacet
  facet normal 0 0 -1
    outer loop
      vertex 131.482 28.9708 0
      vertex 131.482 58.0292 0
      vertex 133.272 58.7081 0
    endloop
  endfacet
  facet normal 0 0 -1
    outer loop
      vertex 129.582 28.7401 0
      vertex 131.482 58.0292 0
      vertex 131.482 28.9708 0
    endloop
  endfacet
  facet normal 0 0 -1
    outer loop
      vertex 129.582 28.7401 0
      vertex 129.582 58.2599 0
      vertex 131.482 58.0292 0
    endloop
  endfacet
  facet normal 0 0 -1
    outer loop
      vertex 103 50 0
      vertex 129.582 28.7401 0
      vertex 128.006 27.6525 0
    endloop
  endfacet
  facet normal 0 0 -1
    outer loop
      vertex 129.582 28.7401 0
      vertex 103 50 0
      vertex 129.582 58.2599 0
    endloop
  endfacet
  facet normal 0 0 -1
    outer loop
      vertex 97.5418 26.8589 0
      vertex 128.006 27.6525 0
      vertex 127.116 25.9573 0
    endloop
  endfacet
  facet normal -0 0 -1
    outer loop
      vertex 129.582 58.2599 0
      vertex 103 50 0
      vertex 128.006 59.3475 0
    endloop
  endfacet
  facet normal 0 0 -1
    outer loop
      vertex 134.542 26.8589 0
      vertex 165 0 0
      vertex 135 25 0
    endloop
  endfacet
  facet normal 0 0 -1
    outer loop
      vertex 165 0 0
      vertex 134.542 23.1411 0
      vertex 135 25 0
    endloop
  endfacet
  facet normal 0 0 -1
    outer loop
      vertex 165 0 0
      vertex 133.272 21.7081 0
      vertex 134.542 23.1411 0
    endloop
  endfacet
  facet normal 0 0 -1
    outer loop
      vertex 165 0 0
      vertex 131.482 21.0292 0
      vertex 133.272 21.7081 0
    endloop
  endfacet
  facet normal 0 0 -1
    outer loop
      vertex 165 0 0
      vertex 129.582 21.2599 0
      vertex 131.482 21.0292 0
    endloop
  endfacet
  facet normal 0 0 -1
    outer loop
      vertex 98 25 0
      vertex 127.116 25.9573 0
      vertex 127.116 24.0427 0
    endloop
  endfacet
  facet normal -0 0 -1
    outer loop
      vertex 128.006 59.3475 0
      vertex 103 50 0
      vertex 127.116 61.0427 0
    endloop
  endfacet
  facet normal -0 0 -1
    outer loop
      vertex 127.116 61.0427 0
      vertex 103 50 0
      vertex 127.116 62.9573 0
    endloop
  endfacet
  facet normal 0 0 -1
    outer loop
      vertex 103 110 0
      vertex 128.006 94.3475 0
      vertex 103 50 0
    endloop
  endfacet
  facet normal 0 0 -1
    outer loop
      vertex 128.006 94.3475 0
      vertex 103 110 0
      vertex 127.116 96.0427 0
    endloop
  endfacet
  facet normal 0 0 -1
    outer loop
      vertex 97.5418 23.1411 0
      vertex 127.116 24.0427 0
      vertex 128.006 22.3475 0
    endloop
  endfacet
  facet normal -0 0 -1
    outer loop
      vertex 127.116 25.9573 0
      vertex 98 25 0
      vertex 97.5418 26.8589 0
    endloop
  endfacet
  facet normal 0 0 -1
    outer loop
      vertex 96.2723 21.7081 0
      vertex 128.006 22.3475 0
      vertex 129.582 21.2599 0
    endloop
  endfacet
  facet normal 0 0 -1
    outer loop
      vertex 94.4821 21.0292 0
      vertex 129.582 21.2599 0
      vertex 165 0 0
    endloop
  endfacet
  facet normal -0 0 -1
    outer loop
      vertex 127.116 24.0427 0
      vertex 97.5418 23.1411 0
      vertex 98 25 0
    endloop
  endfacet
  facet normal -0 0 -1
    outer loop
      vertex 128.006 22.3475 0
      vertex 96.2723 21.7081 0
      vertex 97.5418 23.1411 0
    endloop
  endfacet
  facet normal -0 0 -1
    outer loop
      vertex 129.582 21.2599 0
      vertex 94.4821 21.0292 0
      vertex 96.2723 21.7081 0
    endloop
  endfacet
  facet normal 0 0 -1
    outer loop
      vertex 0 0 0
      vertex 94.4821 21.0292 0
      vertex 165 0 0
    endloop
  endfacet
  facet normal 0 0 -1
    outer loop
      vertex 90.1162 24.0427 0
      vertex 61 25 0
      vertex 90.1162 25.9573 0
    endloop
  endfacet
  facet normal 0 0 -1
    outer loop
      vertex 60.5418 23.1411 0
      vertex 90.1162 24.0427 0
      vertex 91.006 22.3475 0
    endloop
  endfacet
  facet normal 0 0 -1
    outer loop
      vertex 59.2723 21.7081 0
      vertex 91.006 22.3475 0
      vertex 92.5816 21.2599 0
    endloop
  endfacet
  facet normal -0 0 -1
    outer loop
      vertex 94.4821 21.0292 0
      vertex 0 0 0
      vertex 92.5816 21.2599 0
    endloop
  endfacet
  facet normal -0 0 -1
    outer loop
      vertex 90.1162 24.0427 0
      vertex 60.5418 23.1411 0
      vertex 61 25 0
    endloop
  endfacet
  facet normal -0 0 -1
    outer loop
      vertex 91.006 22.3475 0
      vertex 59.2723 21.7081 0
      vertex 60.5418 23.1411 0
    endloop
  endfacet
  facet normal -0 0 -1
    outer loop
      vertex 92.5816 21.2599 0
      vertex 57.4821 21.0292 0
      vertex 59.2723 21.7081 0
    endloop
  endfacet
  facet normal 0 0 -1
    outer loop
      vertex 92.5816 21.2599 0
      vertex 0 0 0
      vertex 57.4821 21.0292 0
    endloop
  endfacet
  facet normal 0 0 -1
    outer loop
      vertex 53.1162 24.0427 0
      vertex 24 25 0
      vertex 53.1162 25.9573 0
    endloop
  endfacet
  facet normal 0 0 -1
    outer loop
      vertex 23.5418 23.1411 0
      vertex 53.1162 24.0427 0
      vertex 54.006 22.3475 0
    endloop
  endfacet
  facet normal 0 0 -1
    outer loop
      vertex 22.2723 21.7081 0
      vertex 54.006 22.3475 0
      vertex 55.5816 21.2599 0
    endloop
  endfacet
  facet normal -0 0 -1
    outer loop
      vertex 57.4821 21.0292 0
      vertex 0 0 0
      vertex 55.5816 21.2599 0
    endloop
  endfacet
  facet normal -0 0 -1
    outer loop
      vertex 53.1162 24.0427 0
      vertex 23.5418 23.1411 0
      vertex 24 25 0
    endloop
  endfacet
  facet normal -0 0 -1
    outer loop
      vertex 54.006 22.3475 0
      vertex 22.2723 21.7081 0
      vertex 23.5418 23.1411 0
    endloop
  endfacet
  facet normal -0 0 -1
    outer loop
      vertex 55.5816 21.2599 0
      vertex 0 0 0
      vertex 22.2723 21.7081 0
    endloop
  endfacet
  facet normal 0 0 -1
    outer loop
      vertex 22.2723 21.7081 0
      vertex 0 0 0
      vertex 20.4821 21.0292 0
    endloop
  endfacet
  facet normal -0 0 -1
    outer loop
      vertex 16.1162 24.0427 0
      vertex 0 0 0
      vertex 16.1162 25.9573 0
    endloop
  endfacet
  facet normal -0 0 -1
    outer loop
      vertex 17.006 22.3475 0
      vertex 0 0 0
      vertex 16.1162 24.0427 0
    endloop
  endfacet
  facet normal -0 0 -1
    outer loop
      vertex 18.5816 21.2599 0
      vertex 0 0 0
      vertex 17.006 22.3475 0
    endloop
  endfacet
  facet normal -0 0 -1
    outer loop
      vertex 20.4821 21.0292 0
      vertex 0 0 0
      vertex 18.5816 21.2599 0
    endloop
  endfacet
  facet normal 0 0 -1
    outer loop
      vertex 165 0 0
      vertex 135 62 0
      vertex 165 127 0
    endloop
  endfacet
  facet normal 0 0 -1
    outer loop
      vertex 134.542 63.8589 0
      vertex 165 127 0
      vertex 135 62 0
    endloop
  endfacet
  facet normal 0 0 -1
    outer loop
      vertex 134.542 98.8589 0
      vertex 165 127 0
      vertex 135 97 0
    endloop
  endfacet
  facet normal 0 0 -1
    outer loop
      vertex 133.272 100.292 0
      vertex 165 127 0
      vertex 134.542 98.8589 0
    endloop
  endfacet
  facet normal 0 0 -1
    outer loop
      vertex 131.482 100.971 0
      vertex 165 127 0
      vertex 133.272 100.292 0
    endloop
  endfacet
  facet normal 0 0 -1
    outer loop
      vertex 103 110 0
      vertex 131.482 100.971 0
      vertex 129.582 100.74 0
    endloop
  endfacet
  facet normal 0 0 -1
    outer loop
      vertex 103 110 0
      vertex 129.582 100.74 0
      vertex 128.006 99.6525 0
    endloop
  endfacet
  facet normal 0 0 -1
    outer loop
      vertex 127.116 96.0427 0
      vertex 103 110 0
      vertex 127.116 97.9573 0
    endloop
  endfacet
  facet normal 0 0 -1
    outer loop
      vertex 103 110 0
      vertex 128.006 99.6525 0
      vertex 127.116 97.9573 0
    endloop
  endfacet
  facet normal 0 0 -1
    outer loop
      vertex 131.482 100.971 0
      vertex 103 110 0
      vertex 165 127 0
    endloop
  endfacet
  facet normal 0 0 -1
    outer loop
      vertex 0 127 0
      vertex 103 110 0
      vertex 18 110 0
    endloop
  endfacet
  facet normal 0 0 -1
    outer loop
      vertex 0 0 0
      vertex 18 50 0
      vertex 16.1162 25.9573 0
    endloop
  endfacet
  facet normal -0 0 -1
    outer loop
      vertex 18 50 0
      vertex 0 0 0
      vertex 0 127 0
    endloop
  endfacet
  facet normal 0 0 -1
    outer loop
      vertex 103 110 0
      vertex 0 127 0
      vertex 165 127 0
    endloop
  endfacet
  facet normal 0 0 -1
    outer loop
      vertex 18 50 0
      vertex 0 127 0
      vertex 18 110 0
    endloop
  endfacet
  facet normal -0 0 -1
    outer loop
      vertex 128.006 27.6525 0
      vertex 97.5418 26.8589 0
      vertex 103 50 0
    endloop
  endfacet
  facet normal 0 0 -1
    outer loop
      vertex 96.2723 28.2919 0
      vertex 103 50 0
      vertex 97.5418 26.8589 0
    endloop
  endfacet
  facet normal 0 0 -1
    outer loop
      vertex 94.4821 28.9708 0
      vertex 103 50 0
      vertex 96.2723 28.2919 0
    endloop
  endfacet
  facet normal 0 0 -1
    outer loop
      vertex 92.5816 28.7401 0
      vertex 103 50 0
      vertex 94.4821 28.9708 0
    endloop
  endfacet
  facet normal 0 0 -1
    outer loop
      vertex 91.006 27.6525 0
      vertex 103 50 0
      vertex 92.5816 28.7401 0
    endloop
  endfacet
  facet normal 0 0 -1
    outer loop
      vertex 60.5418 26.8589 0
      vertex 90.1162 25.9573 0
      vertex 61 25 0
    endloop
  endfacet
  facet normal 0 0 -1
    outer loop
      vertex 90.1162 25.9573 0
      vertex 60.5418 26.8589 0
      vertex 91.006 27.6525 0
    endloop
  endfacet
  facet normal 0 0 -1
    outer loop
      vertex 59.2723 28.2919 0
      vertex 91.006 27.6525 0
      vertex 60.5418 26.8589 0
    endloop
  endfacet
  facet normal 0 0 -1
    outer loop
      vertex 91.006 27.6525 0
      vertex 59.2723 28.2919 0
      vertex 103 50 0
    endloop
  endfacet
  facet normal 0 0 -1
    outer loop
      vertex 57.4821 28.9708 0
      vertex 103 50 0
      vertex 59.2723 28.2919 0
    endloop
  endfacet
  facet normal 0 0 -1
    outer loop
      vertex 18 50 0
      vertex 57.4821 28.9708 0
      vertex 55.5816 28.7401 0
    endloop
  endfacet
  facet normal 0 0 -1
    outer loop
      vertex 23.5418 26.8589 0
      vertex 53.1162 25.9573 0
      vertex 24 25 0
    endloop
  endfacet
  facet normal 0 0 -1
    outer loop
      vertex 53.1162 25.9573 0
      vertex 23.5418 26.8589 0
      vertex 54.006 27.6525 0
    endloop
  endfacet
  facet normal 0 0 -1
    outer loop
      vertex 22.2723 28.2919 0
      vertex 54.006 27.6525 0
      vertex 23.5418 26.8589 0
    endloop
  endfacet
  facet normal 0 0 -1
    outer loop
      vertex 18 50 0
      vertex 54.006 27.6525 0
      vertex 22.2723 28.2919 0
    endloop
  endfacet
  facet normal 0 0 -1
    outer loop
      vertex 54.006 27.6525 0
      vertex 18 50 0
      vertex 55.5816 28.7401 0
    endloop
  endfacet
  facet normal 0 0 -1
    outer loop
      vertex 18 50 0
      vertex 22.2723 28.2919 0
      vertex 20.4821 28.9708 0
    endloop
  endfacet
  facet normal 0 0 -1
    outer loop
      vertex 18 50 0
      vertex 20.4821 28.9708 0
      vertex 18.5816 28.7401 0
    endloop
  endfacet
  facet normal 0 0 -1
    outer loop
      vertex 57.4821 28.9708 0
      vertex 18 50 0
      vertex 103 50 0
    endloop
  endfacet
  facet normal 0 0 -1
    outer loop
      vertex 16.1162 25.9573 0
      vertex 18 50 0
      vertex 17.006 27.6525 0
    endloop
  endfacet
  facet normal 0 0 -1
    outer loop
      vertex 17.006 27.6525 0
      vertex 18 50 0
      vertex 18.5816 28.7401 0
    endloop
  endfacet
  facet normal -1 0 0
    outer loop
      vertex 0 0 0
      vertex 0 127 3.5
      vertex 0 127 0
    endloop
  endfacet
  facet normal -1 -0 0
    outer loop
      vertex 0 127 3.5
      vertex 0 0 0
      vertex 0 0 3.5
    endloop
  endfacet
  facet normal 0 1 -0
    outer loop
      vertex 165 127 0
      vertex 0 127 3.5
      vertex 165 127 3.5
    endloop
  endfacet
  facet normal 0 1 0
    outer loop
      vertex 0 127 3.5
      vertex 165 127 0
      vertex 0 127 0
    endloop
  endfacet
  facet normal 0 -1 0
    outer loop
      vertex 0 0 0
      vertex 165 0 3.5
      vertex 0 0 3.5
    endloop
  endfacet
  facet normal 0 -1 -0
    outer loop
      vertex 165 0 3.5
      vertex 0 0 0
      vertex 165 0 0
    endloop
  endfacet
  facet normal -1 0 0
    outer loop
      vertex 103 50 0
      vertex 103 110 3.5
      vertex 103 110 0
    endloop
  endfacet
  facet normal -1 -0 0
    outer loop
      vertex 103 110 3.5
      vertex 103 50 0
      vertex 103 50 3.5
    endloop
  endfacet
  facet normal 1 -0 0
    outer loop
      vertex 18 50 3.5
      vertex 18 110 0
      vertex 18 110 3.5
    endloop
  endfacet
  facet normal 1 0 0
    outer loop
      vertex 18 110 0
      vertex 18 50 3.5
      vertex 18 50 0
    endloop
  endfacet
  facet normal 0 -1 0
    outer loop
      vertex 18 110 0
      vertex 103 110 3.5
      vertex 18 110 3.5
    endloop
  endfacet
  facet normal 0 -1 -0
    outer loop
      vertex 103 110 3.5
      vertex 18 110 0
      vertex 103 110 0
    endloop
  endfacet
  facet normal 0 1 -0
    outer loop
      vertex 103 50 0
      vertex 18 50 3.5
      vertex 103 50 3.5
    endloop
  endfacet
  facet normal 0 1 0
    outer loop
      vertex 18 50 3.5
      vertex 103 50 0
      vertex 18 50 0
    endloop
  endfacet
  facet normal 0.56808 -0.822974 0
    outer loop
      vertex 17.006 27.6525 0
      vertex 18.5816 28.7401 3.5
      vertex 17.006 27.6525 3.5
    endloop
  endfacet
  facet normal 0.56808 -0.822974 0
    outer loop
      vertex 18.5816 28.7401 3.5
      vertex 17.006 27.6525 0
      vertex 18.5816 28.7401 0
    endloop
  endfacet
  facet normal -0.748518 -0.663115 0
    outer loop
      vertex 23.5418 26.8589 0
      vertex 22.2723 28.2919 3.5
      vertex 22.2723 28.2919 0
    endloop
  endfacet
  facet normal -0.748518 -0.663115 0
    outer loop
      vertex 22.2723 28.2919 3.5
      vertex 23.5418 26.8589 0
      vertex 23.5418 26.8589 3.5
    endloop
  endfacet
  facet normal -0.970939 -0.239327 0
    outer loop
      vertex 24 25 0
      vertex 23.5418 26.8589 3.5
      vertex 23.5418 26.8589 0
    endloop
  endfacet
  facet normal -0.970939 -0.239327 0
    outer loop
      vertex 23.5418 26.8589 3.5
      vertex 24 25 0
      vertex 24 25 3.5
    endloop
  endfacet
  facet normal 1 -0 0
    outer loop
      vertex 16.1162 24.0427 3.5
      vertex 16.1162 25.9573 0
      vertex 16.1162 25.9573 3.5
    endloop
  endfacet
  facet normal 1 0 0
    outer loop
      vertex 16.1162 25.9573 0
      vertex 16.1162 24.0427 3.5
      vertex 16.1162 24.0427 0
    endloop
  endfacet
  facet normal 0.885437 -0.46476 0
    outer loop
      vertex 16.1162 25.9573 3.5
      vertex 17.006 27.6525 0
      vertex 17.006 27.6525 3.5
    endloop
  endfacet
  facet normal 0.885437 -0.46476 0
    outer loop
      vertex 17.006 27.6525 0
      vertex 16.1162 25.9573 3.5
      vertex 16.1162 25.9573 0
    endloop
  endfacet
  facet normal -0.35459 -0.935022 0
    outer loop
      vertex 20.4821 28.9708 0
      vertex 22.2723 28.2919 3.5
      vertex 20.4821 28.9708 3.5
    endloop
  endfacet
  facet normal -0.35459 -0.935022 -0
    outer loop
      vertex 22.2723 28.2919 3.5
      vertex 20.4821 28.9708 0
      vertex 22.2723 28.2919 0
    endloop
  endfacet
  facet normal -0.970939 0.239327 0
    outer loop
      vertex 23.5418 23.1411 0
      vertex 24 25 3.5
      vertex 24 25 0
    endloop
  endfacet
  facet normal -0.970939 0.239327 0
    outer loop
      vertex 24 25 3.5
      vertex 23.5418 23.1411 0
      vertex 23.5418 23.1411 3.5
    endloop
  endfacet
  facet normal 0.120505 0.992713 -0
    outer loop
      vertex 20.4821 21.0292 0
      vertex 18.5816 21.2599 3.5
      vertex 20.4821 21.0292 3.5
    endloop
  endfacet
  facet normal 0.120505 0.992713 0
    outer loop
      vertex 18.5816 21.2599 3.5
      vertex 20.4821 21.0292 0
      vertex 18.5816 21.2599 0
    endloop
  endfacet
  facet normal -0.748518 0.663115 0
    outer loop
      vertex 22.2723 21.7081 0
      vertex 23.5418 23.1411 3.5
      vertex 23.5418 23.1411 0
    endloop
  endfacet
  facet normal -0.748518 0.663115 0
    outer loop
      vertex 23.5418 23.1411 3.5
      vertex 22.2723 21.7081 0
      vertex 22.2723 21.7081 3.5
    endloop
  endfacet
  facet normal -0.35459 0.935022 0
    outer loop
      vertex 22.2723 21.7081 0
      vertex 20.4821 21.0292 3.5
      vertex 22.2723 21.7081 3.5
    endloop
  endfacet
  facet normal -0.35459 0.935022 0
    outer loop
      vertex 20.4821 21.0292 3.5
      vertex 22.2723 21.7081 0
      vertex 20.4821 21.0292 0
    endloop
  endfacet
  facet normal 0.120505 -0.992713 0
    outer loop
      vertex 18.5816 28.7401 0
      vertex 20.4821 28.9708 3.5
      vertex 18.5816 28.7401 3.5
    endloop
  endfacet
  facet normal 0.120505 -0.992713 0
    outer loop
      vertex 20.4821 28.9708 3.5
      vertex 18.5816 28.7401 0
      vertex 20.4821 28.9708 0
    endloop
  endfacet
  facet normal 0.56808 0.822974 -0
    outer loop
      vertex 18.5816 21.2599 0
      vertex 17.006 22.3475 3.5
      vertex 18.5816 21.2599 3.5
    endloop
  endfacet
  facet normal 0.56808 0.822974 0
    outer loop
      vertex 17.006 22.3475 3.5
      vertex 18.5816 21.2599 0
      vertex 17.006 22.3475 0
    endloop
  endfacet
  facet normal 0.885437 0.46476 0
    outer loop
      vertex 17.006 22.3475 3.5
      vertex 16.1162 24.0427 0
      vertex 16.1162 24.0427 3.5
    endloop
  endfacet
  facet normal 0.885437 0.46476 0
    outer loop
      vertex 16.1162 24.0427 0
      vertex 17.006 22.3475 3.5
      vertex 17.006 22.3475 0
    endloop
  endfacet
  facet normal 0.56808 -0.822974 0
    outer loop
      vertex 54.006 27.6525 0
      vertex 55.5816 28.7401 3.5
      vertex 54.006 27.6525 3.5
    endloop
  endfacet
  facet normal 0.56808 -0.822974 0
    outer loop
      vertex 55.5816 28.7401 3.5
      vertex 54.006 27.6525 0
      vertex 55.5816 28.7401 0
    endloop
  endfacet
  facet normal -0.748518 -0.663115 0
    outer loop
      vertex 60.5418 26.8589 0
      vertex 59.2723 28.2919 3.5
      vertex 59.2723 28.2919 0
    endloop
  endfacet
  facet normal -0.748518 -0.663115 0
    outer loop
      vertex 59.2723 28.2919 3.5
      vertex 60.5418 26.8589 0
      vertex 60.5418 26.8589 3.5
    endloop
  endfacet
  facet normal -0.970939 -0.239327 0
    outer loop
      vertex 61 25 0
      vertex 60.5418 26.8589 3.5
      vertex 60.5418 26.8589 0
    endloop
  endfacet
  facet normal -0.970939 -0.239327 0
    outer loop
      vertex 60.5418 26.8589 3.5
      vertex 61 25 0
      vertex 61 25 3.5
    endloop
  endfacet
  facet normal 1 -0 0
    outer loop
      vertex 53.1162 24.0427 3.5
      vertex 53.1162 25.9573 0
      vertex 53.1162 25.9573 3.5
    endloop
  endfacet
  facet normal 1 0 0
    outer loop
      vertex 53.1162 25.9573 0
      vertex 53.1162 24.0427 3.5
      vertex 53.1162 24.0427 0
    endloop
  endfacet
  facet normal 0.885437 -0.46476 0
    outer loop
      vertex 53.1162 25.9573 3.5
      vertex 54.006 27.6525 0
      vertex 54.006 27.6525 3.5
    endloop
  endfacet
  facet normal 0.885437 -0.46476 0
    outer loop
      vertex 54.006 27.6525 0
      vertex 53.1162 25.9573 3.5
      vertex 53.1162 25.9573 0
    endloop
  endfacet
  facet normal -0.35459 -0.935022 0
    outer loop
      vertex 57.4821 28.9708 0
      vertex 59.2723 28.2919 3.5
      vertex 57.4821 28.9708 3.5
    endloop
  endfacet
  facet normal -0.35459 -0.935022 -0
    outer loop
      vertex 59.2723 28.2919 3.5
      vertex 57.4821 28.9708 0
      vertex 59.2723 28.2919 0
    endloop
  endfacet
  facet normal -0.970939 0.239327 0
    outer loop
      vertex 60.5418 23.1411 0
      vertex 61 25 3.5
      vertex 61 25 0
    endloop
  endfacet
  facet normal -0.970939 0.239327 0
    outer loop
      vertex 61 25 3.5
      vertex 60.5418 23.1411 0
      vertex 60.5418 23.1411 3.5
    endloop
  endfacet
  facet normal 0.120505 0.992713 -0
    outer loop
      vertex 57.4821 21.0292 0
      vertex 55.5816 21.2599 3.5
      vertex 57.4821 21.0292 3.5
    endloop
  endfacet
  facet normal 0.120505 0.992713 0
    outer loop
      vertex 55.5816 21.2599 3.5
      vertex 57.4821 21.0292 0
      vertex 55.5816 21.2599 0
    endloop
  endfacet
  facet normal -0.748518 0.663115 0
    outer loop
      vertex 59.2723 21.7081 0
      vertex 60.5418 23.1411 3.5
      vertex 60.5418 23.1411 0
    endloop
  endfacet
  facet normal -0.748518 0.663115 0
    outer loop
      vertex 60.5418 23.1411 3.5
      vertex 59.2723 21.7081 0
      vertex 59.2723 21.7081 3.5
    endloop
  endfacet
  facet normal -0.35459 0.935022 0
    outer loop
      vertex 59.2723 21.7081 0
      vertex 57.4821 21.0292 3.5
      vertex 59.2723 21.7081 3.5
    endloop
  endfacet
  facet normal -0.35459 0.935022 0
    outer loop
      vertex 57.4821 21.0292 3.5
      vertex 59.2723 21.7081 0
      vertex 57.4821 21.0292 0
    endloop
  endfacet
  facet normal 0.120505 -0.992713 0
    outer loop
      vertex 55.5816 28.7401 0
      vertex 57.4821 28.9708 3.5
      vertex 55.5816 28.7401 3.5
    endloop
  endfacet
  facet normal 0.120505 -0.992713 0
    outer loop
      vertex 57.4821 28.9708 3.5
      vertex 55.5816 28.7401 0
      vertex 57.4821 28.9708 0
    endloop
  endfacet
  facet normal 0.56808 0.822974 -0
    outer loop
      vertex 55.5816 21.2599 0
      vertex 54.006 22.3475 3.5
      vertex 55.5816 21.2599 3.5
    endloop
  endfacet
  facet normal 0.56808 0.822974 0
    outer loop
      vertex 54.006 22.3475 3.5
      vertex 55.5816 21.2599 0
      vertex 54.006 22.3475 0
    endloop
  endfacet
  facet normal 0.885437 0.46476 0
    outer loop
      vertex 54.006 22.3475 3.5
      vertex 53.1162 24.0427 0
      vertex 53.1162 24.0427 3.5
    endloop
  endfacet
  facet normal 0.885437 0.46476 0
    outer loop
      vertex 53.1162 24.0427 0
      vertex 54.006 22.3475 3.5
      vertex 54.006 22.3475 0
    endloop
  endfacet
  facet normal 0.56808 -0.822974 0
    outer loop
      vertex 91.006 27.6525 0
      vertex 92.5816 28.7401 3.5
      vertex 91.006 27.6525 3.5
    endloop
  endfacet
  facet normal 0.56808 -0.822974 0
    outer loop
      vertex 92.5816 28.7401 3.5
      vertex 91.006 27.6525 0
      vertex 92.5816 28.7401 0
    endloop
  endfacet
  facet normal -0.748518 -0.663115 0
    outer loop
      vertex 97.5418 26.8589 0
      vertex 96.2723 28.2919 3.5
      vertex 96.2723 28.2919 0
    endloop
  endfacet
  facet normal -0.748518 -0.663115 0
    outer loop
      vertex 96.2723 28.2919 3.5
      vertex 97.5418 26.8589 0
      vertex 97.5418 26.8589 3.5
    endloop
  endfacet
  facet normal -0.970939 -0.239327 0
    outer loop
      vertex 98 25 0
      vertex 97.5418 26.8589 3.5
      vertex 97.5418 26.8589 0
    endloop
  endfacet
  facet normal -0.970939 -0.239327 0
    outer loop
      vertex 97.5418 26.8589 3.5
      vertex 98 25 0
      vertex 98 25 3.5
    endloop
  endfacet
  facet normal 1 -0 0
    outer loop
      vertex 90.1162 24.0427 3.5
      vertex 90.1162 25.9573 0
      vertex 90.1162 25.9573 3.5
    endloop
  endfacet
  facet normal 1 0 0
    outer loop
      vertex 90.1162 25.9573 0
      vertex 90.1162 24.0427 3.5
      vertex 90.1162 24.0427 0
    endloop
  endfacet
  facet normal 0.885437 -0.46476 0
    outer loop
      vertex 90.1162 25.9573 3.5
      vertex 91.006 27.6525 0
      vertex 91.006 27.6525 3.5
    endloop
  endfacet
  facet normal 0.885437 -0.46476 0
    outer loop
      vertex 91.006 27.6525 0
      vertex 90.1162 25.9573 3.5
      vertex 90.1162 25.9573 0
    endloop
  endfacet
  facet normal -0.35459 -0.935022 0
    outer loop
      vertex 94.4821 28.9708 0
      vertex 96.2723 28.2919 3.5
      vertex 94.4821 28.9708 3.5
    endloop
  endfacet
  facet normal -0.35459 -0.935022 -0
    outer loop
      vertex 96.2723 28.2919 3.5
      vertex 94.4821 28.9708 0
      vertex 96.2723 28.2919 0
    endloop
  endfacet
  facet normal -0.970939 0.239327 0
    outer loop
      vertex 97.5418 23.1411 0
      vertex 98 25 3.5
      vertex 98 25 0
    endloop
  endfacet
  facet normal -0.970939 0.239327 0
    outer loop
      vertex 98 25 3.5
      vertex 97.5418 23.1411 0
      vertex 97.5418 23.1411 3.5
    endloop
  endfacet
  facet normal 0.120505 0.992713 -0
    outer loop
      vertex 94.4821 21.0292 0
      vertex 92.5816 21.2599 3.5
      vertex 94.4821 21.0292 3.5
    endloop
  endfacet
  facet normal 0.120505 0.992713 0
    outer loop
      vertex 92.5816 21.2599 3.5
      vertex 94.4821 21.0292 0
      vertex 92.5816 21.2599 0
    endloop
  endfacet
  facet normal -0.748518 0.663115 0
    outer loop
      vertex 96.2723 21.7081 0
      vertex 97.5418 23.1411 3.5
      vertex 97.5418 23.1411 0
    endloop
  endfacet
  facet normal -0.748518 0.663115 0
    outer loop
      vertex 97.5418 23.1411 3.5
      vertex 96.2723 21.7081 0
      vertex 96.2723 21.7081 3.5
    endloop
  endfacet
  facet normal -0.35459 0.935022 0
    outer loop
      vertex 96.2723 21.7081 0
      vertex 94.4821 21.0292 3.5
      vertex 96.2723 21.7081 3.5
    endloop
  endfacet
  facet normal -0.35459 0.935022 0
    outer loop
      vertex 94.4821 21.0292 3.5
      vertex 96.2723 21.7081 0
      vertex 94.4821 21.0292 0
    endloop
  endfacet
  facet normal 0.120505 -0.992713 0
    outer loop
      vertex 92.5816 28.7401 0
      vertex 94.4821 28.9708 3.5
      vertex 92.5816 28.7401 3.5
    endloop
  endfacet
  facet normal 0.120505 -0.992713 0
    outer loop
      vertex 94.4821 28.9708 3.5
      vertex 92.5816 28.7401 0
      vertex 94.4821 28.9708 0
    endloop
  endfacet
  facet normal 0.56808 0.822974 -0
    outer loop
      vertex 92.5816 21.2599 0
      vertex 91.006 22.3475 3.5
      vertex 92.5816 21.2599 3.5
    endloop
  endfacet
  facet normal 0.56808 0.822974 0
    outer loop
      vertex 91.006 22.3475 3.5
      vertex 92.5816 21.2599 0
      vertex 91.006 22.3475 0
    endloop
  endfacet
  facet normal 0.885437 0.46476 0
    outer loop
      vertex 91.006 22.3475 3.5
      vertex 90.1162 24.0427 0
      vertex 90.1162 24.0427 3.5
    endloop
  endfacet
  facet normal 0.885437 0.46476 0
    outer loop
      vertex 90.1162 24.0427 0
      vertex 91.006 22.3475 3.5
      vertex 91.006 22.3475 0
    endloop
  endfacet
  facet normal 0.567982 -0.823041 0
    outer loop
      vertex 128.006 27.6525 0
      vertex 129.582 28.7401 3.5
      vertex 128.006 27.6525 3.5
    endloop
  endfacet
  facet normal 0.567982 -0.823041 0
    outer loop
      vertex 129.582 28.7401 3.5
      vertex 128.006 27.6525 0
      vertex 129.582 28.7401 0
    endloop
  endfacet
  facet normal -0.748388 -0.663261 0
    outer loop
      vertex 134.542 26.8589 0
      vertex 133.272 28.2919 3.5
      vertex 133.272 28.2919 0
    endloop
  endfacet
  facet normal -0.748388 -0.663261 0
    outer loop
      vertex 133.272 28.2919 3.5
      vertex 134.542 26.8589 0
      vertex 134.542 26.8589 3.5
    endloop
  endfacet
  facet normal -0.970963 -0.239228 0
    outer loop
      vertex 135 25 0
      vertex 134.542 26.8589 3.5
      vertex 134.542 26.8589 0
    endloop
  endfacet
  facet normal -0.970963 -0.239228 0
    outer loop
      vertex 134.542 26.8589 3.5
      vertex 135 25 0
      vertex 135 25 3.5
    endloop
  endfacet
  facet normal 1 -0 0
    outer loop
      vertex 127.116 24.0427 3.5
      vertex 127.116 25.9573 0
      vertex 127.116 25.9573 3.5
    endloop
  endfacet
  facet normal 1 0 0
    outer loop
      vertex 127.116 25.9573 0
      vertex 127.116 24.0427 3.5
      vertex 127.116 24.0427 0
    endloop
  endfacet
  facet normal 0.885394 -0.464842 0
    outer loop
      vertex 127.116 25.9573 3.5
      vertex 128.006 27.6525 0
      vertex 128.006 27.6525 3.5
    endloop
  endfacet
  facet normal 0.885394 -0.464842 0
    outer loop
      vertex 128.006 27.6525 0
      vertex 127.116 25.9573 3.5
      vertex 127.116 25.9573 0
    endloop
  endfacet
  facet normal -0.354624 -0.935009 0
    outer loop
      vertex 131.482 28.9708 0
      vertex 133.272 28.2919 3.5
      vertex 131.482 28.9708 3.5
    endloop
  endfacet
  facet normal -0.354624 -0.935009 -0
    outer loop
      vertex 133.272 28.2919 3.5
      vertex 131.482 28.9708 0
      vertex 133.272 28.2919 0
    endloop
  endfacet
  facet normal -0.970963 0.239228 0
    outer loop
      vertex 134.542 23.1411 0
      vertex 135 25 3.5
      vertex 135 25 0
    endloop
  endfacet
  facet normal -0.970963 0.239228 0
    outer loop
      vertex 135 25 3.5
      vertex 134.542 23.1411 0
      vertex 134.542 23.1411 3.5
    endloop
  endfacet
  facet normal 0.120536 0.992709 -0
    outer loop
      vertex 131.482 21.0292 0
      vertex 129.582 21.2599 3.5
      vertex 131.482 21.0292 3.5
    endloop
  endfacet
  facet normal 0.120536 0.992709 0
    outer loop
      vertex 129.582 21.2599 3.5
      vertex 131.482 21.0292 0
      vertex 129.582 21.2599 0
    endloop
  endfacet
  facet normal -0.748388 0.663261 0
    outer loop
      vertex 133.272 21.7081 0
      vertex 134.542 23.1411 3.5
      vertex 134.542 23.1411 0
    endloop
  endfacet
  facet normal -0.748388 0.663261 0
    outer loop
      vertex 134.542 23.1411 3.5
      vertex 133.272 21.7081 0
      vertex 133.272 21.7081 3.5
    endloop
  endfacet
  facet normal -0.354624 0.935009 0
    outer loop
      vertex 133.272 21.7081 0
      vertex 131.482 21.0292 3.5
      vertex 133.272 21.7081 3.5
    endloop
  endfacet
  facet normal -0.354624 0.935009 0
    outer loop
      vertex 131.482 21.0292 3.5
      vertex 133.272 21.7081 0
      vertex 131.482 21.0292 0
    endloop
  endfacet
  facet normal 0.120536 -0.992709 0
    outer loop
      vertex 129.582 28.7401 0
      vertex 131.482 28.9708 3.5
      vertex 129.582 28.7401 3.5
    endloop
  endfacet
  facet normal 0.120536 -0.992709 0
    outer loop
      vertex 131.482 28.9708 3.5
      vertex 129.582 28.7401 0
      vertex 131.482 28.9708 0
    endloop
  endfacet
  facet normal 0.567982 0.823041 -0
    outer loop
      vertex 129.582 21.2599 0
      vertex 128.006 22.3475 3.5
      vertex 129.582 21.2599 3.5
    endloop
  endfacet
  facet normal 0.567982 0.823041 0
    outer loop
      vertex 128.006 22.3475 3.5
      vertex 129.582 21.2599 0
      vertex 128.006 22.3475 0
    endloop
  endfacet
  facet normal 0.885394 0.464842 0
    outer loop
      vertex 128.006 22.3475 3.5
      vertex 127.116 24.0427 0
      vertex 127.116 24.0427 3.5
    endloop
  endfacet
  facet normal 0.885394 0.464842 0
    outer loop
      vertex 127.116 24.0427 0
      vertex 128.006 22.3475 3.5
      vertex 128.006 22.3475 0
    endloop
  endfacet
  facet normal 0.567982 -0.823041 0
    outer loop
      vertex 128.006 64.6525 0
      vertex 129.582 65.7401 3.5
      vertex 128.006 64.6525 3.5
    endloop
  endfacet
  facet normal 0.567982 -0.823041 0
    outer loop
      vertex 129.582 65.7401 3.5
      vertex 128.006 64.6525 0
      vertex 129.582 65.7401 0
    endloop
  endfacet
  facet normal -0.748388 -0.663261 0
    outer loop
      vertex 134.542 63.8589 0
      vertex 133.272 65.2919 3.5
      vertex 133.272 65.2919 0
    endloop
  endfacet
  facet normal -0.748388 -0.663261 0
    outer loop
      vertex 133.272 65.2919 3.5
      vertex 134.542 63.8589 0
      vertex 134.542 63.8589 3.5
    endloop
  endfacet
  facet normal -0.970963 -0.239228 0
    outer loop
      vertex 135 62 0
      vertex 134.542 63.8589 3.5
      vertex 134.542 63.8589 0
    endloop
  endfacet
  facet normal -0.970963 -0.239228 0
    outer loop
      vertex 134.542 63.8589 3.5
      vertex 135 62 0
      vertex 135 62 3.5
    endloop
  endfacet
  facet normal 1 -0 0
    outer loop
      vertex 127.116 61.0427 3.5
      vertex 127.116 62.9573 0
      vertex 127.116 62.9573 3.5
    endloop
  endfacet
  facet normal 1 0 0
    outer loop
      vertex 127.116 62.9573 0
      vertex 127.116 61.0427 3.5
      vertex 127.116 61.0427 0
    endloop
  endfacet
  facet normal 0.885394 -0.464842 0
    outer loop
      vertex 127.116 62.9573 3.5
      vertex 128.006 64.6525 0
      vertex 128.006 64.6525 3.5
    endloop
  endfacet
  facet normal 0.885394 -0.464842 0
    outer loop
      vertex 128.006 64.6525 0
      vertex 127.116 62.9573 3.5
      vertex 127.116 62.9573 0
    endloop
  endfacet
  facet normal -0.354624 -0.935009 0
    outer loop
      vertex 131.482 65.9708 0
      vertex 133.272 65.2919 3.5
      vertex 131.482 65.9708 3.5
    endloop
  endfacet
  facet normal -0.354624 -0.935009 -0
    outer loop
      vertex 133.272 65.2919 3.5
      vertex 131.482 65.9708 0
      vertex 133.272 65.2919 0
    endloop
  endfacet
  facet normal -0.970963 0.239228 0
    outer loop
      vertex 134.542 60.1411 0
      vertex 135 62 3.5
      vertex 135 62 0
    endloop
  endfacet
  facet normal -0.970963 0.239228 0
    outer loop
      vertex 135 62 3.5
      vertex 134.542 60.1411 0
      vertex 134.542 60.1411 3.5
    endloop
  endfacet
  facet normal 0.120536 0.992709 -0
    outer loop
      vertex 131.482 58.0292 0
      vertex 129.582 58.2599 3.5
      vertex 131.482 58.0292 3.5
    endloop
  endfacet
  facet normal 0.120536 0.992709 0
    outer loop
      vertex 129.582 58.2599 3.5
      vertex 131.482 58.0292 0
      vertex 129.582 58.2599 0
    endloop
  endfacet
  facet normal -0.748388 0.663261 0
    outer loop
      vertex 133.272 58.7081 0
      vertex 134.542 60.1411 3.5
      vertex 134.542 60.1411 0
    endloop
  endfacet
  facet normal -0.748388 0.663261 0
    outer loop
      vertex 134.542 60.1411 3.5
      vertex 133.272 58.7081 0
      vertex 133.272 58.7081 3.5
    endloop
  endfacet
  facet normal -0.354624 0.935009 0
    outer loop
      vertex 133.272 58.7081 0
      vertex 131.482 58.0292 3.5
      vertex 133.272 58.7081 3.5
    endloop
  endfacet
  facet normal -0.354624 0.935009 0
    outer loop
      vertex 131.482 58.0292 3.5
      vertex 133.272 58.7081 0
      vertex 131.482 58.0292 0
    endloop
  endfacet
  facet normal 0.120536 -0.992709 0
    outer loop
      vertex 129.582 65.7401 0
      vertex 131.482 65.9708 3.5
      vertex 129.582 65.7401 3.5
    endloop
  endfacet
  facet normal 0.120536 -0.992709 0
    outer loop
      vertex 131.482 65.9708 3.5
      vertex 129.582 65.7401 0
      vertex 131.482 65.9708 0
    endloop
  endfacet
  facet normal 0.567982 0.823041 -0
    outer loop
      vertex 129.582 58.2599 0
      vertex 128.006 59.3475 3.5
      vertex 129.582 58.2599 3.5
    endloop
  endfacet
  facet normal 0.567982 0.823041 0
    outer loop
      vertex 128.006 59.3475 3.5
      vertex 129.582 58.2599 0
      vertex 128.006 59.3475 0
    endloop
  endfacet
  facet normal 0.885394 0.464842 0
    outer loop
      vertex 128.006 59.3475 3.5
      vertex 127.116 61.0427 0
      vertex 127.116 61.0427 3.5
    endloop
  endfacet
  facet normal 0.885394 0.464842 0
    outer loop
      vertex 127.116 61.0427 0
      vertex 128.006 59.3475 3.5
      vertex 128.006 59.3475 0
    endloop
  endfacet
  facet normal 0.567947 -0.823065 0
    outer loop
      vertex 128.006 99.6525 0
      vertex 129.582 100.74 3.5
      vertex 128.006 99.6525 3.5
    endloop
  endfacet
  facet normal 0.567947 -0.823065 0
    outer loop
      vertex 129.582 100.74 3.5
      vertex 128.006 99.6525 0
      vertex 129.582 100.74 0
    endloop
  endfacet
  facet normal -0.748411 -0.663235 0
    outer loop
      vertex 134.542 98.8589 0
      vertex 133.272 100.292 3.5
      vertex 133.272 100.292 0
    endloop
  endfacet
  facet normal -0.748411 -0.663235 0
    outer loop
      vertex 133.272 100.292 3.5
      vertex 134.542 98.8589 0
      vertex 134.542 98.8589 3.5
    endloop
  endfacet
  facet normal -0.970963 -0.239228 0
    outer loop
      vertex 135 97 0
      vertex 134.542 98.8589 3.5
      vertex 134.542 98.8589 0
    endloop
  endfacet
  facet normal -0.970963 -0.239228 0
    outer loop
      vertex 134.542 98.8589 3.5
      vertex 135 97 0
      vertex 135 97 3.5
    endloop
  endfacet
  facet normal 1 -0 0
    outer loop
      vertex 127.116 96.0427 3.5
      vertex 127.116 97.9573 0
      vertex 127.116 97.9573 3.5
    endloop
  endfacet
  facet normal 1 0 0
    outer loop
      vertex 127.116 97.9573 0
      vertex 127.116 96.0427 3.5
      vertex 127.116 96.0427 0
    endloop
  endfacet
  facet normal 0.885394 -0.464842 0
    outer loop
      vertex 127.116 97.9573 3.5
      vertex 128.006 99.6525 0
      vertex 128.006 99.6525 3.5
    endloop
  endfacet
  facet normal 0.885394 -0.464842 0
    outer loop
      vertex 128.006 99.6525 0
      vertex 127.116 97.9573 3.5
      vertex 127.116 97.9573 0
    endloop
  endfacet
  facet normal -0.35467 -0.934992 0
    outer loop
      vertex 131.482 100.971 0
      vertex 133.272 100.292 3.5
      vertex 131.482 100.971 3.5
    endloop
  endfacet
  facet normal -0.35467 -0.934992 -0
    outer loop
      vertex 133.272 100.292 3.5
      vertex 131.482 100.971 0
      vertex 133.272 100.292 0
    endloop
  endfacet
  facet normal -0.970963 0.239228 0
    outer loop
      vertex 134.542 95.1411 0
      vertex 135 97 3.5
      vertex 135 97 0
    endloop
  endfacet
  facet normal -0.970963 0.239228 0
    outer loop
      vertex 135 97 3.5
      vertex 134.542 95.1411 0
      vertex 134.542 95.1411 3.5
    endloop
  endfacet
  facet normal 0.120536 0.992709 -0
    outer loop
      vertex 131.482 93.0292 0
      vertex 129.582 93.2599 3.5
      vertex 131.482 93.0292 3.5
    endloop
  endfacet
  facet normal 0.120536 0.992709 0
    outer loop
      vertex 129.582 93.2599 3.5
      vertex 131.482 93.0292 0
      vertex 129.582 93.2599 0
    endloop
  endfacet
  facet normal -0.748388 0.663261 0
    outer loop
      vertex 133.272 93.7081 0
      vertex 134.542 95.1411 3.5
      vertex 134.542 95.1411 0
    endloop
  endfacet
  facet normal -0.748388 0.663261 0
    outer loop
      vertex 134.542 95.1411 3.5
      vertex 133.272 93.7081 0
      vertex 133.272 93.7081 3.5
    endloop
  endfacet
  facet normal -0.354624 0.935009 0
    outer loop
      vertex 133.272 93.7081 0
      vertex 131.482 93.0292 3.5
      vertex 133.272 93.7081 3.5
    endloop
  endfacet
  facet normal -0.354624 0.935009 0
    outer loop
      vertex 131.482 93.0292 3.5
      vertex 133.272 93.7081 0
      vertex 131.482 93.0292 0
    endloop
  endfacet
  facet normal 0.12069 -0.99269 0
    outer loop
      vertex 129.582 100.74 0
      vertex 131.482 100.971 3.5
      vertex 129.582 100.74 3.5
    endloop
  endfacet
  facet normal 0.12069 -0.99269 0
    outer loop
      vertex 131.482 100.971 3.5
      vertex 129.582 100.74 0
      vertex 131.482 100.971 0
    endloop
  endfacet
  facet normal 0.567982 0.823041 -0
    outer loop
      vertex 129.582 93.2599 0
      vertex 128.006 94.3475 3.5
      vertex 129.582 93.2599 3.5
    endloop
  endfacet
  facet normal 0.567982 0.823041 0
    outer loop
      vertex 128.006 94.3475 3.5
      vertex 129.582 93.2599 0
      vertex 128.006 94.3475 0
    endloop
  endfacet
  facet normal 0.885394 0.464842 0
    outer loop
      vertex 128.006 94.3475 3.5
      vertex 127.116 96.0427 0
      vertex 127.116 96.0427 3.5
    endloop
  endfacet
  facet normal 0.885394 0.464842 0
    outer loop
      vertex 127.116 96.0427 0
      vertex 128.006 94.3475 3.5
      vertex 128.006 94.3475 0
    endloop
  endfacet
endsolid OpenSCAD_Model
