<?xml version="1.0" encoding="UTF-8" standalone="no"?>
<!-- Created with Inkscape (http://www.inkscape.org/) -->

<svg
   width="210mm"
   height="297mm"
   viewBox="0 0 744.09448819 1052.3622047"
   id="svg4382"
   version="1.1"
   inkscape:version="1.1.1 (c3084ef, 2021-09-22)"
   sodipodi:docname="GibbonCase3D.svg"
   xmlns:inkscape="http://www.inkscape.org/namespaces/inkscape"
   xmlns:sodipodi="http://sodipodi.sourceforge.net/DTD/sodipodi-0.dtd"
   xmlns="http://www.w3.org/2000/svg"
   xmlns:svg="http://www.w3.org/2000/svg"
   xmlns:rdf="http://www.w3.org/1999/02/22-rdf-syntax-ns#"
   xmlns:cc="http://creativecommons.org/ns#"
   xmlns:dc="http://purl.org/dc/elements/1.1/">
  <defs
     id="defs4384" />
  <sodipodi:namedview
     id="base"
     pagecolor="#ffffff"
     bordercolor="#666666"
     borderopacity="1.0"
     inkscape:pageopacity="0.0"
     inkscape:pageshadow="2"
     inkscape:zoom="0.175"
     inkscape:cx="1002.8571"
     inkscape:cy="440"
     inkscape:document-units="px"
     inkscape:current-layer="layer1"
     showgrid="false"
     inkscape:window-width="1312"
     inkscape:window-height="812"
     inkscape:window-x="0"
     inkscape:window-y="25"
     inkscape:window-maximized="0"
     inkscape:pagecheckerboard="0" />
  <metadata
     id="metadata4387">
    <rdf:RDF>
      <cc:Work
         rdf:about="">
        <dc:format>image/svg+xml</dc:format>
        <dc:type
           rdf:resource="http://purl.org/dc/dcmitype/StillImage" />
      </cc:Work>
    </rdf:RDF>
  </metadata>
  <g
     inkscape:label="Layer 1"
     inkscape:groupmode="layer"
     id="layer1">
    <path
       inkscape:connector-curvature="0"
       id="path92847"
       d="m 325.76817,25.210098 -38.9297,114.976562 -8.5488,-56.388672 H 172.2252 L 158.73692,150.65541 16.42191,266.8072 l 49.49805,81.82227 33.37444,-16.7606 -0.78823,88.02678 273.8307,-1.66881 -63.5908,-193.49237 46.4417,-33.36799 26.0374,-85.72232 h 51.6192 V 25.210098 Z"
       style="fill:#000000;fill-rule:evenodd;stroke:#000000;stroke-width:1px;stroke-linecap:butt;stroke-linejoin:miter;stroke-opacity:1"
       sodipodi:nodetypes="cccccccccccccccc" />
    <path
       style="opacity:1;fill:#000000;fill-opacity:1;stroke:#000000;stroke-width:1.25;stroke-linecap:round;stroke-miterlimit:4;stroke-dasharray:none;stroke-opacity:1"
       d="m 203.83415,47.939028 c -12.61107,0 -22.76367,10.1526 -22.76367,22.76368 v 5.99023 c 0,1.38377 0.12897,2.73637 0.36328,4.05078 1.17646,-0.30268 2.40421,-0.48047 3.67773,-0.48047 h 9.7168 c -0.40036,-1.09147 -0.625,-2.28864 -0.625,-3.57031 v -5.99023 c 0,-5.56312 4.06776,-9.63086 9.63086,-9.63086 h 37.69141 c 5.56309,0 9.63086,4.06774 9.63086,9.63086 v 5.99023 c 0,1.28167 -0.22464,2.47884 -0.625,3.57031 h 13.47851 c 0.18167,-1.1627 0.2793,-2.35507 0.2793,-3.57031 v -5.99023 c 0,-12.61108 -10.1526,-22.76368 -22.76367,-22.76368 z"
       id="path92849"
       inkscape:connector-curvature="0" />
    <rect
       style="opacity:1;fill:#000000;fill-opacity:1;stroke:#000000;stroke-width:1.25;stroke-linecap:round;stroke-miterlimit:4;stroke-dasharray:none;stroke-opacity:1"
       id="rect92851"
       width="6.5659914"
       height="5.5558391"
       x="185.61644"
       y="78.243088"
       ry="2.7779195" />
    <rect
       ry="2.7779195"
       y="78.243088"
       x="253.80168"
       height="5.5558391"
       width="6.5659914"
       id="rect92853"
       style="opacity:1;fill:#000000;fill-opacity:1;stroke:#000000;stroke-width:1.25;stroke-linecap:round;stroke-miterlimit:4;stroke-dasharray:none;stroke-opacity:1" />
    <path
       id="path92855"
       style="fill:#ffffff;stroke:#000000;stroke-width:0.945188;stroke-linecap:round;stroke-linejoin:round"
       d="m 371.40027,41.236468 c -14.8012,0.10494 -22.3549,4.56635 -28.5645,11.80664 -8.3131,9.693 -17.5331,43.9992 -20.8813,61.409912 -3.3483,17.41073 -18.0814,46.8763 -29.4654,55.58166 -11.3839,8.70537 -30.7306,7.20521 -30.7306,7.20521 -0.8879,-3.95792 -1.4607,-7.43031 -1.333,-9.47388 0.1323,-2.11667 0.742,-4.92261 1.5381,-7.87171 6.5494,-4.69196 10.1179,-10.49389 10.1312,-16.47217 0,-3.69698 -1.3682,-7.35304 -4.0063,-10.73547 0.7841,-1.53834 1.2867,-3.22107 1.4319,-4.98047 l 0.661,-8.01453 c 0.5786,-7.01432 -4.7411,-12.49756 -11.9275,-12.29552 l -9.95362,0.28015 c -1.2671,0.0356 -2.5029,0.24774 -3.68591,0.6079 -6.10496,-2.29169 -12.85491,-3.48736 -19.70214,-3.48998 -6.65616,0.0242 -13.2163,1.17545 -19.17664,3.36547 -1.05361,-0.2856 -2.14827,-0.45199 -3.26477,-0.48339 l -9.95179,-0.28015 c -7.18637,-0.20204 -12.50603,5.2812 -11.92748,12.29552 l 0.66101,8.01453 c 0.1052,1.27545 0.39959,2.5093 0.85144,3.67859 -0.0742,0.45553 -0.13528,0.91217 -0.1831,1.36963 -2.61875,3.36192 -3.97966,6.99393 -3.9972,10.66772 0.0329,5.08391 2.63725,10.05631 7.50549,14.32984 0.3368,3.36946 0.49186,6.90847 0.18128,10.01404 -0.24846,2.48466 -0.69798,6.06225 -1.21765,9.96276 -9.12362,-1.05604 -25.73771,-2.14814 -34.66369,2.58179 -15.7164,8.3282 -22.86397,19.32279 -35.13062,34.00086 -10.59586,12.67882 -39.50791,22.72563 -50.68543,31.53991 -8.55973,6.75 -14.996,17.79718 -9.51233,36.47462 4.57218,15.57292 13.70554,22.56781 20.36317,25.08727 11.21021,4.24234 22.5852,1.73978 27.55553,-4.76257 4.18692,-5.47744 0.62329,-12.332 -4.6582,-11.43493 -5.28151,0.89704 -5.22965,4.05223 -11.61987,2.42065 -6.3902,-1.63157 -14.07521,-4.76584 -13.04993,-17.0343 2.35351,-28.16198 31.18736,-27.02199 51.97632,-39.40979 13.57036,-8.08636 10.20085,-12.93259 28.92334,-27.91077 5.44168,-4.35339 21.06286,-5.00127 26.98242,-4.32495 -0.17791,1.80079 -0.28729,3.61135 -0.32776,5.42541 0.0299,10.78416 2.49326,21.33374 7.10083,30.41016 -4.0542,4.38012 -22.95562,24.83831 -32.34009,36.35559 -10.4172,12.78473 -20.17315,38.68084 -17.99378,54.45372 1.93746,14.02199 10.38946,28.78059 15.14833,36.2219 h -24.93531 c -8.64113,0 -15.59875,6.95578 -15.59875,15.597 v 0.85322 c 0,8.64112 6.95762,15.59691 15.59875,15.59691 h 56.15662 c 8.64113,0 15.59875,-6.95579 15.59875,-15.59691 v -0.85322 c 0,-8.61581 -6.91777,-15.55265 -15.52368,-15.59334 -4.64158,-9.83297 -10.66783,-23.28103 -13.29895,-31.01616 -2.84104,-10.41722 0.94813,-24.14878 6.63025,-34.09244 4.40667,-7.71165 22.97196,-30.07826 31.24878,-39.92798 5.40818,2.81578 11.19994,4.267 17.04895,4.27185 5.26478,-0.0432 10.48241,-1.25808 15.41381,-3.58887 8.68275,10.35416 26.42392,31.80771 30.67382,39.245 5.6821,9.94366 9.4713,23.67522 6.6303,34.09244 -0.3895,1.4281 -3.5432,17.90588 -7.392,31.17553 -7.6172,1.04063 -13.4546,7.52203 -13.4546,15.43397 v 0.85322 c 0,8.64112 6.9558,15.59691 15.5969,15.59691 h 56.1566 c 8.6412,0 15.5988,-6.95579 15.5988,-15.59691 v -0.85322 c 0,-8.64122 -6.9576,-15.597 -15.5988,-15.597 h -32.9095 c 4.7589,-7.44131 13.2109,-22.19991 15.1483,-36.2219 2.1794,-15.77288 -7.5766,-41.66899 -17.9938,-54.45372 -8.845,-10.8553 -25.3708,-28.79998 -30.9301,-34.8175 5.1181,-9.40118 7.8719,-20.53628 7.901,-31.94825 -0.073,-1.35472 -0.1851,-2.7057 -0.3351,-4.05029 0.6557,-0.0424 1.1471,-0.0989 1.8384,-0.13733 12.0535,-0.66965 41.5191,-7.36505 55.5816,-26.78467 14.0625,-19.41964 17.4102,-45.53649 22.7674,-64.28649 6.6482,-23.268852 3.3474,-46.205882 24.776,-52.232672 11.8514,-3.33321 20.0906,1.33956 22.7691,7.36633 2.6786,6.02679 -3.349,9.37551 -3.349,14.73267 0,5.35713 6.0271,6.02704 12.0539,2.67883 6.0267,-3.34822 11.0722,-24.57456 0.9393,-34.90356 -4.985,-5.08148 -9.6447,-9.96197 -29.0643,-11.30128 -2.4275,-0.16741 -4.6898,-0.24204 -6.8042,-0.22704 z"
       sodipodi:nodetypes="sssscsccccscccccccssccccscssssssssssscccsscsssssssccscccsscssssssscssccccsssssssss" />
  </g>
</svg>
