<?xml version="1.0" encoding="UTF-8" standalone="no"?>
<!-- Created with Inkscape (http://www.inkscape.org/) -->

<svg
   width="120mm"
   height="120mm"
   viewBox="0 0 425.19685 425.19685"
   id="svg4382"
   version="1.1"
   inkscape:version="1.1.1 (c3084ef, 2021-09-22)"
   sodipodi:docname="inflatableGibbonCase3DInsideLarger.svg"
   xmlns:inkscape="http://www.inkscape.org/namespaces/inkscape"
   xmlns:sodipodi="http://sodipodi.sourceforge.net/DTD/sodipodi-0.dtd"
   xmlns="http://www.w3.org/2000/svg"
   xmlns:svg="http://www.w3.org/2000/svg"
   xmlns:rdf="http://www.w3.org/1999/02/22-rdf-syntax-ns#"
   xmlns:cc="http://creativecommons.org/ns#"
   xmlns:dc="http://purl.org/dc/elements/1.1/">
  <defs
     id="defs4384" />
  <sodipodi:namedview
     id="base"
     pagecolor="#ffffff"
     bordercolor="#666666"
     borderopacity="1.0"
     inkscape:pageopacity="0.0"
     inkscape:pageshadow="2"
     inkscape:zoom="1.4"
     inkscape:cx="201.07143"
     inkscape:cy="229.28571"
     inkscape:document-units="px"
     inkscape:current-layer="layer1"
     showgrid="false"
     inkscape:window-width="1312"
     inkscape:window-height="812"
     inkscape:window-x="0"
     inkscape:window-y="25"
     inkscape:window-maximized="0"
     inkscape:pagecheckerboard="0"
     showguides="false"
     width="120mm" />
  <metadata
     id="metadata4387">
    <rdf:RDF>
      <cc:Work
         rdf:about="">
        <dc:format>image/svg+xml</dc:format>
        <dc:type
           rdf:resource="http://purl.org/dc/dcmitype/StillImage" />
      </cc:Work>
    </rdf:RDF>
  </metadata>
  <g
     inkscape:label="Layer 1"
     inkscape:groupmode="layer"
     id="layer1">
    <path
       id="path124750"
       style="fill:none;stroke:#ff0000;stroke-width:0.901406;stroke-linecap:round;stroke-linejoin:round"
       sodipodi:type="inkscape:offset"
       inkscape:radius="3.365943"
       inkscape:original="M 316.93945 -18.832031 C 302.68733 -18.730984 295.19021 -14.340197 289.17969 -7.3320312 C 285.03646 -2.5010639 280.91054 7.9908178 277.3125 19.431641 C 273.71446 30.872463 270.71417 43.215965 269.11133 51.550781 C 267.53647 59.739868 263.24409 70.889116 258 80.980469 C 252.75591 91.071822 246.51416 100.13006 241.26953 104.14062 C 231.19389 111.84556 214.40978 110.97624 212.95117 110.88672 C 212.18323 107.36846 211.6897 104.25001 211.79492 102.56641 C 211.91234 100.68774 212.46669 98.106297 213.19336 95.388672 C 219.40913 90.855576 222.91071 85.206081 222.92383 79.308594 A 0.68780123 0.68780123 0 0 0 222.92383 79.306641 C 222.92383 75.734484 221.61508 72.218066 219.1875 68.984375 C 219.86613 67.547198 220.33259 66.003154 220.4668 64.376953 L 221.09766 56.732422 C 221.68026 49.669545 216.23008 44.058945 209.01758 44.261719 L 199.52539 44.529297 C 198.34413 44.562484 197.19995 44.780913 196.09375 45.095703 C 190.23511 42.921528 183.78547 41.783754 177.24023 41.78125 A 0.68780123 0.68780123 0 0 0 177.23828 41.78125 C 170.87466 41.804387 164.60451 42.898143 158.88477 44.976562 C 157.90264 44.728572 156.89353 44.558437 155.85742 44.529297 L 146.36719 44.261719 C 139.15471 44.058945 133.70456 49.669549 134.28711 56.732422 L 134.91797 64.376953 C 135.01709 65.578629 135.31365 66.731798 135.71875 67.837891 C 135.66365 68.187991 135.61918 68.538365 135.58008 68.888672 C 133.09187 72.146341 131.75746 75.694968 131.74023 79.302734 A 0.68780123 0.68780123 0 0 0 131.74023 79.310547 C 131.77258 84.304342 134.32072 89.1436 138.91797 93.267578 C 139.22087 96.386191 139.35815 99.635444 139.07617 102.45508 C 138.8571 104.64588 138.44817 107.86289 137.99609 111.28125 C 129.14648 110.28877 113.88366 109.28629 105.2168 113.87891 C 90.083343 121.8982 83.184124 132.50136 71.509766 146.4707 C 66.597293 152.34888 57.229967 157.77551 47.757812 162.72461 C 38.285658 167.67371 28.729937 172.15029 23.273438 176.45312 C 14.955352 183.01257 8.6755085 193.94852 13.966797 211.9707 C 18.381244 227.00639 27.254097 233.8675 33.802734 236.3457 C 44.72148 240.47774 55.877222 238.11384 60.873047 231.57812 C 63.010768 228.7815 63.203044 225.56114 62.117188 223.14648 C 61.031331 220.73183 58.59624 219.09767 55.767578 219.57812 C 53.117535 220.02822 51.731285 221.0734 50.441406 221.69531 C 49.151528 222.31723 47.917249 222.65026 44.972656 221.89844 C 41.963836 221.13022 38.734613 220.01505 36.408203 217.75195 C 34.081793 215.48886 32.566356 212.07813 33.042969 206.375 C 34.14574 193.1793 41.313106 187.01932 50.84375 182.50586 C 60.374394 177.9924 72.236269 175.30753 82.277344 169.32422 C 88.821638 165.42457 91.370399 162.2193 94.417969 158.3125 C 97.465538 154.4057 101.0558 149.75935 109.93945 142.65234 C 112.29656 140.76664 117.26005 139.52366 122.28516 138.9375 C 127.01731 138.38551 131.68766 138.39251 134.51367 138.65234 C 134.38204 140.14741 134.27574 141.64655 134.24219 143.15039 A 0.68780123 0.68780123 0 0 0 134.24219 143.16797 C 134.2705 153.38556 136.58789 163.37041 140.89453 172.03125 C 136.76009 176.4989 119.20925 195.50235 110.32617 206.4043 C 105.28161 212.59534 100.45569 221.86553 97.125 231.50977 C 93.794311 241.154 91.95234 251.15377 93.017578 258.86328 C 94.817547 271.8902 102.29047 285.25243 106.92773 292.62695 L 84.365234 292.62695 C 75.755282 292.62695 68.800781 299.5793 68.800781 308.18945 L 68.800781 309.00195 C 68.800781 317.61201 75.755276 324.56445 84.365234 324.56445 L 137.91992 324.56445 C 146.52988 324.56445 153.48438 317.61201 153.48438 309.00195 L 153.48438 308.18945 C 153.48438 299.76214 146.81123 292.9661 138.45508 292.67969 C 134.05899 283.35216 128.43155 270.77304 125.9707 263.54688 C 123.34735 253.91096 126.88325 240.92399 132.23047 231.56641 C 134.26743 228.00173 139.7534 220.79738 145.68555 213.37891 C 151.49819 206.10988 157.67193 198.70454 161.63281 193.98828 C 166.73722 196.55098 172.18566 197.90363 177.69336 197.9082 A 0.68780123 0.68780123 0 0 0 177.69922 197.9082 C 182.645 197.86762 187.53966 196.73788 192.18164 194.625 C 196.32068 199.5636 202.41397 206.89542 208.06641 213.98242 C 213.83163 221.21084 219.08354 228.13058 221.04688 231.56641 C 226.39581 240.92704 229.93287 253.91977 227.30469 263.55664 C 227.1855 263.99363 226.94427 265.17529 226.55273 267.03711 C 226.16119 268.89893 225.63766 271.3842 225.00977 274.2207 C 223.77859 279.78251 222.14534 286.68632 220.35938 292.89453 C 212.99699 294.13334 207.40039 300.47192 207.40039 308.18945 L 207.40039 309.00195 C 207.40039 317.61179 214.35101 324.56445 222.96094 324.56445 L 276.51758 324.56445 C 285.1276 324.56445 292.08008 317.6119 292.08008 309.00195 L 292.08008 308.18945 C 292.08008 299.57941 285.1276 292.62695 276.51758 292.62695 L 246.34961 292.62695 C 250.98691 285.25243 258.45987 271.89021 260.25977 258.86328 C 261.32502 251.15377 259.48304 241.154 256.15234 231.50977 C 252.82165 221.86553 247.99573 212.59534 242.95117 206.4043 C 234.58153 196.13239 219.21184 179.43399 213.73633 173.50586 C 218.5246 164.525 221.11695 153.98374 221.14453 143.16797 A 0.68780123 0.68780123 0 0 0 221.14453 143.12891 C 221.08702 142.06125 220.98634 140.99859 220.87891 139.9375 C 221.21379 139.90969 221.5449 139.88077 221.92969 139.85938 C 227.77301 139.53474 237.71155 137.7677 247.92773 133.74609 C 258.14392 129.72449 268.63577 123.44764 275.45312 114.0332 C 289.00563 95.317842 292.18798 70.299843 297.27148 52.507812 C 300.46626 41.326014 301.26916 30.28949 303.79883 21.435547 C 306.3285 12.581604 310.43358 5.9777238 320.42383 3.1679688 C 331.48501 0.057009612 338.92881 4.4207115 341.32422 9.8105469 C 342.5045 12.466152 341.79343 14.376566 340.70312 16.478516 C 339.61282 18.580465 338.07031 20.769528 338.07031 23.582031 C 338.07031 24.988246 338.47758 26.169639 339.22461 27.035156 C 339.97164 27.900673 341.02845 28.426921 342.22461 28.648438 C 344.61693 29.09147 347.61197 28.391565 350.58789 26.738281 C 352.25883 25.809967 353.66392 23.830094 354.80664 21.251953 C 355.94936 18.673812 356.80197 15.476036 357.16602 12.0625 C 357.89411 5.2354276 356.6773 -2.4986782 351.64062 -7.6328125 C 349.26562 -10.053779 346.87671 -12.518138 342.75 -14.498047 C 338.62329 -16.477956 332.79198 -17.97096 323.47852 -18.613281 C 321.14826 -18.773984 318.97564 -18.846476 316.93945 -18.832031 z "
       d="m 316.91602,-22.197266 c -14.93502,0.105889 -23.83234,5.143118 -30.29102,12.6738285 -4.99215,5.8208059 -8.88115,16.3637993 -12.52344,27.9453125 -3.64525,11.590931 -6.66136,23.999582 -8.29492,32.494141 -1.46766,7.631637 -5.6701,18.65363 -10.79297,28.511718 -5.1202,9.852951 -11.46345,18.731273 -15.78906,22.039066 -6.84355,5.23332 -18.31014,5.99732 -23.37109,6.06445 -0.30919,-1.91924 -0.73024,-4.25959 -0.69922,-4.75586 0.0763,-1.21754 0.56057,-3.409651 1.11328,-5.61914 6.11593,-4.848503 10.00636,-11.042953 10.02148,-17.839844 a 3.3662795,3.3662795 0 0 0 0,-0.0039 c 1e-5,-0.0023 0,-0.0036 0,-0.0059 v -0.0039 c -8.3e-4,-3.775698 -1.25924,-7.417156 -3.36328,-10.724609 0.43139,-1.242418 0.78177,-2.533893 0.89649,-3.923828 l 0.63085,-7.644531 c 0.736,-8.922493 -6.52567,-16.366412 -15.52929,-16.113282 a 3.3662795,3.3662795 0 0 0 -0.002,0 l -9.49219,0.267578 c -1.13215,0.03197 -2.13642,0.280828 -3.14258,0.511719 -5.99476,-2.09776 -12.45686,-3.257031 -19.04297,-3.259765 -0.004,-6e-6 -0.006,-6e-6 -0.01,0 a 3.3662795,3.3662795 0 0 0 -0.008,0 c -6.40684,0.02329 -12.69637,1.138401 -18.54883,3.146484 -0.87806,-0.176693 -1.75108,-0.370923 -2.72461,-0.398438 h -0.002 l -9.48828,-0.267578 a 3.3662795,3.3662795 0 0 0 -0.002,0 c -9.00361,-0.25313 -16.26523,7.190811 -15.5293,16.113282 l 0.63086,7.644531 c 0.0938,1.137086 0.41884,2.132215 0.71875,3.136719 -2.43715,3.508227 -3.88683,7.430298 -3.90625,11.496093 -7e-5,0.01407 -8e-5,0.0289 0,0.04297 a 3.3662795,3.3662795 0 0 0 0,0.002 c 0.0366,5.643777 2.79386,10.910201 7.21289,15.296875 0.21534,2.638026 0.35458,5.333247 0.13867,7.492184 -0.13273,1.32744 -0.42285,3.523 -0.67383,5.50391 -9.1638,-0.91712 -22.21782,-1.59281 -31.41211,3.2793 -15.844121,8.39587 -23.157522,19.58125 -34.712886,33.4082 -4.21599,5.04478 -13.344158,10.52646 -22.728515,15.42969 -9.387015,4.90461 -18.944241,9.28527 -25.009766,14.06836 -9.099628,7.17575 -16.0508864,20.04139 -10.453125,39.10742 4.679911,15.93987 14.344252,23.72631 21.875,26.57617 12.026004,4.55107 24.709339,2.27426 30.935547,-5.87109 2.835705,-3.70974 3.24655,-8.28627 1.640625,-11.85743 -1.624877,-3.61328 -5.59908,-6.2507 -9.984375,-5.50585 -3.30706,0.56169 -5.411872,2.01338 -6.222656,2.40429 -0.956652,0.46126 -0.68049,0.60976 -3.175781,-0.0273 -2.811629,-0.71787 -5.442177,-1.73395 -7.048829,-3.29688 -1.638487,-1.59389 -2.7774,-3.68152 -2.359375,-8.68359 1.009211,-12.07616 6.838737,-16.82161 15.888672,-21.10742 9.020927,-4.27207 21.052753,-6.98062 31.714844,-13.33399 6.910894,-4.1181 10.014058,-7.91159 13.072266,-11.83203 3.055084,-3.91643 6.300424,-8.16525 14.970704,-15.10156 1.12063,-0.89651 5.89826,-2.44773 10.63281,-3 3.02388,-0.35273 5.83361,-0.40752 8.27149,-0.36914 -0.0174,0.39293 -0.0614,0.76627 -0.0703,1.16406 a 3.3662795,3.3662795 0 0 0 0,0.0312 c -3e-4,0.0235 -1e-4,0.0469 0,0.0703 0.0274,9.89726 2.18126,19.53939 6.08008,28.17188 -5.22915,5.65664 -20.68668,22.4302 -29.24023,32.92773 -5.41987,6.65165 -10.332519,16.16939 -13.773441,26.13282 -3.440045,9.96087 -5.451023,20.2925 -4.259765,28.91406 1.558877,11.28206 6.839249,22.13692 11.333986,29.9375 H 84.365234 c -10.421902,0 -18.929687,8.50511 -18.929687,18.92773 v 0.8125 c 0,10.42255 8.507756,18.92774 18.929687,18.92774 h 53.554686 c 10.42193,0 18.92969,-8.50519 18.92969,-18.92774 v -0.8125 c 0,-9.44795 -7.02455,-17.19738 -16.0918,-18.58203 -4.23251,-9.05121 -9.3227,-20.50551 -11.55469,-27.02734 -2.1797,-8.15826 0.96629,-20.62366 5.94922,-29.34375 1.7146,-3.00054 7.26165,-10.37701 13.16211,-17.75586 5.20488,-6.50899 10.37508,-12.7032 14.30664,-17.39649 4.81958,2.04031 9.90017,3.18354 15.0586,3.18946 0.0115,5e-5 0.0217,5e-5 0.0332,0 a 3.3662795,3.3662795 0 0 0 0.0137,0 c 4.55462,-0.0374 9.01393,-1.09441 13.31836,-2.72656 4.05857,4.85445 9.28053,11.12814 14.39063,17.53515 5.73361,7.1888 11.04311,14.27322 12.68945,17.1543 5.00039,8.75069 8.15606,21.27917 5.93164,29.43555 -0.22115,0.8108 -0.40706,1.81826 -0.79687,3.67187 -0.39134,1.86083 -0.91356,4.33349 -1.53711,7.15039 -1.10289,4.98226 -2.59189,11.04937 -4.14844,16.66406 -7.80963,2.32581 -13.53906,9.48818 -13.53906,18.03125 v 0.8125 c 0,10.42137 8.50381,18.92774 18.92578,18.92774 h 53.55664 c 10.42201,0 18.92773,-8.5058 18.92773,-18.92774 v -0.8125 c 0,-10.422 -8.50575,-18.92773 -18.92773,-18.92773 h -24.25781 c 4.49476,-7.80058 9.77516,-18.65541 11.33398,-29.9375 1.19127,-8.62157 -0.81971,-18.95319 -4.25977,-28.91406 -3.44092,-9.96343 -8.35356,-19.48117 -13.77343,-26.13282 -8.04314,-9.87119 -21.68269,-24.72542 -27.84766,-31.4082 4.35661,-8.99814 6.77011,-19.19686 6.79688,-29.69336 3.2e-4,-0.0475 0.001,-0.0951 0,-0.14258 a 3.3662795,3.3662795 0 0 0 -0.002,-0.0566 c 6.32728,-0.61079 15.22998,-2.38853 24.65235,-6.09765 10.59607,-4.17115 21.65684,-10.70357 29.01953,-20.8711 14.24145,-19.666747 17.37166,-45.228763 22.32812,-62.576169 3.31458,-11.601095 4.14897,-22.747857 6.52735,-31.072266 2.38687,-8.354166 5.40244,-13.4485175 14.30078,-15.9511719 9.89257,-2.7822874 15.2939,1.1284518 16.91211,4.7695309 0.73317,1.649632 0.44869,1.857053 -0.53321,3.75 -0.93264,1.798008 -3.00976,4.611099 -3.00976,8.654297 0,2.056115 0.62916,4.09802 1.9707,5.652344 1.33204,1.543313 3.14989,2.393924 4.93555,2.724609 3.51103,0.650206 7.14985,-0.356259 10.61133,-2.279296 2.74673,-1.525989 4.36388,-4.135463 5.66211,-7.064454 1.30919,-2.953738 2.22959,-6.451141 2.6289,-10.195312 0.79845,-7.4868404 -0.44041,-16.2631822 -6.4707,-22.4101564 -2.36552,-2.4113036 -5.18584,-5.3110136 -9.83789,-7.5429686 -4.64668,-2.229379 -10.91972,-3.777182 -20.49414,-4.4375 -2.40421,-0.165803 -4.66187,-0.241695 -6.79492,-0.226563 z"
       transform="translate(36.160714,56.25)" />
  </g>
</svg>
