<?xml version="1.0" encoding="UTF-8" standalone="no"?>
<!-- Created with Inkscape (http://www.inkscape.org/) -->

<svg
   width="120mm"
   height="120mm"
   viewBox="0 0 425.19685 425.19685"
   id="svg4382"
   version="1.1"
   inkscape:version="1.1.1 (c3084ef, 2021-09-22)"
   sodipodi:docname="inflatableGibbonCaseTop3DInsideLarger.svg"
   xmlns:inkscape="http://www.inkscape.org/namespaces/inkscape"
   xmlns:sodipodi="http://sodipodi.sourceforge.net/DTD/sodipodi-0.dtd"
   xmlns="http://www.w3.org/2000/svg"
   xmlns:svg="http://www.w3.org/2000/svg"
   xmlns:rdf="http://www.w3.org/1999/02/22-rdf-syntax-ns#"
   xmlns:cc="http://creativecommons.org/ns#"
   xmlns:dc="http://purl.org/dc/elements/1.1/">
  <defs
     id="defs4384" />
  <sodipodi:namedview
     id="base"
     pagecolor="#ffffff"
     bordercolor="#666666"
     borderopacity="1.0"
     inkscape:pageopacity="0.0"
     inkscape:pageshadow="2"
     inkscape:zoom="0.98994949"
     inkscape:cx="179.30208"
     inkscape:cy="138.3909"
     inkscape:document-units="px"
     inkscape:current-layer="layer1"
     showgrid="false"
     inkscape:window-width="1312"
     inkscape:window-height="812"
     inkscape:window-x="0"
     inkscape:window-y="25"
     inkscape:window-maximized="0"
     inkscape:pagecheckerboard="0"
     showguides="false"
     width="120mm" />
  <metadata
     id="metadata4387">
    <rdf:RDF>
      <cc:Work
         rdf:about="">
        <dc:format>image/svg+xml</dc:format>
        <dc:type
           rdf:resource="http://purl.org/dc/dcmitype/StillImage" />
      </cc:Work>
    </rdf:RDF>
  </metadata>
  <g
     inkscape:label="Layer 1"
     inkscape:groupmode="layer"
     id="layer1">
    <path
       id="path8"
       style="fill:none;stroke:#808000;stroke-width:0.90140596;stroke-linecap:round;stroke-linejoin:round;stroke-miterlimit:4;stroke-dasharray:none"
       sodipodi:type="inkscape:offset"
       inkscape:radius="-0.99506289"
       inkscape:original="M 316.91602 -22.197266 C 301.981 -22.091377 293.08368 -17.054148 286.625 -9.5234375 C 281.63285 -3.7026316 277.74385 6.8403618 274.10156 18.421875 C 270.45631 30.012806 267.4402 42.421457 265.80664 50.916016 C 264.33898 58.547653 260.13654 69.569646 255.01367 79.427734 C 249.89347 89.280685 243.55022 98.159004 239.22461 101.4668 C 232.38106 106.70012 220.91447 107.46412 215.85352 107.53125 C 215.54433 105.61201 215.12328 103.27166 215.1543 102.77539 C 215.23057 101.55785 215.71487 99.365739 216.26758 97.15625 C 222.38351 92.307747 226.27394 86.113297 226.28906 79.316406 A 3.3662795 3.3662795 0 0 0 226.28906 79.314453 A 3.3662795 3.3662795 0 0 0 226.28906 79.3125 C 226.28907 79.310198 226.28906 79.308943 226.28906 79.306641 L 226.28906 79.302734 C 226.28823 75.527036 225.02982 71.885578 222.92578 68.578125 C 223.35717 67.335707 223.70755 66.044232 223.82227 64.654297 L 224.45312 57.009766 C 225.18912 48.087273 217.92745 40.643354 208.92383 40.896484 A 3.3662795 3.3662795 0 0 0 208.92188 40.896484 L 199.42969 41.164062 C 198.29754 41.196028 197.29327 41.44489 196.28711 41.675781 C 190.29235 39.578021 183.83025 38.41875 177.24414 38.416016 C 177.24031 38.41601 177.23821 38.41601 177.23438 38.416016 A 3.3662795 3.3662795 0 0 0 177.22656 38.416016 C 170.81972 38.43931 164.53019 39.554417 158.67773 41.5625 C 157.79967 41.385807 156.92665 41.191578 155.95312 41.164062 L 155.95117 41.164062 L 146.46289 40.896484 A 3.3662795 3.3662795 0 0 0 146.46094 40.896484 C 137.45733 40.643354 130.19571 48.087295 130.93164 57.009766 L 131.5625 64.654297 C 131.65629 65.791383 131.98134 66.786512 132.28125 67.791016 C 129.8441 71.299243 128.39442 75.221314 128.375 79.287109 C 128.37493 79.30118 128.37492 79.316008 128.375 79.330078 A 3.3662795 3.3662795 0 0 0 128.375 79.332031 C 128.41156 84.975808 131.16886 90.242232 135.58789 94.628906 C 135.80323 97.266932 135.94247 99.962157 135.72656 102.12109 C 135.59383 103.44853 135.30371 105.64409 135.05273 107.625 C 125.88893 106.70788 112.83491 106.03219 103.64062 110.9043 C 87.796504 119.30017 80.483098 130.48555 68.927734 144.3125 C 64.711744 149.35728 55.583576 154.83896 46.199219 159.74219 C 36.812204 164.6468 27.254978 169.02746 21.189453 173.81055 C 12.089825 180.9863 5.1385667 193.85194 10.736328 212.91797 C 15.416239 228.85784 25.08058 236.64428 32.611328 239.49414 C 44.637332 244.04521 57.320667 241.7684 63.546875 233.62305 C 66.38258 229.91331 66.793425 225.33678 65.1875 221.76562 C 63.562623 218.15234 59.58842 215.51492 55.203125 216.25977 C 51.896065 216.82146 49.791253 218.27315 48.980469 218.66406 C 48.023817 219.12532 48.299979 219.27382 45.804688 218.63672 C 42.993059 217.91885 40.362511 216.90277 38.755859 215.33984 C 37.117372 213.74595 35.978459 211.65832 36.396484 206.65625 C 37.405695 194.58009 43.235221 189.83464 52.285156 185.54883 C 61.306083 181.27676 73.337909 178.56821 84 172.21484 C 90.910894 168.09674 94.014058 164.30325 97.072266 160.38281 C 100.12735 156.46638 103.37269 152.21756 112.04297 145.28125 C 113.1636 144.38474 117.94123 142.83352 122.67578 142.28125 C 125.69966 141.92852 128.50939 141.87373 130.94727 141.91211 C 130.92987 142.30504 130.88583 142.67838 130.87695 143.07617 A 3.3662795 3.3662795 0 0 0 130.87695 143.10742 C 130.87665 143.13088 130.87685 143.15427 130.87695 143.17773 C 130.90438 153.07499 133.05821 162.71712 136.95703 171.34961 C 131.72788 177.00625 116.27035 193.77981 107.7168 204.27734 C 102.29693 210.92899 97.384281 220.44673 93.943359 230.41016 C 90.503314 240.37103 88.492336 250.70266 89.683594 259.32422 C 91.242471 270.60628 96.522841 281.46114 101.01758 289.26172 L 84.365234 289.26172 C 73.943332 289.26172 65.435547 297.76683 65.435547 308.18945 L 65.435547 309.00195 C 65.435547 319.4245 73.943303 327.92969 84.365234 327.92969 L 137.91992 327.92969 C 148.34185 327.92969 156.84961 319.4245 156.84961 309.00195 L 156.84961 308.18945 C 156.84961 298.7415 149.82506 290.99207 140.75781 289.60742 C 136.5253 280.55621 131.43511 269.10191 129.20312 262.58008 C 127.02342 254.42182 130.16941 241.95642 135.15234 233.23633 C 136.86694 230.23579 142.41399 222.85932 148.31445 215.48047 C 153.51933 208.97148 158.68953 202.77727 162.62109 198.08398 C 167.44067 200.12429 172.52126 201.26752 177.67969 201.27344 C 177.6912 201.27349 177.70138 201.27349 177.71289 201.27344 A 3.3662795 3.3662795 0 0 0 177.72656 201.27344 C 182.28118 201.23607 186.74049 200.17903 191.04492 198.54688 C 195.10349 203.40133 200.32545 209.67502 205.43555 216.08203 C 211.16916 223.27083 216.47866 230.35525 218.125 233.23633 C 223.12539 241.98702 226.28106 254.5155 224.05664 262.67188 C 223.83549 263.48268 223.64958 264.49014 223.25977 266.34375 C 222.86843 268.20458 222.34621 270.67724 221.72266 273.49414 C 220.61977 278.4764 219.13077 284.54351 217.57422 290.1582 C 209.76459 292.48401 204.03516 299.64638 204.03516 308.18945 L 204.03516 309.00195 C 204.03516 319.42332 212.53897 327.92969 222.96094 327.92969 L 276.51758 327.92969 C 286.93959 327.92969 295.44531 319.42389 295.44531 309.00195 L 295.44531 308.18945 C 295.44531 297.76745 286.93956 289.26172 276.51758 289.26172 L 252.25977 289.26172 C 256.75453 281.46114 262.03493 270.60631 263.59375 259.32422 C 264.78502 250.70265 262.77404 240.37103 259.33398 230.41016 C 255.89306 220.44673 250.98042 210.92899 245.56055 204.27734 C 237.51741 194.40615 223.87786 179.55192 217.71289 172.86914 C 222.0695 163.871 224.483 153.67228 224.50977 143.17578 C 224.51009 143.1283 224.51111 143.08066 224.50977 143.0332 A 3.3662795 3.3662795 0 0 0 224.50781 142.97656 C 230.83509 142.36577 239.73779 140.58803 249.16016 136.87891 C 259.75623 132.70776 270.817 126.17534 278.17969 116.00781 C 292.42114 96.341065 295.55135 70.779047 300.50781 53.431641 C 303.82239 41.830546 304.65678 30.683784 307.03516 22.359375 C 309.42203 14.005209 312.4376 8.9108575 321.33594 6.4082031 C 331.22851 3.6259157 336.62984 7.5366553 338.24805 11.177734 C 338.98122 12.827366 338.69674 13.034787 337.71484 14.927734 C 336.7822 16.725742 334.70508 19.538833 334.70508 23.582031 C 334.70508 25.638146 335.33424 27.680051 336.67578 29.234375 C 338.00782 30.777688 339.82567 31.628299 341.61133 31.958984 C 345.12236 32.60919 348.76118 31.602725 352.22266 29.679688 C 354.96939 28.153699 356.58654 25.544225 357.88477 22.615234 C 359.19396 19.661496 360.11436 16.164093 360.51367 12.419922 C 361.31212 4.9330815 360.07326 -3.8432602 354.04297 -9.9902344 C 351.67745 -12.401538 348.85713 -15.301248 344.20508 -17.533203 C 339.5584 -19.762582 333.28536 -21.310385 323.71094 -21.970703 C 321.30673 -22.136506 319.04907 -22.212398 316.91602 -22.197266 z "
       d="m 316.92383,-21.203125 c -14.7141,0.104323 -23.23553,4.973759 -29.54297,12.328125 -4.77186,5.56395 -8.69675,16.0426967 -12.33008,27.595703 -3.6314,11.546897 -6.64297,23.934833 -8.26758,32.382813 -1.50063,7.803082 -5.72658,18.853404 -10.88672,28.783203 -5.16247,9.934307 -11.43314,18.826539 -16.06836,22.371091 -7.23247,5.53074 -18.8198,6.19939 -23.96093,6.26758 a 0.99516239,0.99516239 0 0 1 -0.9961,-0.83594 c -0.15341,-0.9523 -0.33683,-2.01662 -0.47851,-2.91406 -0.0708,-0.44872 -0.13149,-0.85499 -0.17383,-1.19336 -0.0423,-0.33837 -0.0762,-0.55658 -0.0566,-0.86914 0.088,-1.40548 0.58352,-3.571778 1.14062,-5.798828 a 0.99516239,0.99516239 0 0 1 0.34766,-0.537109 c 5.95299,-4.719328 9.62951,-10.642766 9.64453,-17.060547 v -0.002 c 0,0 0,-0.002 0,-0.002 a 0.99516239,0.99516239 0 0 1 0,-0.0039 c 0,0 0,-0.002 0,-0.002 v -0.0039 c -7.8e-4,-3.554741 -1.18604,-7.011428 -3.20898,-10.191406 a 0.99516239,0.99516239 0 0 1 -0.0996,-0.859375 c 0.41606,-1.198285 0.73853,-2.404926 0.84375,-3.679687 l 0.63086,-7.644532 c 0.68819,-8.342871 -6.06898,-15.274415 -14.50977,-15.037109 a 0.99516239,0.99516239 0 0 1 -0.002,0 h -0.0273 l -9.46485,0.267578 c -1.0031,0.02832 -1.92987,0.254812 -2.94726,0.488281 a 0.99516239,0.99516239 0 0 1 -0.55079,-0.03125 c -5.89221,-2.061875 -12.24522,-3.202392 -18.71484,-3.205078 a 0.99516239,0.99516239 0 0 1 -0.002,0 c -0.003,-5e-6 -0.003,-5e-6 -0.006,0 a 0.99516239,0.99516239 0 0 1 -0.004,0 c -9.2e-4,-10e-7 -0.001,0 -0.002,0 h -0.002 c -6.29308,0.0231 -12.4767,1.120198 -18.22852,3.09375 a 0.99516239,0.99516239 0 0 1 -0.51953,0.0332 c -0.89127,-0.17935 -1.69656,-0.354651 -2.55469,-0.378906 a 0.99516239,0.99516239 0 0 1 -0.002,0 l -9.46094,-0.267578 h -0.002 a 0.99516239,0.99516239 0 0 1 -0.0273,0 c -8.44077,-0.237306 -15.19788,6.694255 -14.50976,15.037109 l 0.63086,7.644532 c 0.0822,0.996772 0.37493,1.912857 0.67969,2.933593 a 0.99516239,0.99516239 0 0 1 -0.13672,0.853516 c -2.34438,3.37468 -3.71021,7.099311 -3.72852,10.931641 a 0.99516239,0.99516239 0 0 1 0,0.002 c -5e-5,0.01107 -5e-5,0.02163 0,0.03125 a 0.99516239,0.99516239 0 0 1 0,0.002 0.99516239,0.99516239 0 0 1 0,0.002 0.99516239,0.99516239 0 0 1 0,0.002 c 0,0 0,0.002 0,0.002 0.0364,5.321535 2.63819,10.339462 6.91992,14.589844 a 0.99516239,0.99516239 0 0 1 0.29102,0.626953 c 0.21698,2.658136 0.365,5.389196 0.13672,7.671872 -0.13621,1.3622 -0.42725,3.5523 -0.67774,5.5293 a 0.99516239,0.99516239 0 0 1 -1.08594,0.86523 c -9.11881,-0.91261 -22.02936,-1.50386 -30.8457,3.16797 -15.632967,8.28399 -22.823798,19.29693 -34.416014,33.16797 -4.441745,5.31492 -13.611835,10.75228 -23.03125,15.67383 -9.41717,4.92037 -18.957052,9.31548 -24.855468,13.9668 -8.839005,6.97023 -15.6142306,19.30863 -10.113282,38.04492 4.600274,15.66862 14.038311,23.19048 21.271485,25.92773 11.706649,4.43022 23.908383,2.15351 29.792968,-5.54492 2.624077,-3.43288 2.972909,-7.62246 1.523438,-10.8457 -1.450248,-3.22496 -5.005016,-5.59689 -8.910156,-4.9336 -1.548369,0.26299 -2.812627,0.73461 -3.794922,1.18946 -0.982296,0.45484 -1.626092,0.87242 -2.16211,1.13086 -0.203477,0.0981 -0.345401,0.18484 -0.560547,0.28515 -0.215145,0.10032 -0.525969,0.19783 -0.839843,0.21094 -0.627749,0.0262 -1.19605,-0.13412 -2.453125,-0.45508 -2.885552,-0.73674 -5.65483,-1.75767 -7.496094,-3.54883 -1.78457,-1.73599 -3.090633,-4.30407 -2.658203,-9.47851 0.516947,-6.18575 2.304252,-10.6336 5.160156,-14.0332 2.855904,-3.39961 6.716255,-5.72229 11.294922,-7.89063 9.183211,-4.34892 21.144725,-7.04249 31.630859,-13.29101 6.792575,-4.0476 9.747984,-7.6794 12.796875,-11.5879 3.050613,-3.91069 6.404281,-8.2831 15.134771,-15.26757 0.88035,-0.70429 2.32087,-1.22191 4.30078,-1.80664 1.9799,-0.58474 4.40238,-1.12021 6.83789,-1.4043 3.08256,-0.35958 5.93753,-0.41381 8.40234,-0.375 a 0.99516239,0.99516239 0 0 1 0.97852,1.03906 c -0.0194,0.43924 -0.0628,0.80234 -0.0703,1.14063 1e-5,0.002 0,0.004 0,0.006 a 0.99516239,0.99516239 0 0 1 0,0.0176 c -1.2e-4,0.009 -1.1e-4,0.0264 0,0.0527 a 0.99516239,0.99516239 0 0 1 0,0.002 c 0.027,9.75469 2.1512,19.25921 5.99219,27.76367 a 0.99516239,0.99516239 0 0 1 -0.17578,1.08594 c -5.22707,5.65439 -20.68862,22.43604 -29.19922,32.88086 -5.31225,6.51957 -10.19416,15.9561 -13.603514,25.82813 -3.409801,9.87329 -5.370568,20.08873 -4.214844,28.45312 1.529021,11.06599 6.7453,21.83144 11.208988,29.57812 a 0.99516239,0.99516239 0 0 1 -0.86133,1.49024 H 84.365234 c -9.880534,0 -17.935546,8.05247 -17.935546,17.93359 v 0.8125 c 0,9.88105 8.054987,17.9336 17.935546,17.9336 h 53.554686 c 9.88056,0 17.93555,-8.05255 17.93555,-17.9336 v -0.8125 c 0,-8.95473 -6.65268,-16.28506 -15.24805,-17.59765 a 0.99516239,0.99516239 0 0 1 -0.75195,-0.5625 c -4.23929,-9.06571 -9.32726,-20.50432 -11.59375,-27.12696 a 0.99516239,0.99516239 0 0 1 -0.0195,-0.0644 c -2.30658,-8.63314 0.95078,-21.17758 6.04687,-30.0957 1.82474,-3.19328 7.33555,-10.48891 13.24805,-17.88281 5.21331,-6.51953 10.38776,-12.71959 14.32031,-17.41407 a 0.99516239,0.99516239 0 0 1 1.15235,-0.27734 c 4.71127,1.99446 9.65971,3.10557 14.67187,3.11133 a 0.99516239,0.99516239 0 0 1 0.002,0 c 0.009,4e-5 0.0164,4e-5 0.0254,0 a 0.99516239,0.99516239 0 0 1 0.006,0 c 0.001,0 0.003,0 0.004,0 4.40601,-0.0361 8.74808,-1.06024 12.97266,-2.66211 a 0.99516239,0.99516239 0 0 1 1.11718,0.29101 c 4.05977,4.85588 9.28559,11.13493 14.4043,17.55274 5.7456,7.20383 11.02044,14.21009 12.77539,17.28125 5.1139,8.94933 8.38463,21.55501 6.0293,30.1914 -0.20334,0.74551 -0.39156,1.75292 -0.7832,3.61524 -0.3915,1.86157 -0.91625,4.33775 -1.54102,7.16015 -1.10689,5.00035 -2.59795,11.07976 -4.16016,16.71485 a 0.99516239,0.99516239 0 0 1 -0.67578,0.6875 c -7.40164,2.2043 -12.82812,8.97995 -12.82812,17.07812 v 0.8125 c 0,9.88006 8.05111,17.9336 17.93164,17.9336 h 53.55664 c 9.8806,0 17.93359,-8.05306 17.93359,-17.9336 v -0.8125 c 0,-9.88059 -8.05301,-17.93359 -17.93359,-17.93359 h -24.25781 a 0.99516239,0.99516239 0 0 1 -0.86133,-1.49024 c 4.4637,-7.74668 9.68002,-18.51211 11.20898,-29.57812 1.15574,-8.3644 -0.80503,-18.57983 -4.21484,-28.45312 -3.40935,-9.87203 -8.29127,-19.30856 -13.60352,-25.82813 -8.00395,-9.82309 -21.64398,-24.68301 -27.80664,-31.36328 a 0.99516239,0.99516239 0 0 1 -0.16601,-1.10742 c 4.29091,-8.86245 6.67283,-18.91611 6.69921,-29.26172 a 0.99516239,0.99516239 0 0 1 0,-0.004 c 3.9e-4,-0.0572 4.1e-4,-0.0949 0,-0.10937 a 0.99516239,0.99516239 0 0 1 0,-0.002 c -3.4e-4,-0.0133 -0.001,-0.0258 -0.002,-0.0391 a 0.99516239,0.99516239 0 0 1 0.89844,-1.0332 c 6.23233,-0.60163 15.05839,-2.36264 24.38281,-6.03321 10.4862,-4.12789 21.37435,-10.58121 28.57813,-20.52929 14.04184,-19.391101 17.18074,-44.776353 22.17773,-62.265627 3.28045,-11.481619 4.10139,-22.581353 6.52734,-31.072265 1.20917,-4.232145 2.59668,-7.734216 4.89649,-10.529297 2.2998,-2.7950819 5.50143,-4.8144299 10.0918,-6.1054691 10.21739,-2.8736437 16.24723,1.1718856 18.09179,5.3222661 0.39227,0.882608 0.59778,1.63189 0.44141,2.388671 -0.15637,0.756782 -0.52225,1.299816 -1.00195,2.22461 -1.01537,1.957485 -2.89844,4.492911 -2.89844,8.195312 0,1.853126 0.57003,3.657454 1.73047,5.001953 1.15762,1.341228 2.75914,2.099416 4.36328,2.396485 3.2092,0.594311 6.61573,-0.319079 9.94726,-2.169922 2.4707,-1.372633 3.97148,-3.748366 5.23438,-6.597656 1.26129,-2.845665 2.15969,-6.249623 2.54883,-9.898438 0.77824,-7.2973798 -0.44499,-15.749807 -6.19141,-21.6074218 -2.36791,-2.4137392 -5.06622,-5.1893432 -9.55664,-7.3437502 -4.49372,-2.155993 -10.63511,-3.68677 -20.13281,-4.341797 -2.38235,-0.164295 -4.61428,-0.239538 -6.71875,-0.224609 z"
       transform="translate(36.160714,56.25)" />
  </g>
</svg>
