<?xml version="1.0" encoding="UTF-8" standalone="no"?>
<!-- Created with Inkscape (http://www.inkscape.org/) -->

<svg
   width="120mm"
   height="120mm"
   viewBox="0 0 425.19685 425.19685"
   id="svg4382"
   version="1.1"
   inkscape:version="1.1.1 (c3084ef, 2021-09-22)"
   sodipodi:docname="inflatableGibbonCase3D.svg"
   xmlns:inkscape="http://www.inkscape.org/namespaces/inkscape"
   xmlns:sodipodi="http://sodipodi.sourceforge.net/DTD/sodipodi-0.dtd"
   xmlns="http://www.w3.org/2000/svg"
   xmlns:svg="http://www.w3.org/2000/svg"
   xmlns:rdf="http://www.w3.org/1999/02/22-rdf-syntax-ns#"
   xmlns:cc="http://creativecommons.org/ns#"
   xmlns:dc="http://purl.org/dc/elements/1.1/">
  <defs
     id="defs4384" />
  <sodipodi:namedview
     id="base"
     pagecolor="#ffffff"
     bordercolor="#666666"
     borderopacity="1.0"
     inkscape:pageopacity="0.0"
     inkscape:pageshadow="2"
     inkscape:zoom="1.4"
     inkscape:cx="228.21429"
     inkscape:cy="115"
     inkscape:document-units="px"
     inkscape:current-layer="layer1"
     showgrid="false"
     inkscape:window-width="1312"
     inkscape:window-height="812"
     inkscape:window-x="0"
     inkscape:window-y="25"
     inkscape:window-maximized="0"
     inkscape:pagecheckerboard="0"
     showguides="false"
     width="120mm" />
  <metadata
     id="metadata4387">
    <rdf:RDF>
      <cc:Work
         rdf:about="">
        <dc:format>image/svg+xml</dc:format>
        <dc:type
           rdf:resource="http://purl.org/dc/dcmitype/StillImage" />
      </cc:Work>
    </rdf:RDF>
  </metadata>
  <g
     inkscape:label="Layer 1"
     inkscape:groupmode="layer"
     id="layer1">
    <path
       id="path114245"
       style="fill:none;stroke:#ff0000;stroke-width:0.901406;stroke-linecap:round;stroke-linejoin:round"
       sodipodi:type="inkscape:offset"
       inkscape:radius="0.68773246"
       inkscape:original="M 316.94336 -18.144531 C 302.82777 -18.044452 295.62314 -13.789675 289.70117 -6.8847656 C 281.77315 2.3592417 272.98022 35.075463 269.78711 51.679688 C 266.59391 68.283929 252.54418 96.385379 241.6875 104.6875 C 230.83092 112.98962 212.37891 111.55859 212.37891 111.55859 C 211.53214 107.78401 210.98758 104.47235 211.10938 102.52344 C 211.23555 100.50482 211.81695 97.828119 212.57617 95.015625 C 218.82219 90.541003 222.22365 85.007999 222.23633 79.306641 C 222.23633 75.78091 220.93192 72.294111 218.41602 69.068359 C 219.1638 67.601277 219.64278 65.998216 219.78125 64.320312 L 220.41211 56.675781 C 220.96391 49.986374 215.89063 44.756538 209.03711 44.949219 L 199.54492 45.216797 C 198.33652 45.250747 197.15751 45.453398 196.0293 45.796875 C 190.20713 43.611339 183.77029 42.471248 177.24023 42.46875 C 170.89239 42.49183 164.63542 43.589158 158.95117 45.677734 C 157.94636 45.405363 156.90267 45.246743 155.83789 45.216797 L 146.34766 44.949219 C 139.49417 44.756538 134.42091 49.986374 134.97266 56.675781 L 135.60352 64.320312 C 135.70385 65.536682 135.98314 66.712998 136.41406 67.828125 C 136.34326 68.262554 136.28583 68.698496 136.24023 69.134766 C 133.74278 72.340958 132.44446 75.803026 132.42773 79.306641 C 132.45913 84.155058 134.9432 88.897082 139.58594 92.972656 C 139.90714 96.186038 140.05596 99.561722 139.75977 102.52344 C 139.52282 104.89301 139.09326 108.30556 138.59766 112.02539 C 129.89666 111.01827 114.05158 109.9755 105.53906 114.48633 C 90.55067 122.42876 83.735551 132.91395 72.037109 146.91211 C 61.932063 159.00363 34.358981 168.5862 23.699219 176.99219 C 15.535987 183.42952 9.3972944 193.96507 14.626953 211.77734 C 18.987344 226.62891 27.697635 233.30037 34.046875 235.70312 C 44.737813 239.74895 55.586075 237.36131 60.326172 231.16016 C 64.319149 225.93644 60.919659 219.40034 55.882812 220.25586 C 50.845951 221.11135 50.896951 224.12045 44.802734 222.56445 C 38.708537 221.00846 31.379635 218.01853 32.357422 206.31836 C 34.601915 179.46088 62.099793 180.54835 81.925781 168.73438 C 94.867544 161.02258 91.654525 156.3996 109.50977 142.11523 C 114.69939 137.96349 129.59683 137.3472 135.24219 137.99219 C 135.07252 139.70956 134.96829 141.43599 134.92969 143.16602 C 134.95819 153.45064 137.30703 163.51198 141.70117 172.16797 C 137.83477 176.34519 119.80914 195.8541 110.85938 206.83789 C 100.92471 219.03041 91.6208 243.72727 93.699219 258.76953 C 95.546933 272.142 103.6061 286.21783 108.14453 293.31445 L 84.365234 293.31445 C 76.124373 293.31445 69.488281 299.9485 69.488281 308.18945 L 69.488281 309.00195 C 69.488281 317.2428 76.124373 323.87695 84.365234 323.87695 L 137.91992 323.87695 C 146.16078 323.87695 152.79688 317.2428 152.79688 309.00195 L 152.79688 308.18945 C 152.79688 299.97273 146.19947 293.35717 137.99219 293.31836 C 133.56562 283.94087 127.81783 271.11511 125.30859 263.73828 C 122.59915 253.8036 126.21389 240.70767 131.63281 231.22461 C 135.83535 223.87017 153.54017 202.53994 161.43359 193.14648 C 166.59126 195.83183 172.11529 197.21607 177.69336 197.2207 C 182.71427 197.1795 187.68961 196.01969 192.39258 193.79688 C 200.67314 203.67141 217.59149 224.13182 221.64453 231.22461 C 227.06343 240.70767 230.67815 253.8036 227.96875 263.73828 C 227.59729 265.10023 224.58849 280.81377 220.91797 293.46875 C 213.65361 294.46118 208.08789 300.644 208.08789 308.18945 L 208.08789 309.00195 C 208.08789 317.2428 214.72011 323.87695 222.96094 323.87695 L 276.51758 323.87695 C 284.75851 323.87695 291.39258 317.2428 291.39258 309.00195 L 291.39258 308.18945 C 291.39258 299.9485 284.75851 293.31445 276.51758 293.31445 L 245.13281 293.31445 C 249.67128 286.21783 257.73048 272.142 259.57812 258.76953 C 261.65657 243.72727 252.35263 219.03041 242.41797 206.83789 C 233.98268 196.48542 218.22366 179.37355 212.92188 173.63477 C 217.80291 164.66907 220.42928 154.04937 220.45703 143.16602 C 220.38743 141.87405 220.27977 140.58504 220.13672 139.30273 C 220.76205 139.26233 221.23135 139.20854 221.89062 139.17188 C 233.38578 138.53324 261.48538 132.14899 274.89648 113.62891 C 288.30759 95.108809 291.50032 70.199834 296.60938 52.318359 C 302.94961 30.127351 299.80228 8.2534804 320.23828 2.5058594 C 331.54071 -0.67295196 339.39871 3.783648 341.95312 9.53125 C 344.50765 15.278871 338.75781 18.473022 338.75781 23.582031 C 338.75781 28.691012 344.50628 29.329835 350.25391 26.136719 C 356.00145 22.943593 360.81392 2.7001564 351.15039 -7.1503906 C 346.3963 -11.996489 341.9517 -16.650462 323.43164 -17.927734 C 321.11658 -18.087389 318.95982 -18.158836 316.94336 -18.144531 z "
       d="m 316.93945,-18.832031 c -14.25212,0.101047 -21.74924,4.491834 -27.75976,11.4999998 -4.14323,4.8309673 -8.26915,15.3228494 -11.86719,26.7636722 -3.59804,11.440822 -6.59833,23.784324 -8.20117,32.11914 -1.57486,8.189087 -5.86724,19.338335 -11.11133,29.429688 -5.24409,10.091353 -11.48584,19.149581 -16.73047,23.160151 -10.07564,7.70493 -26.85975,6.83562 -28.31836,6.7461 -0.76794,-3.51826 -1.26147,-6.63671 -1.15625,-8.32031 0.11742,-1.87867 0.67177,-4.460113 1.39844,-7.177738 6.21577,-4.533096 9.71735,-10.182591 9.73047,-16.080078 a 0.68780123,0.68780123 0 0 0 0,-0.002 c 0,-3.572157 -1.30875,-7.088575 -3.73633,-10.322266 0.67863,-1.437177 1.14509,-2.981221 1.2793,-4.607422 l 0.63086,-7.644531 c 0.5826,-7.062877 -4.86758,-12.673477 -12.08008,-12.470703 l -9.49219,0.267578 c -1.18126,0.03319 -2.32544,0.251616 -3.43164,0.566406 -5.85864,-2.174175 -12.30828,-3.311949 -18.85352,-3.314453 a 0.68780123,0.68780123 0 0 0 -0.002,0 c -6.36362,0.02314 -12.63377,1.116893 -18.35351,3.195312 -0.98213,-0.247991 -1.99124,-0.418125 -3.02735,-0.447265 l -9.49023,-0.267578 c -7.21248,-0.202774 -12.66263,5.40783 -12.08008,12.470703 l 0.63086,7.644531 c 0.0991,1.201676 0.39568,2.354845 0.80078,3.460938 -0.0551,0.3501 -0.0996,0.700474 -0.13867,1.050781 -2.48821,3.257669 -3.82262,6.806296 -3.83985,10.414062 a 0.68780123,0.68780123 0 0 0 0,0.0078 c 0.0324,4.993795 2.58049,9.833053 7.17774,13.957031 0.3029,3.118613 0.44018,6.367868 0.1582,9.187502 -0.21907,2.1908 -0.628,5.40781 -1.08008,8.82617 -8.84961,-0.99248 -24.11243,-1.99496 -32.77929,2.59766 -15.133454,8.01929 -22.032676,18.62245 -33.707034,32.59179 -4.912473,5.87818 -14.279799,11.30481 -23.751954,16.25391 -9.472154,4.9491 -19.027875,9.42567 -24.484374,13.72851 -8.318086,6.55945 -14.5979294,17.4954 -9.306641,35.51758 4.414447,15.03569 13.2873,21.8968 19.835937,24.375 10.918746,4.13204 22.074488,1.76813 27.070313,-4.76758 2.137721,-2.79662 2.329997,-6.01698 1.244141,-8.43164 -1.085857,-2.41465 -3.520948,-4.04881 -6.34961,-3.56836 -2.650043,0.4501 -4.036293,1.49528 -5.326172,2.11719 -1.289878,0.62192 -2.524157,0.95495 -5.46875,0.20313 -3.00882,-0.76822 -6.238043,-1.88339 -8.564453,-4.14649 -2.32641,-2.26309 -3.841847,-5.67382 -3.365234,-11.37695 1.102771,-13.1957 8.270137,-19.35568 17.800781,-23.86914 9.530644,-4.51346 21.392519,-7.19833 31.433594,-13.18164 6.544294,-3.89965 9.093055,-7.10492 12.140625,-11.01172 3.047569,-3.9068 6.637831,-8.55315 15.521481,-15.66016 2.35711,-1.8857 7.3206,-3.12868 12.34571,-3.71484 4.73215,-0.55199 9.4025,-0.54499 12.22851,-0.28516 -0.13163,1.49507 -0.23793,2.99421 -0.27148,4.49805 a 0.68780123,0.68780123 0 0 0 0,0.0176 c 0.0283,10.21759 2.3457,20.20244 6.65234,28.86328 -4.13444,4.46765 -21.68528,23.4711 -30.56836,34.37305 -5.04456,6.19104 -9.87048,15.46123 -13.20117,25.10547 -3.330689,9.64423 -5.17266,19.644 -4.107422,27.35351 1.799969,13.02692 9.272892,26.38915 13.910152,33.76367 H 84.365234 c -8.609952,0 -15.564453,6.95235 -15.564453,15.5625 v 0.8125 c 0,8.61006 6.954495,15.5625 15.564453,15.5625 h 53.554686 c 8.60996,0 15.56446,-6.95244 15.56446,-15.5625 v -0.8125 c 0,-8.42731 -6.67315,-15.22335 -15.0293,-15.50976 -4.39609,-9.32753 -10.02353,-21.90665 -12.48438,-29.13281 -2.62335,-9.63592 0.91255,-22.62289 6.25977,-31.98047 2.03696,-3.56468 7.52293,-10.76903 13.45508,-18.1875 5.81264,-7.26903 11.98638,-14.67437 15.94726,-19.39063 5.10441,2.5627 10.55285,3.91535 16.06055,3.91992 a 0.68780123,0.68780123 0 0 0 0.006,0 c 4.94578,-0.0406 9.84044,-1.17032 14.48242,-3.2832 4.13904,4.9386 10.23233,12.27042 15.88477,19.35742 5.76522,7.22842 11.01713,14.14816 12.98047,17.58399 5.34894,9.36063 8.88599,22.35336 6.25781,31.99023 -0.11919,0.43699 -0.36042,1.61865 -0.75196,3.48047 -0.39154,1.86182 -0.91507,4.34709 -1.54296,7.18359 -1.23118,5.56181 -2.86443,12.46562 -4.65039,18.67383 -7.36239,1.23881 -12.95899,7.57739 -12.95899,15.29492 v 0.8125 c 0,8.60984 6.95062,15.5625 15.56055,15.5625 h 53.55664 c 8.61002,0 15.5625,-6.95255 15.5625,-15.5625 v -0.8125 c 0,-8.61004 -6.95248,-15.5625 -15.5625,-15.5625 h -30.16797 c 4.6373,-7.37452 12.11026,-20.73674 13.91016,-33.76367 1.06525,-7.70951 -0.77673,-17.70928 -4.10743,-27.35351 -3.33069,-9.64424 -8.15661,-18.91443 -13.20117,-25.10547 -8.36964,-10.27191 -23.73933,-26.97031 -29.21484,-32.89844 4.78827,-8.98086 7.38062,-19.52212 7.4082,-30.33789 a 0.68780123,0.68780123 0 0 0 0,-0.0391 c -0.0575,-1.06766 -0.15819,-2.13032 -0.26562,-3.19141 0.33488,-0.0278 0.66599,-0.0567 1.05078,-0.0781 5.84332,-0.32464 15.78186,-2.09168 25.99804,-6.11329 10.21619,-4.0216 20.70804,-10.29845 27.52539,-19.71289 13.55251,-18.715361 16.73486,-43.733358 21.81836,-61.525388 3.19478,-11.181799 3.99768,-22.218322 6.52735,-31.072265 2.52967,-8.853943 6.63475,-15.4578231 16.625,-18.2675782 11.06118,-3.11095914 18.50498,1.2527427 20.90039,6.6425781 1.18028,2.6556051 0.46921,4.5660191 -0.6211,6.6679691 -1.0903,2.101949 -2.63281,4.291012 -2.63281,7.103515 0,1.406215 0.40727,2.587608 1.1543,3.453125 0.74703,0.865517 1.80384,1.391765 3,1.613282 2.39232,0.443032 5.38736,-0.256873 8.36328,-1.910157 1.67094,-0.928314 3.07603,-2.908187 4.21875,-5.486328 1.14272,-2.578141 1.99533,-5.775917 2.35938,-9.189453 0.72809,-6.8270724 -0.48873,-14.5611782 -5.5254,-19.6953125 -2.375,-2.4209665 -4.76391,-4.8853255 -8.89062,-6.8652345 -4.12671,-1.979909 -9.95802,-3.472913 -19.27148,-4.115234 -2.33026,-0.160703 -4.50288,-0.233195 -6.53907,-0.21875 z"
       transform="translate(36.160714,56.25)" />
    <path
       inkscape:connector-curvature="0"
       id="path92847"
       d="M 309.58507,22.821081 272.45864,132.47178 264.30583,78.695102 H 163.15441 L 150.29093,142.4556 14.568141,253.22708 l 47.205235,78.03216 31.828491,-15.98423 -0.751718,83.94926 261.146491,-1.59151 -60.64519,-184.52954 44.29046,-31.82234 24.83132,-81.75155 h 49.22813 V 22.821081 Z"
       style="fill:none;fill-rule:evenodd;stroke:#000000;stroke-width:0.953679px;stroke-linecap:butt;stroke-linejoin:miter;stroke-opacity:1"
       sodipodi:nodetypes="cccccccccccccccc" />
    <path
       style="fill:#000000;fill-opacity:1;stroke:#000000;stroke-width:1.1921;stroke-linecap:round;stroke-miterlimit:4;stroke-dasharray:none;stroke-opacity:1"
       d="m 193.29919,44.497176 c -12.02691,0 -21.70922,9.682319 -21.70922,21.709237 v 5.712754 c 0,1.319672 0.12299,9.475499 0.34645,10.729024 1.12196,-0.28866 2.29284,-0.458214 3.50737,-0.458214 h 9.26671 c -0.38182,-1.040912 -0.59605,-9.048509 -0.59605,-10.27081 v -5.712754 c 0,-5.305429 3.87933,-9.184746 9.18474,-9.184746 h 35.9455 c 5.3054,0 9.18474,3.879317 9.18474,9.184746 v 5.712754 c 0,1.222301 -0.21423,9.229898 -0.59605,10.27081 h 12.85417 c 0.17326,-1.108843 0.26636,-9.111861 0.26636,-10.27081 v -5.712754 c 0,-12.026918 -9.68231,-21.709237 -21.70922,-21.709237 z"
       id="path92849"
       inkscape:connector-curvature="0"
       sodipodi:nodetypes="ssscscssssssccssss" />
  </g>
</svg>
