<?xml version="1.0" encoding="UTF-8" standalone="no"?>
<!-- Created with Inkscape (http://www.inkscape.org/) -->

<svg
   width="120mm"
   height="120mm"
   viewBox="0 0 425.19685 425.19685"
   id="svg4382"
   version="1.1"
   inkscape:version="1.1.1 (c3084ef, 2021-09-22)"
   sodipodi:docname="inflatableGibbonCase3DHandle.svg"
   xmlns:inkscape="http://www.inkscape.org/namespaces/inkscape"
   xmlns:sodipodi="http://sodipodi.sourceforge.net/DTD/sodipodi-0.dtd"
   xmlns="http://www.w3.org/2000/svg"
   xmlns:svg="http://www.w3.org/2000/svg"
   xmlns:rdf="http://www.w3.org/1999/02/22-rdf-syntax-ns#"
   xmlns:cc="http://creativecommons.org/ns#"
   xmlns:dc="http://purl.org/dc/elements/1.1/">
  <defs
     id="defs4384" />
  <sodipodi:namedview
     id="base"
     pagecolor="#ffffff"
     bordercolor="#666666"
     borderopacity="1.0"
     inkscape:pageopacity="0.0"
     inkscape:pageshadow="2"
     inkscape:zoom="1.4"
     inkscape:cx="228.21429"
     inkscape:cy="115"
     inkscape:document-units="px"
     inkscape:current-layer="layer1"
     showgrid="false"
     inkscape:window-width="1312"
     inkscape:window-height="812"
     inkscape:window-x="0"
     inkscape:window-y="25"
     inkscape:window-maximized="0"
     inkscape:pagecheckerboard="0"
     showguides="false"
     width="120mm" />
  <metadata
     id="metadata4387">
    <rdf:RDF>
      <cc:Work
         rdf:about="">
        <dc:format>image/svg+xml</dc:format>
        <dc:type
           rdf:resource="http://purl.org/dc/dcmitype/StillImage" />
      </cc:Work>
    </rdf:RDF>
  </metadata>
  <g
     inkscape:label="Layer 1"
     inkscape:groupmode="layer"
     id="layer1">
    <path
       style="fill:#000000;fill-opacity:1;stroke:#000000;stroke-width:1.1921;stroke-linecap:round;stroke-miterlimit:4;stroke-dasharray:none;stroke-opacity:1"
       d="m 193.29919,44.497176 c -12.02691,0 -21.70922,9.682319 -21.70922,21.709237 v 5.712754 c 0,1.319672 0.12299,9.475499 0.34645,10.729024 1.12196,-0.28866 2.29284,-0.458214 3.50737,-0.458214 h 9.26671 c -0.38182,-1.040912 -0.59605,-9.048509 -0.59605,-10.27081 v -5.712754 c 0,-5.305429 3.87933,-9.184746 9.18474,-9.184746 h 35.9455 c 5.3054,0 9.18474,3.879317 9.18474,9.184746 v 5.712754 c 0,1.222301 -0.21423,9.229898 -0.59605,10.27081 h 12.85417 c 0.17326,-1.108843 0.26636,-9.111861 0.26636,-10.27081 v -5.712754 c 0,-12.026918 -9.68231,-21.709237 -21.70922,-21.709237 z"
       id="path92849"
       inkscape:connector-curvature="0"
       sodipodi:nodetypes="ssscscssssssccssss" />
  </g>
</svg>
