solid OpenSCAD_Model
  facet normal 0.890501 0.0935938 0.445251
    outer loop
      vertex 24.4537 5.19779 0
      vertex 15 0 20
      vertex 25 0 0
    endloop
  endfacet
  facet normal 0.890501 -0.0935938 0.445251
    outer loop
      vertex 25 0 0
      vertex 15 0 20
      vertex 24.4537 -5.19779 0
    endloop
  endfacet
  facet normal 0.5263 -0.724405 0.445249
    outer loop
      vertex 10.037 -11.1472 20
      vertex 7.5 -12.9904 20
      vertex 16.7283 -18.5786 0
    endloop
  endfacet
  facet normal -0.8905 0.0935992 0.445251
    outer loop
      vertex -14.6722 3.11868 20
      vertex -24.4537 5.19779 0
      vertex -15 0 20
    endloop
  endfacet
  facet normal -0.775449 0.447698 0.445249
    outer loop
      vertex -12.1353 8.81678 20
      vertex -22.8386 10.1684 0
      vertex -13.7032 6.10105 20
    endloop
  endfacet
  facet normal 0.364179 0.818003 0.445248
    outer loop
      vertex 12.5 21.6506 0
      vertex 4.63525 14.2658 20
      vertex 7.5 12.9904 20
    endloop
  endfacet
  facet normal -0.18616 0.87584 0.445251
    outer loop
      vertex -2.61321 24.863 0
      vertex -7.72542 23.7764 0
      vertex -4.63525 14.2658 20
    endloop
  endfacet
  facet normal 0.66542 0.599141 0.445249
    outer loop
      vertex 16.7283 18.5786 0
      vertex 10.037 11.1472 20
      vertex 12.1353 8.81678 20
    endloop
  endfacet
  facet normal 0.851584 -0.276688 0.445252
    outer loop
      vertex 14.6722 -3.11868 20
      vertex 13.7032 -6.10105 20
      vertex 24.4537 -5.19779 0
    endloop
  endfacet
  facet normal 0.775449 -0.447698 0.445249
    outer loop
      vertex 13.7032 -6.10105 20
      vertex 12.1353 -8.81678 20
      vertex 22.8386 -10.1684 0
    endloop
  endfacet
  facet normal 0.18616 0.87584 0.445251
    outer loop
      vertex 7.72542 23.7764 0
      vertex 2.61321 24.863 0
      vertex 4.63525 14.2658 20
    endloop
  endfacet
  facet normal -0.364179 -0.818003 0.445248
    outer loop
      vertex -7.5 -12.9904 20
      vertex -12.5 -21.6506 0
      vertex -4.63525 -14.2658 20
    endloop
  endfacet
  facet normal -0.775446 0.447703 0.445248
    outer loop
      vertex -20.2254 14.6946 0
      vertex -22.8386 10.1684 0
      vertex -12.1353 8.81678 20
    endloop
  endfacet
  facet normal -0.85158 -0.276704 0.445249
    outer loop
      vertex -13.7032 -6.10105 20
      vertex -24.4537 -5.19779 0
      vertex -22.8386 -10.1684 0
    endloop
  endfacet
  facet normal -0.890501 -0.0935938 0.445251
    outer loop
      vertex -15 0 20
      vertex -25 0 0
      vertex -24.4537 -5.19779 0
    endloop
  endfacet
  facet normal -0.775449 -0.447698 0.445249
    outer loop
      vertex -13.7032 -6.10105 20
      vertex -22.8386 -10.1684 0
      vertex -12.1353 -8.81678 20
    endloop
  endfacet
  facet normal -0.5263 0.724405 0.445249
    outer loop
      vertex -7.5 12.9904 20
      vertex -16.7283 18.5786 0
      vertex -10.037 11.1472 20
    endloop
  endfacet
  facet normal 0.364197 0.817992 0.445251
    outer loop
      vertex 7.72542 23.7764 0
      vertex 4.63525 14.2658 20
      vertex 12.5 21.6506 0
    endloop
  endfacet
  facet normal 0 0 -1
    outer loop
      vertex 10 0 0
      vertex 25 0 0
      vertex 24.4537 -5.19779 0
    endloop
  endfacet
  facet normal 0 0 -1
    outer loop
      vertex 9.78148 -2.07912 0
      vertex 24.4537 -5.19779 0
      vertex 22.8386 -10.1684 0
    endloop
  endfacet
  facet normal 0 0 -1
    outer loop
      vertex 25 0 0
      vertex 10 0 0
      vertex 24.4537 5.19779 0
    endloop
  endfacet
  facet normal 0 0 -1
    outer loop
      vertex 9.13545 -4.06737 0
      vertex 22.8386 -10.1684 0
      vertex 20.2254 -14.6946 0
    endloop
  endfacet
  facet normal 0 0 -1
    outer loop
      vertex 9.78148 2.07912 0
      vertex 24.4537 5.19779 0
      vertex 10 0 0
    endloop
  endfacet
  facet normal 0 0 -1
    outer loop
      vertex 8.09017 -5.87785 0
      vertex 20.2254 -14.6946 0
      vertex 16.7283 -18.5786 0
    endloop
  endfacet
  facet normal -0 0 -1
    outer loop
      vertex 24.4537 5.19779 0
      vertex 9.78148 2.07912 0
      vertex 22.8386 10.1684 0
    endloop
  endfacet
  facet normal 0 0 -1
    outer loop
      vertex 6.69131 -7.43145 0
      vertex 16.7283 -18.5786 0
      vertex 12.5 -21.6506 0
    endloop
  endfacet
  facet normal 0 0 -1
    outer loop
      vertex 9.13545 4.06737 0
      vertex 22.8386 10.1684 0
      vertex 9.78148 2.07912 0
    endloop
  endfacet
  facet normal -0 0 -1
    outer loop
      vertex 22.8386 10.1684 0
      vertex 9.13545 4.06737 0
      vertex 20.2254 14.6946 0
    endloop
  endfacet
  facet normal 0 0 -1
    outer loop
      vertex 24.4537 -5.19779 0
      vertex 9.78148 -2.07912 0
      vertex 10 0 0
    endloop
  endfacet
  facet normal 0 0 -1
    outer loop
      vertex 22.8386 -10.1684 0
      vertex 9.13545 -4.06737 0
      vertex 9.78148 -2.07912 0
    endloop
  endfacet
  facet normal 0 0 -1
    outer loop
      vertex 20.2254 -14.6946 0
      vertex 8.09017 -5.87785 0
      vertex 9.13545 -4.06737 0
    endloop
  endfacet
  facet normal 0 0 -1
    outer loop
      vertex 5 -8.66025 0
      vertex 12.5 -21.6506 0
      vertex 7.72542 -23.7764 0
    endloop
  endfacet
  facet normal 0 0 -1
    outer loop
      vertex 16.7283 -18.5786 0
      vertex 6.69131 -7.43145 0
      vertex 8.09017 -5.87785 0
    endloop
  endfacet
  facet normal 0 0 -1
    outer loop
      vertex 12.5 -21.6506 0
      vertex 5 -8.66025 0
      vertex 6.69131 -7.43145 0
    endloop
  endfacet
  facet normal 0 0 -1
    outer loop
      vertex 7.72542 -23.7764 0
      vertex 3.09017 -9.51056 0
      vertex 5 -8.66025 0
    endloop
  endfacet
  facet normal 0 0 -1
    outer loop
      vertex 2.61321 -24.863 0
      vertex 3.09017 -9.51056 0
      vertex 7.72542 -23.7764 0
    endloop
  endfacet
  facet normal 0 0 -1
    outer loop
      vertex 2.61321 -24.863 0
      vertex 1.04528 -9.94522 0
      vertex 3.09017 -9.51056 0
    endloop
  endfacet
  facet normal 0 0 -1
    outer loop
      vertex 2.61321 -24.863 0
      vertex -1.04528 -9.94522 0
      vertex 1.04528 -9.94522 0
    endloop
  endfacet
  facet normal 0 0 -1
    outer loop
      vertex -2.61321 -24.863 0
      vertex -1.04528 -9.94522 0
      vertex 2.61321 -24.863 0
    endloop
  endfacet
  facet normal 0 0 -1
    outer loop
      vertex -2.61321 -24.863 0
      vertex -3.09017 -9.51056 0
      vertex -1.04528 -9.94522 0
    endloop
  endfacet
  facet normal 0 0 -1
    outer loop
      vertex -7.72542 -23.7764 0
      vertex -3.09017 -9.51056 0
      vertex -2.61321 -24.863 0
    endloop
  endfacet
  facet normal -0 0 -1
    outer loop
      vertex -3.09017 -9.51056 0
      vertex -7.72542 -23.7764 0
      vertex -5 -8.66025 0
    endloop
  endfacet
  facet normal 0 0 -1
    outer loop
      vertex -12.5 -21.6506 0
      vertex -5 -8.66025 0
      vertex -7.72542 -23.7764 0
    endloop
  endfacet
  facet normal -0 0 -1
    outer loop
      vertex -5 -8.66025 0
      vertex -12.5 -21.6506 0
      vertex -6.69131 -7.43145 0
    endloop
  endfacet
  facet normal 0 0 -1
    outer loop
      vertex -16.7283 -18.5786 0
      vertex -6.69131 -7.43145 0
      vertex -12.5 -21.6506 0
    endloop
  endfacet
  facet normal -0 0 -1
    outer loop
      vertex -6.69131 -7.43145 0
      vertex -16.7283 -18.5786 0
      vertex -8.09017 -5.87785 0
    endloop
  endfacet
  facet normal 0 0 -1
    outer loop
      vertex -20.2254 -14.6946 0
      vertex -8.09017 -5.87785 0
      vertex -16.7283 -18.5786 0
    endloop
  endfacet
  facet normal -0 0 -1
    outer loop
      vertex -8.09017 -5.87785 0
      vertex -20.2254 -14.6946 0
      vertex -9.13545 -4.06737 0
    endloop
  endfacet
  facet normal 0 0 -1
    outer loop
      vertex 8.09017 5.87785 0
      vertex 20.2254 14.6946 0
      vertex 9.13545 4.06737 0
    endloop
  endfacet
  facet normal -0 0 -1
    outer loop
      vertex 20.2254 14.6946 0
      vertex 8.09017 5.87785 0
      vertex 16.7283 18.5786 0
    endloop
  endfacet
  facet normal 0 0 -1
    outer loop
      vertex 6.69131 7.43145 0
      vertex 16.7283 18.5786 0
      vertex 8.09017 5.87785 0
    endloop
  endfacet
  facet normal -0 0 -1
    outer loop
      vertex 16.7283 18.5786 0
      vertex 6.69131 7.43145 0
      vertex 12.5 21.6506 0
    endloop
  endfacet
  facet normal 0 0 -1
    outer loop
      vertex 5 8.66025 0
      vertex 12.5 21.6506 0
      vertex 6.69131 7.43145 0
    endloop
  endfacet
  facet normal -0 0 -1
    outer loop
      vertex 12.5 21.6506 0
      vertex 5 8.66025 0
      vertex 7.72542 23.7764 0
    endloop
  endfacet
  facet normal 0 0 -1
    outer loop
      vertex 3.09017 9.51056 0
      vertex 7.72542 23.7764 0
      vertex 5 8.66025 0
    endloop
  endfacet
  facet normal 0 0 -1
    outer loop
      vertex 3.09017 9.51056 0
      vertex 2.61321 24.863 0
      vertex 7.72542 23.7764 0
    endloop
  endfacet
  facet normal 0 0 -1
    outer loop
      vertex 1.04528 9.94522 0
      vertex 2.61321 24.863 0
      vertex 3.09017 9.51056 0
    endloop
  endfacet
  facet normal 0 0 -1
    outer loop
      vertex -1.04528 9.94522 0
      vertex 2.61321 24.863 0
      vertex 1.04528 9.94522 0
    endloop
  endfacet
  facet normal 0 0 -1
    outer loop
      vertex -1.04528 9.94522 0
      vertex -2.61321 24.863 0
      vertex 2.61321 24.863 0
    endloop
  endfacet
  facet normal 0 0 -1
    outer loop
      vertex -3.09017 9.51056 0
      vertex -2.61321 24.863 0
      vertex -1.04528 9.94522 0
    endloop
  endfacet
  facet normal 0 0 -1
    outer loop
      vertex -7.72542 23.7764 0
      vertex -3.09017 9.51056 0
      vertex -5 8.66025 0
    endloop
  endfacet
  facet normal 0 0 -1
    outer loop
      vertex -12.5 21.6506 0
      vertex -5 8.66025 0
      vertex -6.69131 7.43145 0
    endloop
  endfacet
  facet normal 0 0 -1
    outer loop
      vertex -3.09017 9.51056 0
      vertex -7.72542 23.7764 0
      vertex -2.61321 24.863 0
    endloop
  endfacet
  facet normal 0 0 -1
    outer loop
      vertex -16.7283 18.5786 0
      vertex -6.69131 7.43145 0
      vertex -8.09017 5.87785 0
    endloop
  endfacet
  facet normal 0 0 -1
    outer loop
      vertex -20.2254 14.6946 0
      vertex -8.09017 5.87785 0
      vertex -9.13545 4.06737 0
    endloop
  endfacet
  facet normal 0 0 -1
    outer loop
      vertex -22.8386 10.1684 0
      vertex -9.13545 4.06737 0
      vertex -9.78148 2.07912 0
    endloop
  endfacet
  facet normal 0 0 -1
    outer loop
      vertex -24.4537 5.19779 0
      vertex -9.78148 2.07912 0
      vertex -10 0 0
    endloop
  endfacet
  facet normal 0 0 -1
    outer loop
      vertex -22.8386 -10.1684 0
      vertex -9.13545 -4.06737 0
      vertex -20.2254 -14.6946 0
    endloop
  endfacet
  facet normal 0 0 -1
    outer loop
      vertex -5 8.66025 0
      vertex -12.5 21.6506 0
      vertex -7.72542 23.7764 0
    endloop
  endfacet
  facet normal -0 0 -1
    outer loop
      vertex -9.13545 -4.06737 0
      vertex -22.8386 -10.1684 0
      vertex -9.78148 -2.07912 0
    endloop
  endfacet
  facet normal 0 0 -1
    outer loop
      vertex -6.69131 7.43145 0
      vertex -16.7283 18.5786 0
      vertex -12.5 21.6506 0
    endloop
  endfacet
  facet normal 0 0 -1
    outer loop
      vertex -24.4537 -5.19779 0
      vertex -9.78148 -2.07912 0
      vertex -22.8386 -10.1684 0
    endloop
  endfacet
  facet normal 0 0 -1
    outer loop
      vertex -8.09017 5.87785 0
      vertex -20.2254 14.6946 0
      vertex -16.7283 18.5786 0
    endloop
  endfacet
  facet normal -0 0 -1
    outer loop
      vertex -9.78148 -2.07912 0
      vertex -24.4537 -5.19779 0
      vertex -10 0 0
    endloop
  endfacet
  facet normal 0 0 -1
    outer loop
      vertex -9.13545 4.06737 0
      vertex -22.8386 10.1684 0
      vertex -20.2254 14.6946 0
    endloop
  endfacet
  facet normal 0 0 -1
    outer loop
      vertex -25 0 0
      vertex -10 0 0
      vertex -24.4537 -5.19779 0
    endloop
  endfacet
  facet normal 0 0 -1
    outer loop
      vertex -9.78148 2.07912 0
      vertex -24.4537 5.19779 0
      vertex -22.8386 10.1684 0
    endloop
  endfacet
  facet normal 0 0 -1
    outer loop
      vertex -10 0 0
      vertex -25 0 0
      vertex -24.4537 5.19779 0
    endloop
  endfacet
  facet normal -0.665423 -0.599138 0.445248
    outer loop
      vertex -12.1353 -8.81678 20
      vertex -20.2254 -14.6946 0
      vertex -16.7283 -18.5786 0
    endloop
  endfacet
  facet normal 0.8905 -0.0935992 0.445251
    outer loop
      vertex 15 0 20
      vertex 14.6722 -3.11868 20
      vertex 24.4537 -5.19779 0
    endloop
  endfacet
  facet normal -0.364197 -0.817992 0.445251
    outer loop
      vertex -4.63525 -14.2658 20
      vertex -12.5 -21.6506 0
      vertex -7.72542 -23.7764 0
    endloop
  endfacet
  facet normal -0.364197 0.817992 0.445251
    outer loop
      vertex -7.72542 23.7764 0
      vertex -12.5 21.6506 0
      vertex -4.63525 14.2658 20
    endloop
  endfacet
  facet normal -0.890501 0.0935938 0.445251
    outer loop
      vertex -24.4537 5.19779 0
      vertex -25 0 0
      vertex -15 0 20
    endloop
  endfacet
  facet normal -0.665423 0.599138 0.445248
    outer loop
      vertex -16.7283 18.5786 0
      vertex -20.2254 14.6946 0
      vertex -12.1353 8.81678 20
    endloop
  endfacet
  facet normal 0.364197 -0.817992 0.445251
    outer loop
      vertex 12.5 -21.6506 0
      vertex 4.63525 -14.2658 20
      vertex 7.72542 -23.7764 0
    endloop
  endfacet
  facet normal 0.526302 0.724403 0.445249
    outer loop
      vertex 12.5 21.6506 0
      vertex 7.5 12.9904 20
      vertex 16.7283 18.5786 0
    endloop
  endfacet
  facet normal -0.775446 -0.447703 0.445248
    outer loop
      vertex -12.1353 -8.81678 20
      vertex -22.8386 -10.1684 0
      vertex -20.2254 -14.6946 0
    endloop
  endfacet
  facet normal 0.665423 0.599138 0.445248
    outer loop
      vertex 16.7283 18.5786 0
      vertex 12.1353 8.81678 20
      vertex 20.2254 14.6946 0
    endloop
  endfacet
  facet normal 0.5263 0.724405 0.445249
    outer loop
      vertex 16.7283 18.5786 0
      vertex 7.5 12.9904 20
      vertex 10.037 11.1472 20
    endloop
  endfacet
  facet normal 0.186171 0.875839 0.44525
    outer loop
      vertex 2.61321 24.863 0
      vertex 1.56793 14.9178 20
      vertex 4.63525 14.2658 20
    endloop
  endfacet
  facet normal 0.85158 0.276704 0.445249
    outer loop
      vertex 22.8386 10.1684 0
      vertex 13.7032 6.10105 20
      vertex 24.4537 5.19779 0
    endloop
  endfacet
  facet normal 0.775449 0.447698 0.445249
    outer loop
      vertex 22.8386 10.1684 0
      vertex 12.1353 8.81678 20
      vertex 13.7032 6.10105 20
    endloop
  endfacet
  facet normal -0.85158 0.276704 0.445249
    outer loop
      vertex -22.8386 10.1684 0
      vertex -24.4537 5.19779 0
      vertex -13.7032 6.10105 20
    endloop
  endfacet
  facet normal 0.775446 0.447703 0.445248
    outer loop
      vertex 20.2254 14.6946 0
      vertex 12.1353 8.81678 20
      vertex 22.8386 10.1684 0
    endloop
  endfacet
  facet normal 0.665423 -0.599138 0.445248
    outer loop
      vertex 20.2254 -14.6946 0
      vertex 12.1353 -8.81678 20
      vertex 16.7283 -18.5786 0
    endloop
  endfacet
  facet normal 0.775446 -0.447703 0.445248
    outer loop
      vertex 22.8386 -10.1684 0
      vertex 12.1353 -8.81678 20
      vertex 20.2254 -14.6946 0
    endloop
  endfacet
  facet normal -0.851584 0.276688 0.445252
    outer loop
      vertex -13.7032 6.10105 20
      vertex -24.4537 5.19779 0
      vertex -14.6722 3.11868 20
    endloop
  endfacet
  facet normal -0.186171 0.875839 0.44525
    outer loop
      vertex -2.61321 24.863 0
      vertex -4.63525 14.2658 20
      vertex -1.56793 14.9178 20
    endloop
  endfacet
  facet normal 0 0.895406 0.44525
    outer loop
      vertex 2.61321 24.863 0
      vertex -1.56793 14.9178 20
      vertex 1.56793 14.9178 20
    endloop
  endfacet
  facet normal 0 0.895406 0.44525
    outer loop
      vertex -1.56793 14.9178 20
      vertex 2.61321 24.863 0
      vertex -2.61321 24.863 0
    endloop
  endfacet
  facet normal -0.66542 0.599141 0.445249
    outer loop
      vertex -10.037 11.1472 20
      vertex -16.7283 18.5786 0
      vertex -12.1353 8.81678 20
    endloop
  endfacet
  facet normal 0.66542 -0.599141 0.445249
    outer loop
      vertex 12.1353 -8.81678 20
      vertex 10.037 -11.1472 20
      vertex 16.7283 -18.5786 0
    endloop
  endfacet
  facet normal -0.526302 -0.724403 0.445249
    outer loop
      vertex -7.5 -12.9904 20
      vertex -16.7283 -18.5786 0
      vertex -12.5 -21.6506 0
    endloop
  endfacet
  facet normal 0.186171 -0.875839 0.44525
    outer loop
      vertex 4.63525 -14.2658 20
      vertex 1.56793 -14.9178 20
      vertex 2.61321 -24.863 0
    endloop
  endfacet
  facet normal 0.364179 -0.818003 0.445248
    outer loop
      vertex 7.5 -12.9904 20
      vertex 4.63525 -14.2658 20
      vertex 12.5 -21.6506 0
    endloop
  endfacet
  facet normal 0.526302 -0.724403 0.445249
    outer loop
      vertex 16.7283 -18.5786 0
      vertex 7.5 -12.9904 20
      vertex 12.5 -21.6506 0
    endloop
  endfacet
  facet normal -0.526302 0.724403 0.445249
    outer loop
      vertex -12.5 21.6506 0
      vertex -16.7283 18.5786 0
      vertex -7.5 12.9904 20
    endloop
  endfacet
  facet normal 0.851584 0.276688 0.445252
    outer loop
      vertex 24.4537 5.19779 0
      vertex 13.7032 6.10105 20
      vertex 14.6722 3.11868 20
    endloop
  endfacet
  facet normal -0.5263 -0.724405 0.445249
    outer loop
      vertex -10.037 -11.1472 20
      vertex -16.7283 -18.5786 0
      vertex -7.5 -12.9904 20
    endloop
  endfacet
  facet normal -0.18616 -0.87584 0.445251
    outer loop
      vertex -4.63525 -14.2658 20
      vertex -7.72542 -23.7764 0
      vertex -2.61321 -24.863 0
    endloop
  endfacet
  facet normal 0.85158 -0.276704 0.445249
    outer loop
      vertex 24.4537 -5.19779 0
      vertex 13.7032 -6.10105 20
      vertex 22.8386 -10.1684 0
    endloop
  endfacet
  facet normal -0.851584 -0.276688 0.445252
    outer loop
      vertex -14.6722 -3.11868 20
      vertex -24.4537 -5.19779 0
      vertex -13.7032 -6.10105 20
    endloop
  endfacet
  facet normal -0.186171 -0.875839 0.44525
    outer loop
      vertex -1.56793 -14.9178 20
      vertex -4.63525 -14.2658 20
      vertex -2.61321 -24.863 0
    endloop
  endfacet
  facet normal -0.364179 0.818003 0.445248
    outer loop
      vertex -4.63525 14.2658 20
      vertex -12.5 21.6506 0
      vertex -7.5 12.9904 20
    endloop
  endfacet
  facet normal -0.8905 -0.0935992 0.445251
    outer loop
      vertex -15 0 20
      vertex -24.4537 -5.19779 0
      vertex -14.6722 -3.11868 20
    endloop
  endfacet
  facet normal 0 -0.895406 0.44525
    outer loop
      vertex -2.61321 -24.863 0
      vertex 1.56793 -14.9178 20
      vertex -1.56793 -14.9178 20
    endloop
  endfacet
  facet normal 0 -0.895406 0.44525
    outer loop
      vertex 1.56793 -14.9178 20
      vertex -2.61321 -24.863 0
      vertex 2.61321 -24.863 0
    endloop
  endfacet
  facet normal 0.8905 0.0935992 0.445251
    outer loop
      vertex 24.4537 5.19779 0
      vertex 14.6722 3.11868 20
      vertex 15 0 20
    endloop
  endfacet
  facet normal 0.18616 -0.87584 0.445251
    outer loop
      vertex 4.63525 -14.2658 20
      vertex 2.61321 -24.863 0
      vertex 7.72542 -23.7764 0
    endloop
  endfacet
  facet normal 0 0 1
    outer loop
      vertex 9.75 0 20
      vertex 15 0 20
      vertex 14.6722 3.11868 20
    endloop
  endfacet
  facet normal 0 0 1
    outer loop
      vertex 9.53694 2.02714 20
      vertex 14.6722 3.11868 20
      vertex 13.7032 6.10105 20
    endloop
  endfacet
  facet normal 0 0 1
    outer loop
      vertex 15 0 20
      vertex 9.75 0 20
      vertex 14.6722 -3.11868 20
    endloop
  endfacet
  facet normal 0 0 1
    outer loop
      vertex 8.90707 3.96568 20
      vertex 13.7032 6.10105 20
      vertex 12.1353 8.81678 20
    endloop
  endfacet
  facet normal -0 0 1
    outer loop
      vertex 9.53694 -2.02714 20
      vertex 14.6722 -3.11868 20
      vertex 9.75 0 20
    endloop
  endfacet
  facet normal 0 0 1
    outer loop
      vertex 7.88792 5.73091 20
      vertex 12.1353 8.81678 20
      vertex 10.037 11.1472 20
    endloop
  endfacet
  facet normal 0 0 1
    outer loop
      vertex 14.6722 -3.11868 20
      vertex 9.53694 -2.02714 20
      vertex 13.7032 -6.10105 20
    endloop
  endfacet
  facet normal -0 0 1
    outer loop
      vertex 8.90707 -3.96568 20
      vertex 13.7032 -6.10105 20
      vertex 9.53694 -2.02714 20
    endloop
  endfacet
  facet normal 0 0 1
    outer loop
      vertex 14.6722 3.11868 20
      vertex 9.53694 2.02714 20
      vertex 9.75 0 20
    endloop
  endfacet
  facet normal 0 0 1
    outer loop
      vertex 13.7032 6.10105 20
      vertex 8.90707 3.96568 20
      vertex 9.53694 2.02714 20
    endloop
  endfacet
  facet normal 0 0 1
    outer loop
      vertex 12.1353 8.81678 20
      vertex 7.88792 5.73091 20
      vertex 8.90707 3.96568 20
    endloop
  endfacet
  facet normal 0 0 1
    outer loop
      vertex 6.52402 7.24566 20
      vertex 10.037 11.1472 20
      vertex 7.5 12.9904 20
    endloop
  endfacet
  facet normal 0 0 1
    outer loop
      vertex 10.037 11.1472 20
      vertex 6.52402 7.24566 20
      vertex 7.88792 5.73091 20
    endloop
  endfacet
  facet normal 0 0 1
    outer loop
      vertex 7.5 12.9904 20
      vertex 4.875 8.44375 20
      vertex 6.52402 7.24566 20
    endloop
  endfacet
  facet normal 0 0 1
    outer loop
      vertex 4.63525 14.2658 20
      vertex 4.875 8.44375 20
      vertex 7.5 12.9904 20
    endloop
  endfacet
  facet normal 0 0 1
    outer loop
      vertex 4.63525 14.2658 20
      vertex 3.01292 9.2728 20
      vertex 4.875 8.44375 20
    endloop
  endfacet
  facet normal 0 0 1
    outer loop
      vertex 1.56793 14.9178 20
      vertex 3.01292 9.2728 20
      vertex 4.63525 14.2658 20
    endloop
  endfacet
  facet normal 0 0 1
    outer loop
      vertex 1.56793 14.9178 20
      vertex 1.01915 9.69659 20
      vertex 3.01292 9.2728 20
    endloop
  endfacet
  facet normal 0 0 1
    outer loop
      vertex 1.56793 14.9178 20
      vertex -1.01915 9.69659 20
      vertex 1.01915 9.69659 20
    endloop
  endfacet
  facet normal -0 0 1
    outer loop
      vertex -1.56793 14.9178 20
      vertex -1.01915 9.69659 20
      vertex 1.56793 14.9178 20
    endloop
  endfacet
  facet normal 0 0 1
    outer loop
      vertex -1.56793 14.9178 20
      vertex -3.01292 9.2728 20
      vertex -1.01915 9.69659 20
    endloop
  endfacet
  facet normal -0 0 1
    outer loop
      vertex -4.63525 14.2658 20
      vertex -3.01292 9.2728 20
      vertex -1.56793 14.9178 20
    endloop
  endfacet
  facet normal 0 0 1
    outer loop
      vertex -4.63525 14.2658 20
      vertex -4.875 8.44375 20
      vertex -3.01292 9.2728 20
    endloop
  endfacet
  facet normal -0 0 1
    outer loop
      vertex -7.5 12.9904 20
      vertex -4.875 8.44375 20
      vertex -4.63525 14.2658 20
    endloop
  endfacet
  facet normal 0 0 1
    outer loop
      vertex -4.875 8.44375 20
      vertex -7.5 12.9904 20
      vertex -6.52402 7.24566 20
    endloop
  endfacet
  facet normal -0 0 1
    outer loop
      vertex -10.037 11.1472 20
      vertex -6.52402 7.24566 20
      vertex -7.5 12.9904 20
    endloop
  endfacet
  facet normal 0 0 1
    outer loop
      vertex -6.52402 7.24566 20
      vertex -10.037 11.1472 20
      vertex -7.88792 5.73091 20
    endloop
  endfacet
  facet normal -0 0 1
    outer loop
      vertex -12.1353 8.81678 20
      vertex -7.88792 5.73091 20
      vertex -10.037 11.1472 20
    endloop
  endfacet
  facet normal -0 0 1
    outer loop
      vertex -13.7032 6.10105 20
      vertex -8.90707 3.96568 20
      vertex -12.1353 8.81678 20
    endloop
  endfacet
  facet normal 0 0 1
    outer loop
      vertex -7.88792 5.73091 20
      vertex -12.1353 8.81678 20
      vertex -8.90707 3.96568 20
    endloop
  endfacet
  facet normal 0 0 1
    outer loop
      vertex 13.7032 -6.10105 20
      vertex 8.90707 -3.96568 20
      vertex 12.1353 -8.81678 20
    endloop
  endfacet
  facet normal -0 0 1
    outer loop
      vertex 7.88792 -5.73091 20
      vertex 12.1353 -8.81678 20
      vertex 8.90707 -3.96568 20
    endloop
  endfacet
  facet normal 0 0 1
    outer loop
      vertex 12.1353 -8.81678 20
      vertex 7.88792 -5.73091 20
      vertex 10.037 -11.1472 20
    endloop
  endfacet
  facet normal -0 0 1
    outer loop
      vertex 6.52402 -7.24566 20
      vertex 10.037 -11.1472 20
      vertex 7.88792 -5.73091 20
    endloop
  endfacet
  facet normal 0 0 1
    outer loop
      vertex 10.037 -11.1472 20
      vertex 6.52402 -7.24566 20
      vertex 7.5 -12.9904 20
    endloop
  endfacet
  facet normal -0 0 1
    outer loop
      vertex 4.875 -8.44375 20
      vertex 7.5 -12.9904 20
      vertex 6.52402 -7.24566 20
    endloop
  endfacet
  facet normal 0 0 1
    outer loop
      vertex 4.875 -8.44375 20
      vertex 4.63525 -14.2658 20
      vertex 7.5 -12.9904 20
    endloop
  endfacet
  facet normal -0 0 1
    outer loop
      vertex 3.01292 -9.2728 20
      vertex 4.63525 -14.2658 20
      vertex 4.875 -8.44375 20
    endloop
  endfacet
  facet normal 0 0 1
    outer loop
      vertex 3.01292 -9.2728 20
      vertex 1.56793 -14.9178 20
      vertex 4.63525 -14.2658 20
    endloop
  endfacet
  facet normal -0 0 1
    outer loop
      vertex 1.01915 -9.69659 20
      vertex 1.56793 -14.9178 20
      vertex 3.01292 -9.2728 20
    endloop
  endfacet
  facet normal -0 0 1
    outer loop
      vertex -1.01915 -9.69659 20
      vertex 1.56793 -14.9178 20
      vertex 1.01915 -9.69659 20
    endloop
  endfacet
  facet normal 0 0 1
    outer loop
      vertex -1.01915 -9.69659 20
      vertex -1.56793 -14.9178 20
      vertex 1.56793 -14.9178 20
    endloop
  endfacet
  facet normal 0 0 1
    outer loop
      vertex -3.01292 -9.2728 20
      vertex -1.56793 -14.9178 20
      vertex -1.01915 -9.69659 20
    endloop
  endfacet
  facet normal 0 0 1
    outer loop
      vertex -3.01292 -9.2728 20
      vertex -4.63525 -14.2658 20
      vertex -1.56793 -14.9178 20
    endloop
  endfacet
  facet normal 0 0 1
    outer loop
      vertex -4.875 -8.44375 20
      vertex -4.63525 -14.2658 20
      vertex -3.01292 -9.2728 20
    endloop
  endfacet
  facet normal 0 0 1
    outer loop
      vertex -7.5 -12.9904 20
      vertex -4.875 -8.44375 20
      vertex -6.52402 -7.24566 20
    endloop
  endfacet
  facet normal 0 0 1
    outer loop
      vertex -4.875 -8.44375 20
      vertex -7.5 -12.9904 20
      vertex -4.63525 -14.2658 20
    endloop
  endfacet
  facet normal 0 0 1
    outer loop
      vertex -10.037 -11.1472 20
      vertex -6.52402 -7.24566 20
      vertex -7.88792 -5.73091 20
    endloop
  endfacet
  facet normal 0 0 1
    outer loop
      vertex -12.1353 -8.81678 20
      vertex -7.88792 -5.73091 20
      vertex -8.90707 -3.96568 20
    endloop
  endfacet
  facet normal 0 0 1
    outer loop
      vertex -13.7032 -6.10105 20
      vertex -8.90707 -3.96568 20
      vertex -9.53694 -2.02714 20
    endloop
  endfacet
  facet normal 0 0 1
    outer loop
      vertex -6.52402 -7.24566 20
      vertex -10.037 -11.1472 20
      vertex -7.5 -12.9904 20
    endloop
  endfacet
  facet normal 0 0 1
    outer loop
      vertex -14.6722 -3.11868 20
      vertex -9.53694 -2.02714 20
      vertex -9.75 0 20
    endloop
  endfacet
  facet normal 0 0 1
    outer loop
      vertex -8.90707 3.96568 20
      vertex -13.7032 6.10105 20
      vertex -9.53694 2.02714 20
    endloop
  endfacet
  facet normal -0 0 1
    outer loop
      vertex -14.6722 3.11868 20
      vertex -9.53694 2.02714 20
      vertex -13.7032 6.10105 20
    endloop
  endfacet
  facet normal 0 0 1
    outer loop
      vertex -7.88792 -5.73091 20
      vertex -12.1353 -8.81678 20
      vertex -10.037 -11.1472 20
    endloop
  endfacet
  facet normal 0 0 1
    outer loop
      vertex -9.53694 2.02714 20
      vertex -14.6722 3.11868 20
      vertex -9.75 0 20
    endloop
  endfacet
  facet normal 0 0 1
    outer loop
      vertex -8.90707 -3.96568 20
      vertex -13.7032 -6.10105 20
      vertex -12.1353 -8.81678 20
    endloop
  endfacet
  facet normal 0 0 1
    outer loop
      vertex -15 0 20
      vertex -9.75 0 20
      vertex -14.6722 3.11868 20
    endloop
  endfacet
  facet normal 0 0 1
    outer loop
      vertex -9.53694 -2.02714 20
      vertex -14.6722 -3.11868 20
      vertex -13.7032 -6.10105 20
    endloop
  endfacet
  facet normal 0 0 1
    outer loop
      vertex -9.75 0 20
      vertex -15 0 20
      vertex -14.6722 -3.11868 20
    endloop
  endfacet
  facet normal -0.66542 -0.599141 0.445249
    outer loop
      vertex -12.1353 -8.81678 20
      vertex -16.7283 -18.5786 0
      vertex -10.037 -11.1472 20
    endloop
  endfacet
  facet normal 0.743147 0.669129 0
    outer loop
      vertex -6.69131 -7.43145 10
      vertex -8.09017 -5.87785 0
      vertex -8.09017 -5.87785 10
    endloop
  endfacet
  facet normal 0.743147 0.669129 0
    outer loop
      vertex -8.09017 -5.87785 0
      vertex -6.69131 -7.43145 10
      vertex -6.69131 -7.43145 0
    endloop
  endfacet
  facet normal -0.951055 -0.309021 0
    outer loop
      vertex 9.78148 2.07912 0
      vertex 9.13545 4.06737 10
      vertex 9.13545 4.06737 0
    endloop
  endfacet
  facet normal -0.951055 -0.309021 0
    outer loop
      vertex 9.13545 4.06737 10
      vertex 9.78148 2.07912 0
      vertex 9.78148 2.07912 10
    endloop
  endfacet
  facet normal -0.994522 -0.104526 0
    outer loop
      vertex 10 0 0
      vertex 9.78148 2.07912 10
      vertex 9.78148 2.07912 0
    endloop
  endfacet
  facet normal -0.994522 -0.104526 0
    outer loop
      vertex 9.78148 2.07912 10
      vertex 10 0 0
      vertex 10 0 10
    endloop
  endfacet
  facet normal -0.866026 -0.5 0
    outer loop
      vertex 9.13545 4.06737 0
      vertex 8.09017 5.87785 10
      vertex 8.09017 5.87785 0
    endloop
  endfacet
  facet normal -0.866026 -0.5 0
    outer loop
      vertex 8.09017 5.87785 10
      vertex 9.13545 4.06737 0
      vertex 9.13545 4.06737 10
    endloop
  endfacet
  facet normal -0.951055 0.309021 0
    outer loop
      vertex 9.13545 -4.06737 0
      vertex 9.78148 -2.07912 10
      vertex 9.78148 -2.07912 0
    endloop
  endfacet
  facet normal -0.951055 0.309021 0
    outer loop
      vertex 9.78148 -2.07912 10
      vertex 9.13545 -4.06737 0
      vertex 9.13545 -4.06737 10
    endloop
  endfacet
  facet normal -0.587783 0.809019 0
    outer loop
      vertex 6.69131 -7.43145 0
      vertex 5 -8.66025 10
      vertex 6.69131 -7.43145 10
    endloop
  endfacet
  facet normal -0.587783 0.809019 0
    outer loop
      vertex 5 -8.66025 10
      vertex 6.69131 -7.43145 0
      vertex 5 -8.66025 0
    endloop
  endfacet
  facet normal -0.743147 0.669129 0
    outer loop
      vertex 6.69131 -7.43145 0
      vertex 8.09017 -5.87785 10
      vertex 8.09017 -5.87785 0
    endloop
  endfacet
  facet normal -0.743147 0.669129 0
    outer loop
      vertex 8.09017 -5.87785 10
      vertex 6.69131 -7.43145 0
      vertex 6.69131 -7.43145 10
    endloop
  endfacet
  facet normal -0.994522 0.104526 0
    outer loop
      vertex 9.78148 -2.07912 0
      vertex 10 0 10
      vertex 10 0 0
    endloop
  endfacet
  facet normal -0.994522 0.104526 0
    outer loop
      vertex 10 0 10
      vertex 9.78148 -2.07912 0
      vertex 9.78148 -2.07912 10
    endloop
  endfacet
  facet normal 0.406736 0.913546 -0
    outer loop
      vertex -3.09017 -9.51056 0
      vertex -5 -8.66025 10
      vertex -3.09017 -9.51056 10
    endloop
  endfacet
  facet normal 0.406736 0.913546 0
    outer loop
      vertex -5 -8.66025 10
      vertex -3.09017 -9.51056 0
      vertex -5 -8.66025 0
    endloop
  endfacet
  facet normal -0.406736 -0.913546 0
    outer loop
      vertex 3.09017 9.51056 0
      vertex 5 8.66025 10
      vertex 3.09017 9.51056 10
    endloop
  endfacet
  facet normal -0.406736 -0.913546 -0
    outer loop
      vertex 5 8.66025 10
      vertex 3.09017 9.51056 0
      vertex 5 8.66025 0
    endloop
  endfacet
  facet normal -0.743147 -0.669129 0
    outer loop
      vertex 8.09017 5.87785 0
      vertex 6.69131 7.43145 10
      vertex 6.69131 7.43145 0
    endloop
  endfacet
  facet normal -0.743147 -0.669129 0
    outer loop
      vertex 6.69131 7.43145 10
      vertex 8.09017 5.87785 0
      vertex 8.09017 5.87785 10
    endloop
  endfacet
  facet normal 0.587783 0.809019 -0
    outer loop
      vertex -5 -8.66025 0
      vertex -6.69131 -7.43145 10
      vertex -5 -8.66025 10
    endloop
  endfacet
  facet normal 0.587783 0.809019 0
    outer loop
      vertex -6.69131 -7.43145 10
      vertex -5 -8.66025 0
      vertex -6.69131 -7.43145 0
    endloop
  endfacet
  facet normal 0.743147 -0.669129 0
    outer loop
      vertex -8.09017 5.87785 10
      vertex -6.69131 7.43145 0
      vertex -6.69131 7.43145 10
    endloop
  endfacet
  facet normal 0.743147 -0.669129 0
    outer loop
      vertex -6.69131 7.43145 0
      vertex -8.09017 5.87785 10
      vertex -8.09017 5.87785 0
    endloop
  endfacet
  facet normal 0 -1 0
    outer loop
      vertex -1.04528 9.94522 0
      vertex 1.04528 9.94522 10
      vertex -1.04528 9.94522 10
    endloop
  endfacet
  facet normal 0 -1 -0
    outer loop
      vertex 1.04528 9.94522 10
      vertex -1.04528 9.94522 0
      vertex 1.04528 9.94522 0
    endloop
  endfacet
  facet normal -0.406736 0.913546 0
    outer loop
      vertex 5 -8.66025 0
      vertex 3.09017 -9.51056 10
      vertex 5 -8.66025 10
    endloop
  endfacet
  facet normal -0.406736 0.913546 0
    outer loop
      vertex 3.09017 -9.51056 10
      vertex 5 -8.66025 0
      vertex 3.09017 -9.51056 0
    endloop
  endfacet
  facet normal -0.207914 0.978147 0
    outer loop
      vertex 3.09017 -9.51056 0
      vertex 1.04528 -9.94522 10
      vertex 3.09017 -9.51056 10
    endloop
  endfacet
  facet normal -0.207914 0.978147 0
    outer loop
      vertex 1.04528 -9.94522 10
      vertex 3.09017 -9.51056 0
      vertex 1.04528 -9.94522 0
    endloop
  endfacet
  facet normal 0.951055 -0.309021 0
    outer loop
      vertex -9.78148 2.07912 10
      vertex -9.13545 4.06737 0
      vertex -9.13545 4.06737 10
    endloop
  endfacet
  facet normal 0.951055 -0.309021 0
    outer loop
      vertex -9.13545 4.06737 0
      vertex -9.78148 2.07912 10
      vertex -9.78148 2.07912 0
    endloop
  endfacet
  facet normal 0.951055 0.309021 0
    outer loop
      vertex -9.13545 -4.06737 10
      vertex -9.78148 -2.07912 0
      vertex -9.78148 -2.07912 10
    endloop
  endfacet
  facet normal 0.951055 0.309021 0
    outer loop
      vertex -9.78148 -2.07912 0
      vertex -9.13545 -4.06737 10
      vertex -9.13545 -4.06737 0
    endloop
  endfacet
  facet normal 0.406736 -0.913546 0
    outer loop
      vertex -5 8.66025 0
      vertex -3.09017 9.51056 10
      vertex -5 8.66025 10
    endloop
  endfacet
  facet normal 0.406736 -0.913546 0
    outer loop
      vertex -3.09017 9.51056 10
      vertex -5 8.66025 0
      vertex -3.09017 9.51056 0
    endloop
  endfacet
  facet normal 0 0 -1
    outer loop
      vertex 9.78148 -2.07912 10
      vertex 9.78148 2.07912 10
      vertex 10 0 10
    endloop
  endfacet
  facet normal 0 0 -1
    outer loop
      vertex 9.13545 -4.06737 10
      vertex 9.78148 2.07912 10
      vertex 9.78148 -2.07912 10
    endloop
  endfacet
  facet normal 0 0 -1
    outer loop
      vertex 9.13545 -4.06737 10
      vertex 9.13545 4.06737 10
      vertex 9.78148 2.07912 10
    endloop
  endfacet
  facet normal 0 0 -1
    outer loop
      vertex 8.09017 -5.87785 10
      vertex 9.13545 4.06737 10
      vertex 9.13545 -4.06737 10
    endloop
  endfacet
  facet normal 0 0 -1
    outer loop
      vertex 8.09017 -5.87785 10
      vertex 8.09017 5.87785 10
      vertex 9.13545 4.06737 10
    endloop
  endfacet
  facet normal 0 0 -1
    outer loop
      vertex 6.69131 -7.43145 10
      vertex 8.09017 5.87785 10
      vertex 8.09017 -5.87785 10
    endloop
  endfacet
  facet normal 0 0 -1
    outer loop
      vertex 6.69131 -7.43145 10
      vertex 6.69131 7.43145 10
      vertex 8.09017 5.87785 10
    endloop
  endfacet
  facet normal 0 0 -1
    outer loop
      vertex 5 -8.66025 10
      vertex 6.69131 7.43145 10
      vertex 6.69131 -7.43145 10
    endloop
  endfacet
  facet normal 0 0 -1
    outer loop
      vertex 5 -8.66025 10
      vertex 5 8.66025 10
      vertex 6.69131 7.43145 10
    endloop
  endfacet
  facet normal 0 0 -1
    outer loop
      vertex 3.09017 -9.51056 10
      vertex 5 8.66025 10
      vertex 5 -8.66025 10
    endloop
  endfacet
  facet normal 0 0 -1
    outer loop
      vertex 3.09017 -9.51056 10
      vertex 3.09017 9.51056 10
      vertex 5 8.66025 10
    endloop
  endfacet
  facet normal 0 0 -1
    outer loop
      vertex 1.04528 -9.94522 10
      vertex 3.09017 9.51056 10
      vertex 3.09017 -9.51056 10
    endloop
  endfacet
  facet normal 0 0 -1
    outer loop
      vertex 1.04528 -9.94522 10
      vertex 1.04528 9.94522 10
      vertex 3.09017 9.51056 10
    endloop
  endfacet
  facet normal 0 0 -1
    outer loop
      vertex -1.04528 -9.94522 10
      vertex 1.04528 9.94522 10
      vertex 1.04528 -9.94522 10
    endloop
  endfacet
  facet normal 0 0 -1
    outer loop
      vertex -1.04528 -9.94522 10
      vertex -1.04528 9.94522 10
      vertex 1.04528 9.94522 10
    endloop
  endfacet
  facet normal 0 0 -1
    outer loop
      vertex -3.09017 -9.51056 10
      vertex -1.04528 9.94522 10
      vertex -1.04528 -9.94522 10
    endloop
  endfacet
  facet normal 0 0 -1
    outer loop
      vertex -3.09017 -9.51056 10
      vertex -3.09017 9.51056 10
      vertex -1.04528 9.94522 10
    endloop
  endfacet
  facet normal 0 0 -1
    outer loop
      vertex -5 -8.66025 10
      vertex -3.09017 9.51056 10
      vertex -3.09017 -9.51056 10
    endloop
  endfacet
  facet normal 0 0 -1
    outer loop
      vertex -5 -8.66025 10
      vertex -5 8.66025 10
      vertex -3.09017 9.51056 10
    endloop
  endfacet
  facet normal 0 0 -1
    outer loop
      vertex -6.69131 -7.43145 10
      vertex -5 8.66025 10
      vertex -5 -8.66025 10
    endloop
  endfacet
  facet normal 0 0 -1
    outer loop
      vertex -6.69131 -7.43145 10
      vertex -6.69131 7.43145 10
      vertex -5 8.66025 10
    endloop
  endfacet
  facet normal 0 0 -1
    outer loop
      vertex -8.09017 -5.87785 10
      vertex -6.69131 7.43145 10
      vertex -6.69131 -7.43145 10
    endloop
  endfacet
  facet normal 0 0 -1
    outer loop
      vertex -8.09017 -5.87785 10
      vertex -8.09017 5.87785 10
      vertex -6.69131 7.43145 10
    endloop
  endfacet
  facet normal 0 0 -1
    outer loop
      vertex -9.13545 -4.06737 10
      vertex -8.09017 5.87785 10
      vertex -8.09017 -5.87785 10
    endloop
  endfacet
  facet normal 0 0 -1
    outer loop
      vertex -9.13545 -4.06737 10
      vertex -9.13545 4.06737 10
      vertex -8.09017 5.87785 10
    endloop
  endfacet
  facet normal 0 0 -1
    outer loop
      vertex -9.78148 -2.07912 10
      vertex -9.13545 4.06737 10
      vertex -9.13545 -4.06737 10
    endloop
  endfacet
  facet normal 0 0 -1
    outer loop
      vertex -9.78148 -2.07912 10
      vertex -9.78148 2.07912 10
      vertex -9.13545 4.06737 10
    endloop
  endfacet
  facet normal 0 -0 -1
    outer loop
      vertex -9.78148 2.07912 10
      vertex -9.78148 -2.07912 10
      vertex -10 0 10
    endloop
  endfacet
  facet normal 0.207914 0.978147 -0
    outer loop
      vertex -1.04528 -9.94522 0
      vertex -3.09017 -9.51056 10
      vertex -1.04528 -9.94522 10
    endloop
  endfacet
  facet normal 0.207914 0.978147 0
    outer loop
      vertex -3.09017 -9.51056 10
      vertex -1.04528 -9.94522 0
      vertex -3.09017 -9.51056 0
    endloop
  endfacet
  facet normal -0.207914 -0.978147 0
    outer loop
      vertex 1.04528 9.94522 0
      vertex 3.09017 9.51056 10
      vertex 1.04528 9.94522 10
    endloop
  endfacet
  facet normal -0.207914 -0.978147 -0
    outer loop
      vertex 3.09017 9.51056 10
      vertex 1.04528 9.94522 0
      vertex 3.09017 9.51056 0
    endloop
  endfacet
  facet normal 0.994522 0.104526 0
    outer loop
      vertex -9.78148 -2.07912 10
      vertex -10 0 0
      vertex -10 0 10
    endloop
  endfacet
  facet normal 0.994522 0.104526 0
    outer loop
      vertex -10 0 0
      vertex -9.78148 -2.07912 10
      vertex -9.78148 -2.07912 0
    endloop
  endfacet
  facet normal 0.994522 -0.104526 0
    outer loop
      vertex -10 0 10
      vertex -9.78148 2.07912 0
      vertex -9.78148 2.07912 10
    endloop
  endfacet
  facet normal 0.994522 -0.104526 0
    outer loop
      vertex -9.78148 2.07912 0
      vertex -10 0 10
      vertex -10 0 0
    endloop
  endfacet
  facet normal 0.866026 0.5 0
    outer loop
      vertex -8.09017 -5.87785 10
      vertex -9.13545 -4.06737 0
      vertex -9.13545 -4.06737 10
    endloop
  endfacet
  facet normal 0.866026 0.5 0
    outer loop
      vertex -9.13545 -4.06737 0
      vertex -8.09017 -5.87785 10
      vertex -8.09017 -5.87785 0
    endloop
  endfacet
  facet normal 0.866026 -0.5 0
    outer loop
      vertex -9.13545 4.06737 10
      vertex -8.09017 5.87785 0
      vertex -8.09017 5.87785 10
    endloop
  endfacet
  facet normal 0.866026 -0.5 0
    outer loop
      vertex -8.09017 5.87785 0
      vertex -9.13545 4.06737 10
      vertex -9.13545 4.06737 0
    endloop
  endfacet
  facet normal -0.866026 0.5 0
    outer loop
      vertex 8.09017 -5.87785 0
      vertex 9.13545 -4.06737 10
      vertex 9.13545 -4.06737 0
    endloop
  endfacet
  facet normal -0.866026 0.5 0
    outer loop
      vertex 9.13545 -4.06737 10
      vertex 8.09017 -5.87785 0
      vertex 8.09017 -5.87785 10
    endloop
  endfacet
  facet normal -0.587783 -0.809019 0
    outer loop
      vertex 5 8.66025 0
      vertex 6.69131 7.43145 10
      vertex 5 8.66025 10
    endloop
  endfacet
  facet normal -0.587783 -0.809019 -0
    outer loop
      vertex 6.69131 7.43145 10
      vertex 5 8.66025 0
      vertex 6.69131 7.43145 0
    endloop
  endfacet
  facet normal 0.587783 -0.809019 0
    outer loop
      vertex -6.69131 7.43145 0
      vertex -5 8.66025 10
      vertex -6.69131 7.43145 10
    endloop
  endfacet
  facet normal 0.587783 -0.809019 0
    outer loop
      vertex -5 8.66025 10
      vertex -6.69131 7.43145 0
      vertex -5 8.66025 0
    endloop
  endfacet
  facet normal 0.207914 -0.978147 0
    outer loop
      vertex -3.09017 9.51056 0
      vertex -1.04528 9.94522 10
      vertex -3.09017 9.51056 10
    endloop
  endfacet
  facet normal 0.207914 -0.978147 0
    outer loop
      vertex -1.04528 9.94522 10
      vertex -3.09017 9.51056 0
      vertex -1.04528 9.94522 0
    endloop
  endfacet
  facet normal 0 1 -0
    outer loop
      vertex 1.04528 -9.94522 0
      vertex -1.04528 -9.94522 10
      vertex 1.04528 -9.94522 10
    endloop
  endfacet
  facet normal 0 1 0
    outer loop
      vertex -1.04528 -9.94522 10
      vertex 1.04528 -9.94522 0
      vertex -1.04528 -9.94522 0
    endloop
  endfacet
  facet normal 0.587787 0.809015 -0
    outer loop
      vertex 6.52402 7.24566 20
      vertex 4.875 8.44375 29
      vertex 6.52402 7.24566 29
    endloop
  endfacet
  facet normal 0.587787 0.809015 0
    outer loop
      vertex 4.875 8.44375 29
      vertex 6.52402 7.24566 20
      vertex 4.875 8.44375 20
    endloop
  endfacet
  facet normal -0.866027 0.499998 0
    outer loop
      vertex -8.90707 3.96568 20
      vertex -7.88792 5.73091 29
      vertex -7.88792 5.73091 20
    endloop
  endfacet
  facet normal -0.866027 0.499998 0
    outer loop
      vertex -7.88792 5.73091 29
      vertex -8.90707 3.96568 20
      vertex -8.90707 3.96568 29
    endloop
  endfacet
  facet normal 0.994522 -0.104528 0
    outer loop
      vertex 9.53694 -2.02714 29
      vertex 9.75 0 20
      vertex 9.75 0 29
    endloop
  endfacet
  facet normal 0.994522 -0.104528 0
    outer loop
      vertex 9.75 0 20
      vertex 9.53694 -2.02714 29
      vertex 9.53694 -2.02714 20
    endloop
  endfacet
  facet normal 0.587787 -0.809015 0
    outer loop
      vertex 4.875 -8.44375 20
      vertex 6.52402 -7.24566 29
      vertex 4.875 -8.44375 29
    endloop
  endfacet
  facet normal 0.587787 -0.809015 0
    outer loop
      vertex 6.52402 -7.24566 29
      vertex 4.875 -8.44375 20
      vertex 6.52402 -7.24566 20
    endloop
  endfacet
  facet normal 0.866027 0.499998 0
    outer loop
      vertex 8.90707 3.96568 29
      vertex 7.88792 5.73091 20
      vertex 7.88792 5.73091 29
    endloop
  endfacet
  facet normal 0.866027 0.499998 0
    outer loop
      vertex 7.88792 5.73091 20
      vertex 8.90707 3.96568 29
      vertex 8.90707 3.96568 20
    endloop
  endfacet
  facet normal -0.994522 0.104528 0
    outer loop
      vertex -9.75 0 20
      vertex -9.53694 2.02714 29
      vertex -9.53694 2.02714 20
    endloop
  endfacet
  facet normal -0.994522 0.104528 0
    outer loop
      vertex -9.53694 2.02714 29
      vertex -9.75 0 20
      vertex -9.75 0 29
    endloop
  endfacet
  facet normal 0.994522 0.104528 0
    outer loop
      vertex 9.75 0 29
      vertex 9.53694 2.02714 20
      vertex 9.53694 2.02714 29
    endloop
  endfacet
  facet normal 0.994522 0.104528 0
    outer loop
      vertex 9.53694 2.02714 20
      vertex 9.75 0 29
      vertex 9.75 0 20
    endloop
  endfacet
  facet normal -0.866027 -0.499998 0
    outer loop
      vertex -7.88792 -5.73091 20
      vertex -8.90707 -3.96568 29
      vertex -8.90707 -3.96568 20
    endloop
  endfacet
  facet normal -0.866027 -0.499998 0
    outer loop
      vertex -8.90707 -3.96568 29
      vertex -7.88792 -5.73091 20
      vertex -7.88792 -5.73091 29
    endloop
  endfacet
  facet normal -0.743142 -0.669134 0
    outer loop
      vertex -6.52402 -7.24566 20
      vertex -7.88792 -5.73091 29
      vertex -7.88792 -5.73091 20
    endloop
  endfacet
  facet normal -0.743142 -0.669134 0
    outer loop
      vertex -7.88792 -5.73091 29
      vertex -6.52402 -7.24566 20
      vertex -6.52402 -7.24566 29
    endloop
  endfacet
  facet normal -0.951056 0.309017 0
    outer loop
      vertex -9.53694 2.02714 20
      vertex -8.90707 3.96568 29
      vertex -8.90707 3.96568 20
    endloop
  endfacet
  facet normal -0.951056 0.309017 0
    outer loop
      vertex -8.90707 3.96568 29
      vertex -9.53694 2.02714 20
      vertex -9.53694 2.02714 29
    endloop
  endfacet
  facet normal 0 -1 0
    outer loop
      vertex -1.01915 -9.69659 20
      vertex 1.01915 -9.69659 29
      vertex -1.01915 -9.69659 29
    endloop
  endfacet
  facet normal 0 -1 -0
    outer loop
      vertex 1.01915 -9.69659 29
      vertex -1.01915 -9.69659 20
      vertex 1.01915 -9.69659 20
    endloop
  endfacet
  facet normal 0.406736 -0.913546 0
    outer loop
      vertex 3.01292 -9.2728 20
      vertex 4.875 -8.44375 29
      vertex 3.01292 -9.2728 29
    endloop
  endfacet
  facet normal 0.406736 -0.913546 0
    outer loop
      vertex 4.875 -8.44375 29
      vertex 3.01292 -9.2728 20
      vertex 4.875 -8.44375 20
    endloop
  endfacet
  facet normal -0.207912 0.978147 0
    outer loop
      vertex -1.01915 9.69659 20
      vertex -3.01292 9.2728 29
      vertex -1.01915 9.69659 29
    endloop
  endfacet
  facet normal -0.207912 0.978147 0
    outer loop
      vertex -3.01292 9.2728 29
      vertex -1.01915 9.69659 20
      vertex -3.01292 9.2728 20
    endloop
  endfacet
  facet normal 0.951056 0.309017 0
    outer loop
      vertex 9.53694 2.02714 29
      vertex 8.90707 3.96568 20
      vertex 8.90707 3.96568 29
    endloop
  endfacet
  facet normal 0.951056 0.309017 0
    outer loop
      vertex 8.90707 3.96568 20
      vertex 9.53694 2.02714 29
      vertex 9.53694 2.02714 20
    endloop
  endfacet
  facet normal 0.207912 -0.978147 0
    outer loop
      vertex 1.01915 -9.69659 20
      vertex 3.01292 -9.2728 29
      vertex 1.01915 -9.69659 29
    endloop
  endfacet
  facet normal 0.207912 -0.978147 0
    outer loop
      vertex 3.01292 -9.2728 29
      vertex 1.01915 -9.69659 20
      vertex 3.01292 -9.2728 20
    endloop
  endfacet
  facet normal 0.406736 0.913546 -0
    outer loop
      vertex 4.875 8.44375 20
      vertex 3.01292 9.2728 29
      vertex 4.875 8.44375 29
    endloop
  endfacet
  facet normal 0.406736 0.913546 0
    outer loop
      vertex 3.01292 9.2728 29
      vertex 4.875 8.44375 20
      vertex 3.01292 9.2728 20
    endloop
  endfacet
  facet normal -0.406736 0.913546 0
    outer loop
      vertex -3.01292 9.2728 20
      vertex -4.875 8.44375 29
      vertex -3.01292 9.2728 29
    endloop
  endfacet
  facet normal -0.406736 0.913546 0
    outer loop
      vertex -4.875 8.44375 29
      vertex -3.01292 9.2728 20
      vertex -4.875 8.44375 20
    endloop
  endfacet
  facet normal 0.866027 -0.499998 0
    outer loop
      vertex 7.88792 -5.73091 29
      vertex 8.90707 -3.96568 20
      vertex 8.90707 -3.96568 29
    endloop
  endfacet
  facet normal 0.866027 -0.499998 0
    outer loop
      vertex 8.90707 -3.96568 20
      vertex 7.88792 -5.73091 29
      vertex 7.88792 -5.73091 20
    endloop
  endfacet
  facet normal -0.406736 -0.913546 0
    outer loop
      vertex -4.875 -8.44375 20
      vertex -3.01292 -9.2728 29
      vertex -4.875 -8.44375 29
    endloop
  endfacet
  facet normal -0.406736 -0.913546 -0
    outer loop
      vertex -3.01292 -9.2728 29
      vertex -4.875 -8.44375 20
      vertex -3.01292 -9.2728 20
    endloop
  endfacet
  facet normal 0.743142 -0.669134 0
    outer loop
      vertex 6.52402 -7.24566 29
      vertex 7.88792 -5.73091 20
      vertex 7.88792 -5.73091 29
    endloop
  endfacet
  facet normal 0.743142 -0.669134 0
    outer loop
      vertex 7.88792 -5.73091 20
      vertex 6.52402 -7.24566 29
      vertex 6.52402 -7.24566 20
    endloop
  endfacet
  facet normal 0.743142 0.669134 0
    outer loop
      vertex 7.88792 5.73091 29
      vertex 6.52402 7.24566 20
      vertex 6.52402 7.24566 29
    endloop
  endfacet
  facet normal 0.743142 0.669134 0
    outer loop
      vertex 6.52402 7.24566 20
      vertex 7.88792 5.73091 29
      vertex 7.88792 5.73091 20
    endloop
  endfacet
  facet normal 0.207912 0.978147 -0
    outer loop
      vertex 3.01292 9.2728 20
      vertex 1.01915 9.69659 29
      vertex 3.01292 9.2728 29
    endloop
  endfacet
  facet normal 0.207912 0.978147 0
    outer loop
      vertex 1.01915 9.69659 29
      vertex 3.01292 9.2728 20
      vertex 1.01915 9.69659 20
    endloop
  endfacet
  facet normal -0.951056 -0.309017 0
    outer loop
      vertex -8.90707 -3.96568 20
      vertex -9.53694 -2.02714 29
      vertex -9.53694 -2.02714 20
    endloop
  endfacet
  facet normal -0.951056 -0.309017 0
    outer loop
      vertex -9.53694 -2.02714 29
      vertex -8.90707 -3.96568 20
      vertex -8.90707 -3.96568 29
    endloop
  endfacet
  facet normal -0.587787 -0.809015 0
    outer loop
      vertex -6.52402 -7.24566 20
      vertex -4.875 -8.44375 29
      vertex -6.52402 -7.24566 29
    endloop
  endfacet
  facet normal -0.587787 -0.809015 -0
    outer loop
      vertex -4.875 -8.44375 29
      vertex -6.52402 -7.24566 20
      vertex -4.875 -8.44375 20
    endloop
  endfacet
  facet normal -0.743142 0.669134 0
    outer loop
      vertex -7.88792 5.73091 20
      vertex -6.52402 7.24566 29
      vertex -6.52402 7.24566 20
    endloop
  endfacet
  facet normal -0.743142 0.669134 0
    outer loop
      vertex -6.52402 7.24566 29
      vertex -7.88792 5.73091 20
      vertex -7.88792 5.73091 29
    endloop
  endfacet
  facet normal -0.587787 0.809015 0
    outer loop
      vertex -4.875 8.44375 20
      vertex -6.52402 7.24566 29
      vertex -4.875 8.44375 29
    endloop
  endfacet
  facet normal -0.587787 0.809015 0
    outer loop
      vertex -6.52402 7.24566 29
      vertex -4.875 8.44375 20
      vertex -6.52402 7.24566 20
    endloop
  endfacet
  facet normal -0.994522 -0.104528 0
    outer loop
      vertex -9.53694 -2.02714 20
      vertex -9.75 0 29
      vertex -9.75 0 20
    endloop
  endfacet
  facet normal -0.994522 -0.104528 0
    outer loop
      vertex -9.75 0 29
      vertex -9.53694 -2.02714 20
      vertex -9.53694 -2.02714 29
    endloop
  endfacet
  facet normal 0.951056 -0.309017 0
    outer loop
      vertex 8.90707 -3.96568 29
      vertex 9.53694 -2.02714 20
      vertex 9.53694 -2.02714 29
    endloop
  endfacet
  facet normal 0.951056 -0.309017 0
    outer loop
      vertex 9.53694 -2.02714 20
      vertex 8.90707 -3.96568 29
      vertex 8.90707 -3.96568 20
    endloop
  endfacet
  facet normal 0 1 -0
    outer loop
      vertex 1.01915 9.69659 20
      vertex -1.01915 9.69659 29
      vertex 1.01915 9.69659 29
    endloop
  endfacet
  facet normal 0 1 0
    outer loop
      vertex -1.01915 9.69659 29
      vertex 1.01915 9.69659 20
      vertex -1.01915 9.69659 20
    endloop
  endfacet
  facet normal -0.207912 -0.978147 0
    outer loop
      vertex -3.01292 -9.2728 20
      vertex -1.01915 -9.69659 29
      vertex -3.01292 -9.2728 29
    endloop
  endfacet
  facet normal -0.207912 -0.978147 -0
    outer loop
      vertex -1.01915 -9.69659 29
      vertex -3.01292 -9.2728 20
      vertex -1.01915 -9.69659 20
    endloop
  endfacet
  facet normal 0 0 1
    outer loop
      vertex 9.53694 2.02714 29
      vertex 9.53694 -2.02714 29
      vertex 9.75 0 29
    endloop
  endfacet
  facet normal 0 0 1
    outer loop
      vertex 8.90707 3.96568 29
      vertex 9.53694 -2.02714 29
      vertex 9.53694 2.02714 29
    endloop
  endfacet
  facet normal 0 0 1
    outer loop
      vertex 8.90707 3.96568 29
      vertex 8.90707 -3.96568 29
      vertex 9.53694 -2.02714 29
    endloop
  endfacet
  facet normal 0 0 1
    outer loop
      vertex 7.88792 5.73091 29
      vertex 8.90707 -3.96568 29
      vertex 8.90707 3.96568 29
    endloop
  endfacet
  facet normal 0 0 1
    outer loop
      vertex 7.88792 5.73091 29
      vertex 7.88792 -5.73091 29
      vertex 8.90707 -3.96568 29
    endloop
  endfacet
  facet normal 0 0 1
    outer loop
      vertex 6.52402 7.24566 29
      vertex 7.88792 -5.73091 29
      vertex 7.88792 5.73091 29
    endloop
  endfacet
  facet normal 0 0 1
    outer loop
      vertex 6.52402 7.24566 29
      vertex 6.52402 -7.24566 29
      vertex 7.88792 -5.73091 29
    endloop
  endfacet
  facet normal 0 0 1
    outer loop
      vertex 4.875 8.44375 29
      vertex 6.52402 -7.24566 29
      vertex 6.52402 7.24566 29
    endloop
  endfacet
  facet normal 0 0 1
    outer loop
      vertex 4.875 8.44375 29
      vertex 4.875 -8.44375 29
      vertex 6.52402 -7.24566 29
    endloop
  endfacet
  facet normal 0 0 1
    outer loop
      vertex 3.01292 9.2728 29
      vertex 4.875 -8.44375 29
      vertex 4.875 8.44375 29
    endloop
  endfacet
  facet normal 0 0 1
    outer loop
      vertex 3.01292 9.2728 29
      vertex 3.01292 -9.2728 29
      vertex 4.875 -8.44375 29
    endloop
  endfacet
  facet normal 0 0 1
    outer loop
      vertex 1.01915 9.69659 29
      vertex 3.01292 -9.2728 29
      vertex 3.01292 9.2728 29
    endloop
  endfacet
  facet normal 0 0 1
    outer loop
      vertex 1.01915 9.69659 29
      vertex 1.01915 -9.69659 29
      vertex 3.01292 -9.2728 29
    endloop
  endfacet
  facet normal -0 0 1
    outer loop
      vertex -1.01915 9.69659 29
      vertex 1.01915 -9.69659 29
      vertex 1.01915 9.69659 29
    endloop
  endfacet
  facet normal 0 0 1
    outer loop
      vertex -1.01915 9.69659 29
      vertex -1.01915 -9.69659 29
      vertex 1.01915 -9.69659 29
    endloop
  endfacet
  facet normal -0 0 1
    outer loop
      vertex -3.01292 9.2728 29
      vertex -1.01915 -9.69659 29
      vertex -1.01915 9.69659 29
    endloop
  endfacet
  facet normal 0 0 1
    outer loop
      vertex -3.01292 9.2728 29
      vertex -3.01292 -9.2728 29
      vertex -1.01915 -9.69659 29
    endloop
  endfacet
  facet normal -0 0 1
    outer loop
      vertex -4.875 8.44375 29
      vertex -3.01292 -9.2728 29
      vertex -3.01292 9.2728 29
    endloop
  endfacet
  facet normal 0 0 1
    outer loop
      vertex -4.875 8.44375 29
      vertex -4.875 -8.44375 29
      vertex -3.01292 -9.2728 29
    endloop
  endfacet
  facet normal -0 0 1
    outer loop
      vertex -6.52402 7.24566 29
      vertex -4.875 -8.44375 29
      vertex -4.875 8.44375 29
    endloop
  endfacet
  facet normal 0 0 1
    outer loop
      vertex -6.52402 7.24566 29
      vertex -6.52402 -7.24566 29
      vertex -4.875 -8.44375 29
    endloop
  endfacet
  facet normal -0 0 1
    outer loop
      vertex -7.88792 5.73091 29
      vertex -6.52402 -7.24566 29
      vertex -6.52402 7.24566 29
    endloop
  endfacet
  facet normal 0 0 1
    outer loop
      vertex -7.88792 5.73091 29
      vertex -7.88792 -5.73091 29
      vertex -6.52402 -7.24566 29
    endloop
  endfacet
  facet normal -0 0 1
    outer loop
      vertex -8.90707 3.96568 29
      vertex -7.88792 -5.73091 29
      vertex -7.88792 5.73091 29
    endloop
  endfacet
  facet normal 0 0 1
    outer loop
      vertex -8.90707 3.96568 29
      vertex -8.90707 -3.96568 29
      vertex -7.88792 -5.73091 29
    endloop
  endfacet
  facet normal -0 0 1
    outer loop
      vertex -9.53694 2.02714 29
      vertex -8.90707 -3.96568 29
      vertex -8.90707 3.96568 29
    endloop
  endfacet
  facet normal 0 0 1
    outer loop
      vertex -9.53694 2.02714 29
      vertex -9.53694 -2.02714 29
      vertex -8.90707 -3.96568 29
    endloop
  endfacet
  facet normal 0 -0 1
    outer loop
      vertex -9.53694 -2.02714 29
      vertex -9.53694 2.02714 29
      vertex -9.75 0 29
    endloop
  endfacet
endsolid OpenSCAD_Model
