solid OpenSCAD_Model
  facet normal -0.207918 -0.978146 0
    outer loop
      vertex -9.03875 -27.8184 0
      vertex -3.05746 -29.0898 8
      vertex -9.03875 -27.8184 8
    endloop
  endfacet
  facet normal -0.207918 -0.978146 -0
    outer loop
      vertex -3.05746 -29.0898 8
      vertex -9.03875 -27.8184 0
      vertex -3.05746 -29.0898 0
    endloop
  endfacet
  facet normal 0.587777 -0.809023 0
    outer loop
      vertex 14.625 -25.3312 0
      vertex 19.5721 -21.737 8
      vertex 14.625 -25.3312 8
    endloop
  endfacet
  facet normal 0.587777 -0.809023 0
    outer loop
      vertex 19.5721 -21.737 8
      vertex 14.625 -25.3312 0
      vertex 19.5721 -21.737 0
    endloop
  endfacet
  facet normal 0.207918 -0.978146 0
    outer loop
      vertex 3.05746 -29.0898 0
      vertex 9.03875 -27.8184 8
      vertex 3.05746 -29.0898 8
    endloop
  endfacet
  facet normal 0.207918 -0.978146 0
    outer loop
      vertex 9.03875 -27.8184 8
      vertex 3.05746 -29.0898 0
      vertex 9.03875 -27.8184 0
    endloop
  endfacet
  facet normal 0 1 -0
    outer loop
      vertex 3.05746 29.0898 0
      vertex -3.05746 29.0898 8
      vertex 3.05746 29.0898 8
    endloop
  endfacet
  facet normal 0 1 0
    outer loop
      vertex -3.05746 29.0898 8
      vertex 3.05746 29.0898 0
      vertex -3.05746 29.0898 0
    endloop
  endfacet
  facet normal 0.994522 0.104531 0
    outer loop
      vertex 29.25 0 8
      vertex 28.6108 6.08142 0
      vertex 28.6108 6.08142 8
    endloop
  endfacet
  facet normal 0.994522 0.104531 0
    outer loop
      vertex 28.6108 6.08142 0
      vertex 29.25 0 8
      vertex 29.25 0 0
    endloop
  endfacet
  facet normal 0.866024 -0.500003 0
    outer loop
      vertex 23.6637 -17.1927 8
      vertex 26.7212 -11.897 0
      vertex 26.7212 -11.897 8
    endloop
  endfacet
  facet normal 0.866024 -0.500003 0
    outer loop
      vertex 26.7212 -11.897 0
      vertex 23.6637 -17.1927 8
      vertex 23.6637 -17.1927 0
    endloop
  endfacet
  facet normal 0 -1 0
    outer loop
      vertex -3.05746 -29.0898 0
      vertex 3.05746 -29.0898 8
      vertex -3.05746 -29.0898 8
    endloop
  endfacet
  facet normal 0 -1 -0
    outer loop
      vertex 3.05746 -29.0898 8
      vertex -3.05746 -29.0898 0
      vertex 3.05746 -29.0898 0
    endloop
  endfacet
  facet normal 0.994522 -0.104531 0
    outer loop
      vertex 28.6108 -6.08142 8
      vertex 29.25 0 0
      vertex 29.25 0 8
    endloop
  endfacet
  facet normal 0.994522 -0.104531 0
    outer loop
      vertex 29.25 0 0
      vertex 28.6108 -6.08142 8
      vertex 28.6108 -6.08142 0
    endloop
  endfacet
  facet normal 0.587777 0.809023 -0
    outer loop
      vertex 19.5721 21.737 0
      vertex 14.625 25.3312 8
      vertex 19.5721 21.737 8
    endloop
  endfacet
  facet normal 0.587777 0.809023 0
    outer loop
      vertex 14.625 25.3312 8
      vertex 19.5721 21.737 0
      vertex 14.625 25.3312 0
    endloop
  endfacet
  facet normal -0.743153 0.669121 0
    outer loop
      vertex -23.6637 17.1927 0
      vertex -19.5721 21.737 8
      vertex -19.5721 21.737 0
    endloop
  endfacet
  facet normal -0.743153 0.669121 0
    outer loop
      vertex -19.5721 21.737 8
      vertex -23.6637 17.1927 0
      vertex -23.6637 17.1927 8
    endloop
  endfacet
  facet normal 0.951056 -0.309018 0
    outer loop
      vertex 26.7212 -11.897 8
      vertex 28.6108 -6.08142 0
      vertex 28.6108 -6.08142 8
    endloop
  endfacet
  facet normal 0.951056 -0.309018 0
    outer loop
      vertex 28.6108 -6.08142 0
      vertex 26.7212 -11.897 8
      vertex 26.7212 -11.897 0
    endloop
  endfacet
  facet normal 0.951056 0.309018 0
    outer loop
      vertex 28.6108 6.08142 8
      vertex 26.7212 11.897 0
      vertex 26.7212 11.897 8
    endloop
  endfacet
  facet normal 0.951056 0.309018 0
    outer loop
      vertex 26.7212 11.897 0
      vertex 28.6108 6.08142 8
      vertex 28.6108 6.08142 0
    endloop
  endfacet
  facet normal -0.587777 0.809023 0
    outer loop
      vertex -14.625 25.3312 0
      vertex -19.5721 21.737 8
      vertex -14.625 25.3312 8
    endloop
  endfacet
  facet normal -0.587777 0.809023 0
    outer loop
      vertex -19.5721 21.737 8
      vertex -14.625 25.3312 0
      vertex -19.5721 21.737 0
    endloop
  endfacet
  facet normal -0.406742 -0.913543 0
    outer loop
      vertex -14.625 -25.3312 0
      vertex -9.03875 -27.8184 8
      vertex -14.625 -25.3312 8
    endloop
  endfacet
  facet normal -0.406742 -0.913543 -0
    outer loop
      vertex -9.03875 -27.8184 8
      vertex -14.625 -25.3312 0
      vertex -9.03875 -27.8184 0
    endloop
  endfacet
  facet normal 0.406742 -0.913543 0
    outer loop
      vertex 9.03875 -27.8184 0
      vertex 14.625 -25.3312 8
      vertex 9.03875 -27.8184 8
    endloop
  endfacet
  facet normal 0.406742 -0.913543 0
    outer loop
      vertex 14.625 -25.3312 8
      vertex 9.03875 -27.8184 0
      vertex 14.625 -25.3312 0
    endloop
  endfacet
  facet normal -0.866024 0.500003 0
    outer loop
      vertex -26.7212 11.897 0
      vertex -23.6637 17.1927 8
      vertex -23.6637 17.1927 0
    endloop
  endfacet
  facet normal -0.866024 0.500003 0
    outer loop
      vertex -23.6637 17.1927 8
      vertex -26.7212 11.897 0
      vertex -26.7212 11.897 8
    endloop
  endfacet
  facet normal -0.866024 -0.500003 0
    outer loop
      vertex -23.6637 -17.1927 0
      vertex -26.7212 -11.897 8
      vertex -26.7212 -11.897 0
    endloop
  endfacet
  facet normal -0.866024 -0.500003 0
    outer loop
      vertex -26.7212 -11.897 8
      vertex -23.6637 -17.1927 0
      vertex -23.6637 -17.1927 8
    endloop
  endfacet
  facet normal 0.207918 0.978146 -0
    outer loop
      vertex 9.03875 27.8184 0
      vertex 3.05746 29.0898 8
      vertex 9.03875 27.8184 8
    endloop
  endfacet
  facet normal 0.207918 0.978146 0
    outer loop
      vertex 3.05746 29.0898 8
      vertex 9.03875 27.8184 0
      vertex 3.05746 29.0898 0
    endloop
  endfacet
  facet normal 0.866024 0.500003 0
    outer loop
      vertex 26.7212 11.897 8
      vertex 23.6637 17.1927 0
      vertex 23.6637 17.1927 8
    endloop
  endfacet
  facet normal 0.866024 0.500003 0
    outer loop
      vertex 23.6637 17.1927 0
      vertex 26.7212 11.897 8
      vertex 26.7212 11.897 0
    endloop
  endfacet
  facet normal -0.951056 -0.309018 0
    outer loop
      vertex -26.7212 -11.897 0
      vertex -28.6108 -6.08142 8
      vertex -28.6108 -6.08142 0
    endloop
  endfacet
  facet normal -0.951056 -0.309018 0
    outer loop
      vertex -28.6108 -6.08142 8
      vertex -26.7212 -11.897 0
      vertex -26.7212 -11.897 8
    endloop
  endfacet
  facet normal -0.994522 -0.104531 0
    outer loop
      vertex -28.6108 -6.08142 0
      vertex -29.25 0 8
      vertex -29.25 0 0
    endloop
  endfacet
  facet normal -0.994522 -0.104531 0
    outer loop
      vertex -29.25 0 8
      vertex -28.6108 -6.08142 0
      vertex -28.6108 -6.08142 8
    endloop
  endfacet
  facet normal -0.406742 0.913543 0
    outer loop
      vertex -9.03875 27.8184 0
      vertex -14.625 25.3312 8
      vertex -9.03875 27.8184 8
    endloop
  endfacet
  facet normal -0.406742 0.913543 0
    outer loop
      vertex -14.625 25.3312 8
      vertex -9.03875 27.8184 0
      vertex -14.625 25.3312 0
    endloop
  endfacet
  facet normal 0.406742 0.913543 -0
    outer loop
      vertex 14.625 25.3312 0
      vertex 9.03875 27.8184 8
      vertex 14.625 25.3312 8
    endloop
  endfacet
  facet normal 0.406742 0.913543 0
    outer loop
      vertex 9.03875 27.8184 8
      vertex 14.625 25.3312 0
      vertex 9.03875 27.8184 0
    endloop
  endfacet
  facet normal -0.951056 0.309018 0
    outer loop
      vertex -28.6108 6.08142 0
      vertex -26.7212 11.897 8
      vertex -26.7212 11.897 0
    endloop
  endfacet
  facet normal -0.951056 0.309018 0
    outer loop
      vertex -26.7212 11.897 8
      vertex -28.6108 6.08142 0
      vertex -28.6108 6.08142 8
    endloop
  endfacet
  facet normal 0.743153 -0.669121 0
    outer loop
      vertex 19.5721 -21.737 8
      vertex 23.6637 -17.1927 0
      vertex 23.6637 -17.1927 8
    endloop
  endfacet
  facet normal 0.743153 -0.669121 0
    outer loop
      vertex 23.6637 -17.1927 0
      vertex 19.5721 -21.737 8
      vertex 19.5721 -21.737 0
    endloop
  endfacet
  facet normal 0.743153 0.669121 0
    outer loop
      vertex 23.6637 17.1927 8
      vertex 19.5721 21.737 0
      vertex 19.5721 21.737 8
    endloop
  endfacet
  facet normal 0.743153 0.669121 0
    outer loop
      vertex 19.5721 21.737 0
      vertex 23.6637 17.1927 8
      vertex 23.6637 17.1927 0
    endloop
  endfacet
  facet normal -0.743153 -0.669121 0
    outer loop
      vertex -19.5721 -21.737 0
      vertex -23.6637 -17.1927 8
      vertex -23.6637 -17.1927 0
    endloop
  endfacet
  facet normal -0.743153 -0.669121 0
    outer loop
      vertex -23.6637 -17.1927 8
      vertex -19.5721 -21.737 0
      vertex -19.5721 -21.737 8
    endloop
  endfacet
  facet normal -0.587777 -0.809023 0
    outer loop
      vertex -19.5721 -21.737 0
      vertex -14.625 -25.3312 8
      vertex -19.5721 -21.737 8
    endloop
  endfacet
  facet normal -0.587777 -0.809023 -0
    outer loop
      vertex -14.625 -25.3312 8
      vertex -19.5721 -21.737 0
      vertex -14.625 -25.3312 0
    endloop
  endfacet
  facet normal -0.994522 0.104531 0
    outer loop
      vertex -29.25 0 0
      vertex -28.6108 6.08142 8
      vertex -28.6108 6.08142 0
    endloop
  endfacet
  facet normal -0.994522 0.104531 0
    outer loop
      vertex -28.6108 6.08142 8
      vertex -29.25 0 0
      vertex -29.25 0 8
    endloop
  endfacet
  facet normal -0.207918 0.978146 0
    outer loop
      vertex -3.05746 29.0898 0
      vertex -9.03875 27.8184 8
      vertex -3.05746 29.0898 8
    endloop
  endfacet
  facet normal -0.207918 0.978146 0
    outer loop
      vertex -9.03875 27.8184 8
      vertex -3.05746 29.0898 0
      vertex -9.03875 27.8184 0
    endloop
  endfacet
  facet normal 0 0 -1
    outer loop
      vertex 25 0 0
      vertex 29.25 0 0
      vertex 28.6108 -6.08142 0
    endloop
  endfacet
  facet normal 0 0 -1
    outer loop
      vertex 24.4537 -5.19779 0
      vertex 28.6108 -6.08142 0
      vertex 26.7212 -11.897 0
    endloop
  endfacet
  facet normal 0 0 -1
    outer loop
      vertex 29.25 0 0
      vertex 25 0 0
      vertex 28.6108 6.08142 0
    endloop
  endfacet
  facet normal 0 0 -1
    outer loop
      vertex 24.4537 5.19779 0
      vertex 28.6108 6.08142 0
      vertex 25 0 0
    endloop
  endfacet
  facet normal 0 0 -1
    outer loop
      vertex 28.6108 -6.08142 0
      vertex 24.4537 -5.19779 0
      vertex 25 0 0
    endloop
  endfacet
  facet normal 0 0 -1
    outer loop
      vertex 22.8386 -10.1684 0
      vertex 26.7212 -11.897 0
      vertex 23.6637 -17.1927 0
    endloop
  endfacet
  facet normal 0 0 -1
    outer loop
      vertex 26.7212 -11.897 0
      vertex 22.8386 -10.1684 0
      vertex 24.4537 -5.19779 0
    endloop
  endfacet
  facet normal 0 0 -1
    outer loop
      vertex 23.6637 -17.1927 0
      vertex 20.2254 -14.6946 0
      vertex 22.8386 -10.1684 0
    endloop
  endfacet
  facet normal 0 0 -1
    outer loop
      vertex 19.5721 -21.737 0
      vertex 20.2254 -14.6946 0
      vertex 23.6637 -17.1927 0
    endloop
  endfacet
  facet normal 0 0 -1
    outer loop
      vertex 19.5721 -21.737 0
      vertex 16.7283 -18.5786 0
      vertex 20.2254 -14.6946 0
    endloop
  endfacet
  facet normal 0 0 -1
    outer loop
      vertex 14.625 -25.3312 0
      vertex 16.7283 -18.5786 0
      vertex 19.5721 -21.737 0
    endloop
  endfacet
  facet normal 0 0 -1
    outer loop
      vertex 14.625 -25.3312 0
      vertex 12.5 -21.6506 0
      vertex 16.7283 -18.5786 0
    endloop
  endfacet
  facet normal 0 0 -1
    outer loop
      vertex 9.03875 -27.8184 0
      vertex 12.5 -21.6506 0
      vertex 14.625 -25.3312 0
    endloop
  endfacet
  facet normal 0 0 -1
    outer loop
      vertex 9.03875 -27.8184 0
      vertex 7.72542 -23.7764 0
      vertex 12.5 -21.6506 0
    endloop
  endfacet
  facet normal 0 0 -1
    outer loop
      vertex 3.05746 -29.0898 0
      vertex 7.72542 -23.7764 0
      vertex 9.03875 -27.8184 0
    endloop
  endfacet
  facet normal 0 0 -1
    outer loop
      vertex 3.05746 -29.0898 0
      vertex 2.61321 -24.863 0
      vertex 7.72542 -23.7764 0
    endloop
  endfacet
  facet normal 0 0 -1
    outer loop
      vertex 3.05746 -29.0898 0
      vertex -2.61321 -24.863 0
      vertex 2.61321 -24.863 0
    endloop
  endfacet
  facet normal 0 0 -1
    outer loop
      vertex -3.05746 -29.0898 0
      vertex -2.61321 -24.863 0
      vertex 3.05746 -29.0898 0
    endloop
  endfacet
  facet normal 0 0 -1
    outer loop
      vertex -3.05746 -29.0898 0
      vertex -7.72542 -23.7764 0
      vertex -2.61321 -24.863 0
    endloop
  endfacet
  facet normal 0 0 -1
    outer loop
      vertex -9.03875 -27.8184 0
      vertex -7.72542 -23.7764 0
      vertex -3.05746 -29.0898 0
    endloop
  endfacet
  facet normal 0 0 -1
    outer loop
      vertex -9.03875 -27.8184 0
      vertex -12.5 -21.6506 0
      vertex -7.72542 -23.7764 0
    endloop
  endfacet
  facet normal 0 0 -1
    outer loop
      vertex -14.625 -25.3312 0
      vertex -12.5 -21.6506 0
      vertex -9.03875 -27.8184 0
    endloop
  endfacet
  facet normal 0 0 -1
    outer loop
      vertex -14.625 -25.3312 0
      vertex -16.7283 -18.5786 0
      vertex -12.5 -21.6506 0
    endloop
  endfacet
  facet normal 0 0 -1
    outer loop
      vertex -19.5721 -21.737 0
      vertex -16.7283 -18.5786 0
      vertex -14.625 -25.3312 0
    endloop
  endfacet
  facet normal 0 0 -1
    outer loop
      vertex -19.5721 -21.737 0
      vertex -20.2254 -14.6946 0
      vertex -16.7283 -18.5786 0
    endloop
  endfacet
  facet normal 0 0 -1
    outer loop
      vertex -23.6637 -17.1927 0
      vertex -20.2254 -14.6946 0
      vertex -19.5721 -21.737 0
    endloop
  endfacet
  facet normal -0 0 -1
    outer loop
      vertex -20.2254 -14.6946 0
      vertex -23.6637 -17.1927 0
      vertex -22.8386 -10.1684 0
    endloop
  endfacet
  facet normal 0 0 -1
    outer loop
      vertex -26.7212 -11.897 0
      vertex -22.8386 -10.1684 0
      vertex -23.6637 -17.1927 0
    endloop
  endfacet
  facet normal -0 0 -1
    outer loop
      vertex -22.8386 -10.1684 0
      vertex -26.7212 -11.897 0
      vertex -24.4537 -5.19779 0
    endloop
  endfacet
  facet normal 0 0 -1
    outer loop
      vertex -28.6108 -6.08142 0
      vertex -24.4537 -5.19779 0
      vertex -26.7212 -11.897 0
    endloop
  endfacet
  facet normal -0 0 -1
    outer loop
      vertex 28.6108 6.08142 0
      vertex 24.4537 5.19779 0
      vertex 26.7212 11.897 0
    endloop
  endfacet
  facet normal 0 0 -1
    outer loop
      vertex 22.8386 10.1684 0
      vertex 26.7212 11.897 0
      vertex 24.4537 5.19779 0
    endloop
  endfacet
  facet normal -0 0 -1
    outer loop
      vertex 26.7212 11.897 0
      vertex 22.8386 10.1684 0
      vertex 23.6637 17.1927 0
    endloop
  endfacet
  facet normal 0 0 -1
    outer loop
      vertex 20.2254 14.6946 0
      vertex 23.6637 17.1927 0
      vertex 22.8386 10.1684 0
    endloop
  endfacet
  facet normal 0 0 -1
    outer loop
      vertex 20.2254 14.6946 0
      vertex 19.5721 21.737 0
      vertex 23.6637 17.1927 0
    endloop
  endfacet
  facet normal 0 0 -1
    outer loop
      vertex 16.7283 18.5786 0
      vertex 19.5721 21.737 0
      vertex 20.2254 14.6946 0
    endloop
  endfacet
  facet normal 0 0 -1
    outer loop
      vertex 16.7283 18.5786 0
      vertex 14.625 25.3312 0
      vertex 19.5721 21.737 0
    endloop
  endfacet
  facet normal 0 0 -1
    outer loop
      vertex 12.5 21.6506 0
      vertex 14.625 25.3312 0
      vertex 16.7283 18.5786 0
    endloop
  endfacet
  facet normal 0 0 -1
    outer loop
      vertex 12.5 21.6506 0
      vertex 9.03875 27.8184 0
      vertex 14.625 25.3312 0
    endloop
  endfacet
  facet normal 0 0 -1
    outer loop
      vertex 7.72542 23.7764 0
      vertex 9.03875 27.8184 0
      vertex 12.5 21.6506 0
    endloop
  endfacet
  facet normal 0 0 -1
    outer loop
      vertex 7.72542 23.7764 0
      vertex 3.05746 29.0898 0
      vertex 9.03875 27.8184 0
    endloop
  endfacet
  facet normal 0 0 -1
    outer loop
      vertex 2.61321 24.863 0
      vertex 3.05746 29.0898 0
      vertex 7.72542 23.7764 0
    endloop
  endfacet
  facet normal 0 0 -1
    outer loop
      vertex -2.61321 24.863 0
      vertex 3.05746 29.0898 0
      vertex 2.61321 24.863 0
    endloop
  endfacet
  facet normal 0 0 -1
    outer loop
      vertex -2.61321 24.863 0
      vertex -3.05746 29.0898 0
      vertex 3.05746 29.0898 0
    endloop
  endfacet
  facet normal 0 0 -1
    outer loop
      vertex -7.72542 23.7764 0
      vertex -3.05746 29.0898 0
      vertex -2.61321 24.863 0
    endloop
  endfacet
  facet normal 0 0 -1
    outer loop
      vertex -7.72542 23.7764 0
      vertex -9.03875 27.8184 0
      vertex -3.05746 29.0898 0
    endloop
  endfacet
  facet normal 0 0 -1
    outer loop
      vertex -12.5 21.6506 0
      vertex -9.03875 27.8184 0
      vertex -7.72542 23.7764 0
    endloop
  endfacet
  facet normal 0 0 -1
    outer loop
      vertex -12.5 21.6506 0
      vertex -14.625 25.3312 0
      vertex -9.03875 27.8184 0
    endloop
  endfacet
  facet normal 0 0 -1
    outer loop
      vertex -16.7283 18.5786 0
      vertex -14.625 25.3312 0
      vertex -12.5 21.6506 0
    endloop
  endfacet
  facet normal 0 0 -1
    outer loop
      vertex -16.7283 18.5786 0
      vertex -19.5721 21.737 0
      vertex -14.625 25.3312 0
    endloop
  endfacet
  facet normal 0 0 -1
    outer loop
      vertex -20.2254 14.6946 0
      vertex -19.5721 21.737 0
      vertex -16.7283 18.5786 0
    endloop
  endfacet
  facet normal 0 0 -1
    outer loop
      vertex -23.6637 17.1927 0
      vertex -20.2254 14.6946 0
      vertex -22.8386 10.1684 0
    endloop
  endfacet
  facet normal 0 0 -1
    outer loop
      vertex -20.2254 14.6946 0
      vertex -23.6637 17.1927 0
      vertex -19.5721 21.737 0
    endloop
  endfacet
  facet normal 0 0 -1
    outer loop
      vertex -26.7212 11.897 0
      vertex -22.8386 10.1684 0
      vertex -24.4537 5.19779 0
    endloop
  endfacet
  facet normal 0 0 -1
    outer loop
      vertex -28.6108 6.08142 0
      vertex -24.4537 5.19779 0
      vertex -25 0 0
    endloop
  endfacet
  facet normal -0 0 -1
    outer loop
      vertex -24.4537 -5.19779 0
      vertex -28.6108 -6.08142 0
      vertex -25 0 0
    endloop
  endfacet
  facet normal 0 0 -1
    outer loop
      vertex -22.8386 10.1684 0
      vertex -26.7212 11.897 0
      vertex -23.6637 17.1927 0
    endloop
  endfacet
  facet normal 0 0 -1
    outer loop
      vertex -29.25 0 0
      vertex -25 0 0
      vertex -28.6108 -6.08142 0
    endloop
  endfacet
  facet normal 0 0 -1
    outer loop
      vertex -24.4537 5.19779 0
      vertex -28.6108 6.08142 0
      vertex -26.7212 11.897 0
    endloop
  endfacet
  facet normal 0 0 -1
    outer loop
      vertex -25 0 0
      vertex -29.25 0 0
      vertex -28.6108 6.08142 0
    endloop
  endfacet
  facet normal 0.40674 -0.913544 0
    outer loop
      vertex -12.5 21.6506 0
      vertex -7.72542 23.7764 8
      vertex -12.5 21.6506 8
    endloop
  endfacet
  facet normal 0.40674 -0.913544 0
    outer loop
      vertex -7.72542 23.7764 8
      vertex -12.5 21.6506 0
      vertex -7.72542 23.7764 0
    endloop
  endfacet
  facet normal 0.951054 -0.309026 0
    outer loop
      vertex -24.4537 5.19779 8
      vertex -22.8386 10.1684 0
      vertex -22.8386 10.1684 8
    endloop
  endfacet
  facet normal 0.951054 -0.309026 0
    outer loop
      vertex -22.8386 10.1684 0
      vertex -24.4537 5.19779 8
      vertex -24.4537 5.19779 0
    endloop
  endfacet
  facet normal -0.951054 0.309026 0
    outer loop
      vertex 22.8386 -10.1684 0
      vertex 24.4537 -5.19779 8
      vertex 24.4537 -5.19779 0
    endloop
  endfacet
  facet normal -0.951054 0.309026 0
    outer loop
      vertex 24.4537 -5.19779 8
      vertex 22.8386 -10.1684 0
      vertex 22.8386 -10.1684 8
    endloop
  endfacet
  facet normal -0.994522 0.104527 0
    outer loop
      vertex 24.4537 -5.19779 0
      vertex 25 0 8
      vertex 25 0 0
    endloop
  endfacet
  facet normal -0.994522 0.104527 0
    outer loop
      vertex 25 0 8
      vertex 24.4537 -5.19779 0
      vertex 24.4537 -5.19779 8
    endloop
  endfacet
  facet normal -0.866026 0.5 0
    outer loop
      vertex 20.2254 -14.6946 0
      vertex 22.8386 -10.1684 8
      vertex 22.8386 -10.1684 0
    endloop
  endfacet
  facet normal -0.866026 0.5 0
    outer loop
      vertex 22.8386 -10.1684 8
      vertex 20.2254 -14.6946 0
      vertex 20.2254 -14.6946 8
    endloop
  endfacet
  facet normal -0.58778 -0.809021 0
    outer loop
      vertex 12.5 21.6506 0
      vertex 16.7283 18.5786 8
      vertex 12.5 21.6506 8
    endloop
  endfacet
  facet normal -0.58778 -0.809021 -0
    outer loop
      vertex 16.7283 18.5786 8
      vertex 12.5 21.6506 0
      vertex 16.7283 18.5786 0
    endloop
  endfacet
  facet normal -0.40674 0.913544 0
    outer loop
      vertex 12.5 -21.6506 0
      vertex 7.72542 -23.7764 8
      vertex 12.5 -21.6506 8
    endloop
  endfacet
  facet normal -0.40674 0.913544 0
    outer loop
      vertex 7.72542 -23.7764 8
      vertex 12.5 -21.6506 0
      vertex 7.72542 -23.7764 0
    endloop
  endfacet
  facet normal -0.994522 -0.104527 0
    outer loop
      vertex 25 0 0
      vertex 24.4537 5.19779 8
      vertex 24.4537 5.19779 0
    endloop
  endfacet
  facet normal -0.994522 -0.104527 0
    outer loop
      vertex 24.4537 5.19779 8
      vertex 25 0 0
      vertex 25 0 8
    endloop
  endfacet
  facet normal -0.743151 0.669123 0
    outer loop
      vertex 16.7283 -18.5786 0
      vertex 20.2254 -14.6946 8
      vertex 20.2254 -14.6946 0
    endloop
  endfacet
  facet normal -0.743151 0.669123 0
    outer loop
      vertex 20.2254 -14.6946 8
      vertex 16.7283 -18.5786 0
      vertex 16.7283 -18.5786 8
    endloop
  endfacet
  facet normal 0.866026 0.5 0
    outer loop
      vertex -20.2254 -14.6946 8
      vertex -22.8386 -10.1684 0
      vertex -22.8386 -10.1684 8
    endloop
  endfacet
  facet normal 0.866026 0.5 0
    outer loop
      vertex -22.8386 -10.1684 0
      vertex -20.2254 -14.6946 8
      vertex -20.2254 -14.6946 0
    endloop
  endfacet
  facet normal -0.743151 -0.669123 0
    outer loop
      vertex 20.2254 14.6946 0
      vertex 16.7283 18.5786 8
      vertex 16.7283 18.5786 0
    endloop
  endfacet
  facet normal -0.743151 -0.669123 0
    outer loop
      vertex 16.7283 18.5786 8
      vertex 20.2254 14.6946 0
      vertex 20.2254 14.6946 8
    endloop
  endfacet
  facet normal 0.743151 0.669123 0
    outer loop
      vertex -16.7283 -18.5786 8
      vertex -20.2254 -14.6946 0
      vertex -20.2254 -14.6946 8
    endloop
  endfacet
  facet normal 0.743151 0.669123 0
    outer loop
      vertex -20.2254 -14.6946 0
      vertex -16.7283 -18.5786 8
      vertex -16.7283 -18.5786 0
    endloop
  endfacet
  facet normal -0.866026 -0.5 0
    outer loop
      vertex 22.8386 10.1684 0
      vertex 20.2254 14.6946 8
      vertex 20.2254 14.6946 0
    endloop
  endfacet
  facet normal -0.866026 -0.5 0
    outer loop
      vertex 20.2254 14.6946 8
      vertex 22.8386 10.1684 0
      vertex 22.8386 10.1684 8
    endloop
  endfacet
  facet normal 0.58778 0.809021 -0
    outer loop
      vertex -12.5 -21.6506 0
      vertex -16.7283 -18.5786 8
      vertex -12.5 -21.6506 8
    endloop
  endfacet
  facet normal 0.58778 0.809021 0
    outer loop
      vertex -16.7283 -18.5786 8
      vertex -12.5 -21.6506 0
      vertex -16.7283 -18.5786 0
    endloop
  endfacet
  facet normal -0.951054 -0.309026 0
    outer loop
      vertex 24.4537 5.19779 0
      vertex 22.8386 10.1684 8
      vertex 22.8386 10.1684 0
    endloop
  endfacet
  facet normal -0.951054 -0.309026 0
    outer loop
      vertex 22.8386 10.1684 8
      vertex 24.4537 5.19779 0
      vertex 24.4537 5.19779 8
    endloop
  endfacet
  facet normal 0 1 -0
    outer loop
      vertex 2.61321 -24.863 0
      vertex -2.61321 -24.863 8
      vertex 2.61321 -24.863 8
    endloop
  endfacet
  facet normal 0 1 0
    outer loop
      vertex -2.61321 -24.863 8
      vertex 2.61321 -24.863 0
      vertex -2.61321 -24.863 0
    endloop
  endfacet
  facet normal 0.58778 -0.809021 0
    outer loop
      vertex -16.7283 18.5786 0
      vertex -12.5 21.6506 8
      vertex -16.7283 18.5786 8
    endloop
  endfacet
  facet normal 0.58778 -0.809021 0
    outer loop
      vertex -12.5 21.6506 8
      vertex -16.7283 18.5786 0
      vertex -12.5 21.6506 0
    endloop
  endfacet
  facet normal 0.40674 0.913544 -0
    outer loop
      vertex -7.72542 -23.7764 0
      vertex -12.5 -21.6506 8
      vertex -7.72542 -23.7764 8
    endloop
  endfacet
  facet normal 0.40674 0.913544 0
    outer loop
      vertex -12.5 -21.6506 8
      vertex -7.72542 -23.7764 0
      vertex -12.5 -21.6506 0
    endloop
  endfacet
  facet normal 0.994522 -0.104527 0
    outer loop
      vertex -25 0 8
      vertex -24.4537 5.19779 0
      vertex -24.4537 5.19779 8
    endloop
  endfacet
  facet normal 0.994522 -0.104527 0
    outer loop
      vertex -24.4537 5.19779 0
      vertex -25 0 8
      vertex -25 0 0
    endloop
  endfacet
  facet normal 0.743151 -0.669123 0
    outer loop
      vertex -20.2254 14.6946 8
      vertex -16.7283 18.5786 0
      vertex -16.7283 18.5786 8
    endloop
  endfacet
  facet normal 0.743151 -0.669123 0
    outer loop
      vertex -16.7283 18.5786 0
      vertex -20.2254 14.6946 8
      vertex -20.2254 14.6946 0
    endloop
  endfacet
  facet normal 0.866026 -0.5 0
    outer loop
      vertex -22.8386 10.1684 8
      vertex -20.2254 14.6946 0
      vertex -20.2254 14.6946 8
    endloop
  endfacet
  facet normal 0.866026 -0.5 0
    outer loop
      vertex -20.2254 14.6946 0
      vertex -22.8386 10.1684 8
      vertex -22.8386 10.1684 0
    endloop
  endfacet
  facet normal -0.207906 -0.978149 0
    outer loop
      vertex 2.61321 24.863 0
      vertex 7.72542 23.7764 8
      vertex 2.61321 24.863 8
    endloop
  endfacet
  facet normal -0.207906 -0.978149 -0
    outer loop
      vertex 7.72542 23.7764 8
      vertex 2.61321 24.863 0
      vertex 7.72542 23.7764 0
    endloop
  endfacet
  facet normal 0.994522 0.104527 0
    outer loop
      vertex -24.4537 -5.19779 8
      vertex -25 0 0
      vertex -25 0 8
    endloop
  endfacet
  facet normal 0.994522 0.104527 0
    outer loop
      vertex -25 0 0
      vertex -24.4537 -5.19779 8
      vertex -24.4537 -5.19779 0
    endloop
  endfacet
  facet normal -0.207906 0.978149 0
    outer loop
      vertex 7.72542 -23.7764 0
      vertex 2.61321 -24.863 8
      vertex 7.72542 -23.7764 8
    endloop
  endfacet
  facet normal -0.207906 0.978149 0
    outer loop
      vertex 2.61321 -24.863 8
      vertex 7.72542 -23.7764 0
      vertex 2.61321 -24.863 0
    endloop
  endfacet
  facet normal -0.58778 0.809021 0
    outer loop
      vertex 16.7283 -18.5786 0
      vertex 12.5 -21.6506 8
      vertex 16.7283 -18.5786 8
    endloop
  endfacet
  facet normal -0.58778 0.809021 0
    outer loop
      vertex 12.5 -21.6506 8
      vertex 16.7283 -18.5786 0
      vertex 12.5 -21.6506 0
    endloop
  endfacet
  facet normal 0.207906 0.978149 -0
    outer loop
      vertex -2.61321 -24.863 0
      vertex -7.72542 -23.7764 8
      vertex -2.61321 -24.863 8
    endloop
  endfacet
  facet normal 0.207906 0.978149 0
    outer loop
      vertex -7.72542 -23.7764 8
      vertex -2.61321 -24.863 0
      vertex -7.72542 -23.7764 0
    endloop
  endfacet
  facet normal -0.40674 -0.913544 0
    outer loop
      vertex 7.72542 23.7764 0
      vertex 12.5 21.6506 8
      vertex 7.72542 23.7764 8
    endloop
  endfacet
  facet normal -0.40674 -0.913544 -0
    outer loop
      vertex 12.5 21.6506 8
      vertex 7.72542 23.7764 0
      vertex 12.5 21.6506 0
    endloop
  endfacet
  facet normal 0 -1 0
    outer loop
      vertex -2.61321 24.863 0
      vertex 2.61321 24.863 8
      vertex -2.61321 24.863 8
    endloop
  endfacet
  facet normal 0 -1 -0
    outer loop
      vertex 2.61321 24.863 8
      vertex -2.61321 24.863 0
      vertex 2.61321 24.863 0
    endloop
  endfacet
  facet normal 0.207906 -0.978149 0
    outer loop
      vertex -7.72542 23.7764 0
      vertex -2.61321 24.863 8
      vertex -7.72542 23.7764 8
    endloop
  endfacet
  facet normal 0.207906 -0.978149 0
    outer loop
      vertex -2.61321 24.863 8
      vertex -7.72542 23.7764 0
      vertex -2.61321 24.863 0
    endloop
  endfacet
  facet normal 0.951054 0.309026 0
    outer loop
      vertex -22.8386 -10.1684 8
      vertex -24.4537 -5.19779 0
      vertex -24.4537 -5.19779 8
    endloop
  endfacet
  facet normal 0.951054 0.309026 0
    outer loop
      vertex -24.4537 -5.19779 0
      vertex -22.8386 -10.1684 8
      vertex -22.8386 -10.1684 0
    endloop
  endfacet
  facet normal 0.614055 -0.354519 0.705161
    outer loop
      vertex 13.7032 -6.10105 28
      vertex 12.1353 -8.81678 28
      vertex 28.3156 -20.5725 8
    endloop
  endfacet
  facet normal 0.526926 0.474442 0.705162
    outer loop
      vertex 23.4196 26.0101 8
      vertex 10.037 11.1472 28
      vertex 12.1353 8.81678 28
    endloop
  endfacet
  facet normal 0.705162 -0.0741122 0.705162
    outer loop
      vertex 35 0 8
      vertex 15 0 28
      vertex 34.2352 -7.27691 8
    endloop
  endfacet
  facet normal 0.705161 -0.0741184 0.705163
    outer loop
      vertex 15 0 28
      vertex 14.6722 -3.11868 28
      vertex 34.2352 -7.27691 8
    endloop
  endfacet
  facet normal -0.705161 0.0741184 0.705163
    outer loop
      vertex -14.6722 3.11868 28
      vertex -34.2352 7.27691 8
      vertex -15 0 28
    endloop
  endfacet
  facet normal -0.288396 0.647744 0.705163
    outer loop
      vertex -10.8156 33.287 8
      vertex -17.5 30.3109 8
      vertex -4.63525 14.2658 28
    endloop
  endfacet
  facet normal -0.674344 -0.219101 0.705163
    outer loop
      vertex -14.6722 -3.11868 28
      vertex -34.2352 -7.27691 8
      vertex -13.7032 -6.10105 28
    endloop
  endfacet
  facet normal 0.416764 0.573632 0.705162
    outer loop
      vertex 17.5 30.3109 8
      vertex 7.5 12.9904 28
      vertex 23.4196 26.0101 8
    endloop
  endfacet
  facet normal 0.614055 0.354519 0.705161
    outer loop
      vertex 28.3156 20.5725 8
      vertex 12.1353 8.81678 28
      vertex 13.7032 6.10105 28
    endloop
  endfacet
  facet normal -0.416764 -0.573632 0.705162
    outer loop
      vertex -7.5 -12.9904 28
      vertex -23.4196 -26.0101 8
      vertex -17.5 -30.3109 8
    endloop
  endfacet
  facet normal 0.14742 0.69355 0.705163
    outer loop
      vertex 10.8156 33.287 8
      vertex 3.6585 34.8083 8
      vertex 4.63525 14.2658 28
    endloop
  endfacet
  facet normal -0.674344 0.219101 0.705163
    outer loop
      vertex -13.7032 6.10105 28
      vertex -34.2352 7.27691 8
      vertex -14.6722 3.11868 28
    endloop
  endfacet
  facet normal 0.416764 -0.573632 0.705162
    outer loop
      vertex 23.4196 -26.0101 8
      vertex 7.5 -12.9904 28
      vertex 17.5 -30.3109 8
    endloop
  endfacet
  facet normal 0.674342 0.219109 0.705162
    outer loop
      vertex 31.9741 14.2358 8
      vertex 13.7032 6.10105 28
      vertex 34.2352 7.27691 8
    endloop
  endfacet
  facet normal -0.14742 -0.69355 0.705163
    outer loop
      vertex -4.63525 -14.2658 28
      vertex -10.8156 -33.287 8
      vertex -3.6585 -34.8083 8
    endloop
  endfacet
  facet normal 0 0 -1
    outer loop
      vertex 29.25 0 8
      vertex 35 0 8
      vertex 34.2352 -7.27691 8
    endloop
  endfacet
  facet normal 0 0 -1
    outer loop
      vertex 28.6108 -6.08142 8
      vertex 34.2352 -7.27691 8
      vertex 31.9741 -14.2358 8
    endloop
  endfacet
  facet normal 0 0 -1
    outer loop
      vertex 35 0 8
      vertex 29.25 0 8
      vertex 34.2352 7.27691 8
    endloop
  endfacet
  facet normal 0 0 -1
    outer loop
      vertex 28.6108 6.08142 8
      vertex 34.2352 7.27691 8
      vertex 29.25 0 8
    endloop
  endfacet
  facet normal 0 0 -1
    outer loop
      vertex 34.2352 -7.27691 8
      vertex 28.6108 -6.08142 8
      vertex 29.25 0 8
    endloop
  endfacet
  facet normal 0 0 -1
    outer loop
      vertex 26.7212 -11.897 8
      vertex 31.9741 -14.2358 8
      vertex 28.3156 -20.5725 8
    endloop
  endfacet
  facet normal 0 0 -1
    outer loop
      vertex 31.9741 -14.2358 8
      vertex 26.7212 -11.897 8
      vertex 28.6108 -6.08142 8
    endloop
  endfacet
  facet normal 0 0 -1
    outer loop
      vertex 28.3156 -20.5725 8
      vertex 23.6637 -17.1927 8
      vertex 26.7212 -11.897 8
    endloop
  endfacet
  facet normal 0 0 -1
    outer loop
      vertex 23.4196 -26.0101 8
      vertex 23.6637 -17.1927 8
      vertex 28.3156 -20.5725 8
    endloop
  endfacet
  facet normal 0 0 -1
    outer loop
      vertex 23.4196 -26.0101 8
      vertex 19.5721 -21.737 8
      vertex 23.6637 -17.1927 8
    endloop
  endfacet
  facet normal 0 0 -1
    outer loop
      vertex 17.5 -30.3109 8
      vertex 19.5721 -21.737 8
      vertex 23.4196 -26.0101 8
    endloop
  endfacet
  facet normal 0 0 -1
    outer loop
      vertex 17.5 -30.3109 8
      vertex 14.625 -25.3312 8
      vertex 19.5721 -21.737 8
    endloop
  endfacet
  facet normal 0 0 -1
    outer loop
      vertex 10.8156 -33.287 8
      vertex 14.625 -25.3312 8
      vertex 17.5 -30.3109 8
    endloop
  endfacet
  facet normal 0 0 -1
    outer loop
      vertex 10.8156 -33.287 8
      vertex 9.03875 -27.8184 8
      vertex 14.625 -25.3312 8
    endloop
  endfacet
  facet normal 0 0 -1
    outer loop
      vertex 3.6585 -34.8083 8
      vertex 9.03875 -27.8184 8
      vertex 10.8156 -33.287 8
    endloop
  endfacet
  facet normal 0 0 -1
    outer loop
      vertex 3.6585 -34.8083 8
      vertex 3.05746 -29.0898 8
      vertex 9.03875 -27.8184 8
    endloop
  endfacet
  facet normal 0 0 -1
    outer loop
      vertex 3.6585 -34.8083 8
      vertex -3.05746 -29.0898 8
      vertex 3.05746 -29.0898 8
    endloop
  endfacet
  facet normal 0 0 -1
    outer loop
      vertex -3.6585 -34.8083 8
      vertex -3.05746 -29.0898 8
      vertex 3.6585 -34.8083 8
    endloop
  endfacet
  facet normal 0 0 -1
    outer loop
      vertex -3.6585 -34.8083 8
      vertex -9.03875 -27.8184 8
      vertex -3.05746 -29.0898 8
    endloop
  endfacet
  facet normal 0 0 -1
    outer loop
      vertex -10.8156 -33.287 8
      vertex -9.03875 -27.8184 8
      vertex -3.6585 -34.8083 8
    endloop
  endfacet
  facet normal 0 0 -1
    outer loop
      vertex -10.8156 -33.287 8
      vertex -14.625 -25.3312 8
      vertex -9.03875 -27.8184 8
    endloop
  endfacet
  facet normal 0 0 -1
    outer loop
      vertex -17.5 -30.3109 8
      vertex -14.625 -25.3312 8
      vertex -10.8156 -33.287 8
    endloop
  endfacet
  facet normal 0 0 -1
    outer loop
      vertex -17.5 -30.3109 8
      vertex -19.5721 -21.737 8
      vertex -14.625 -25.3312 8
    endloop
  endfacet
  facet normal 0 0 -1
    outer loop
      vertex -23.4196 -26.0101 8
      vertex -19.5721 -21.737 8
      vertex -17.5 -30.3109 8
    endloop
  endfacet
  facet normal 0 0 -1
    outer loop
      vertex -23.4196 -26.0101 8
      vertex -23.6637 -17.1927 8
      vertex -19.5721 -21.737 8
    endloop
  endfacet
  facet normal 0 0 -1
    outer loop
      vertex -28.3156 -20.5725 8
      vertex -23.6637 -17.1927 8
      vertex -23.4196 -26.0101 8
    endloop
  endfacet
  facet normal -0 0 -1
    outer loop
      vertex -23.6637 -17.1927 8
      vertex -28.3156 -20.5725 8
      vertex -26.7212 -11.897 8
    endloop
  endfacet
  facet normal 0 0 -1
    outer loop
      vertex -31.9741 -14.2358 8
      vertex -26.7212 -11.897 8
      vertex -28.3156 -20.5725 8
    endloop
  endfacet
  facet normal -0 0 -1
    outer loop
      vertex -26.7212 -11.897 8
      vertex -31.9741 -14.2358 8
      vertex -28.6108 -6.08142 8
    endloop
  endfacet
  facet normal 0 0 -1
    outer loop
      vertex -34.2352 -7.27691 8
      vertex -28.6108 -6.08142 8
      vertex -31.9741 -14.2358 8
    endloop
  endfacet
  facet normal -0 0 -1
    outer loop
      vertex 34.2352 7.27691 8
      vertex 28.6108 6.08142 8
      vertex 31.9741 14.2358 8
    endloop
  endfacet
  facet normal 0 0 -1
    outer loop
      vertex 26.7212 11.897 8
      vertex 31.9741 14.2358 8
      vertex 28.6108 6.08142 8
    endloop
  endfacet
  facet normal -0 0 -1
    outer loop
      vertex 31.9741 14.2358 8
      vertex 26.7212 11.897 8
      vertex 28.3156 20.5725 8
    endloop
  endfacet
  facet normal 0 0 -1
    outer loop
      vertex 23.6637 17.1927 8
      vertex 28.3156 20.5725 8
      vertex 26.7212 11.897 8
    endloop
  endfacet
  facet normal 0 0 -1
    outer loop
      vertex 23.6637 17.1927 8
      vertex 23.4196 26.0101 8
      vertex 28.3156 20.5725 8
    endloop
  endfacet
  facet normal 0 0 -1
    outer loop
      vertex 19.5721 21.737 8
      vertex 23.4196 26.0101 8
      vertex 23.6637 17.1927 8
    endloop
  endfacet
  facet normal 0 0 -1
    outer loop
      vertex 19.5721 21.737 8
      vertex 17.5 30.3109 8
      vertex 23.4196 26.0101 8
    endloop
  endfacet
  facet normal 0 0 -1
    outer loop
      vertex 14.625 25.3312 8
      vertex 17.5 30.3109 8
      vertex 19.5721 21.737 8
    endloop
  endfacet
  facet normal 0 0 -1
    outer loop
      vertex 14.625 25.3312 8
      vertex 10.8156 33.287 8
      vertex 17.5 30.3109 8
    endloop
  endfacet
  facet normal 0 0 -1
    outer loop
      vertex 9.03875 27.8184 8
      vertex 10.8156 33.287 8
      vertex 14.625 25.3312 8
    endloop
  endfacet
  facet normal 0 0 -1
    outer loop
      vertex 9.03875 27.8184 8
      vertex 3.6585 34.8083 8
      vertex 10.8156 33.287 8
    endloop
  endfacet
  facet normal 0 0 -1
    outer loop
      vertex 3.05746 29.0898 8
      vertex 3.6585 34.8083 8
      vertex 9.03875 27.8184 8
    endloop
  endfacet
  facet normal 0 0 -1
    outer loop
      vertex -3.05746 29.0898 8
      vertex 3.6585 34.8083 8
      vertex 3.05746 29.0898 8
    endloop
  endfacet
  facet normal 0 0 -1
    outer loop
      vertex -3.05746 29.0898 8
      vertex -3.6585 34.8083 8
      vertex 3.6585 34.8083 8
    endloop
  endfacet
  facet normal 0 0 -1
    outer loop
      vertex -9.03875 27.8184 8
      vertex -3.6585 34.8083 8
      vertex -3.05746 29.0898 8
    endloop
  endfacet
  facet normal 0 0 -1
    outer loop
      vertex -9.03875 27.8184 8
      vertex -10.8156 33.287 8
      vertex -3.6585 34.8083 8
    endloop
  endfacet
  facet normal 0 0 -1
    outer loop
      vertex -14.625 25.3312 8
      vertex -10.8156 33.287 8
      vertex -9.03875 27.8184 8
    endloop
  endfacet
  facet normal 0 0 -1
    outer loop
      vertex -14.625 25.3312 8
      vertex -17.5 30.3109 8
      vertex -10.8156 33.287 8
    endloop
  endfacet
  facet normal 0 0 -1
    outer loop
      vertex -19.5721 21.737 8
      vertex -17.5 30.3109 8
      vertex -14.625 25.3312 8
    endloop
  endfacet
  facet normal 0 0 -1
    outer loop
      vertex -19.5721 21.737 8
      vertex -23.4196 26.0101 8
      vertex -17.5 30.3109 8
    endloop
  endfacet
  facet normal 0 0 -1
    outer loop
      vertex -23.6637 17.1927 8
      vertex -23.4196 26.0101 8
      vertex -19.5721 21.737 8
    endloop
  endfacet
  facet normal 0 0 -1
    outer loop
      vertex -28.3156 20.5725 8
      vertex -23.6637 17.1927 8
      vertex -26.7212 11.897 8
    endloop
  endfacet
  facet normal 0 0 -1
    outer loop
      vertex -23.6637 17.1927 8
      vertex -28.3156 20.5725 8
      vertex -23.4196 26.0101 8
    endloop
  endfacet
  facet normal 0 0 -1
    outer loop
      vertex -31.9741 14.2358 8
      vertex -26.7212 11.897 8
      vertex -28.6108 6.08142 8
    endloop
  endfacet
  facet normal 0 0 -1
    outer loop
      vertex -34.2352 7.27691 8
      vertex -28.6108 6.08142 8
      vertex -29.25 0 8
    endloop
  endfacet
  facet normal -0 0 -1
    outer loop
      vertex -28.6108 -6.08142 8
      vertex -34.2352 -7.27691 8
      vertex -29.25 0 8
    endloop
  endfacet
  facet normal 0 0 -1
    outer loop
      vertex -26.7212 11.897 8
      vertex -31.9741 14.2358 8
      vertex -28.3156 20.5725 8
    endloop
  endfacet
  facet normal 0 0 -1
    outer loop
      vertex -35 0 8
      vertex -29.25 0 8
      vertex -34.2352 -7.27691 8
    endloop
  endfacet
  facet normal 0 0 -1
    outer loop
      vertex -28.6108 6.08142 8
      vertex -34.2352 7.27691 8
      vertex -31.9741 14.2358 8
    endloop
  endfacet
  facet normal 0 0 -1
    outer loop
      vertex -29.25 0 8
      vertex -35 0 8
      vertex -34.2352 7.27691 8
    endloop
  endfacet
  facet normal 0 0 -1
    outer loop
      vertex 10 0 8
      vertex 25 0 8
      vertex 24.4537 -5.19779 8
    endloop
  endfacet
  facet normal 0 0 -1
    outer loop
      vertex 9.78148 -2.07912 8
      vertex 24.4537 -5.19779 8
      vertex 22.8386 -10.1684 8
    endloop
  endfacet
  facet normal 0 0 -1
    outer loop
      vertex 25 0 8
      vertex 10 0 8
      vertex 24.4537 5.19779 8
    endloop
  endfacet
  facet normal 0 0 -1
    outer loop
      vertex 9.13545 -4.06737 8
      vertex 22.8386 -10.1684 8
      vertex 20.2254 -14.6946 8
    endloop
  endfacet
  facet normal 0 0 -1
    outer loop
      vertex 9.78148 2.07912 8
      vertex 24.4537 5.19779 8
      vertex 10 0 8
    endloop
  endfacet
  facet normal 0 0 -1
    outer loop
      vertex 8.09017 -5.87785 8
      vertex 20.2254 -14.6946 8
      vertex 16.7283 -18.5786 8
    endloop
  endfacet
  facet normal -0 0 -1
    outer loop
      vertex 24.4537 5.19779 8
      vertex 9.78148 2.07912 8
      vertex 22.8386 10.1684 8
    endloop
  endfacet
  facet normal 0 0 -1
    outer loop
      vertex 6.69131 -7.43145 8
      vertex 16.7283 -18.5786 8
      vertex 12.5 -21.6506 8
    endloop
  endfacet
  facet normal 0 0 -1
    outer loop
      vertex 9.13545 4.06737 8
      vertex 22.8386 10.1684 8
      vertex 9.78148 2.07912 8
    endloop
  endfacet
  facet normal -0 0 -1
    outer loop
      vertex 22.8386 10.1684 8
      vertex 9.13545 4.06737 8
      vertex 20.2254 14.6946 8
    endloop
  endfacet
  facet normal 0 0 -1
    outer loop
      vertex 24.4537 -5.19779 8
      vertex 9.78148 -2.07912 8
      vertex 10 0 8
    endloop
  endfacet
  facet normal 0 0 -1
    outer loop
      vertex 22.8386 -10.1684 8
      vertex 9.13545 -4.06737 8
      vertex 9.78148 -2.07912 8
    endloop
  endfacet
  facet normal 0 0 -1
    outer loop
      vertex 20.2254 -14.6946 8
      vertex 8.09017 -5.87785 8
      vertex 9.13545 -4.06737 8
    endloop
  endfacet
  facet normal 0 0 -1
    outer loop
      vertex 5 -8.66025 8
      vertex 12.5 -21.6506 8
      vertex 7.72542 -23.7764 8
    endloop
  endfacet
  facet normal 0 0 -1
    outer loop
      vertex 16.7283 -18.5786 8
      vertex 6.69131 -7.43145 8
      vertex 8.09017 -5.87785 8
    endloop
  endfacet
  facet normal 0 0 -1
    outer loop
      vertex 12.5 -21.6506 8
      vertex 5 -8.66025 8
      vertex 6.69131 -7.43145 8
    endloop
  endfacet
  facet normal 0 0 -1
    outer loop
      vertex 7.72542 -23.7764 8
      vertex 3.09017 -9.51056 8
      vertex 5 -8.66025 8
    endloop
  endfacet
  facet normal 0 0 -1
    outer loop
      vertex 2.61321 -24.863 8
      vertex 3.09017 -9.51056 8
      vertex 7.72542 -23.7764 8
    endloop
  endfacet
  facet normal 0 0 -1
    outer loop
      vertex 2.61321 -24.863 8
      vertex 1.04528 -9.94522 8
      vertex 3.09017 -9.51056 8
    endloop
  endfacet
  facet normal 0 0 -1
    outer loop
      vertex 2.61321 -24.863 8
      vertex -1.04528 -9.94522 8
      vertex 1.04528 -9.94522 8
    endloop
  endfacet
  facet normal 0 0 -1
    outer loop
      vertex -2.61321 -24.863 8
      vertex -1.04528 -9.94522 8
      vertex 2.61321 -24.863 8
    endloop
  endfacet
  facet normal 0 0 -1
    outer loop
      vertex -2.61321 -24.863 8
      vertex -3.09017 -9.51056 8
      vertex -1.04528 -9.94522 8
    endloop
  endfacet
  facet normal 0 0 -1
    outer loop
      vertex -7.72542 -23.7764 8
      vertex -3.09017 -9.51056 8
      vertex -2.61321 -24.863 8
    endloop
  endfacet
  facet normal -0 0 -1
    outer loop
      vertex -3.09017 -9.51056 8
      vertex -7.72542 -23.7764 8
      vertex -5 -8.66025 8
    endloop
  endfacet
  facet normal 0 0 -1
    outer loop
      vertex -12.5 -21.6506 8
      vertex -5 -8.66025 8
      vertex -7.72542 -23.7764 8
    endloop
  endfacet
  facet normal -0 0 -1
    outer loop
      vertex -5 -8.66025 8
      vertex -12.5 -21.6506 8
      vertex -6.69131 -7.43145 8
    endloop
  endfacet
  facet normal 0 0 -1
    outer loop
      vertex -16.7283 -18.5786 8
      vertex -6.69131 -7.43145 8
      vertex -12.5 -21.6506 8
    endloop
  endfacet
  facet normal -0 0 -1
    outer loop
      vertex -6.69131 -7.43145 8
      vertex -16.7283 -18.5786 8
      vertex -8.09017 -5.87785 8
    endloop
  endfacet
  facet normal 0 0 -1
    outer loop
      vertex -20.2254 -14.6946 8
      vertex -8.09017 -5.87785 8
      vertex -16.7283 -18.5786 8
    endloop
  endfacet
  facet normal -0 0 -1
    outer loop
      vertex -8.09017 -5.87785 8
      vertex -20.2254 -14.6946 8
      vertex -9.13545 -4.06737 8
    endloop
  endfacet
  facet normal 0 0 -1
    outer loop
      vertex 8.09017 5.87785 8
      vertex 20.2254 14.6946 8
      vertex 9.13545 4.06737 8
    endloop
  endfacet
  facet normal -0 0 -1
    outer loop
      vertex 20.2254 14.6946 8
      vertex 8.09017 5.87785 8
      vertex 16.7283 18.5786 8
    endloop
  endfacet
  facet normal 0 0 -1
    outer loop
      vertex 6.69131 7.43145 8
      vertex 16.7283 18.5786 8
      vertex 8.09017 5.87785 8
    endloop
  endfacet
  facet normal -0 0 -1
    outer loop
      vertex 16.7283 18.5786 8
      vertex 6.69131 7.43145 8
      vertex 12.5 21.6506 8
    endloop
  endfacet
  facet normal 0 0 -1
    outer loop
      vertex 5 8.66025 8
      vertex 12.5 21.6506 8
      vertex 6.69131 7.43145 8
    endloop
  endfacet
  facet normal -0 0 -1
    outer loop
      vertex 12.5 21.6506 8
      vertex 5 8.66025 8
      vertex 7.72542 23.7764 8
    endloop
  endfacet
  facet normal 0 0 -1
    outer loop
      vertex 3.09017 9.51056 8
      vertex 7.72542 23.7764 8
      vertex 5 8.66025 8
    endloop
  endfacet
  facet normal 0 0 -1
    outer loop
      vertex 3.09017 9.51056 8
      vertex 2.61321 24.863 8
      vertex 7.72542 23.7764 8
    endloop
  endfacet
  facet normal 0 0 -1
    outer loop
      vertex 1.04528 9.94522 8
      vertex 2.61321 24.863 8
      vertex 3.09017 9.51056 8
    endloop
  endfacet
  facet normal 0 0 -1
    outer loop
      vertex -1.04528 9.94522 8
      vertex 2.61321 24.863 8
      vertex 1.04528 9.94522 8
    endloop
  endfacet
  facet normal 0 0 -1
    outer loop
      vertex -1.04528 9.94522 8
      vertex -2.61321 24.863 8
      vertex 2.61321 24.863 8
    endloop
  endfacet
  facet normal 0 0 -1
    outer loop
      vertex -3.09017 9.51056 8
      vertex -2.61321 24.863 8
      vertex -1.04528 9.94522 8
    endloop
  endfacet
  facet normal 0 0 -1
    outer loop
      vertex -7.72542 23.7764 8
      vertex -3.09017 9.51056 8
      vertex -5 8.66025 8
    endloop
  endfacet
  facet normal 0 0 -1
    outer loop
      vertex -12.5 21.6506 8
      vertex -5 8.66025 8
      vertex -6.69131 7.43145 8
    endloop
  endfacet
  facet normal 0 0 -1
    outer loop
      vertex -3.09017 9.51056 8
      vertex -7.72542 23.7764 8
      vertex -2.61321 24.863 8
    endloop
  endfacet
  facet normal 0 0 -1
    outer loop
      vertex -16.7283 18.5786 8
      vertex -6.69131 7.43145 8
      vertex -8.09017 5.87785 8
    endloop
  endfacet
  facet normal 0 0 -1
    outer loop
      vertex -20.2254 14.6946 8
      vertex -8.09017 5.87785 8
      vertex -9.13545 4.06737 8
    endloop
  endfacet
  facet normal 0 0 -1
    outer loop
      vertex -22.8386 10.1684 8
      vertex -9.13545 4.06737 8
      vertex -9.78148 2.07912 8
    endloop
  endfacet
  facet normal 0 0 -1
    outer loop
      vertex -24.4537 5.19779 8
      vertex -9.78148 2.07912 8
      vertex -10 0 8
    endloop
  endfacet
  facet normal 0 0 -1
    outer loop
      vertex -22.8386 -10.1684 8
      vertex -9.13545 -4.06737 8
      vertex -20.2254 -14.6946 8
    endloop
  endfacet
  facet normal 0 0 -1
    outer loop
      vertex -5 8.66025 8
      vertex -12.5 21.6506 8
      vertex -7.72542 23.7764 8
    endloop
  endfacet
  facet normal -0 0 -1
    outer loop
      vertex -9.13545 -4.06737 8
      vertex -22.8386 -10.1684 8
      vertex -9.78148 -2.07912 8
    endloop
  endfacet
  facet normal 0 0 -1
    outer loop
      vertex -6.69131 7.43145 8
      vertex -16.7283 18.5786 8
      vertex -12.5 21.6506 8
    endloop
  endfacet
  facet normal 0 0 -1
    outer loop
      vertex -24.4537 -5.19779 8
      vertex -9.78148 -2.07912 8
      vertex -22.8386 -10.1684 8
    endloop
  endfacet
  facet normal 0 0 -1
    outer loop
      vertex -8.09017 5.87785 8
      vertex -20.2254 14.6946 8
      vertex -16.7283 18.5786 8
    endloop
  endfacet
  facet normal -0 0 -1
    outer loop
      vertex -9.78148 -2.07912 8
      vertex -24.4537 -5.19779 8
      vertex -10 0 8
    endloop
  endfacet
  facet normal 0 0 -1
    outer loop
      vertex -9.13545 4.06737 8
      vertex -22.8386 10.1684 8
      vertex -20.2254 14.6946 8
    endloop
  endfacet
  facet normal 0 0 -1
    outer loop
      vertex -25 0 8
      vertex -10 0 8
      vertex -24.4537 -5.19779 8
    endloop
  endfacet
  facet normal 0 0 -1
    outer loop
      vertex -9.78148 2.07912 8
      vertex -24.4537 5.19779 8
      vertex -22.8386 10.1684 8
    endloop
  endfacet
  facet normal 0 0 -1
    outer loop
      vertex -10 0 8
      vertex -25 0 8
      vertex -24.4537 5.19779 8
    endloop
  endfacet
  facet normal -0.614052 -0.354523 0.705162
    outer loop
      vertex -13.7032 -6.10105 28
      vertex -31.9741 -14.2358 8
      vertex -28.3156 -20.5725 8
    endloop
  endfacet
  facet normal 0.705161 0.0741184 0.705163
    outer loop
      vertex 34.2352 7.27691 8
      vertex 14.6722 3.11868 28
      vertex 15 0 28
    endloop
  endfacet
  facet normal -0.147423 0.69355 0.705163
    outer loop
      vertex -3.6585 34.8083 8
      vertex -4.63525 14.2658 28
      vertex -1.56793 14.9178 28
    endloop
  endfacet
  facet normal 0.674344 0.219101 0.705163
    outer loop
      vertex 34.2352 7.27691 8
      vertex 13.7032 6.10105 28
      vertex 14.6722 3.11868 28
    endloop
  endfacet
  facet normal 0.614052 0.354523 0.705162
    outer loop
      vertex 28.3156 20.5725 8
      vertex 13.7032 6.10105 28
      vertex 31.9741 14.2358 8
    endloop
  endfacet
  facet normal 0.705162 0.0741122 0.705162
    outer loop
      vertex 34.2352 7.27691 8
      vertex 15 0 28
      vertex 35 0 8
    endloop
  endfacet
  facet normal 0.526926 -0.474443 0.705162
    outer loop
      vertex 28.3156 -20.5725 8
      vertex 12.1353 -8.81678 28
      vertex 23.4196 -26.0101 8
    endloop
  endfacet
  facet normal -0.526926 -0.474443 0.705162
    outer loop
      vertex -12.1353 -8.81678 28
      vertex -28.3156 -20.5725 8
      vertex -23.4196 -26.0101 8
    endloop
  endfacet
  facet normal -0.705162 -0.0741122 0.705162
    outer loop
      vertex -15 0 28
      vertex -35 0 8
      vertex -34.2352 -7.27691 8
    endloop
  endfacet
  facet normal -0.416761 -0.573635 0.705162
    outer loop
      vertex -10.037 -11.1472 28
      vertex -23.4196 -26.0101 8
      vertex -7.5 -12.9904 28
    endloop
  endfacet
  facet normal 0.526926 0.474443 0.705162
    outer loop
      vertex 23.4196 26.0101 8
      vertex 12.1353 8.81678 28
      vertex 28.3156 20.5725 8
    endloop
  endfacet
  facet normal 0.147423 -0.69355 0.705163
    outer loop
      vertex 4.63525 -14.2658 28
      vertex 1.56793 -14.9178 28
      vertex 3.6585 -34.8083 8
    endloop
  endfacet
  facet normal -0.526926 -0.474442 0.705162
    outer loop
      vertex -12.1353 -8.81678 28
      vertex -23.4196 -26.0101 8
      vertex -10.037 -11.1472 28
    endloop
  endfacet
  facet normal -0.705162 0.0741122 0.705162
    outer loop
      vertex -34.2352 7.27691 8
      vertex -35 0 8
      vertex -15 0 28
    endloop
  endfacet
  facet normal -0.705161 -0.0741184 0.705163
    outer loop
      vertex -15 0 28
      vertex -34.2352 -7.27691 8
      vertex -14.6722 -3.11868 28
    endloop
  endfacet
  facet normal -0.614055 -0.354519 0.705161
    outer loop
      vertex -13.7032 -6.10105 28
      vertex -28.3156 -20.5725 8
      vertex -12.1353 -8.81678 28
    endloop
  endfacet
  facet normal 0.288382 0.647753 0.705161
    outer loop
      vertex 17.5 30.3109 8
      vertex 4.63525 14.2658 28
      vertex 7.5 12.9904 28
    endloop
  endfacet
  facet normal -0.288396 -0.647744 0.705163
    outer loop
      vertex -4.63525 -14.2658 28
      vertex -17.5 -30.3109 8
      vertex -10.8156 -33.287 8
    endloop
  endfacet
  facet normal 0.288396 -0.647744 0.705163
    outer loop
      vertex 17.5 -30.3109 8
      vertex 4.63525 -14.2658 28
      vertex 10.8156 -33.287 8
    endloop
  endfacet
  facet normal 0.416761 0.573635 0.705162
    outer loop
      vertex 23.4196 26.0101 8
      vertex 7.5 12.9904 28
      vertex 10.037 11.1472 28
    endloop
  endfacet
  facet normal -0.674342 -0.219109 0.705162
    outer loop
      vertex -13.7032 -6.10105 28
      vertex -34.2352 -7.27691 8
      vertex -31.9741 -14.2358 8
    endloop
  endfacet
  facet normal -0.674342 0.219109 0.705162
    outer loop
      vertex -31.9741 14.2358 8
      vertex -34.2352 7.27691 8
      vertex -13.7032 6.10105 28
    endloop
  endfacet
  facet normal 0.147423 0.69355 0.705163
    outer loop
      vertex 3.6585 34.8083 8
      vertex 1.56793 14.9178 28
      vertex 4.63525 14.2658 28
    endloop
  endfacet
  facet normal 0 0.709045 0.705163
    outer loop
      vertex 3.6585 34.8083 8
      vertex -1.56793 14.9178 28
      vertex 1.56793 14.9178 28
    endloop
  endfacet
  facet normal 0 0.709045 0.705163
    outer loop
      vertex -1.56793 14.9178 28
      vertex 3.6585 34.8083 8
      vertex -3.6585 34.8083 8
    endloop
  endfacet
  facet normal -0.14742 0.69355 0.705163
    outer loop
      vertex -3.6585 34.8083 8
      vertex -10.8156 33.287 8
      vertex -4.63525 14.2658 28
    endloop
  endfacet
  facet normal -0.288382 0.647753 0.705161
    outer loop
      vertex -4.63525 14.2658 28
      vertex -17.5 30.3109 8
      vertex -7.5 12.9904 28
    endloop
  endfacet
  facet normal -0.614052 0.354523 0.705162
    outer loop
      vertex -28.3156 20.5725 8
      vertex -31.9741 14.2358 8
      vertex -13.7032 6.10105 28
    endloop
  endfacet
  facet normal 0.288396 0.647744 0.705163
    outer loop
      vertex 10.8156 33.287 8
      vertex 4.63525 14.2658 28
      vertex 17.5 30.3109 8
    endloop
  endfacet
  facet normal -0.147423 -0.69355 0.705163
    outer loop
      vertex -1.56793 -14.9178 28
      vertex -4.63525 -14.2658 28
      vertex -3.6585 -34.8083 8
    endloop
  endfacet
  facet normal 0.14742 -0.69355 0.705163
    outer loop
      vertex 4.63525 -14.2658 28
      vertex 3.6585 -34.8083 8
      vertex 10.8156 -33.287 8
    endloop
  endfacet
  facet normal -0.526926 0.474442 0.705162
    outer loop
      vertex -10.037 11.1472 28
      vertex -23.4196 26.0101 8
      vertex -12.1353 8.81678 28
    endloop
  endfacet
  facet normal 0 -0.709045 0.705163
    outer loop
      vertex -3.6585 -34.8083 8
      vertex 1.56793 -14.9178 28
      vertex -1.56793 -14.9178 28
    endloop
  endfacet
  facet normal 0 -0.709045 0.705163
    outer loop
      vertex 1.56793 -14.9178 28
      vertex -3.6585 -34.8083 8
      vertex 3.6585 -34.8083 8
    endloop
  endfacet
  facet normal 0.288382 -0.647753 0.705161
    outer loop
      vertex 7.5 -12.9904 28
      vertex 4.63525 -14.2658 28
      vertex 17.5 -30.3109 8
    endloop
  endfacet
  facet normal 0.614052 -0.354523 0.705162
    outer loop
      vertex 31.9741 -14.2358 8
      vertex 13.7032 -6.10105 28
      vertex 28.3156 -20.5725 8
    endloop
  endfacet
  facet normal 0.416761 -0.573635 0.705162
    outer loop
      vertex 10.037 -11.1472 28
      vertex 7.5 -12.9904 28
      vertex 23.4196 -26.0101 8
    endloop
  endfacet
  facet normal -0.288382 -0.647753 0.705161
    outer loop
      vertex -7.5 -12.9904 28
      vertex -17.5 -30.3109 8
      vertex -4.63525 -14.2658 28
    endloop
  endfacet
  facet normal -0.416764 0.573632 0.705162
    outer loop
      vertex -17.5 30.3109 8
      vertex -23.4196 26.0101 8
      vertex -7.5 12.9904 28
    endloop
  endfacet
  facet normal 0 0 1
    outer loop
      vertex 10 0 28
      vertex 15 0 28
      vertex 14.6722 3.11868 28
    endloop
  endfacet
  facet normal 0 0 1
    outer loop
      vertex 9.78148 2.07912 28
      vertex 14.6722 3.11868 28
      vertex 13.7032 6.10105 28
    endloop
  endfacet
  facet normal 0 0 1
    outer loop
      vertex 15 0 28
      vertex 10 0 28
      vertex 14.6722 -3.11868 28
    endloop
  endfacet
  facet normal 0 0 1
    outer loop
      vertex 9.13545 4.06737 28
      vertex 13.7032 6.10105 28
      vertex 12.1353 8.81678 28
    endloop
  endfacet
  facet normal -0 0 1
    outer loop
      vertex 9.78148 -2.07912 28
      vertex 14.6722 -3.11868 28
      vertex 10 0 28
    endloop
  endfacet
  facet normal 0 0 1
    outer loop
      vertex 8.09017 5.87785 28
      vertex 12.1353 8.81678 28
      vertex 10.037 11.1472 28
    endloop
  endfacet
  facet normal 0 0 1
    outer loop
      vertex 14.6722 -3.11868 28
      vertex 9.78148 -2.07912 28
      vertex 13.7032 -6.10105 28
    endloop
  endfacet
  facet normal -0 0 1
    outer loop
      vertex 9.13545 -4.06737 28
      vertex 13.7032 -6.10105 28
      vertex 9.78148 -2.07912 28
    endloop
  endfacet
  facet normal 0 0 1
    outer loop
      vertex 14.6722 3.11868 28
      vertex 9.78148 2.07912 28
      vertex 10 0 28
    endloop
  endfacet
  facet normal 0 0 1
    outer loop
      vertex 13.7032 6.10105 28
      vertex 9.13545 4.06737 28
      vertex 9.78148 2.07912 28
    endloop
  endfacet
  facet normal 0 0 1
    outer loop
      vertex 12.1353 8.81678 28
      vertex 8.09017 5.87785 28
      vertex 9.13545 4.06737 28
    endloop
  endfacet
  facet normal 0 0 1
    outer loop
      vertex 6.69131 7.43145 28
      vertex 10.037 11.1472 28
      vertex 7.5 12.9904 28
    endloop
  endfacet
  facet normal 0 0 1
    outer loop
      vertex 10.037 11.1472 28
      vertex 6.69131 7.43145 28
      vertex 8.09017 5.87785 28
    endloop
  endfacet
  facet normal 0 0 1
    outer loop
      vertex 7.5 12.9904 28
      vertex 5 8.66025 28
      vertex 6.69131 7.43145 28
    endloop
  endfacet
  facet normal 0 0 1
    outer loop
      vertex 4.63525 14.2658 28
      vertex 5 8.66025 28
      vertex 7.5 12.9904 28
    endloop
  endfacet
  facet normal 0 0 1
    outer loop
      vertex 4.63525 14.2658 28
      vertex 3.09017 9.51056 28
      vertex 5 8.66025 28
    endloop
  endfacet
  facet normal 0 0 1
    outer loop
      vertex 1.56793 14.9178 28
      vertex 3.09017 9.51056 28
      vertex 4.63525 14.2658 28
    endloop
  endfacet
  facet normal 0 0 1
    outer loop
      vertex 1.56793 14.9178 28
      vertex 1.04528 9.94522 28
      vertex 3.09017 9.51056 28
    endloop
  endfacet
  facet normal 0 0 1
    outer loop
      vertex 1.56793 14.9178 28
      vertex -1.04528 9.94522 28
      vertex 1.04528 9.94522 28
    endloop
  endfacet
  facet normal -0 0 1
    outer loop
      vertex -1.56793 14.9178 28
      vertex -1.04528 9.94522 28
      vertex 1.56793 14.9178 28
    endloop
  endfacet
  facet normal 0 0 1
    outer loop
      vertex -1.56793 14.9178 28
      vertex -3.09017 9.51056 28
      vertex -1.04528 9.94522 28
    endloop
  endfacet
  facet normal -0 0 1
    outer loop
      vertex -4.63525 14.2658 28
      vertex -3.09017 9.51056 28
      vertex -1.56793 14.9178 28
    endloop
  endfacet
  facet normal 0 0 1
    outer loop
      vertex -4.63525 14.2658 28
      vertex -5 8.66025 28
      vertex -3.09017 9.51056 28
    endloop
  endfacet
  facet normal -0 0 1
    outer loop
      vertex -7.5 12.9904 28
      vertex -5 8.66025 28
      vertex -4.63525 14.2658 28
    endloop
  endfacet
  facet normal 0 0 1
    outer loop
      vertex -5 8.66025 28
      vertex -7.5 12.9904 28
      vertex -6.69131 7.43145 28
    endloop
  endfacet
  facet normal -0 0 1
    outer loop
      vertex -10.037 11.1472 28
      vertex -6.69131 7.43145 28
      vertex -7.5 12.9904 28
    endloop
  endfacet
  facet normal 0 0 1
    outer loop
      vertex -6.69131 7.43145 28
      vertex -10.037 11.1472 28
      vertex -8.09017 5.87785 28
    endloop
  endfacet
  facet normal -0 0 1
    outer loop
      vertex -12.1353 8.81678 28
      vertex -8.09017 5.87785 28
      vertex -10.037 11.1472 28
    endloop
  endfacet
  facet normal -0 0 1
    outer loop
      vertex -13.7032 6.10105 28
      vertex -9.13545 4.06737 28
      vertex -12.1353 8.81678 28
    endloop
  endfacet
  facet normal 0 0 1
    outer loop
      vertex -8.09017 5.87785 28
      vertex -12.1353 8.81678 28
      vertex -9.13545 4.06737 28
    endloop
  endfacet
  facet normal 0 0 1
    outer loop
      vertex 13.7032 -6.10105 28
      vertex 9.13545 -4.06737 28
      vertex 12.1353 -8.81678 28
    endloop
  endfacet
  facet normal -0 0 1
    outer loop
      vertex 8.09017 -5.87785 28
      vertex 12.1353 -8.81678 28
      vertex 9.13545 -4.06737 28
    endloop
  endfacet
  facet normal 0 0 1
    outer loop
      vertex 12.1353 -8.81678 28
      vertex 8.09017 -5.87785 28
      vertex 10.037 -11.1472 28
    endloop
  endfacet
  facet normal -0 0 1
    outer loop
      vertex 6.69131 -7.43145 28
      vertex 10.037 -11.1472 28
      vertex 8.09017 -5.87785 28
    endloop
  endfacet
  facet normal 0 0 1
    outer loop
      vertex 10.037 -11.1472 28
      vertex 6.69131 -7.43145 28
      vertex 7.5 -12.9904 28
    endloop
  endfacet
  facet normal -0 0 1
    outer loop
      vertex 5 -8.66025 28
      vertex 7.5 -12.9904 28
      vertex 6.69131 -7.43145 28
    endloop
  endfacet
  facet normal 0 0 1
    outer loop
      vertex 5 -8.66025 28
      vertex 4.63525 -14.2658 28
      vertex 7.5 -12.9904 28
    endloop
  endfacet
  facet normal -0 0 1
    outer loop
      vertex 3.09017 -9.51056 28
      vertex 4.63525 -14.2658 28
      vertex 5 -8.66025 28
    endloop
  endfacet
  facet normal 0 0 1
    outer loop
      vertex 3.09017 -9.51056 28
      vertex 1.56793 -14.9178 28
      vertex 4.63525 -14.2658 28
    endloop
  endfacet
  facet normal -0 0 1
    outer loop
      vertex 1.04528 -9.94522 28
      vertex 1.56793 -14.9178 28
      vertex 3.09017 -9.51056 28
    endloop
  endfacet
  facet normal -0 0 1
    outer loop
      vertex -1.04528 -9.94522 28
      vertex 1.56793 -14.9178 28
      vertex 1.04528 -9.94522 28
    endloop
  endfacet
  facet normal 0 0 1
    outer loop
      vertex -1.04528 -9.94522 28
      vertex -1.56793 -14.9178 28
      vertex 1.56793 -14.9178 28
    endloop
  endfacet
  facet normal 0 0 1
    outer loop
      vertex -3.09017 -9.51056 28
      vertex -1.56793 -14.9178 28
      vertex -1.04528 -9.94522 28
    endloop
  endfacet
  facet normal 0 0 1
    outer loop
      vertex -3.09017 -9.51056 28
      vertex -4.63525 -14.2658 28
      vertex -1.56793 -14.9178 28
    endloop
  endfacet
  facet normal 0 0 1
    outer loop
      vertex -5 -8.66025 28
      vertex -4.63525 -14.2658 28
      vertex -3.09017 -9.51056 28
    endloop
  endfacet
  facet normal 0 0 1
    outer loop
      vertex -7.5 -12.9904 28
      vertex -5 -8.66025 28
      vertex -6.69131 -7.43145 28
    endloop
  endfacet
  facet normal 0 0 1
    outer loop
      vertex -5 -8.66025 28
      vertex -7.5 -12.9904 28
      vertex -4.63525 -14.2658 28
    endloop
  endfacet
  facet normal 0 0 1
    outer loop
      vertex -10.037 -11.1472 28
      vertex -6.69131 -7.43145 28
      vertex -8.09017 -5.87785 28
    endloop
  endfacet
  facet normal 0 0 1
    outer loop
      vertex -12.1353 -8.81678 28
      vertex -8.09017 -5.87785 28
      vertex -9.13545 -4.06737 28
    endloop
  endfacet
  facet normal 0 0 1
    outer loop
      vertex -13.7032 -6.10105 28
      vertex -9.13545 -4.06737 28
      vertex -9.78148 -2.07912 28
    endloop
  endfacet
  facet normal 0 0 1
    outer loop
      vertex -6.69131 -7.43145 28
      vertex -10.037 -11.1472 28
      vertex -7.5 -12.9904 28
    endloop
  endfacet
  facet normal 0 0 1
    outer loop
      vertex -14.6722 -3.11868 28
      vertex -9.78148 -2.07912 28
      vertex -10 0 28
    endloop
  endfacet
  facet normal 0 0 1
    outer loop
      vertex -9.13545 4.06737 28
      vertex -13.7032 6.10105 28
      vertex -9.78148 2.07912 28
    endloop
  endfacet
  facet normal -0 0 1
    outer loop
      vertex -14.6722 3.11868 28
      vertex -9.78148 2.07912 28
      vertex -13.7032 6.10105 28
    endloop
  endfacet
  facet normal 0 0 1
    outer loop
      vertex -8.09017 -5.87785 28
      vertex -12.1353 -8.81678 28
      vertex -10.037 -11.1472 28
    endloop
  endfacet
  facet normal 0 0 1
    outer loop
      vertex -9.78148 2.07912 28
      vertex -14.6722 3.11868 28
      vertex -10 0 28
    endloop
  endfacet
  facet normal 0 0 1
    outer loop
      vertex -9.13545 -4.06737 28
      vertex -13.7032 -6.10105 28
      vertex -12.1353 -8.81678 28
    endloop
  endfacet
  facet normal 0 0 1
    outer loop
      vertex -15 0 28
      vertex -10 0 28
      vertex -14.6722 3.11868 28
    endloop
  endfacet
  facet normal 0 0 1
    outer loop
      vertex -9.78148 -2.07912 28
      vertex -14.6722 -3.11868 28
      vertex -13.7032 -6.10105 28
    endloop
  endfacet
  facet normal 0 0 1
    outer loop
      vertex -10 0 28
      vertex -15 0 28
      vertex -14.6722 -3.11868 28
    endloop
  endfacet
  facet normal -0.614055 0.354519 0.705161
    outer loop
      vertex -12.1353 8.81678 28
      vertex -28.3156 20.5725 8
      vertex -13.7032 6.10105 28
    endloop
  endfacet
  facet normal -0.526926 0.474443 0.705162
    outer loop
      vertex -23.4196 26.0101 8
      vertex -28.3156 20.5725 8
      vertex -12.1353 8.81678 28
    endloop
  endfacet
  facet normal -0.416761 0.573635 0.705162
    outer loop
      vertex -7.5 12.9904 28
      vertex -23.4196 26.0101 8
      vertex -10.037 11.1472 28
    endloop
  endfacet
  facet normal 0.526926 -0.474442 0.705162
    outer loop
      vertex 12.1353 -8.81678 28
      vertex 10.037 -11.1472 28
      vertex 23.4196 -26.0101 8
    endloop
  endfacet
  facet normal 0.674342 -0.219109 0.705162
    outer loop
      vertex 34.2352 -7.27691 8
      vertex 13.7032 -6.10105 28
      vertex 31.9741 -14.2358 8
    endloop
  endfacet
  facet normal 0.674344 -0.219101 0.705163
    outer loop
      vertex 14.6722 -3.11868 28
      vertex 13.7032 -6.10105 28
      vertex 34.2352 -7.27691 8
    endloop
  endfacet
  facet normal 0.743147 -0.669129 0
    outer loop
      vertex -8.09017 5.87785 28
      vertex -6.69131 7.43145 8
      vertex -6.69131 7.43145 28
    endloop
  endfacet
  facet normal 0.743147 -0.669129 0
    outer loop
      vertex -6.69131 7.43145 8
      vertex -8.09017 5.87785 28
      vertex -8.09017 5.87785 8
    endloop
  endfacet
  facet normal -0.951055 0.309021 0
    outer loop
      vertex 9.13545 -4.06737 8
      vertex 9.78148 -2.07912 28
      vertex 9.78148 -2.07912 8
    endloop
  endfacet
  facet normal -0.951055 0.309021 0
    outer loop
      vertex 9.78148 -2.07912 28
      vertex 9.13545 -4.06737 8
      vertex 9.13545 -4.06737 28
    endloop
  endfacet
  facet normal -0.994522 0.104526 0
    outer loop
      vertex 9.78148 -2.07912 8
      vertex 10 0 28
      vertex 10 0 8
    endloop
  endfacet
  facet normal -0.994522 0.104526 0
    outer loop
      vertex 10 0 28
      vertex 9.78148 -2.07912 8
      vertex 9.78148 -2.07912 28
    endloop
  endfacet
  facet normal -0.866026 0.5 0
    outer loop
      vertex 8.09017 -5.87785 8
      vertex 9.13545 -4.06737 28
      vertex 9.13545 -4.06737 8
    endloop
  endfacet
  facet normal -0.866026 0.5 0
    outer loop
      vertex 9.13545 -4.06737 28
      vertex 8.09017 -5.87785 8
      vertex 8.09017 -5.87785 28
    endloop
  endfacet
  facet normal -0.951055 -0.309021 0
    outer loop
      vertex 9.78148 2.07912 8
      vertex 9.13545 4.06737 28
      vertex 9.13545 4.06737 8
    endloop
  endfacet
  facet normal -0.951055 -0.309021 0
    outer loop
      vertex 9.13545 4.06737 28
      vertex 9.78148 2.07912 8
      vertex 9.78148 2.07912 28
    endloop
  endfacet
  facet normal 0.587783 0.809019 -0
    outer loop
      vertex -5 -8.66025 8
      vertex -6.69131 -7.43145 28
      vertex -5 -8.66025 28
    endloop
  endfacet
  facet normal 0.587783 0.809019 0
    outer loop
      vertex -6.69131 -7.43145 28
      vertex -5 -8.66025 8
      vertex -6.69131 -7.43145 8
    endloop
  endfacet
  facet normal -0.587783 -0.809019 0
    outer loop
      vertex 5 8.66025 8
      vertex 6.69131 7.43145 28
      vertex 5 8.66025 28
    endloop
  endfacet
  facet normal -0.587783 -0.809019 -0
    outer loop
      vertex 6.69131 7.43145 28
      vertex 5 8.66025 8
      vertex 6.69131 7.43145 8
    endloop
  endfacet
  facet normal -0.743147 -0.669129 0
    outer loop
      vertex 8.09017 5.87785 8
      vertex 6.69131 7.43145 28
      vertex 6.69131 7.43145 8
    endloop
  endfacet
  facet normal -0.743147 -0.669129 0
    outer loop
      vertex 6.69131 7.43145 28
      vertex 8.09017 5.87785 8
      vertex 8.09017 5.87785 28
    endloop
  endfacet
  facet normal -0.994522 -0.104526 0
    outer loop
      vertex 10 0 8
      vertex 9.78148 2.07912 28
      vertex 9.78148 2.07912 8
    endloop
  endfacet
  facet normal -0.994522 -0.104526 0
    outer loop
      vertex 9.78148 2.07912 28
      vertex 10 0 8
      vertex 10 0 28
    endloop
  endfacet
  facet normal 0.406736 -0.913546 0
    outer loop
      vertex -5 8.66025 8
      vertex -3.09017 9.51056 28
      vertex -5 8.66025 28
    endloop
  endfacet
  facet normal 0.406736 -0.913546 0
    outer loop
      vertex -3.09017 9.51056 28
      vertex -5 8.66025 8
      vertex -3.09017 9.51056 8
    endloop
  endfacet
  facet normal -0.406736 0.913546 0
    outer loop
      vertex 5 -8.66025 8
      vertex 3.09017 -9.51056 28
      vertex 5 -8.66025 28
    endloop
  endfacet
  facet normal -0.406736 0.913546 0
    outer loop
      vertex 3.09017 -9.51056 28
      vertex 5 -8.66025 8
      vertex 3.09017 -9.51056 8
    endloop
  endfacet
  facet normal -0.743147 0.669129 0
    outer loop
      vertex 6.69131 -7.43145 8
      vertex 8.09017 -5.87785 28
      vertex 8.09017 -5.87785 8
    endloop
  endfacet
  facet normal -0.743147 0.669129 0
    outer loop
      vertex 8.09017 -5.87785 28
      vertex 6.69131 -7.43145 8
      vertex 6.69131 -7.43145 28
    endloop
  endfacet
  facet normal 0.587783 -0.809019 0
    outer loop
      vertex -6.69131 7.43145 8
      vertex -5 8.66025 28
      vertex -6.69131 7.43145 28
    endloop
  endfacet
  facet normal 0.587783 -0.809019 0
    outer loop
      vertex -5 8.66025 28
      vertex -6.69131 7.43145 8
      vertex -5 8.66025 8
    endloop
  endfacet
  facet normal 0.743147 0.669129 0
    outer loop
      vertex -6.69131 -7.43145 28
      vertex -8.09017 -5.87785 8
      vertex -8.09017 -5.87785 28
    endloop
  endfacet
  facet normal 0.743147 0.669129 0
    outer loop
      vertex -8.09017 -5.87785 8
      vertex -6.69131 -7.43145 28
      vertex -6.69131 -7.43145 8
    endloop
  endfacet
  facet normal 0 1 -0
    outer loop
      vertex 1.04528 -9.94522 8
      vertex -1.04528 -9.94522 28
      vertex 1.04528 -9.94522 28
    endloop
  endfacet
  facet normal 0 1 0
    outer loop
      vertex -1.04528 -9.94522 28
      vertex 1.04528 -9.94522 8
      vertex -1.04528 -9.94522 8
    endloop
  endfacet
  facet normal -0.406736 -0.913546 0
    outer loop
      vertex 3.09017 9.51056 8
      vertex 5 8.66025 28
      vertex 3.09017 9.51056 28
    endloop
  endfacet
  facet normal -0.406736 -0.913546 -0
    outer loop
      vertex 5 8.66025 28
      vertex 3.09017 9.51056 8
      vertex 5 8.66025 8
    endloop
  endfacet
  facet normal -0.207914 -0.978147 0
    outer loop
      vertex 1.04528 9.94522 8
      vertex 3.09017 9.51056 28
      vertex 1.04528 9.94522 28
    endloop
  endfacet
  facet normal -0.207914 -0.978147 -0
    outer loop
      vertex 3.09017 9.51056 28
      vertex 1.04528 9.94522 8
      vertex 3.09017 9.51056 8
    endloop
  endfacet
  facet normal 0.951055 0.309021 0
    outer loop
      vertex -9.13545 -4.06737 28
      vertex -9.78148 -2.07912 8
      vertex -9.78148 -2.07912 28
    endloop
  endfacet
  facet normal 0.951055 0.309021 0
    outer loop
      vertex -9.78148 -2.07912 8
      vertex -9.13545 -4.06737 28
      vertex -9.13545 -4.06737 8
    endloop
  endfacet
  facet normal 0.951055 -0.309021 0
    outer loop
      vertex -9.78148 2.07912 28
      vertex -9.13545 4.06737 8
      vertex -9.13545 4.06737 28
    endloop
  endfacet
  facet normal 0.951055 -0.309021 0
    outer loop
      vertex -9.13545 4.06737 8
      vertex -9.78148 2.07912 28
      vertex -9.78148 2.07912 8
    endloop
  endfacet
  facet normal 0.406736 0.913546 -0
    outer loop
      vertex -3.09017 -9.51056 8
      vertex -5 -8.66025 28
      vertex -3.09017 -9.51056 28
    endloop
  endfacet
  facet normal 0.406736 0.913546 0
    outer loop
      vertex -5 -8.66025 28
      vertex -3.09017 -9.51056 8
      vertex -5 -8.66025 8
    endloop
  endfacet
  facet normal 0.207914 -0.978147 0
    outer loop
      vertex -3.09017 9.51056 8
      vertex -1.04528 9.94522 28
      vertex -3.09017 9.51056 28
    endloop
  endfacet
  facet normal 0.207914 -0.978147 0
    outer loop
      vertex -1.04528 9.94522 28
      vertex -3.09017 9.51056 8
      vertex -1.04528 9.94522 8
    endloop
  endfacet
  facet normal -0.207914 0.978147 0
    outer loop
      vertex 3.09017 -9.51056 8
      vertex 1.04528 -9.94522 28
      vertex 3.09017 -9.51056 28
    endloop
  endfacet
  facet normal -0.207914 0.978147 0
    outer loop
      vertex 1.04528 -9.94522 28
      vertex 3.09017 -9.51056 8
      vertex 1.04528 -9.94522 8
    endloop
  endfacet
  facet normal 0.994522 -0.104526 0
    outer loop
      vertex -10 0 28
      vertex -9.78148 2.07912 8
      vertex -9.78148 2.07912 28
    endloop
  endfacet
  facet normal 0.994522 -0.104526 0
    outer loop
      vertex -9.78148 2.07912 8
      vertex -10 0 28
      vertex -10 0 8
    endloop
  endfacet
  facet normal 0.866026 -0.5 0
    outer loop
      vertex -9.13545 4.06737 28
      vertex -8.09017 5.87785 8
      vertex -8.09017 5.87785 28
    endloop
  endfacet
  facet normal 0.866026 -0.5 0
    outer loop
      vertex -8.09017 5.87785 8
      vertex -9.13545 4.06737 28
      vertex -9.13545 4.06737 8
    endloop
  endfacet
  facet normal 0.866026 0.5 0
    outer loop
      vertex -8.09017 -5.87785 28
      vertex -9.13545 -4.06737 8
      vertex -9.13545 -4.06737 28
    endloop
  endfacet
  facet normal 0.866026 0.5 0
    outer loop
      vertex -9.13545 -4.06737 8
      vertex -8.09017 -5.87785 28
      vertex -8.09017 -5.87785 8
    endloop
  endfacet
  facet normal -0.866026 -0.5 0
    outer loop
      vertex 9.13545 4.06737 8
      vertex 8.09017 5.87785 28
      vertex 8.09017 5.87785 8
    endloop
  endfacet
  facet normal -0.866026 -0.5 0
    outer loop
      vertex 8.09017 5.87785 28
      vertex 9.13545 4.06737 8
      vertex 9.13545 4.06737 28
    endloop
  endfacet
  facet normal -0.587783 0.809019 0
    outer loop
      vertex 6.69131 -7.43145 8
      vertex 5 -8.66025 28
      vertex 6.69131 -7.43145 28
    endloop
  endfacet
  facet normal -0.587783 0.809019 0
    outer loop
      vertex 5 -8.66025 28
      vertex 6.69131 -7.43145 8
      vertex 5 -8.66025 8
    endloop
  endfacet
  facet normal 0.207914 0.978147 -0
    outer loop
      vertex -1.04528 -9.94522 8
      vertex -3.09017 -9.51056 28
      vertex -1.04528 -9.94522 28
    endloop
  endfacet
  facet normal 0.207914 0.978147 0
    outer loop
      vertex -3.09017 -9.51056 28
      vertex -1.04528 -9.94522 8
      vertex -3.09017 -9.51056 8
    endloop
  endfacet
  facet normal 0 -1 0
    outer loop
      vertex -1.04528 9.94522 8
      vertex 1.04528 9.94522 28
      vertex -1.04528 9.94522 28
    endloop
  endfacet
  facet normal 0 -1 -0
    outer loop
      vertex 1.04528 9.94522 28
      vertex -1.04528 9.94522 8
      vertex 1.04528 9.94522 8
    endloop
  endfacet
  facet normal 0.994522 0.104526 0
    outer loop
      vertex -9.78148 -2.07912 28
      vertex -10 0 8
      vertex -10 0 28
    endloop
  endfacet
  facet normal 0.994522 0.104526 0
    outer loop
      vertex -10 0 8
      vertex -9.78148 -2.07912 28
      vertex -9.78148 -2.07912 8
    endloop
  endfacet
endsolid OpenSCAD_Model
