solid OpenSCAD_Model
  facet normal 0.951055 0.309023 0
    outer loop
      vertex 30.3226 6.44526 6
      vertex 28.3199 12.6088 0
      vertex 28.3199 12.6088 6
    endloop
  endfacet
  facet normal 0.951055 0.309023 0
    outer loop
      vertex 28.3199 12.6088 0
      vertex 30.3226 6.44526 6
      vertex 30.3226 6.44526 0
    endloop
  endfacet
  facet normal 0.994522 0.104525 0
    outer loop
      vertex 31 0 6
      vertex 30.3226 6.44526 0
      vertex 30.3226 6.44526 6
    endloop
  endfacet
  facet normal 0.994522 0.104525 0
    outer loop
      vertex 30.3226 6.44526 0
      vertex 31 0 6
      vertex 31 0 0
    endloop
  endfacet
  facet normal 0.866024 0.500003 0
    outer loop
      vertex 28.3199 12.6088 6
      vertex 25.0795 18.2213 0
      vertex 25.0795 18.2213 6
    endloop
  endfacet
  facet normal 0.866024 0.500003 0
    outer loop
      vertex 25.0795 18.2213 0
      vertex 28.3199 12.6088 6
      vertex 28.3199 12.6088 0
    endloop
  endfacet
  facet normal 0 0 -1
    outer loop
      vertex 29.75 0 0
      vertex 31 0 0
      vertex 30.3226 -6.44526 0
    endloop
  endfacet
  facet normal 0 0 -1
    outer loop
      vertex 31 0 0
      vertex 29.75 0 0
      vertex 30.3226 6.44526 0
    endloop
  endfacet
  facet normal 0 0 -1
    outer loop
      vertex 30.3226 -6.44526 0
      vertex 29.0999 -6.18537 0
      vertex 29.75 0 0
    endloop
  endfacet
  facet normal 0 0 -1
    outer loop
      vertex 28.3199 -12.6088 0
      vertex 29.0999 -6.18537 0
      vertex 30.3226 -6.44526 0
    endloop
  endfacet
  facet normal 0 0 -1
    outer loop
      vertex 28.3199 -12.6088 0
      vertex 27.178 -12.1004 0
      vertex 29.0999 -6.18537 0
    endloop
  endfacet
  facet normal 0 0 -1
    outer loop
      vertex 25.0795 -18.2213 0
      vertex 27.178 -12.1004 0
      vertex 28.3199 -12.6088 0
    endloop
  endfacet
  facet normal 0 0 -1
    outer loop
      vertex 25.0795 -18.2213 0
      vertex 24.0683 -17.4866 0
      vertex 27.178 -12.1004 0
    endloop
  endfacet
  facet normal 0 0 -1
    outer loop
      vertex 20.743 -23.0375 0
      vertex 24.0683 -17.4866 0
      vertex 25.0795 -18.2213 0
    endloop
  endfacet
  facet normal 0 0 -1
    outer loop
      vertex 20.743 -23.0375 0
      vertex 19.9066 -22.1086 0
      vertex 24.0683 -17.4866 0
    endloop
  endfacet
  facet normal 0 0 -1
    outer loop
      vertex 15.5 -26.8468 0
      vertex 19.9066 -22.1086 0
      vertex 20.743 -23.0375 0
    endloop
  endfacet
  facet normal 0 0 -1
    outer loop
      vertex 15.5 -26.8468 0
      vertex 14.875 -25.7643 0
      vertex 19.9066 -22.1086 0
    endloop
  endfacet
  facet normal 0 0 -1
    outer loop
      vertex 9.57953 -29.4828 0
      vertex 14.875 -25.7643 0
      vertex 15.5 -26.8468 0
    endloop
  endfacet
  facet normal 0 0 -1
    outer loop
      vertex 9.57953 -29.4828 0
      vertex 9.19326 -28.2939 0
      vertex 14.875 -25.7643 0
    endloop
  endfacet
  facet normal 0 0 -1
    outer loop
      vertex 3.24038 -30.8302 0
      vertex 9.19326 -28.2939 0
      vertex 9.57953 -29.4828 0
    endloop
  endfacet
  facet normal 0 0 -1
    outer loop
      vertex 3.24038 -30.8302 0
      vertex 3.10972 -29.587 0
      vertex 9.19326 -28.2939 0
    endloop
  endfacet
  facet normal 0 0 -1
    outer loop
      vertex 3.24038 -30.8302 0
      vertex -3.10972 -29.587 0
      vertex 3.10972 -29.587 0
    endloop
  endfacet
  facet normal 0 0 -1
    outer loop
      vertex -3.24038 -30.8302 0
      vertex -3.10972 -29.587 0
      vertex 3.24038 -30.8302 0
    endloop
  endfacet
  facet normal 0 0 -1
    outer loop
      vertex -3.24038 -30.8302 0
      vertex -9.19326 -28.2939 0
      vertex -3.10972 -29.587 0
    endloop
  endfacet
  facet normal 0 0 -1
    outer loop
      vertex -9.57953 -29.4828 0
      vertex -9.19326 -28.2939 0
      vertex -3.24038 -30.8302 0
    endloop
  endfacet
  facet normal 0 0 -1
    outer loop
      vertex -9.57953 -29.4828 0
      vertex -14.875 -25.7643 0
      vertex -9.19326 -28.2939 0
    endloop
  endfacet
  facet normal 0 0 -1
    outer loop
      vertex -15.5 -26.8468 0
      vertex -14.875 -25.7643 0
      vertex -9.57953 -29.4828 0
    endloop
  endfacet
  facet normal 0 0 -1
    outer loop
      vertex -15.5 -26.8468 0
      vertex -19.9066 -22.1086 0
      vertex -14.875 -25.7643 0
    endloop
  endfacet
  facet normal 0 0 -1
    outer loop
      vertex -20.743 -23.0375 0
      vertex -19.9066 -22.1086 0
      vertex -15.5 -26.8468 0
    endloop
  endfacet
  facet normal 0 0 -1
    outer loop
      vertex -20.743 -23.0375 0
      vertex -24.0683 -17.4866 0
      vertex -19.9066 -22.1086 0
    endloop
  endfacet
  facet normal 0 0 -1
    outer loop
      vertex -25.0795 -18.2213 0
      vertex -24.0683 -17.4866 0
      vertex -20.743 -23.0375 0
    endloop
  endfacet
  facet normal 0 0 -1
    outer loop
      vertex -25.0795 -18.2213 0
      vertex -27.178 -12.1004 0
      vertex -24.0683 -17.4866 0
    endloop
  endfacet
  facet normal 0 0 -1
    outer loop
      vertex -28.3199 -12.6088 0
      vertex -27.178 -12.1004 0
      vertex -25.0795 -18.2213 0
    endloop
  endfacet
  facet normal 0 0 -1
    outer loop
      vertex -28.3199 -12.6088 0
      vertex -29.0999 -6.18537 0
      vertex -27.178 -12.1004 0
    endloop
  endfacet
  facet normal -0 0 -1
    outer loop
      vertex -29.0999 -6.18537 0
      vertex -30.3226 -6.44526 0
      vertex -29.75 0 0
    endloop
  endfacet
  facet normal 0 0 -1
    outer loop
      vertex -30.3226 -6.44526 0
      vertex -29.0999 -6.18537 0
      vertex -28.3199 -12.6088 0
    endloop
  endfacet
  facet normal 0 0 -1
    outer loop
      vertex 29.0999 6.18537 0
      vertex 30.3226 6.44526 0
      vertex 29.75 0 0
    endloop
  endfacet
  facet normal 0 0 -1
    outer loop
      vertex 29.0999 6.18537 0
      vertex 28.3199 12.6088 0
      vertex 30.3226 6.44526 0
    endloop
  endfacet
  facet normal 0 0 -1
    outer loop
      vertex 27.178 12.1004 0
      vertex 28.3199 12.6088 0
      vertex 29.0999 6.18537 0
    endloop
  endfacet
  facet normal 0 0 -1
    outer loop
      vertex 27.178 12.1004 0
      vertex 25.0795 18.2213 0
      vertex 28.3199 12.6088 0
    endloop
  endfacet
  facet normal 0 0 -1
    outer loop
      vertex 24.0683 17.4866 0
      vertex 25.0795 18.2213 0
      vertex 27.178 12.1004 0
    endloop
  endfacet
  facet normal 0 0 -1
    outer loop
      vertex 24.0683 17.4866 0
      vertex 20.743 23.0375 0
      vertex 25.0795 18.2213 0
    endloop
  endfacet
  facet normal 0 0 -1
    outer loop
      vertex 19.9066 22.1086 0
      vertex 20.743 23.0375 0
      vertex 24.0683 17.4866 0
    endloop
  endfacet
  facet normal 0 0 -1
    outer loop
      vertex 19.9066 22.1086 0
      vertex 15.5 26.8468 0
      vertex 20.743 23.0375 0
    endloop
  endfacet
  facet normal 0 0 -1
    outer loop
      vertex 14.875 25.7643 0
      vertex 15.5 26.8468 0
      vertex 19.9066 22.1086 0
    endloop
  endfacet
  facet normal 0 0 -1
    outer loop
      vertex 14.875 25.7643 0
      vertex 9.57953 29.4828 0
      vertex 15.5 26.8468 0
    endloop
  endfacet
  facet normal 0 0 -1
    outer loop
      vertex 9.19326 28.2939 0
      vertex 9.57953 29.4828 0
      vertex 14.875 25.7643 0
    endloop
  endfacet
  facet normal 0 0 -1
    outer loop
      vertex 9.19326 28.2939 0
      vertex 3.24038 30.8302 0
      vertex 9.57953 29.4828 0
    endloop
  endfacet
  facet normal 0 0 -1
    outer loop
      vertex 3.10972 29.587 0
      vertex 3.24038 30.8302 0
      vertex 9.19326 28.2939 0
    endloop
  endfacet
  facet normal 0 0 -1
    outer loop
      vertex -3.10972 29.587 0
      vertex 3.24038 30.8302 0
      vertex 3.10972 29.587 0
    endloop
  endfacet
  facet normal 0 0 -1
    outer loop
      vertex -3.10972 29.587 0
      vertex -3.24038 30.8302 0
      vertex 3.24038 30.8302 0
    endloop
  endfacet
  facet normal 0 0 -1
    outer loop
      vertex -9.19326 28.2939 0
      vertex -3.24038 30.8302 0
      vertex -3.10972 29.587 0
    endloop
  endfacet
  facet normal 0 0 -1
    outer loop
      vertex -9.19326 28.2939 0
      vertex -9.57953 29.4828 0
      vertex -3.24038 30.8302 0
    endloop
  endfacet
  facet normal 0 0 -1
    outer loop
      vertex -14.875 25.7643 0
      vertex -9.57953 29.4828 0
      vertex -9.19326 28.2939 0
    endloop
  endfacet
  facet normal 0 0 -1
    outer loop
      vertex -14.875 25.7643 0
      vertex -15.5 26.8468 0
      vertex -9.57953 29.4828 0
    endloop
  endfacet
  facet normal 0 0 -1
    outer loop
      vertex -19.9066 22.1086 0
      vertex -15.5 26.8468 0
      vertex -14.875 25.7643 0
    endloop
  endfacet
  facet normal 0 0 -1
    outer loop
      vertex -19.9066 22.1086 0
      vertex -20.743 23.0375 0
      vertex -15.5 26.8468 0
    endloop
  endfacet
  facet normal 0 0 -1
    outer loop
      vertex -24.0683 17.4866 0
      vertex -20.743 23.0375 0
      vertex -19.9066 22.1086 0
    endloop
  endfacet
  facet normal 0 0 -1
    outer loop
      vertex -24.0683 17.4866 0
      vertex -25.0795 18.2213 0
      vertex -20.743 23.0375 0
    endloop
  endfacet
  facet normal 0 0 -1
    outer loop
      vertex -27.178 12.1004 0
      vertex -25.0795 18.2213 0
      vertex -24.0683 17.4866 0
    endloop
  endfacet
  facet normal 0 0 -1
    outer loop
      vertex -27.178 12.1004 0
      vertex -28.3199 12.6088 0
      vertex -25.0795 18.2213 0
    endloop
  endfacet
  facet normal 0 0 -1
    outer loop
      vertex -29.0999 6.18537 0
      vertex -28.3199 12.6088 0
      vertex -27.178 12.1004 0
    endloop
  endfacet
  facet normal 0 0 -1
    outer loop
      vertex -29.0999 6.18537 0
      vertex -30.3226 6.44526 0
      vertex -28.3199 12.6088 0
    endloop
  endfacet
  facet normal 0 0 -1
    outer loop
      vertex -29.75 0 0
      vertex -30.3226 6.44526 0
      vertex -29.0999 6.18537 0
    endloop
  endfacet
  facet normal 0 0 -1
    outer loop
      vertex -31 0 0
      vertex -29.75 0 0
      vertex -30.3226 -6.44526 0
    endloop
  endfacet
  facet normal 0 0 -1
    outer loop
      vertex -29.75 0 0
      vertex -31 0 0
      vertex -30.3226 6.44526 0
    endloop
  endfacet
  facet normal 0.406741 0.913543 -0
    outer loop
      vertex 15.5 26.8468 0
      vertex 9.57953 29.4828 6
      vertex 15.5 26.8468 6
    endloop
  endfacet
  facet normal 0.406741 0.913543 0
    outer loop
      vertex 9.57953 29.4828 6
      vertex 15.5 26.8468 0
      vertex 9.57953 29.4828 0
    endloop
  endfacet
  facet normal -0.587789 0.809014 0
    outer loop
      vertex -15.5 26.8468 0
      vertex -20.743 23.0375 6
      vertex -15.5 26.8468 6
    endloop
  endfacet
  facet normal -0.587789 0.809014 0
    outer loop
      vertex -20.743 23.0375 6
      vertex -15.5 26.8468 0
      vertex -20.743 23.0375 0
    endloop
  endfacet
  facet normal -0.587789 -0.809014 0
    outer loop
      vertex -20.743 -23.0375 0
      vertex -15.5 -26.8468 6
      vertex -20.743 -23.0375 6
    endloop
  endfacet
  facet normal -0.587789 -0.809014 -0
    outer loop
      vertex -15.5 -26.8468 6
      vertex -20.743 -23.0375 0
      vertex -15.5 -26.8468 0
    endloop
  endfacet
  facet normal 0.743147 0.669128 0
    outer loop
      vertex 25.0795 18.2213 6
      vertex 20.743 23.0375 0
      vertex 20.743 23.0375 6
    endloop
  endfacet
  facet normal 0.743147 0.669128 0
    outer loop
      vertex 20.743 23.0375 0
      vertex 25.0795 18.2213 6
      vertex 25.0795 18.2213 0
    endloop
  endfacet
  facet normal 0.207908 -0.978148 0
    outer loop
      vertex 3.24038 -30.8302 0
      vertex 9.57953 -29.4828 6
      vertex 3.24038 -30.8302 6
    endloop
  endfacet
  facet normal 0.207908 -0.978148 0
    outer loop
      vertex 9.57953 -29.4828 6
      vertex 3.24038 -30.8302 0
      vertex 9.57953 -29.4828 0
    endloop
  endfacet
  facet normal -0.951055 -0.309023 0
    outer loop
      vertex -28.3199 -12.6088 0
      vertex -30.3226 -6.44526 6
      vertex -30.3226 -6.44526 0
    endloop
  endfacet
  facet normal -0.951055 -0.309023 0
    outer loop
      vertex -30.3226 -6.44526 6
      vertex -28.3199 -12.6088 0
      vertex -28.3199 -12.6088 6
    endloop
  endfacet
  facet normal 0.743147 -0.669128 0
    outer loop
      vertex 20.743 -23.0375 6
      vertex 25.0795 -18.2213 0
      vertex 25.0795 -18.2213 6
    endloop
  endfacet
  facet normal 0.743147 -0.669128 0
    outer loop
      vertex 25.0795 -18.2213 0
      vertex 20.743 -23.0375 6
      vertex 20.743 -23.0375 0
    endloop
  endfacet
  facet normal -0.406741 0.913543 0
    outer loop
      vertex -9.57953 29.4828 0
      vertex -15.5 26.8468 6
      vertex -9.57953 29.4828 6
    endloop
  endfacet
  facet normal -0.406741 0.913543 0
    outer loop
      vertex -15.5 26.8468 6
      vertex -9.57953 29.4828 0
      vertex -15.5 26.8468 0
    endloop
  endfacet
  facet normal 0.994522 -0.104525 0
    outer loop
      vertex 30.3226 -6.44526 6
      vertex 31 0 0
      vertex 31 0 6
    endloop
  endfacet
  facet normal 0.994522 -0.104525 0
    outer loop
      vertex 31 0 0
      vertex 30.3226 -6.44526 6
      vertex 30.3226 -6.44526 0
    endloop
  endfacet
  facet normal 0 0 -1
    outer loop
      vertex 24.5 0 6
      vertex 29.75 0 6
      vertex 29.0999 -6.18537 6
    endloop
  endfacet
  facet normal 0 0 -1
    outer loop
      vertex 23.9646 -5.09384 6
      vertex 29.0999 -6.18537 6
      vertex 27.178 -12.1004 6
    endloop
  endfacet
  facet normal 0 0 -1
    outer loop
      vertex 29.75 0 6
      vertex 24.5 0 6
      vertex 29.0999 6.18537 6
    endloop
  endfacet
  facet normal 0 0 -1
    outer loop
      vertex 23.9646 5.09384 6
      vertex 29.0999 6.18537 6
      vertex 24.5 0 6
    endloop
  endfacet
  facet normal 0 0 -1
    outer loop
      vertex 22.3819 -9.96505 6
      vertex 27.178 -12.1004 6
      vertex 24.0683 -17.4866 6
    endloop
  endfacet
  facet normal 0 0 -1
    outer loop
      vertex 29.0999 -6.18537 6
      vertex 23.9646 -5.09384 6
      vertex 24.5 0 6
    endloop
  endfacet
  facet normal 0 0 -1
    outer loop
      vertex 27.178 -12.1004 6
      vertex 22.3819 -9.96505 6
      vertex 23.9646 -5.09384 6
    endloop
  endfacet
  facet normal 0 0 -1
    outer loop
      vertex 19.8209 -14.4007 6
      vertex 24.0683 -17.4866 6
      vertex 19.9066 -22.1086 6
    endloop
  endfacet
  facet normal 0 0 -1
    outer loop
      vertex 24.0683 -17.4866 6
      vertex 19.8209 -14.4007 6
      vertex 22.3819 -9.96505 6
    endloop
  endfacet
  facet normal 0 0 -1
    outer loop
      vertex 19.9066 -22.1086 6
      vertex 16.3937 -18.207 6
      vertex 19.8209 -14.4007 6
    endloop
  endfacet
  facet normal 0 0 -1
    outer loop
      vertex 14.875 -25.7643 6
      vertex 16.3937 -18.207 6
      vertex 19.9066 -22.1086 6
    endloop
  endfacet
  facet normal 0 0 -1
    outer loop
      vertex 14.875 -25.7643 6
      vertex 12.25 -21.2176 6
      vertex 16.3937 -18.207 6
    endloop
  endfacet
  facet normal 0 0 -1
    outer loop
      vertex 9.19326 -28.2939 6
      vertex 12.25 -21.2176 6
      vertex 14.875 -25.7643 6
    endloop
  endfacet
  facet normal 0 0 -1
    outer loop
      vertex 9.19326 -28.2939 6
      vertex 7.57092 -23.3009 6
      vertex 12.25 -21.2176 6
    endloop
  endfacet
  facet normal 0 0 -1
    outer loop
      vertex 3.10972 -29.587 6
      vertex 7.57092 -23.3009 6
      vertex 9.19326 -28.2939 6
    endloop
  endfacet
  facet normal 0 0 -1
    outer loop
      vertex 3.10972 -29.587 6
      vertex 2.56095 -24.3658 6
      vertex 7.57092 -23.3009 6
    endloop
  endfacet
  facet normal 0 0 -1
    outer loop
      vertex 3.10972 -29.587 6
      vertex -2.56095 -24.3658 6
      vertex 2.56095 -24.3658 6
    endloop
  endfacet
  facet normal 0 0 -1
    outer loop
      vertex -3.10972 -29.587 6
      vertex -2.56095 -24.3658 6
      vertex 3.10972 -29.587 6
    endloop
  endfacet
  facet normal 0 0 -1
    outer loop
      vertex -3.10972 -29.587 6
      vertex -7.57092 -23.3009 6
      vertex -2.56095 -24.3658 6
    endloop
  endfacet
  facet normal 0 0 -1
    outer loop
      vertex -9.19326 -28.2939 6
      vertex -7.57092 -23.3009 6
      vertex -3.10972 -29.587 6
    endloop
  endfacet
  facet normal 0 0 -1
    outer loop
      vertex -9.19326 -28.2939 6
      vertex -12.25 -21.2176 6
      vertex -7.57092 -23.3009 6
    endloop
  endfacet
  facet normal 0 0 -1
    outer loop
      vertex -14.875 -25.7643 6
      vertex -12.25 -21.2176 6
      vertex -9.19326 -28.2939 6
    endloop
  endfacet
  facet normal 0 0 -1
    outer loop
      vertex -14.875 -25.7643 6
      vertex -16.3937 -18.207 6
      vertex -12.25 -21.2176 6
    endloop
  endfacet
  facet normal 0 0 -1
    outer loop
      vertex -19.9066 -22.1086 6
      vertex -16.3937 -18.207 6
      vertex -14.875 -25.7643 6
    endloop
  endfacet
  facet normal -0 0 -1
    outer loop
      vertex -16.3937 -18.207 6
      vertex -19.9066 -22.1086 6
      vertex -19.8209 -14.4007 6
    endloop
  endfacet
  facet normal 0 0 -1
    outer loop
      vertex -24.0683 -17.4866 6
      vertex -19.8209 -14.4007 6
      vertex -19.9066 -22.1086 6
    endloop
  endfacet
  facet normal -0 0 -1
    outer loop
      vertex -19.8209 -14.4007 6
      vertex -24.0683 -17.4866 6
      vertex -22.3819 -9.96505 6
    endloop
  endfacet
  facet normal 0 0 -1
    outer loop
      vertex -27.178 -12.1004 6
      vertex -22.3819 -9.96505 6
      vertex -24.0683 -17.4866 6
    endloop
  endfacet
  facet normal -0 0 -1
    outer loop
      vertex -22.3819 -9.96505 6
      vertex -27.178 -12.1004 6
      vertex -23.9646 -5.09384 6
    endloop
  endfacet
  facet normal 0 0 -1
    outer loop
      vertex -29.0999 -6.18537 6
      vertex -23.9646 -5.09384 6
      vertex -27.178 -12.1004 6
    endloop
  endfacet
  facet normal -0 0 -1
    outer loop
      vertex 29.0999 6.18537 6
      vertex 23.9646 5.09384 6
      vertex 27.178 12.1004 6
    endloop
  endfacet
  facet normal 0 0 -1
    outer loop
      vertex 22.3819 9.96505 6
      vertex 27.178 12.1004 6
      vertex 23.9646 5.09384 6
    endloop
  endfacet
  facet normal -0 0 -1
    outer loop
      vertex 27.178 12.1004 6
      vertex 22.3819 9.96505 6
      vertex 24.0683 17.4866 6
    endloop
  endfacet
  facet normal 0 0 -1
    outer loop
      vertex 19.8209 14.4007 6
      vertex 24.0683 17.4866 6
      vertex 22.3819 9.96505 6
    endloop
  endfacet
  facet normal -0 0 -1
    outer loop
      vertex 24.0683 17.4866 6
      vertex 19.8209 14.4007 6
      vertex 19.9066 22.1086 6
    endloop
  endfacet
  facet normal 0 0 -1
    outer loop
      vertex 16.3937 18.207 6
      vertex 19.9066 22.1086 6
      vertex 19.8209 14.4007 6
    endloop
  endfacet
  facet normal 0 0 -1
    outer loop
      vertex 16.3937 18.207 6
      vertex 14.875 25.7643 6
      vertex 19.9066 22.1086 6
    endloop
  endfacet
  facet normal 0 0 -1
    outer loop
      vertex 12.25 21.2176 6
      vertex 14.875 25.7643 6
      vertex 16.3937 18.207 6
    endloop
  endfacet
  facet normal 0 0 -1
    outer loop
      vertex 12.25 21.2176 6
      vertex 9.19326 28.2939 6
      vertex 14.875 25.7643 6
    endloop
  endfacet
  facet normal 0 0 -1
    outer loop
      vertex 7.57092 23.3009 6
      vertex 9.19326 28.2939 6
      vertex 12.25 21.2176 6
    endloop
  endfacet
  facet normal 0 0 -1
    outer loop
      vertex 7.57092 23.3009 6
      vertex 3.10972 29.587 6
      vertex 9.19326 28.2939 6
    endloop
  endfacet
  facet normal 0 0 -1
    outer loop
      vertex 2.56095 24.3658 6
      vertex 3.10972 29.587 6
      vertex 7.57092 23.3009 6
    endloop
  endfacet
  facet normal 0 0 -1
    outer loop
      vertex -2.56095 24.3658 6
      vertex 3.10972 29.587 6
      vertex 2.56095 24.3658 6
    endloop
  endfacet
  facet normal 0 0 -1
    outer loop
      vertex -2.56095 24.3658 6
      vertex -3.10972 29.587 6
      vertex 3.10972 29.587 6
    endloop
  endfacet
  facet normal 0 0 -1
    outer loop
      vertex -7.57092 23.3009 6
      vertex -3.10972 29.587 6
      vertex -2.56095 24.3658 6
    endloop
  endfacet
  facet normal 0 0 -1
    outer loop
      vertex -7.57092 23.3009 6
      vertex -9.19326 28.2939 6
      vertex -3.10972 29.587 6
    endloop
  endfacet
  facet normal 0 0 -1
    outer loop
      vertex -12.25 21.2176 6
      vertex -9.19326 28.2939 6
      vertex -7.57092 23.3009 6
    endloop
  endfacet
  facet normal 0 0 -1
    outer loop
      vertex -12.25 21.2176 6
      vertex -14.875 25.7643 6
      vertex -9.19326 28.2939 6
    endloop
  endfacet
  facet normal 0 0 -1
    outer loop
      vertex -16.3937 18.207 6
      vertex -14.875 25.7643 6
      vertex -12.25 21.2176 6
    endloop
  endfacet
  facet normal 0 0 -1
    outer loop
      vertex -19.9066 22.1086 6
      vertex -16.3937 18.207 6
      vertex -19.8209 14.4007 6
    endloop
  endfacet
  facet normal 0 0 -1
    outer loop
      vertex -16.3937 18.207 6
      vertex -19.9066 22.1086 6
      vertex -14.875 25.7643 6
    endloop
  endfacet
  facet normal 0 0 -1
    outer loop
      vertex -24.0683 17.4866 6
      vertex -19.8209 14.4007 6
      vertex -22.3819 9.96505 6
    endloop
  endfacet
  facet normal 0 0 -1
    outer loop
      vertex -27.178 12.1004 6
      vertex -22.3819 9.96505 6
      vertex -23.9646 5.09384 6
    endloop
  endfacet
  facet normal 0 0 -1
    outer loop
      vertex -19.8209 14.4007 6
      vertex -24.0683 17.4866 6
      vertex -19.9066 22.1086 6
    endloop
  endfacet
  facet normal 0 0 -1
    outer loop
      vertex -29.0999 6.18537 6
      vertex -23.9646 5.09384 6
      vertex -24.5 0 6
    endloop
  endfacet
  facet normal -0 0 -1
    outer loop
      vertex -23.9646 -5.09384 6
      vertex -29.0999 -6.18537 6
      vertex -24.5 0 6
    endloop
  endfacet
  facet normal 0 0 -1
    outer loop
      vertex -22.3819 9.96505 6
      vertex -27.178 12.1004 6
      vertex -24.0683 17.4866 6
    endloop
  endfacet
  facet normal 0 0 -1
    outer loop
      vertex -29.75 0 6
      vertex -24.5 0 6
      vertex -29.0999 -6.18537 6
    endloop
  endfacet
  facet normal 0 0 -1
    outer loop
      vertex -23.9646 5.09384 6
      vertex -29.0999 6.18537 6
      vertex -27.178 12.1004 6
    endloop
  endfacet
  facet normal 0 0 -1
    outer loop
      vertex -24.5 0 6
      vertex -29.75 0 6
      vertex -29.0999 6.18537 6
    endloop
  endfacet
  facet normal 0.587789 -0.809014 0
    outer loop
      vertex 15.5 -26.8468 0
      vertex 20.743 -23.0375 6
      vertex 15.5 -26.8468 6
    endloop
  endfacet
  facet normal 0.587789 -0.809014 0
    outer loop
      vertex 20.743 -23.0375 6
      vertex 15.5 -26.8468 0
      vertex 20.743 -23.0375 0
    endloop
  endfacet
  facet normal -0.866024 -0.500003 0
    outer loop
      vertex -25.0795 -18.2213 0
      vertex -28.3199 -12.6088 6
      vertex -28.3199 -12.6088 0
    endloop
  endfacet
  facet normal -0.866024 -0.500003 0
    outer loop
      vertex -28.3199 -12.6088 6
      vertex -25.0795 -18.2213 0
      vertex -25.0795 -18.2213 6
    endloop
  endfacet
  facet normal -0.994522 0.104525 0
    outer loop
      vertex -31 0 0
      vertex -30.3226 6.44526 6
      vertex -30.3226 6.44526 0
    endloop
  endfacet
  facet normal -0.994522 0.104525 0
    outer loop
      vertex -30.3226 6.44526 6
      vertex -31 0 0
      vertex -31 0 6
    endloop
  endfacet
  facet normal 0.951055 -0.309023 0
    outer loop
      vertex 28.3199 -12.6088 6
      vertex 30.3226 -6.44526 0
      vertex 30.3226 -6.44526 6
    endloop
  endfacet
  facet normal 0.951055 -0.309023 0
    outer loop
      vertex 30.3226 -6.44526 0
      vertex 28.3199 -12.6088 6
      vertex 28.3199 -12.6088 0
    endloop
  endfacet
  facet normal 0 1 -0
    outer loop
      vertex 3.24038 30.8302 0
      vertex -3.24038 30.8302 6
      vertex 3.24038 30.8302 6
    endloop
  endfacet
  facet normal 0 1 0
    outer loop
      vertex -3.24038 30.8302 6
      vertex 3.24038 30.8302 0
      vertex -3.24038 30.8302 0
    endloop
  endfacet
  facet normal -0.743147 0.669128 0
    outer loop
      vertex -25.0795 18.2213 0
      vertex -20.743 23.0375 6
      vertex -20.743 23.0375 0
    endloop
  endfacet
  facet normal -0.743147 0.669128 0
    outer loop
      vertex -20.743 23.0375 6
      vertex -25.0795 18.2213 0
      vertex -25.0795 18.2213 6
    endloop
  endfacet
  facet normal 0.406741 -0.913543 0
    outer loop
      vertex 9.57953 -29.4828 0
      vertex 15.5 -26.8468 6
      vertex 9.57953 -29.4828 6
    endloop
  endfacet
  facet normal 0.406741 -0.913543 0
    outer loop
      vertex 15.5 -26.8468 6
      vertex 9.57953 -29.4828 0
      vertex 15.5 -26.8468 0
    endloop
  endfacet
  facet normal -0.207908 0.978148 0
    outer loop
      vertex -3.24038 30.8302 0
      vertex -9.57953 29.4828 6
      vertex -3.24038 30.8302 6
    endloop
  endfacet
  facet normal -0.207908 0.978148 0
    outer loop
      vertex -9.57953 29.4828 6
      vertex -3.24038 30.8302 0
      vertex -9.57953 29.4828 0
    endloop
  endfacet
  facet normal 0.866024 -0.500003 0
    outer loop
      vertex 25.0795 -18.2213 6
      vertex 28.3199 -12.6088 0
      vertex 28.3199 -12.6088 6
    endloop
  endfacet
  facet normal 0.866024 -0.500003 0
    outer loop
      vertex 28.3199 -12.6088 0
      vertex 25.0795 -18.2213 6
      vertex 25.0795 -18.2213 0
    endloop
  endfacet
  facet normal 0.207908 0.978148 -0
    outer loop
      vertex 9.57953 29.4828 0
      vertex 3.24038 30.8302 6
      vertex 9.57953 29.4828 6
    endloop
  endfacet
  facet normal 0.207908 0.978148 0
    outer loop
      vertex 3.24038 30.8302 6
      vertex 9.57953 29.4828 0
      vertex 3.24038 30.8302 0
    endloop
  endfacet
  facet normal -0.207908 -0.978148 0
    outer loop
      vertex -9.57953 -29.4828 0
      vertex -3.24038 -30.8302 6
      vertex -9.57953 -29.4828 6
    endloop
  endfacet
  facet normal -0.207908 -0.978148 -0
    outer loop
      vertex -3.24038 -30.8302 6
      vertex -9.57953 -29.4828 0
      vertex -3.24038 -30.8302 0
    endloop
  endfacet
  facet normal 0.587789 0.809014 -0
    outer loop
      vertex 20.743 23.0375 0
      vertex 15.5 26.8468 6
      vertex 20.743 23.0375 6
    endloop
  endfacet
  facet normal 0.587789 0.809014 0
    outer loop
      vertex 15.5 26.8468 6
      vertex 20.743 23.0375 0
      vertex 15.5 26.8468 0
    endloop
  endfacet
  facet normal -0.743147 -0.669128 0
    outer loop
      vertex -20.743 -23.0375 0
      vertex -25.0795 -18.2213 6
      vertex -25.0795 -18.2213 0
    endloop
  endfacet
  facet normal -0.743147 -0.669128 0
    outer loop
      vertex -25.0795 -18.2213 6
      vertex -20.743 -23.0375 0
      vertex -20.743 -23.0375 6
    endloop
  endfacet
  facet normal -0.994522 -0.104525 0
    outer loop
      vertex -30.3226 -6.44526 0
      vertex -31 0 6
      vertex -31 0 0
    endloop
  endfacet
  facet normal -0.994522 -0.104525 0
    outer loop
      vertex -31 0 6
      vertex -30.3226 -6.44526 0
      vertex -30.3226 -6.44526 6
    endloop
  endfacet
  facet normal -0.406741 -0.913543 0
    outer loop
      vertex -15.5 -26.8468 0
      vertex -9.57953 -29.4828 6
      vertex -15.5 -26.8468 6
    endloop
  endfacet
  facet normal -0.406741 -0.913543 -0
    outer loop
      vertex -9.57953 -29.4828 6
      vertex -15.5 -26.8468 0
      vertex -9.57953 -29.4828 0
    endloop
  endfacet
  facet normal 0 -1 0
    outer loop
      vertex -3.24038 -30.8302 0
      vertex 3.24038 -30.8302 6
      vertex -3.24038 -30.8302 6
    endloop
  endfacet
  facet normal 0 -1 -0
    outer loop
      vertex 3.24038 -30.8302 6
      vertex -3.24038 -30.8302 0
      vertex 3.24038 -30.8302 0
    endloop
  endfacet
  facet normal -0.866024 0.500003 0
    outer loop
      vertex -28.3199 12.6088 0
      vertex -25.0795 18.2213 6
      vertex -25.0795 18.2213 0
    endloop
  endfacet
  facet normal -0.866024 0.500003 0
    outer loop
      vertex -25.0795 18.2213 6
      vertex -28.3199 12.6088 0
      vertex -28.3199 12.6088 6
    endloop
  endfacet
  facet normal -0.951055 0.309023 0
    outer loop
      vertex -30.3226 6.44526 0
      vertex -28.3199 12.6088 6
      vertex -28.3199 12.6088 0
    endloop
  endfacet
  facet normal -0.951055 0.309023 0
    outer loop
      vertex -28.3199 12.6088 6
      vertex -30.3226 6.44526 0
      vertex -30.3226 6.44526 6
    endloop
  endfacet
  facet normal -0.951057 -0.309016 0
    outer loop
      vertex 29.0999 6.18537 0
      vertex 27.178 12.1004 6
      vertex 27.178 12.1004 0
    endloop
  endfacet
  facet normal -0.951057 -0.309016 0
    outer loop
      vertex 27.178 12.1004 6
      vertex 29.0999 6.18537 0
      vertex 29.0999 6.18537 6
    endloop
  endfacet
  facet normal -0.994522 -0.104527 0
    outer loop
      vertex 29.75 0 0
      vertex 29.0999 6.18537 6
      vertex 29.0999 6.18537 0
    endloop
  endfacet
  facet normal -0.994522 -0.104527 0
    outer loop
      vertex 29.0999 6.18537 6
      vertex 29.75 0 0
      vertex 29.75 0 6
    endloop
  endfacet
  facet normal -0.866027 -0.499997 0
    outer loop
      vertex 27.178 12.1004 0
      vertex 24.0683 17.4866 6
      vertex 24.0683 17.4866 0
    endloop
  endfacet
  facet normal -0.866027 -0.499997 0
    outer loop
      vertex 24.0683 17.4866 6
      vertex 27.178 12.1004 0
      vertex 27.178 12.1004 6
    endloop
  endfacet
  facet normal -0.406727 0.91355 0
    outer loop
      vertex 14.875 -25.7643 0
      vertex 9.19326 -28.2939 6
      vertex 14.875 -25.7643 6
    endloop
  endfacet
  facet normal -0.406727 0.91355 0
    outer loop
      vertex 9.19326 -28.2939 6
      vertex 14.875 -25.7643 0
      vertex 9.19326 -28.2939 0
    endloop
  endfacet
  facet normal 0.207912 -0.978147 0
    outer loop
      vertex -9.19326 28.2939 0
      vertex -3.10972 29.587 6
      vertex -9.19326 28.2939 6
    endloop
  endfacet
  facet normal 0.207912 -0.978147 0
    outer loop
      vertex -3.10972 29.587 6
      vertex -9.19326 28.2939 0
      vertex -3.10972 29.587 0
    endloop
  endfacet
  facet normal -0.406727 -0.91355 0
    outer loop
      vertex 9.19326 28.2939 0
      vertex 14.875 25.7643 6
      vertex 9.19326 28.2939 6
    endloop
  endfacet
  facet normal -0.406727 -0.91355 -0
    outer loop
      vertex 14.875 25.7643 6
      vertex 9.19326 28.2939 0
      vertex 14.875 25.7643 0
    endloop
  endfacet
  facet normal -0.994522 0.104527 0
    outer loop
      vertex 29.0999 -6.18537 0
      vertex 29.75 0 6
      vertex 29.75 0 0
    endloop
  endfacet
  facet normal -0.994522 0.104527 0
    outer loop
      vertex 29.75 0 6
      vertex 29.0999 -6.18537 0
      vertex 29.0999 -6.18537 6
    endloop
  endfacet
  facet normal 0.866027 0.499997 0
    outer loop
      vertex -24.0683 -17.4866 6
      vertex -27.178 -12.1004 0
      vertex -27.178 -12.1004 6
    endloop
  endfacet
  facet normal 0.866027 0.499997 0
    outer loop
      vertex -27.178 -12.1004 0
      vertex -24.0683 -17.4866 6
      vertex -24.0683 -17.4866 0
    endloop
  endfacet
  facet normal -0.743142 -0.669133 0
    outer loop
      vertex 24.0683 17.4866 0
      vertex 19.9066 22.1086 6
      vertex 19.9066 22.1086 0
    endloop
  endfacet
  facet normal -0.743142 -0.669133 0
    outer loop
      vertex 19.9066 22.1086 6
      vertex 24.0683 17.4866 0
      vertex 24.0683 17.4866 6
    endloop
  endfacet
  facet normal 0.866027 -0.499997 0
    outer loop
      vertex -27.178 12.1004 6
      vertex -24.0683 17.4866 0
      vertex -24.0683 17.4866 6
    endloop
  endfacet
  facet normal 0.866027 -0.499997 0
    outer loop
      vertex -24.0683 17.4866 0
      vertex -27.178 12.1004 6
      vertex -27.178 12.1004 0
    endloop
  endfacet
  facet normal 0.743142 -0.669133 0
    outer loop
      vertex -24.0683 17.4866 6
      vertex -19.9066 22.1086 0
      vertex -19.9066 22.1086 6
    endloop
  endfacet
  facet normal 0.743142 -0.669133 0
    outer loop
      vertex -19.9066 22.1086 0
      vertex -24.0683 17.4866 6
      vertex -24.0683 17.4866 0
    endloop
  endfacet
  facet normal 0.994522 -0.104527 0
    outer loop
      vertex -29.75 0 6
      vertex -29.0999 6.18537 0
      vertex -29.0999 6.18537 6
    endloop
  endfacet
  facet normal 0.994522 -0.104527 0
    outer loop
      vertex -29.0999 6.18537 0
      vertex -29.75 0 6
      vertex -29.75 0 0
    endloop
  endfacet
  facet normal -0.587788 0.809015 0
    outer loop
      vertex 19.9066 -22.1086 0
      vertex 14.875 -25.7643 6
      vertex 19.9066 -22.1086 6
    endloop
  endfacet
  facet normal -0.587788 0.809015 0
    outer loop
      vertex 14.875 -25.7643 6
      vertex 19.9066 -22.1086 0
      vertex 14.875 -25.7643 0
    endloop
  endfacet
  facet normal 0.587788 -0.809015 0
    outer loop
      vertex -19.9066 22.1086 0
      vertex -14.875 25.7643 6
      vertex -19.9066 22.1086 6
    endloop
  endfacet
  facet normal 0.587788 -0.809015 0
    outer loop
      vertex -14.875 25.7643 6
      vertex -19.9066 22.1086 0
      vertex -14.875 25.7643 0
    endloop
  endfacet
  facet normal 0 -1 0
    outer loop
      vertex -3.10972 29.587 0
      vertex 3.10972 29.587 6
      vertex -3.10972 29.587 6
    endloop
  endfacet
  facet normal 0 -1 -0
    outer loop
      vertex 3.10972 29.587 6
      vertex -3.10972 29.587 0
      vertex 3.10972 29.587 0
    endloop
  endfacet
  facet normal 0.406727 0.91355 -0
    outer loop
      vertex -9.19326 -28.2939 0
      vertex -14.875 -25.7643 6
      vertex -9.19326 -28.2939 6
    endloop
  endfacet
  facet normal 0.406727 0.91355 0
    outer loop
      vertex -14.875 -25.7643 6
      vertex -9.19326 -28.2939 0
      vertex -14.875 -25.7643 0
    endloop
  endfacet
  facet normal -0.743142 0.669133 0
    outer loop
      vertex 19.9066 -22.1086 0
      vertex 24.0683 -17.4866 6
      vertex 24.0683 -17.4866 0
    endloop
  endfacet
  facet normal -0.743142 0.669133 0
    outer loop
      vertex 24.0683 -17.4866 6
      vertex 19.9066 -22.1086 0
      vertex 19.9066 -22.1086 6
    endloop
  endfacet
  facet normal 0.951057 -0.309016 0
    outer loop
      vertex -29.0999 6.18537 6
      vertex -27.178 12.1004 0
      vertex -27.178 12.1004 6
    endloop
  endfacet
  facet normal 0.951057 -0.309016 0
    outer loop
      vertex -27.178 12.1004 0
      vertex -29.0999 6.18537 6
      vertex -29.0999 6.18537 0
    endloop
  endfacet
  facet normal 0.743142 0.669133 0
    outer loop
      vertex -19.9066 -22.1086 6
      vertex -24.0683 -17.4866 0
      vertex -24.0683 -17.4866 6
    endloop
  endfacet
  facet normal 0.743142 0.669133 0
    outer loop
      vertex -24.0683 -17.4866 0
      vertex -19.9066 -22.1086 6
      vertex -19.9066 -22.1086 0
    endloop
  endfacet
  facet normal -0.866027 0.499997 0
    outer loop
      vertex 24.0683 -17.4866 0
      vertex 27.178 -12.1004 6
      vertex 27.178 -12.1004 0
    endloop
  endfacet
  facet normal -0.866027 0.499997 0
    outer loop
      vertex 27.178 -12.1004 6
      vertex 24.0683 -17.4866 0
      vertex 24.0683 -17.4866 6
    endloop
  endfacet
  facet normal -0.207912 -0.978147 0
    outer loop
      vertex 3.10972 29.587 0
      vertex 9.19326 28.2939 6
      vertex 3.10972 29.587 6
    endloop
  endfacet
  facet normal -0.207912 -0.978147 -0
    outer loop
      vertex 9.19326 28.2939 6
      vertex 3.10972 29.587 0
      vertex 9.19326 28.2939 0
    endloop
  endfacet
  facet normal -0.587788 -0.809015 0
    outer loop
      vertex 14.875 25.7643 0
      vertex 19.9066 22.1086 6
      vertex 14.875 25.7643 6
    endloop
  endfacet
  facet normal -0.587788 -0.809015 -0
    outer loop
      vertex 19.9066 22.1086 6
      vertex 14.875 25.7643 0
      vertex 19.9066 22.1086 0
    endloop
  endfacet
  facet normal 0.994522 0.104527 0
    outer loop
      vertex -29.0999 -6.18537 6
      vertex -29.75 0 0
      vertex -29.75 0 6
    endloop
  endfacet
  facet normal 0.994522 0.104527 0
    outer loop
      vertex -29.75 0 0
      vertex -29.0999 -6.18537 6
      vertex -29.0999 -6.18537 0
    endloop
  endfacet
  facet normal 0.406727 -0.91355 0
    outer loop
      vertex -14.875 25.7643 0
      vertex -9.19326 28.2939 6
      vertex -14.875 25.7643 6
    endloop
  endfacet
  facet normal 0.406727 -0.91355 0
    outer loop
      vertex -9.19326 28.2939 6
      vertex -14.875 25.7643 0
      vertex -9.19326 28.2939 0
    endloop
  endfacet
  facet normal 0 1 -0
    outer loop
      vertex 3.10972 -29.587 0
      vertex -3.10972 -29.587 6
      vertex 3.10972 -29.587 6
    endloop
  endfacet
  facet normal 0 1 0
    outer loop
      vertex -3.10972 -29.587 6
      vertex 3.10972 -29.587 0
      vertex -3.10972 -29.587 0
    endloop
  endfacet
  facet normal 0.951057 0.309016 0
    outer loop
      vertex -27.178 -12.1004 6
      vertex -29.0999 -6.18537 0
      vertex -29.0999 -6.18537 6
    endloop
  endfacet
  facet normal 0.951057 0.309016 0
    outer loop
      vertex -29.0999 -6.18537 0
      vertex -27.178 -12.1004 6
      vertex -27.178 -12.1004 0
    endloop
  endfacet
  facet normal -0.951057 0.309016 0
    outer loop
      vertex 27.178 -12.1004 0
      vertex 29.0999 -6.18537 6
      vertex 29.0999 -6.18537 0
    endloop
  endfacet
  facet normal -0.951057 0.309016 0
    outer loop
      vertex 29.0999 -6.18537 6
      vertex 27.178 -12.1004 0
      vertex 27.178 -12.1004 6
    endloop
  endfacet
  facet normal 0.587788 0.809015 -0
    outer loop
      vertex -14.875 -25.7643 0
      vertex -19.9066 -22.1086 6
      vertex -14.875 -25.7643 6
    endloop
  endfacet
  facet normal 0.587788 0.809015 0
    outer loop
      vertex -19.9066 -22.1086 6
      vertex -14.875 -25.7643 0
      vertex -19.9066 -22.1086 0
    endloop
  endfacet
  facet normal -0.207912 0.978147 0
    outer loop
      vertex 9.19326 -28.2939 0
      vertex 3.10972 -29.587 6
      vertex 9.19326 -28.2939 6
    endloop
  endfacet
  facet normal -0.207912 0.978147 0
    outer loop
      vertex 3.10972 -29.587 6
      vertex 9.19326 -28.2939 0
      vertex 3.10972 -29.587 0
    endloop
  endfacet
  facet normal 0.207912 0.978147 -0
    outer loop
      vertex -3.10972 -29.587 0
      vertex -9.19326 -28.2939 6
      vertex -3.10972 -29.587 6
    endloop
  endfacet
  facet normal 0.207912 0.978147 0
    outer loop
      vertex -9.19326 -28.2939 6
      vertex -3.10972 -29.587 0
      vertex -9.19326 -28.2939 0
    endloop
  endfacet
  facet normal 0.95106 0.309008 0
    outer loop
      vertex 23.9646 5.09384 6
      vertex 22.3819 9.96505 0
      vertex 22.3819 9.96505 6
    endloop
  endfacet
  facet normal 0.95106 0.309008 0
    outer loop
      vertex 22.3819 9.96505 0
      vertex 23.9646 5.09384 6
      vertex 23.9646 5.09384 0
    endloop
  endfacet
  facet normal 0.994522 0.104532 0
    outer loop
      vertex 24.5 0 6
      vertex 23.9646 5.09384 0
      vertex 23.9646 5.09384 6
    endloop
  endfacet
  facet normal 0.994522 0.104532 0
    outer loop
      vertex 23.9646 5.09384 0
      vertex 24.5 0 6
      vertex 24.5 0 0
    endloop
  endfacet
  facet normal 0.866019 0.500011 0
    outer loop
      vertex 22.3819 9.96505 6
      vertex 19.8209 14.4007 0
      vertex 19.8209 14.4007 6
    endloop
  endfacet
  facet normal 0.866019 0.500011 0
    outer loop
      vertex 19.8209 14.4007 0
      vertex 22.3819 9.96505 6
      vertex 22.3819 9.96505 0
    endloop
  endfacet
  facet normal -0.406743 0.913543 0
    outer loop
      vertex -7.57092 23.3009 0
      vertex -12.25 21.2176 6
      vertex -7.57092 23.3009 6
    endloop
  endfacet
  facet normal -0.406743 0.913543 0
    outer loop
      vertex -12.25 21.2176 6
      vertex -7.57092 23.3009 0
      vertex -12.25 21.2176 0
    endloop
  endfacet
  facet normal 0.406743 0.913543 -0
    outer loop
      vertex 12.25 21.2176 0
      vertex 7.57092 23.3009 6
      vertex 12.25 21.2176 6
    endloop
  endfacet
  facet normal 0.406743 0.913543 0
    outer loop
      vertex 7.57092 23.3009 6
      vertex 12.25 21.2176 0
      vertex 7.57092 23.3009 0
    endloop
  endfacet
  facet normal 0.994522 -0.104532 0
    outer loop
      vertex 23.9646 -5.09384 6
      vertex 24.5 0 0
      vertex 24.5 0 6
    endloop
  endfacet
  facet normal 0.994522 -0.104532 0
    outer loop
      vertex 24.5 0 0
      vertex 23.9646 -5.09384 6
      vertex 23.9646 -5.09384 0
    endloop
  endfacet
  facet normal -0.743146 0.66913 0
    outer loop
      vertex -19.8209 14.4007 0
      vertex -16.3937 18.207 6
      vertex -16.3937 18.207 0
    endloop
  endfacet
  facet normal -0.743146 0.66913 0
    outer loop
      vertex -16.3937 18.207 6
      vertex -19.8209 14.4007 0
      vertex -19.8209 14.4007 6
    endloop
  endfacet
  facet normal -0.587789 0.809015 0
    outer loop
      vertex -12.25 21.2176 0
      vertex -16.3937 18.207 6
      vertex -12.25 21.2176 6
    endloop
  endfacet
  facet normal -0.587789 0.809015 0
    outer loop
      vertex -16.3937 18.207 6
      vertex -12.25 21.2176 0
      vertex -16.3937 18.207 0
    endloop
  endfacet
  facet normal 0.743146 0.66913 0
    outer loop
      vertex 19.8209 14.4007 6
      vertex 16.3937 18.207 0
      vertex 16.3937 18.207 6
    endloop
  endfacet
  facet normal 0.743146 0.66913 0
    outer loop
      vertex 16.3937 18.207 0
      vertex 19.8209 14.4007 6
      vertex 19.8209 14.4007 0
    endloop
  endfacet
  facet normal 0 -1 0
    outer loop
      vertex -2.56095 -24.3658 0
      vertex 2.56095 -24.3658 6
      vertex -2.56095 -24.3658 6
    endloop
  endfacet
  facet normal 0 -1 -0
    outer loop
      vertex 2.56095 -24.3658 6
      vertex -2.56095 -24.3658 0
      vertex 2.56095 -24.3658 0
    endloop
  endfacet
  facet normal 0.95106 -0.309008 0
    outer loop
      vertex 22.3819 -9.96505 6
      vertex 23.9646 -5.09384 0
      vertex 23.9646 -5.09384 6
    endloop
  endfacet
  facet normal 0.95106 -0.309008 0
    outer loop
      vertex 23.9646 -5.09384 0
      vertex 22.3819 -9.96505 6
      vertex 22.3819 -9.96505 0
    endloop
  endfacet
  facet normal -0.406743 -0.913543 0
    outer loop
      vertex -12.25 -21.2176 0
      vertex -7.57092 -23.3009 6
      vertex -12.25 -21.2176 6
    endloop
  endfacet
  facet normal -0.406743 -0.913543 -0
    outer loop
      vertex -7.57092 -23.3009 6
      vertex -12.25 -21.2176 0
      vertex -7.57092 -23.3009 0
    endloop
  endfacet
  facet normal -0.866019 -0.500011 0
    outer loop
      vertex -19.8209 -14.4007 0
      vertex -22.3819 -9.96505 6
      vertex -22.3819 -9.96505 0
    endloop
  endfacet
  facet normal -0.866019 -0.500011 0
    outer loop
      vertex -22.3819 -9.96505 6
      vertex -19.8209 -14.4007 0
      vertex -19.8209 -14.4007 6
    endloop
  endfacet
  facet normal -0.95106 0.309008 0
    outer loop
      vertex -23.9646 5.09384 0
      vertex -22.3819 9.96505 6
      vertex -22.3819 9.96505 0
    endloop
  endfacet
  facet normal -0.95106 0.309008 0
    outer loop
      vertex -22.3819 9.96505 6
      vertex -23.9646 5.09384 0
      vertex -23.9646 5.09384 6
    endloop
  endfacet
  facet normal -0.207911 -0.978148 0
    outer loop
      vertex -7.57092 -23.3009 0
      vertex -2.56095 -24.3658 6
      vertex -7.57092 -23.3009 6
    endloop
  endfacet
  facet normal -0.207911 -0.978148 -0
    outer loop
      vertex -2.56095 -24.3658 6
      vertex -7.57092 -23.3009 0
      vertex -2.56095 -24.3658 0
    endloop
  endfacet
  facet normal -0.95106 -0.309008 0
    outer loop
      vertex -22.3819 -9.96505 0
      vertex -23.9646 -5.09384 6
      vertex -23.9646 -5.09384 0
    endloop
  endfacet
  facet normal -0.95106 -0.309008 0
    outer loop
      vertex -23.9646 -5.09384 6
      vertex -22.3819 -9.96505 0
      vertex -22.3819 -9.96505 6
    endloop
  endfacet
  facet normal -0.994522 0.104532 0
    outer loop
      vertex -24.5 0 0
      vertex -23.9646 5.09384 6
      vertex -23.9646 5.09384 0
    endloop
  endfacet
  facet normal -0.994522 0.104532 0
    outer loop
      vertex -23.9646 5.09384 6
      vertex -24.5 0 0
      vertex -24.5 0 6
    endloop
  endfacet
  facet normal 0 1 -0
    outer loop
      vertex 2.56095 24.3658 0
      vertex -2.56095 24.3658 6
      vertex 2.56095 24.3658 6
    endloop
  endfacet
  facet normal 0 1 0
    outer loop
      vertex -2.56095 24.3658 6
      vertex 2.56095 24.3658 0
      vertex -2.56095 24.3658 0
    endloop
  endfacet
  facet normal 0.743146 -0.66913 0
    outer loop
      vertex 16.3937 -18.207 6
      vertex 19.8209 -14.4007 0
      vertex 19.8209 -14.4007 6
    endloop
  endfacet
  facet normal 0.743146 -0.66913 0
    outer loop
      vertex 19.8209 -14.4007 0
      vertex 16.3937 -18.207 6
      vertex 16.3937 -18.207 0
    endloop
  endfacet
  facet normal 0.207911 -0.978148 0
    outer loop
      vertex 2.56095 -24.3658 0
      vertex 7.57092 -23.3009 6
      vertex 2.56095 -24.3658 6
    endloop
  endfacet
  facet normal 0.207911 -0.978148 0
    outer loop
      vertex 7.57092 -23.3009 6
      vertex 2.56095 -24.3658 0
      vertex 7.57092 -23.3009 0
    endloop
  endfacet
  facet normal 0.866019 -0.500011 0
    outer loop
      vertex 19.8209 -14.4007 6
      vertex 22.3819 -9.96505 0
      vertex 22.3819 -9.96505 6
    endloop
  endfacet
  facet normal 0.866019 -0.500011 0
    outer loop
      vertex 22.3819 -9.96505 0
      vertex 19.8209 -14.4007 6
      vertex 19.8209 -14.4007 0
    endloop
  endfacet
  facet normal 0.207911 0.978148 -0
    outer loop
      vertex 7.57092 23.3009 0
      vertex 2.56095 24.3658 6
      vertex 7.57092 23.3009 6
    endloop
  endfacet
  facet normal 0.207911 0.978148 0
    outer loop
      vertex 2.56095 24.3658 6
      vertex 7.57092 23.3009 0
      vertex 2.56095 24.3658 0
    endloop
  endfacet
  facet normal 0.587789 -0.809015 0
    outer loop
      vertex 12.25 -21.2176 0
      vertex 16.3937 -18.207 6
      vertex 12.25 -21.2176 6
    endloop
  endfacet
  facet normal 0.587789 -0.809015 0
    outer loop
      vertex 16.3937 -18.207 6
      vertex 12.25 -21.2176 0
      vertex 16.3937 -18.207 0
    endloop
  endfacet
  facet normal 0.587789 0.809015 -0
    outer loop
      vertex 16.3937 18.207 0
      vertex 12.25 21.2176 6
      vertex 16.3937 18.207 6
    endloop
  endfacet
  facet normal 0.587789 0.809015 0
    outer loop
      vertex 12.25 21.2176 6
      vertex 16.3937 18.207 0
      vertex 12.25 21.2176 0
    endloop
  endfacet
  facet normal -0.207911 0.978148 0
    outer loop
      vertex -2.56095 24.3658 0
      vertex -7.57092 23.3009 6
      vertex -2.56095 24.3658 6
    endloop
  endfacet
  facet normal -0.207911 0.978148 0
    outer loop
      vertex -7.57092 23.3009 6
      vertex -2.56095 24.3658 0
      vertex -7.57092 23.3009 0
    endloop
  endfacet
  facet normal -0.994522 -0.104532 0
    outer loop
      vertex -23.9646 -5.09384 0
      vertex -24.5 0 6
      vertex -24.5 0 0
    endloop
  endfacet
  facet normal -0.994522 -0.104532 0
    outer loop
      vertex -24.5 0 6
      vertex -23.9646 -5.09384 0
      vertex -23.9646 -5.09384 6
    endloop
  endfacet
  facet normal 0 0 -1
    outer loop
      vertex 23.9646 -5.09384 0
      vertex 23.9646 5.09384 0
      vertex 24.5 0 0
    endloop
  endfacet
  facet normal 0 0 -1
    outer loop
      vertex 22.3819 -9.96505 0
      vertex 23.9646 5.09384 0
      vertex 23.9646 -5.09384 0
    endloop
  endfacet
  facet normal 0 0 -1
    outer loop
      vertex 22.3819 -9.96505 0
      vertex 22.3819 9.96505 0
      vertex 23.9646 5.09384 0
    endloop
  endfacet
  facet normal 0 0 -1
    outer loop
      vertex 19.8209 -14.4007 0
      vertex 22.3819 9.96505 0
      vertex 22.3819 -9.96505 0
    endloop
  endfacet
  facet normal 0 0 -1
    outer loop
      vertex 19.8209 -14.4007 0
      vertex 19.8209 14.4007 0
      vertex 22.3819 9.96505 0
    endloop
  endfacet
  facet normal 0 0 -1
    outer loop
      vertex 16.3937 -18.207 0
      vertex 19.8209 14.4007 0
      vertex 19.8209 -14.4007 0
    endloop
  endfacet
  facet normal 0 0 -1
    outer loop
      vertex 16.3937 -18.207 0
      vertex 16.3937 18.207 0
      vertex 19.8209 14.4007 0
    endloop
  endfacet
  facet normal 0 0 -1
    outer loop
      vertex 12.25 -21.2176 0
      vertex 16.3937 18.207 0
      vertex 16.3937 -18.207 0
    endloop
  endfacet
  facet normal 0 0 -1
    outer loop
      vertex 12.25 -21.2176 0
      vertex 12.25 21.2176 0
      vertex 16.3937 18.207 0
    endloop
  endfacet
  facet normal 0 0 -1
    outer loop
      vertex 7.57092 -23.3009 0
      vertex 12.25 21.2176 0
      vertex 12.25 -21.2176 0
    endloop
  endfacet
  facet normal 0 0 -1
    outer loop
      vertex 7.57092 -23.3009 0
      vertex 7.57092 23.3009 0
      vertex 12.25 21.2176 0
    endloop
  endfacet
  facet normal 0 0 -1
    outer loop
      vertex 2.56095 -24.3658 0
      vertex 7.57092 23.3009 0
      vertex 7.57092 -23.3009 0
    endloop
  endfacet
  facet normal 0 0 -1
    outer loop
      vertex 2.56095 -24.3658 0
      vertex 2.56095 24.3658 0
      vertex 7.57092 23.3009 0
    endloop
  endfacet
  facet normal 0 0 -1
    outer loop
      vertex -2.56095 -24.3658 0
      vertex 2.56095 24.3658 0
      vertex 2.56095 -24.3658 0
    endloop
  endfacet
  facet normal 0 0 -1
    outer loop
      vertex -2.56095 -24.3658 0
      vertex -2.56095 24.3658 0
      vertex 2.56095 24.3658 0
    endloop
  endfacet
  facet normal 0 0 -1
    outer loop
      vertex -7.57092 -23.3009 0
      vertex -2.56095 24.3658 0
      vertex -2.56095 -24.3658 0
    endloop
  endfacet
  facet normal 0 0 -1
    outer loop
      vertex -7.57092 -23.3009 0
      vertex -7.57092 23.3009 0
      vertex -2.56095 24.3658 0
    endloop
  endfacet
  facet normal 0 0 -1
    outer loop
      vertex -12.25 -21.2176 0
      vertex -7.57092 23.3009 0
      vertex -7.57092 -23.3009 0
    endloop
  endfacet
  facet normal 0 0 -1
    outer loop
      vertex -12.25 -21.2176 0
      vertex -12.25 21.2176 0
      vertex -7.57092 23.3009 0
    endloop
  endfacet
  facet normal 0 0 -1
    outer loop
      vertex -16.3937 -18.207 0
      vertex -12.25 21.2176 0
      vertex -12.25 -21.2176 0
    endloop
  endfacet
  facet normal 0 0 -1
    outer loop
      vertex -16.3937 -18.207 0
      vertex -16.3937 18.207 0
      vertex -12.25 21.2176 0
    endloop
  endfacet
  facet normal 0 0 -1
    outer loop
      vertex -19.8209 -14.4007 0
      vertex -16.3937 18.207 0
      vertex -16.3937 -18.207 0
    endloop
  endfacet
  facet normal 0 0 -1
    outer loop
      vertex -19.8209 -14.4007 0
      vertex -19.8209 14.4007 0
      vertex -16.3937 18.207 0
    endloop
  endfacet
  facet normal 0 0 -1
    outer loop
      vertex -22.3819 -9.96505 0
      vertex -19.8209 14.4007 0
      vertex -19.8209 -14.4007 0
    endloop
  endfacet
  facet normal 0 0 -1
    outer loop
      vertex -22.3819 -9.96505 0
      vertex -22.3819 9.96505 0
      vertex -19.8209 14.4007 0
    endloop
  endfacet
  facet normal 0 0 -1
    outer loop
      vertex -23.9646 -5.09384 0
      vertex -22.3819 9.96505 0
      vertex -22.3819 -9.96505 0
    endloop
  endfacet
  facet normal 0 0 -1
    outer loop
      vertex -23.9646 -5.09384 0
      vertex -23.9646 5.09384 0
      vertex -22.3819 9.96505 0
    endloop
  endfacet
  facet normal 0 -0 -1
    outer loop
      vertex -23.9646 5.09384 0
      vertex -23.9646 -5.09384 0
      vertex -24.5 0 0
    endloop
  endfacet
  facet normal 0.406743 -0.913543 0
    outer loop
      vertex 7.57092 -23.3009 0
      vertex 12.25 -21.2176 6
      vertex 7.57092 -23.3009 6
    endloop
  endfacet
  facet normal 0.406743 -0.913543 0
    outer loop
      vertex 12.25 -21.2176 6
      vertex 7.57092 -23.3009 0
      vertex 12.25 -21.2176 0
    endloop
  endfacet
  facet normal -0.743146 -0.66913 0
    outer loop
      vertex -16.3937 -18.207 0
      vertex -19.8209 -14.4007 6
      vertex -19.8209 -14.4007 0
    endloop
  endfacet
  facet normal -0.743146 -0.66913 0
    outer loop
      vertex -19.8209 -14.4007 6
      vertex -16.3937 -18.207 0
      vertex -16.3937 -18.207 6
    endloop
  endfacet
  facet normal -0.587789 -0.809015 0
    outer loop
      vertex -16.3937 -18.207 0
      vertex -12.25 -21.2176 6
      vertex -16.3937 -18.207 6
    endloop
  endfacet
  facet normal -0.587789 -0.809015 -0
    outer loop
      vertex -12.25 -21.2176 6
      vertex -16.3937 -18.207 0
      vertex -12.25 -21.2176 0
    endloop
  endfacet
  facet normal -0.866019 0.500011 0
    outer loop
      vertex -22.3819 9.96505 0
      vertex -19.8209 14.4007 6
      vertex -19.8209 14.4007 0
    endloop
  endfacet
  facet normal -0.866019 0.500011 0
    outer loop
      vertex -19.8209 14.4007 6
      vertex -22.3819 9.96505 0
      vertex -22.3819 9.96505 6
    endloop
  endfacet
  facet normal 0.778252 0.0817947 0.622602
    outer loop
      vertex 30.3226 6.44526 6
      vertex 15 0 26
      vertex 31 0 6
    endloop
  endfacet
  facet normal 0.778252 -0.0817947 0.622602
    outer loop
      vertex 31 0 6
      vertex 15 0 26
      vertex 30.3226 -6.44526 6
    endloop
  endfacet
  facet normal 0.31829 0.714882 0.622604
    outer loop
      vertex 9.57953 29.4828 6
      vertex 4.63525 14.2658 26
      vertex 15.5 26.8468 6
    endloop
  endfacet
  facet normal 0.581543 -0.523619 0.6226
    outer loop
      vertex 12.1353 -8.81678 26
      vertex 10.037 -11.1472 26
      vertex 20.743 -23.0375 6
    endloop
  endfacet
  facet normal 0.31829 -0.714882 0.622604
    outer loop
      vertex 15.5 -26.8468 6
      vertex 4.63525 -14.2658 26
      vertex 9.57953 -29.4828 6
    endloop
  endfacet
  facet normal -0.677702 0.391265 0.622601
    outer loop
      vertex -12.1353 8.81678 26
      vertex -28.3199 12.6088 6
      vertex -13.7032 6.10105 26
    endloop
  endfacet
  facet normal -0.581543 0.523619 0.6226
    outer loop
      vertex -10.037 11.1472 26
      vertex -20.743 23.0375 6
      vertex -12.1353 8.81678 26
    endloop
  endfacet
  facet normal 0.581543 0.523619 0.6226
    outer loop
      vertex 20.743 23.0375 6
      vertex 10.037 11.1472 26
      vertex 12.1353 8.81678 26
    endloop
  endfacet
  facet normal 0.581542 -0.52362 0.6226
    outer loop
      vertex 25.0795 -18.2213 6
      vertex 12.1353 -8.81678 26
      vertex 20.743 -23.0375 6
    endloop
  endfacet
  facet normal 0.459959 -0.633093 0.6226
    outer loop
      vertex 10.037 -11.1472 26
      vertex 7.5 -12.9904 26
      vertex 20.743 -23.0375 6
    endloop
  endfacet
  facet normal 0.318273 0.714892 0.622601
    outer loop
      vertex 15.5 26.8468 6
      vertex 4.63525 14.2658 26
      vertex 7.5 12.9904 26
    endloop
  endfacet
  facet normal 0.744238 0.241823 0.622601
    outer loop
      vertex 28.3199 12.6088 6
      vertex 13.7032 6.10105 26
      vertex 30.3226 6.44526 6
    endloop
  endfacet
  facet normal -0.677699 0.391272 0.6226
    outer loop
      vertex -25.0795 18.2213 6
      vertex -28.3199 12.6088 6
      vertex -12.1353 8.81678 26
    endloop
  endfacet
  facet normal -0.31829 -0.714882 0.622604
    outer loop
      vertex -4.63525 -14.2658 26
      vertex -15.5 -26.8468 6
      vertex -9.57953 -29.4828 6
    endloop
  endfacet
  facet normal -0.74424 0.241811 0.622603
    outer loop
      vertex -13.7032 6.10105 26
      vertex -30.3226 6.44526 6
      vertex -14.6722 3.11868 26
    endloop
  endfacet
  facet normal 0.677702 -0.391265 0.622601
    outer loop
      vertex 13.7032 -6.10105 26
      vertex 12.1353 -8.81678 26
      vertex 28.3199 -12.6088 6
    endloop
  endfacet
  facet normal 0.677699 0.391272 0.6226
    outer loop
      vertex 25.0795 18.2213 6
      vertex 12.1353 8.81678 26
      vertex 28.3199 12.6088 6
    endloop
  endfacet
  facet normal 0.74424 -0.241811 0.622603
    outer loop
      vertex 14.6722 -3.11868 26
      vertex 13.7032 -6.10105 26
      vertex 30.3226 -6.44526 6
    endloop
  endfacet
  facet normal -0.459959 0.633093 0.6226
    outer loop
      vertex -7.5 12.9904 26
      vertex -20.743 23.0375 6
      vertex -10.037 11.1472 26
    endloop
  endfacet
  facet normal 0.459968 0.633085 0.622601
    outer loop
      vertex 15.5 26.8468 6
      vertex 7.5 12.9904 26
      vertex 20.743 23.0375 6
    endloop
  endfacet
  facet normal 0.778251 -0.0818008 0.622603
    outer loop
      vertex 15 0 26
      vertex 14.6722 -3.11868 26
      vertex 30.3226 -6.44526 6
    endloop
  endfacet
  facet normal 0 0.782538 0.622603
    outer loop
      vertex 3.24038 30.8302 6
      vertex -1.56793 14.9178 26
      vertex 1.56793 14.9178 26
    endloop
  endfacet
  facet normal 0 0.782538 0.622603
    outer loop
      vertex -1.56793 14.9178 26
      vertex 3.24038 30.8302 6
      vertex -3.24038 30.8302 6
    endloop
  endfacet
  facet normal -0.459968 0.633085 0.622601
    outer loop
      vertex -15.5 26.8468 6
      vertex -20.743 23.0375 6
      vertex -7.5 12.9904 26
    endloop
  endfacet
  facet normal 0.162704 0.765437 0.622603
    outer loop
      vertex 3.24038 30.8302 6
      vertex 1.56793 14.9178 26
      vertex 4.63525 14.2658 26
    endloop
  endfacet
  facet normal -0.581542 0.52362 0.6226
    outer loop
      vertex -20.743 23.0375 6
      vertex -25.0795 18.2213 6
      vertex -12.1353 8.81678 26
    endloop
  endfacet
  facet normal -0.778252 0.0817947 0.622602
    outer loop
      vertex -30.3226 6.44526 6
      vertex -31 0 6
      vertex -15 0 26
    endloop
  endfacet
  facet normal -0.162704 -0.765437 0.622603
    outer loop
      vertex -1.56793 -14.9178 26
      vertex -4.63525 -14.2658 26
      vertex -3.24038 -30.8302 6
    endloop
  endfacet
  facet normal 0.162695 0.765438 0.622604
    outer loop
      vertex 9.57953 29.4828 6
      vertex 3.24038 30.8302 6
      vertex 4.63525 14.2658 26
    endloop
  endfacet
  facet normal 0.677699 -0.391272 0.6226
    outer loop
      vertex 28.3199 -12.6088 6
      vertex 12.1353 -8.81678 26
      vertex 25.0795 -18.2213 6
    endloop
  endfacet
  facet normal -0.459968 -0.633085 0.622601
    outer loop
      vertex -7.5 -12.9904 26
      vertex -20.743 -23.0375 6
      vertex -15.5 -26.8468 6
    endloop
  endfacet
  facet normal -0.318273 -0.714892 0.622601
    outer loop
      vertex -7.5 -12.9904 26
      vertex -15.5 -26.8468 6
      vertex -4.63525 -14.2658 26
    endloop
  endfacet
  facet normal 0.581542 0.52362 0.6226
    outer loop
      vertex 20.743 23.0375 6
      vertex 12.1353 8.81678 26
      vertex 25.0795 18.2213 6
    endloop
  endfacet
  facet normal 0.459959 0.633093 0.6226
    outer loop
      vertex 20.743 23.0375 6
      vertex 7.5 12.9904 26
      vertex 10.037 11.1472 26
    endloop
  endfacet
  facet normal -0.744238 0.241823 0.622601
    outer loop
      vertex -28.3199 12.6088 6
      vertex -30.3226 6.44526 6
      vertex -13.7032 6.10105 26
    endloop
  endfacet
  facet normal 0.778251 0.0818008 0.622603
    outer loop
      vertex 30.3226 6.44526 6
      vertex 14.6722 3.11868 26
      vertex 15 0 26
    endloop
  endfacet
  facet normal -0.162695 -0.765438 0.622604
    outer loop
      vertex -4.63525 -14.2658 26
      vertex -9.57953 -29.4828 6
      vertex -3.24038 -30.8302 6
    endloop
  endfacet
  facet normal -0.778251 0.0818008 0.622603
    outer loop
      vertex -14.6722 3.11868 26
      vertex -30.3226 6.44526 6
      vertex -15 0 26
    endloop
  endfacet
  facet normal 0.677702 0.391265 0.622601
    outer loop
      vertex 28.3199 12.6088 6
      vertex 12.1353 8.81678 26
      vertex 13.7032 6.10105 26
    endloop
  endfacet
  facet normal 0.744238 -0.241823 0.622601
    outer loop
      vertex 30.3226 -6.44526 6
      vertex 13.7032 -6.10105 26
      vertex 28.3199 -12.6088 6
    endloop
  endfacet
  facet normal -0.162704 0.765437 0.622603
    outer loop
      vertex -3.24038 30.8302 6
      vertex -4.63525 14.2658 26
      vertex -1.56793 14.9178 26
    endloop
  endfacet
  facet normal -0.581542 -0.52362 0.6226
    outer loop
      vertex -12.1353 -8.81678 26
      vertex -25.0795 -18.2213 6
      vertex -20.743 -23.0375 6
    endloop
  endfacet
  facet normal -0.778252 -0.0817947 0.622602
    outer loop
      vertex -15 0 26
      vertex -31 0 6
      vertex -30.3226 -6.44526 6
    endloop
  endfacet
  facet normal 0.162704 -0.765437 0.622603
    outer loop
      vertex 4.63525 -14.2658 26
      vertex 1.56793 -14.9178 26
      vertex 3.24038 -30.8302 6
    endloop
  endfacet
  facet normal -0.581543 -0.523619 0.6226
    outer loop
      vertex -12.1353 -8.81678 26
      vertex -20.743 -23.0375 6
      vertex -10.037 -11.1472 26
    endloop
  endfacet
  facet normal -0.778251 -0.0818008 0.622603
    outer loop
      vertex -15 0 26
      vertex -30.3226 -6.44526 6
      vertex -14.6722 -3.11868 26
    endloop
  endfacet
  facet normal -0.677702 -0.391265 0.622601
    outer loop
      vertex -13.7032 -6.10105 26
      vertex -28.3199 -12.6088 6
      vertex -12.1353 -8.81678 26
    endloop
  endfacet
  facet normal -0.744238 -0.241823 0.622601
    outer loop
      vertex -13.7032 -6.10105 26
      vertex -30.3226 -6.44526 6
      vertex -28.3199 -12.6088 6
    endloop
  endfacet
  facet normal -0.459959 -0.633093 0.6226
    outer loop
      vertex -10.037 -11.1472 26
      vertex -20.743 -23.0375 6
      vertex -7.5 -12.9904 26
    endloop
  endfacet
  facet normal -0.74424 -0.241811 0.622603
    outer loop
      vertex -14.6722 -3.11868 26
      vertex -30.3226 -6.44526 6
      vertex -13.7032 -6.10105 26
    endloop
  endfacet
  facet normal 0.459968 -0.633085 0.622601
    outer loop
      vertex 20.743 -23.0375 6
      vertex 7.5 -12.9904 26
      vertex 15.5 -26.8468 6
    endloop
  endfacet
  facet normal 0.318273 -0.714892 0.622601
    outer loop
      vertex 7.5 -12.9904 26
      vertex 4.63525 -14.2658 26
      vertex 15.5 -26.8468 6
    endloop
  endfacet
  facet normal 0.74424 0.241811 0.622603
    outer loop
      vertex 30.3226 6.44526 6
      vertex 13.7032 6.10105 26
      vertex 14.6722 3.11868 26
    endloop
  endfacet
  facet normal 0 -0.782538 0.622603
    outer loop
      vertex -3.24038 -30.8302 6
      vertex 1.56793 -14.9178 26
      vertex -1.56793 -14.9178 26
    endloop
  endfacet
  facet normal 0 -0.782538 0.622603
    outer loop
      vertex 1.56793 -14.9178 26
      vertex -3.24038 -30.8302 6
      vertex 3.24038 -30.8302 6
    endloop
  endfacet
  facet normal -0.162695 0.765438 0.622604
    outer loop
      vertex -3.24038 30.8302 6
      vertex -9.57953 29.4828 6
      vertex -4.63525 14.2658 26
    endloop
  endfacet
  facet normal 0.162695 -0.765438 0.622604
    outer loop
      vertex 4.63525 -14.2658 26
      vertex 3.24038 -30.8302 6
      vertex 9.57953 -29.4828 6
    endloop
  endfacet
  facet normal -0.31829 0.714882 0.622604
    outer loop
      vertex -9.57953 29.4828 6
      vertex -15.5 26.8468 6
      vertex -4.63525 14.2658 26
    endloop
  endfacet
  facet normal -0.318273 0.714892 0.622601
    outer loop
      vertex -4.63525 14.2658 26
      vertex -15.5 26.8468 6
      vertex -7.5 12.9904 26
    endloop
  endfacet
  facet normal -0.677699 -0.391272 0.6226
    outer loop
      vertex -12.1353 -8.81678 26
      vertex -28.3199 -12.6088 6
      vertex -25.0795 -18.2213 6
    endloop
  endfacet
  facet normal -0.18616 0.87584 -0.445251
    outer loop
      vertex -4.63525 14.2658 26
      vertex -7.72542 23.7764 46
      vertex -2.61321 24.863 46
    endloop
  endfacet
  facet normal 0 0.895406 -0.44525
    outer loop
      vertex 1.56793 14.9178 26
      vertex -2.61321 24.863 46
      vertex 2.61321 24.863 46
    endloop
  endfacet
  facet normal 0 0.895406 -0.44525
    outer loop
      vertex -2.61321 24.863 46
      vertex 1.56793 14.9178 26
      vertex -1.56793 14.9178 26
    endloop
  endfacet
  facet normal 0.890501 0.0935938 -0.445251
    outer loop
      vertex 25 0 46
      vertex 15 0 26
      vertex 24.4537 5.19779 46
    endloop
  endfacet
  facet normal 0.8905 0.0935992 -0.445251
    outer loop
      vertex 15 0 26
      vertex 14.6722 3.11868 26
      vertex 24.4537 5.19779 46
    endloop
  endfacet
  facet normal 0.665423 -0.599138 -0.445248
    outer loop
      vertex 16.7283 -18.5786 46
      vertex 12.1353 -8.81678 26
      vertex 20.2254 -14.6946 46
    endloop
  endfacet
  facet normal -0.890501 -0.0935938 -0.445251
    outer loop
      vertex -24.4537 -5.19779 46
      vertex -25 0 46
      vertex -15 0 26
    endloop
  endfacet
  facet normal 0.775446 -0.447703 -0.445248
    outer loop
      vertex 20.2254 -14.6946 46
      vertex 12.1353 -8.81678 26
      vertex 22.8386 -10.1684 46
    endloop
  endfacet
  facet normal 0.364179 -0.818003 -0.445248
    outer loop
      vertex 12.5 -21.6506 46
      vertex 4.63525 -14.2658 26
      vertex 7.5 -12.9904 26
    endloop
  endfacet
  facet normal 0.364197 0.817992 -0.445251
    outer loop
      vertex 12.5 21.6506 46
      vertex 4.63525 14.2658 26
      vertex 7.72542 23.7764 46
    endloop
  endfacet
  facet normal 0.66542 -0.599141 -0.445249
    outer loop
      vertex 16.7283 -18.5786 46
      vertex 10.037 -11.1472 26
      vertex 12.1353 -8.81678 26
    endloop
  endfacet
  facet normal 0.85158 -0.276704 -0.445249
    outer loop
      vertex 22.8386 -10.1684 46
      vertex 13.7032 -6.10105 26
      vertex 24.4537 -5.19779 46
    endloop
  endfacet
  facet normal -0.775446 -0.447703 -0.445248
    outer loop
      vertex -20.2254 -14.6946 46
      vertex -22.8386 -10.1684 46
      vertex -12.1353 -8.81678 26
    endloop
  endfacet
  facet normal 0.8905 -0.0935992 -0.445251
    outer loop
      vertex 24.4537 -5.19779 46
      vertex 14.6722 -3.11868 26
      vertex 15 0 26
    endloop
  endfacet
  facet normal -0.5263 0.724405 -0.445249
    outer loop
      vertex -10.037 11.1472 26
      vertex -16.7283 18.5786 46
      vertex -7.5 12.9904 26
    endloop
  endfacet
  facet normal 0.851584 -0.276688 -0.445252
    outer loop
      vertex 24.4537 -5.19779 46
      vertex 13.7032 -6.10105 26
      vertex 14.6722 -3.11868 26
    endloop
  endfacet
  facet normal 0.890501 -0.0935938 -0.445251
    outer loop
      vertex 24.4537 -5.19779 46
      vertex 15 0 26
      vertex 25 0 46
    endloop
  endfacet
  facet normal -0.851584 0.276688 -0.445252
    outer loop
      vertex -14.6722 3.11868 26
      vertex -24.4537 5.19779 46
      vertex -13.7032 6.10105 26
    endloop
  endfacet
  facet normal -0.186171 -0.875839 -0.44525
    outer loop
      vertex -2.61321 -24.863 46
      vertex -4.63525 -14.2658 26
      vertex -1.56793 -14.9178 26
    endloop
  endfacet
  facet normal -0.665423 0.599138 -0.445248
    outer loop
      vertex -12.1353 8.81678 26
      vertex -20.2254 14.6946 46
      vertex -16.7283 18.5786 46
    endloop
  endfacet
  facet normal 0.526302 -0.724403 -0.445249
    outer loop
      vertex 12.5 -21.6506 46
      vertex 7.5 -12.9904 26
      vertex 16.7283 -18.5786 46
    endloop
  endfacet
  facet normal -0.775449 -0.447698 -0.445249
    outer loop
      vertex -12.1353 -8.81678 26
      vertex -22.8386 -10.1684 46
      vertex -13.7032 -6.10105 26
    endloop
  endfacet
  facet normal -0.18616 -0.87584 -0.445251
    outer loop
      vertex -2.61321 -24.863 46
      vertex -7.72542 -23.7764 46
      vertex -4.63525 -14.2658 26
    endloop
  endfacet
  facet normal -0.890501 0.0935938 -0.445251
    outer loop
      vertex -15 0 26
      vertex -25 0 46
      vertex -24.4537 5.19779 46
    endloop
  endfacet
  facet normal -0.8905 0.0935992 -0.445251
    outer loop
      vertex -15 0 26
      vertex -24.4537 5.19779 46
      vertex -14.6722 3.11868 26
    endloop
  endfacet
  facet normal 0.775449 -0.447698 -0.445249
    outer loop
      vertex 22.8386 -10.1684 46
      vertex 12.1353 -8.81678 26
      vertex 13.7032 -6.10105 26
    endloop
  endfacet
  facet normal -0.775446 0.447703 -0.445248
    outer loop
      vertex -12.1353 8.81678 26
      vertex -22.8386 10.1684 46
      vertex -20.2254 14.6946 46
    endloop
  endfacet
  facet normal -0.8905 -0.0935992 -0.445251
    outer loop
      vertex -14.6722 -3.11868 26
      vertex -24.4537 -5.19779 46
      vertex -15 0 26
    endloop
  endfacet
  facet normal 0.665423 0.599138 -0.445248
    outer loop
      vertex 20.2254 14.6946 46
      vertex 12.1353 8.81678 26
      vertex 16.7283 18.5786 46
    endloop
  endfacet
  facet normal -0.775449 0.447698 -0.445249
    outer loop
      vertex -13.7032 6.10105 26
      vertex -22.8386 10.1684 46
      vertex -12.1353 8.81678 26
    endloop
  endfacet
  facet normal 0.775449 0.447698 -0.445249
    outer loop
      vertex 13.7032 6.10105 26
      vertex 12.1353 8.81678 26
      vertex 22.8386 10.1684 46
    endloop
  endfacet
  facet normal -0.85158 0.276704 -0.445249
    outer loop
      vertex -13.7032 6.10105 26
      vertex -24.4537 5.19779 46
      vertex -22.8386 10.1684 46
    endloop
  endfacet
  facet normal -0.364197 -0.817992 -0.445251
    outer loop
      vertex -7.72542 -23.7764 46
      vertex -12.5 -21.6506 46
      vertex -4.63525 -14.2658 26
    endloop
  endfacet
  facet normal -0.526302 0.724403 -0.445249
    outer loop
      vertex -7.5 12.9904 26
      vertex -16.7283 18.5786 46
      vertex -12.5 21.6506 46
    endloop
  endfacet
  facet normal -0.665423 -0.599138 -0.445248
    outer loop
      vertex -16.7283 -18.5786 46
      vertex -20.2254 -14.6946 46
      vertex -12.1353 -8.81678 26
    endloop
  endfacet
  facet normal 0.5263 -0.724405 -0.445249
    outer loop
      vertex 16.7283 -18.5786 46
      vertex 7.5 -12.9904 26
      vertex 10.037 -11.1472 26
    endloop
  endfacet
  facet normal -0.66542 0.599141 -0.445249
    outer loop
      vertex -12.1353 8.81678 26
      vertex -16.7283 18.5786 46
      vertex -10.037 11.1472 26
    endloop
  endfacet
  facet normal 0.5263 0.724405 -0.445249
    outer loop
      vertex 10.037 11.1472 26
      vertex 7.5 12.9904 26
      vertex 16.7283 18.5786 46
    endloop
  endfacet
  facet normal -0.851584 -0.276688 -0.445252
    outer loop
      vertex -13.7032 -6.10105 26
      vertex -24.4537 -5.19779 46
      vertex -14.6722 -3.11868 26
    endloop
  endfacet
  facet normal 0.18616 -0.87584 -0.445251
    outer loop
      vertex 7.72542 -23.7764 46
      vertex 2.61321 -24.863 46
      vertex 4.63525 -14.2658 26
    endloop
  endfacet
  facet normal -0.85158 -0.276704 -0.445249
    outer loop
      vertex -22.8386 -10.1684 46
      vertex -24.4537 -5.19779 46
      vertex -13.7032 -6.10105 26
    endloop
  endfacet
  facet normal 0 -0.895406 -0.44525
    outer loop
      vertex -1.56793 -14.9178 26
      vertex 2.61321 -24.863 46
      vertex -2.61321 -24.863 46
    endloop
  endfacet
  facet normal 0 -0.895406 -0.44525
    outer loop
      vertex 2.61321 -24.863 46
      vertex -1.56793 -14.9178 26
      vertex 1.56793 -14.9178 26
    endloop
  endfacet
  facet normal 0.186171 -0.875839 -0.44525
    outer loop
      vertex 2.61321 -24.863 46
      vertex 1.56793 -14.9178 26
      vertex 4.63525 -14.2658 26
    endloop
  endfacet
  facet normal 0.18616 0.87584 -0.445251
    outer loop
      vertex 4.63525 14.2658 26
      vertex 2.61321 24.863 46
      vertex 7.72542 23.7764 46
    endloop
  endfacet
  facet normal -0.5263 -0.724405 -0.445249
    outer loop
      vertex -7.5 -12.9904 26
      vertex -16.7283 -18.5786 46
      vertex -10.037 -11.1472 26
    endloop
  endfacet
  facet normal 0.364197 -0.817992 -0.445251
    outer loop
      vertex 7.72542 -23.7764 46
      vertex 4.63525 -14.2658 26
      vertex 12.5 -21.6506 46
    endloop
  endfacet
  facet normal -0.364197 0.817992 -0.445251
    outer loop
      vertex -4.63525 14.2658 26
      vertex -12.5 21.6506 46
      vertex -7.72542 23.7764 46
    endloop
  endfacet
  facet normal -0.186171 0.875839 -0.44525
    outer loop
      vertex -1.56793 14.9178 26
      vertex -4.63525 14.2658 26
      vertex -2.61321 24.863 46
    endloop
  endfacet
  facet normal 0.526302 0.724403 -0.445249
    outer loop
      vertex 16.7283 18.5786 46
      vertex 7.5 12.9904 26
      vertex 12.5 21.6506 46
    endloop
  endfacet
  facet normal 0 0 1
    outer loop
      vertex 9.75 0 46
      vertex 25 0 46
      vertex 24.4537 5.19779 46
    endloop
  endfacet
  facet normal 0 0 1
    outer loop
      vertex 9.53694 2.02714 46
      vertex 24.4537 5.19779 46
      vertex 22.8386 10.1684 46
    endloop
  endfacet
  facet normal 0 0 1
    outer loop
      vertex 25 0 46
      vertex 9.75 0 46
      vertex 24.4537 -5.19779 46
    endloop
  endfacet
  facet normal 0 0 1
    outer loop
      vertex 8.90707 3.96568 46
      vertex 22.8386 10.1684 46
      vertex 20.2254 14.6946 46
    endloop
  endfacet
  facet normal -0 0 1
    outer loop
      vertex 9.53694 -2.02714 46
      vertex 24.4537 -5.19779 46
      vertex 9.75 0 46
    endloop
  endfacet
  facet normal 0 0 1
    outer loop
      vertex 7.88792 5.73091 46
      vertex 20.2254 14.6946 46
      vertex 16.7283 18.5786 46
    endloop
  endfacet
  facet normal 0 0 1
    outer loop
      vertex 24.4537 -5.19779 46
      vertex 9.53694 -2.02714 46
      vertex 22.8386 -10.1684 46
    endloop
  endfacet
  facet normal 0 0 1
    outer loop
      vertex 6.52402 7.24566 46
      vertex 16.7283 18.5786 46
      vertex 12.5 21.6506 46
    endloop
  endfacet
  facet normal -0 0 1
    outer loop
      vertex 8.90707 -3.96568 46
      vertex 22.8386 -10.1684 46
      vertex 9.53694 -2.02714 46
    endloop
  endfacet
  facet normal 0 0 1
    outer loop
      vertex 22.8386 -10.1684 46
      vertex 8.90707 -3.96568 46
      vertex 20.2254 -14.6946 46
    endloop
  endfacet
  facet normal 0 0 1
    outer loop
      vertex 24.4537 5.19779 46
      vertex 9.53694 2.02714 46
      vertex 9.75 0 46
    endloop
  endfacet
  facet normal 0 0 1
    outer loop
      vertex 22.8386 10.1684 46
      vertex 8.90707 3.96568 46
      vertex 9.53694 2.02714 46
    endloop
  endfacet
  facet normal 0 0 1
    outer loop
      vertex 20.2254 14.6946 46
      vertex 7.88792 5.73091 46
      vertex 8.90707 3.96568 46
    endloop
  endfacet
  facet normal 0 0 1
    outer loop
      vertex 4.875 8.44375 46
      vertex 12.5 21.6506 46
      vertex 7.72542 23.7764 46
    endloop
  endfacet
  facet normal 0 0 1
    outer loop
      vertex 16.7283 18.5786 46
      vertex 6.52402 7.24566 46
      vertex 7.88792 5.73091 46
    endloop
  endfacet
  facet normal 0 0 1
    outer loop
      vertex 12.5 21.6506 46
      vertex 4.875 8.44375 46
      vertex 6.52402 7.24566 46
    endloop
  endfacet
  facet normal 0 0 1
    outer loop
      vertex 7.72542 23.7764 46
      vertex 3.01292 9.2728 46
      vertex 4.875 8.44375 46
    endloop
  endfacet
  facet normal 0 0 1
    outer loop
      vertex 2.61321 24.863 46
      vertex 3.01292 9.2728 46
      vertex 7.72542 23.7764 46
    endloop
  endfacet
  facet normal 0 0 1
    outer loop
      vertex 2.61321 24.863 46
      vertex 1.01915 9.69659 46
      vertex 3.01292 9.2728 46
    endloop
  endfacet
  facet normal 0 0 1
    outer loop
      vertex 2.61321 24.863 46
      vertex -1.01915 9.69659 46
      vertex 1.01915 9.69659 46
    endloop
  endfacet
  facet normal -0 0 1
    outer loop
      vertex -2.61321 24.863 46
      vertex -1.01915 9.69659 46
      vertex 2.61321 24.863 46
    endloop
  endfacet
  facet normal 0 0 1
    outer loop
      vertex -2.61321 24.863 46
      vertex -3.01292 9.2728 46
      vertex -1.01915 9.69659 46
    endloop
  endfacet
  facet normal -0 0 1
    outer loop
      vertex -7.72542 23.7764 46
      vertex -3.01292 9.2728 46
      vertex -2.61321 24.863 46
    endloop
  endfacet
  facet normal 0 0 1
    outer loop
      vertex -3.01292 9.2728 46
      vertex -7.72542 23.7764 46
      vertex -4.875 8.44375 46
    endloop
  endfacet
  facet normal -0 0 1
    outer loop
      vertex -12.5 21.6506 46
      vertex -4.875 8.44375 46
      vertex -7.72542 23.7764 46
    endloop
  endfacet
  facet normal 0 0 1
    outer loop
      vertex -4.875 8.44375 46
      vertex -12.5 21.6506 46
      vertex -6.52402 7.24566 46
    endloop
  endfacet
  facet normal -0 0 1
    outer loop
      vertex -16.7283 18.5786 46
      vertex -6.52402 7.24566 46
      vertex -12.5 21.6506 46
    endloop
  endfacet
  facet normal 0 0 1
    outer loop
      vertex -6.52402 7.24566 46
      vertex -16.7283 18.5786 46
      vertex -7.88792 5.73091 46
    endloop
  endfacet
  facet normal -0 0 1
    outer loop
      vertex -20.2254 14.6946 46
      vertex -7.88792 5.73091 46
      vertex -16.7283 18.5786 46
    endloop
  endfacet
  facet normal 0 0 1
    outer loop
      vertex -7.88792 5.73091 46
      vertex -20.2254 14.6946 46
      vertex -8.90707 3.96568 46
    endloop
  endfacet
  facet normal -0 0 1
    outer loop
      vertex 7.88792 -5.73091 46
      vertex 20.2254 -14.6946 46
      vertex 8.90707 -3.96568 46
    endloop
  endfacet
  facet normal 0 0 1
    outer loop
      vertex 20.2254 -14.6946 46
      vertex 7.88792 -5.73091 46
      vertex 16.7283 -18.5786 46
    endloop
  endfacet
  facet normal -0 0 1
    outer loop
      vertex 6.52402 -7.24566 46
      vertex 16.7283 -18.5786 46
      vertex 7.88792 -5.73091 46
    endloop
  endfacet
  facet normal 0 0 1
    outer loop
      vertex 16.7283 -18.5786 46
      vertex 6.52402 -7.24566 46
      vertex 12.5 -21.6506 46
    endloop
  endfacet
  facet normal -0 0 1
    outer loop
      vertex 4.875 -8.44375 46
      vertex 12.5 -21.6506 46
      vertex 6.52402 -7.24566 46
    endloop
  endfacet
  facet normal 0 0 1
    outer loop
      vertex 12.5 -21.6506 46
      vertex 4.875 -8.44375 46
      vertex 7.72542 -23.7764 46
    endloop
  endfacet
  facet normal -0 0 1
    outer loop
      vertex 3.01292 -9.2728 46
      vertex 7.72542 -23.7764 46
      vertex 4.875 -8.44375 46
    endloop
  endfacet
  facet normal 0 0 1
    outer loop
      vertex 3.01292 -9.2728 46
      vertex 2.61321 -24.863 46
      vertex 7.72542 -23.7764 46
    endloop
  endfacet
  facet normal -0 0 1
    outer loop
      vertex 1.01915 -9.69659 46
      vertex 2.61321 -24.863 46
      vertex 3.01292 -9.2728 46
    endloop
  endfacet
  facet normal -0 0 1
    outer loop
      vertex -1.01915 -9.69659 46
      vertex 2.61321 -24.863 46
      vertex 1.01915 -9.69659 46
    endloop
  endfacet
  facet normal 0 0 1
    outer loop
      vertex -1.01915 -9.69659 46
      vertex -2.61321 -24.863 46
      vertex 2.61321 -24.863 46
    endloop
  endfacet
  facet normal 0 0 1
    outer loop
      vertex -3.01292 -9.2728 46
      vertex -2.61321 -24.863 46
      vertex -1.01915 -9.69659 46
    endloop
  endfacet
  facet normal 0 0 1
    outer loop
      vertex -7.72542 -23.7764 46
      vertex -3.01292 -9.2728 46
      vertex -4.875 -8.44375 46
    endloop
  endfacet
  facet normal 0 0 1
    outer loop
      vertex -12.5 -21.6506 46
      vertex -4.875 -8.44375 46
      vertex -6.52402 -7.24566 46
    endloop
  endfacet
  facet normal 0 0 1
    outer loop
      vertex -3.01292 -9.2728 46
      vertex -7.72542 -23.7764 46
      vertex -2.61321 -24.863 46
    endloop
  endfacet
  facet normal 0 0 1
    outer loop
      vertex -16.7283 -18.5786 46
      vertex -6.52402 -7.24566 46
      vertex -7.88792 -5.73091 46
    endloop
  endfacet
  facet normal 0 0 1
    outer loop
      vertex -20.2254 -14.6946 46
      vertex -7.88792 -5.73091 46
      vertex -8.90707 -3.96568 46
    endloop
  endfacet
  facet normal 0 0 1
    outer loop
      vertex -22.8386 -10.1684 46
      vertex -8.90707 -3.96568 46
      vertex -9.53694 -2.02714 46
    endloop
  endfacet
  facet normal 0 0 1
    outer loop
      vertex -24.4537 -5.19779 46
      vertex -9.53694 -2.02714 46
      vertex -9.75 0 46
    endloop
  endfacet
  facet normal -0 0 1
    outer loop
      vertex -22.8386 10.1684 46
      vertex -8.90707 3.96568 46
      vertex -20.2254 14.6946 46
    endloop
  endfacet
  facet normal 0 0 1
    outer loop
      vertex -4.875 -8.44375 46
      vertex -12.5 -21.6506 46
      vertex -7.72542 -23.7764 46
    endloop
  endfacet
  facet normal 0 0 1
    outer loop
      vertex -8.90707 3.96568 46
      vertex -22.8386 10.1684 46
      vertex -9.53694 2.02714 46
    endloop
  endfacet
  facet normal 0 0 1
    outer loop
      vertex -6.52402 -7.24566 46
      vertex -16.7283 -18.5786 46
      vertex -12.5 -21.6506 46
    endloop
  endfacet
  facet normal -0 0 1
    outer loop
      vertex -24.4537 5.19779 46
      vertex -9.53694 2.02714 46
      vertex -22.8386 10.1684 46
    endloop
  endfacet
  facet normal 0 0 1
    outer loop
      vertex -7.88792 -5.73091 46
      vertex -20.2254 -14.6946 46
      vertex -16.7283 -18.5786 46
    endloop
  endfacet
  facet normal 0 0 1
    outer loop
      vertex -9.53694 2.02714 46
      vertex -24.4537 5.19779 46
      vertex -9.75 0 46
    endloop
  endfacet
  facet normal 0 0 1
    outer loop
      vertex -8.90707 -3.96568 46
      vertex -22.8386 -10.1684 46
      vertex -20.2254 -14.6946 46
    endloop
  endfacet
  facet normal 0 0 1
    outer loop
      vertex -25 0 46
      vertex -9.75 0 46
      vertex -24.4537 5.19779 46
    endloop
  endfacet
  facet normal 0 0 1
    outer loop
      vertex -9.53694 -2.02714 46
      vertex -24.4537 -5.19779 46
      vertex -22.8386 -10.1684 46
    endloop
  endfacet
  facet normal 0 0 1
    outer loop
      vertex -9.75 0 46
      vertex -25 0 46
      vertex -24.4537 -5.19779 46
    endloop
  endfacet
  facet normal -0.364179 -0.818003 -0.445248
    outer loop
      vertex -4.63525 -14.2658 26
      vertex -12.5 -21.6506 46
      vertex -7.5 -12.9904 26
    endloop
  endfacet
  facet normal 0.364179 0.818003 -0.445248
    outer loop
      vertex 7.5 12.9904 26
      vertex 4.63525 14.2658 26
      vertex 12.5 21.6506 46
    endloop
  endfacet
  facet normal -0.364179 0.818003 -0.445248
    outer loop
      vertex -7.5 12.9904 26
      vertex -12.5 21.6506 46
      vertex -4.63525 14.2658 26
    endloop
  endfacet
  facet normal -0.66542 -0.599141 -0.445249
    outer loop
      vertex -10.037 -11.1472 26
      vertex -16.7283 -18.5786 46
      vertex -12.1353 -8.81678 26
    endloop
  endfacet
  facet normal -0.526302 -0.724403 -0.445249
    outer loop
      vertex -12.5 -21.6506 46
      vertex -16.7283 -18.5786 46
      vertex -7.5 -12.9904 26
    endloop
  endfacet
  facet normal 0.186171 0.875839 -0.44525
    outer loop
      vertex 4.63525 14.2658 26
      vertex 1.56793 14.9178 26
      vertex 2.61321 24.863 46
    endloop
  endfacet
  facet normal 0.775446 0.447703 -0.445248
    outer loop
      vertex 22.8386 10.1684 46
      vertex 12.1353 8.81678 26
      vertex 20.2254 14.6946 46
    endloop
  endfacet
  facet normal 0.66542 0.599141 -0.445249
    outer loop
      vertex 12.1353 8.81678 26
      vertex 10.037 11.1472 26
      vertex 16.7283 18.5786 46
    endloop
  endfacet
  facet normal 0.85158 0.276704 -0.445249
    outer loop
      vertex 24.4537 5.19779 46
      vertex 13.7032 6.10105 26
      vertex 22.8386 10.1684 46
    endloop
  endfacet
  facet normal 0.851584 0.276688 -0.445252
    outer loop
      vertex 14.6722 3.11868 26
      vertex 13.7032 6.10105 26
      vertex 24.4537 5.19779 46
    endloop
  endfacet
  facet normal 0.587787 0.809015 -0
    outer loop
      vertex 6.52402 7.24566 46
      vertex 4.875 8.44375 55
      vertex 6.52402 7.24566 55
    endloop
  endfacet
  facet normal 0.587787 0.809015 0
    outer loop
      vertex 4.875 8.44375 55
      vertex 6.52402 7.24566 46
      vertex 4.875 8.44375 46
    endloop
  endfacet
  facet normal -0.866027 0.499998 0
    outer loop
      vertex -8.90707 3.96568 46
      vertex -7.88792 5.73091 55
      vertex -7.88792 5.73091 46
    endloop
  endfacet
  facet normal -0.866027 0.499998 0
    outer loop
      vertex -7.88792 5.73091 55
      vertex -8.90707 3.96568 46
      vertex -8.90707 3.96568 55
    endloop
  endfacet
  facet normal 0.994522 -0.104528 0
    outer loop
      vertex 9.53694 -2.02714 55
      vertex 9.75 0 46
      vertex 9.75 0 55
    endloop
  endfacet
  facet normal 0.994522 -0.104528 0
    outer loop
      vertex 9.75 0 46
      vertex 9.53694 -2.02714 55
      vertex 9.53694 -2.02714 46
    endloop
  endfacet
  facet normal 0.587787 -0.809015 0
    outer loop
      vertex 4.875 -8.44375 46
      vertex 6.52402 -7.24566 55
      vertex 4.875 -8.44375 55
    endloop
  endfacet
  facet normal 0.587787 -0.809015 0
    outer loop
      vertex 6.52402 -7.24566 55
      vertex 4.875 -8.44375 46
      vertex 6.52402 -7.24566 46
    endloop
  endfacet
  facet normal 0.866027 0.499998 0
    outer loop
      vertex 8.90707 3.96568 55
      vertex 7.88792 5.73091 46
      vertex 7.88792 5.73091 55
    endloop
  endfacet
  facet normal 0.866027 0.499998 0
    outer loop
      vertex 7.88792 5.73091 46
      vertex 8.90707 3.96568 55
      vertex 8.90707 3.96568 46
    endloop
  endfacet
  facet normal -0.994522 0.104528 0
    outer loop
      vertex -9.75 0 46
      vertex -9.53694 2.02714 55
      vertex -9.53694 2.02714 46
    endloop
  endfacet
  facet normal -0.994522 0.104528 0
    outer loop
      vertex -9.53694 2.02714 55
      vertex -9.75 0 46
      vertex -9.75 0 55
    endloop
  endfacet
  facet normal 0.994522 0.104528 0
    outer loop
      vertex 9.75 0 55
      vertex 9.53694 2.02714 46
      vertex 9.53694 2.02714 55
    endloop
  endfacet
  facet normal 0.994522 0.104528 0
    outer loop
      vertex 9.53694 2.02714 46
      vertex 9.75 0 55
      vertex 9.75 0 46
    endloop
  endfacet
  facet normal -0.866027 -0.499998 0
    outer loop
      vertex -7.88792 -5.73091 46
      vertex -8.90707 -3.96568 55
      vertex -8.90707 -3.96568 46
    endloop
  endfacet
  facet normal -0.866027 -0.499998 0
    outer loop
      vertex -8.90707 -3.96568 55
      vertex -7.88792 -5.73091 46
      vertex -7.88792 -5.73091 55
    endloop
  endfacet
  facet normal -0.743142 -0.669134 0
    outer loop
      vertex -6.52402 -7.24566 46
      vertex -7.88792 -5.73091 55
      vertex -7.88792 -5.73091 46
    endloop
  endfacet
  facet normal -0.743142 -0.669134 0
    outer loop
      vertex -7.88792 -5.73091 55
      vertex -6.52402 -7.24566 46
      vertex -6.52402 -7.24566 55
    endloop
  endfacet
  facet normal -0.951056 0.309017 0
    outer loop
      vertex -9.53694 2.02714 46
      vertex -8.90707 3.96568 55
      vertex -8.90707 3.96568 46
    endloop
  endfacet
  facet normal -0.951056 0.309017 0
    outer loop
      vertex -8.90707 3.96568 55
      vertex -9.53694 2.02714 46
      vertex -9.53694 2.02714 55
    endloop
  endfacet
  facet normal 0 -1 0
    outer loop
      vertex -1.01915 -9.69659 46
      vertex 1.01915 -9.69659 55
      vertex -1.01915 -9.69659 55
    endloop
  endfacet
  facet normal 0 -1 -0
    outer loop
      vertex 1.01915 -9.69659 55
      vertex -1.01915 -9.69659 46
      vertex 1.01915 -9.69659 46
    endloop
  endfacet
  facet normal 0.406736 -0.913546 0
    outer loop
      vertex 3.01292 -9.2728 46
      vertex 4.875 -8.44375 55
      vertex 3.01292 -9.2728 55
    endloop
  endfacet
  facet normal 0.406736 -0.913546 0
    outer loop
      vertex 4.875 -8.44375 55
      vertex 3.01292 -9.2728 46
      vertex 4.875 -8.44375 46
    endloop
  endfacet
  facet normal -0.207912 0.978147 0
    outer loop
      vertex -1.01915 9.69659 46
      vertex -3.01292 9.2728 55
      vertex -1.01915 9.69659 55
    endloop
  endfacet
  facet normal -0.207912 0.978147 0
    outer loop
      vertex -3.01292 9.2728 55
      vertex -1.01915 9.69659 46
      vertex -3.01292 9.2728 46
    endloop
  endfacet
  facet normal 0.951056 0.309017 0
    outer loop
      vertex 9.53694 2.02714 55
      vertex 8.90707 3.96568 46
      vertex 8.90707 3.96568 55
    endloop
  endfacet
  facet normal 0.951056 0.309017 0
    outer loop
      vertex 8.90707 3.96568 46
      vertex 9.53694 2.02714 55
      vertex 9.53694 2.02714 46
    endloop
  endfacet
  facet normal 0.207912 -0.978147 0
    outer loop
      vertex 1.01915 -9.69659 46
      vertex 3.01292 -9.2728 55
      vertex 1.01915 -9.69659 55
    endloop
  endfacet
  facet normal 0.207912 -0.978147 0
    outer loop
      vertex 3.01292 -9.2728 55
      vertex 1.01915 -9.69659 46
      vertex 3.01292 -9.2728 46
    endloop
  endfacet
  facet normal 0.406736 0.913546 -0
    outer loop
      vertex 4.875 8.44375 46
      vertex 3.01292 9.2728 55
      vertex 4.875 8.44375 55
    endloop
  endfacet
  facet normal 0.406736 0.913546 0
    outer loop
      vertex 3.01292 9.2728 55
      vertex 4.875 8.44375 46
      vertex 3.01292 9.2728 46
    endloop
  endfacet
  facet normal -0.406736 0.913546 0
    outer loop
      vertex -3.01292 9.2728 46
      vertex -4.875 8.44375 55
      vertex -3.01292 9.2728 55
    endloop
  endfacet
  facet normal -0.406736 0.913546 0
    outer loop
      vertex -4.875 8.44375 55
      vertex -3.01292 9.2728 46
      vertex -4.875 8.44375 46
    endloop
  endfacet
  facet normal 0.866027 -0.499998 0
    outer loop
      vertex 7.88792 -5.73091 55
      vertex 8.90707 -3.96568 46
      vertex 8.90707 -3.96568 55
    endloop
  endfacet
  facet normal 0.866027 -0.499998 0
    outer loop
      vertex 8.90707 -3.96568 46
      vertex 7.88792 -5.73091 55
      vertex 7.88792 -5.73091 46
    endloop
  endfacet
  facet normal -0.406736 -0.913546 0
    outer loop
      vertex -4.875 -8.44375 46
      vertex -3.01292 -9.2728 55
      vertex -4.875 -8.44375 55
    endloop
  endfacet
  facet normal -0.406736 -0.913546 -0
    outer loop
      vertex -3.01292 -9.2728 55
      vertex -4.875 -8.44375 46
      vertex -3.01292 -9.2728 46
    endloop
  endfacet
  facet normal 0 1 -0
    outer loop
      vertex 1.01915 9.69659 46
      vertex -1.01915 9.69659 55
      vertex 1.01915 9.69659 55
    endloop
  endfacet
  facet normal 0 1 0
    outer loop
      vertex -1.01915 9.69659 55
      vertex 1.01915 9.69659 46
      vertex -1.01915 9.69659 46
    endloop
  endfacet
  facet normal 0.743142 -0.669134 0
    outer loop
      vertex 6.52402 -7.24566 55
      vertex 7.88792 -5.73091 46
      vertex 7.88792 -5.73091 55
    endloop
  endfacet
  facet normal 0.743142 -0.669134 0
    outer loop
      vertex 7.88792 -5.73091 46
      vertex 6.52402 -7.24566 55
      vertex 6.52402 -7.24566 46
    endloop
  endfacet
  facet normal 0.743142 0.669134 0
    outer loop
      vertex 7.88792 5.73091 55
      vertex 6.52402 7.24566 46
      vertex 6.52402 7.24566 55
    endloop
  endfacet
  facet normal 0.743142 0.669134 0
    outer loop
      vertex 6.52402 7.24566 46
      vertex 7.88792 5.73091 55
      vertex 7.88792 5.73091 46
    endloop
  endfacet
  facet normal 0.207912 0.978147 -0
    outer loop
      vertex 3.01292 9.2728 46
      vertex 1.01915 9.69659 55
      vertex 3.01292 9.2728 55
    endloop
  endfacet
  facet normal 0.207912 0.978147 0
    outer loop
      vertex 1.01915 9.69659 55
      vertex 3.01292 9.2728 46
      vertex 1.01915 9.69659 46
    endloop
  endfacet
  facet normal -0.951056 -0.309017 0
    outer loop
      vertex -8.90707 -3.96568 46
      vertex -9.53694 -2.02714 55
      vertex -9.53694 -2.02714 46
    endloop
  endfacet
  facet normal -0.951056 -0.309017 0
    outer loop
      vertex -9.53694 -2.02714 55
      vertex -8.90707 -3.96568 46
      vertex -8.90707 -3.96568 55
    endloop
  endfacet
  facet normal -0.587787 -0.809015 0
    outer loop
      vertex -6.52402 -7.24566 46
      vertex -4.875 -8.44375 55
      vertex -6.52402 -7.24566 55
    endloop
  endfacet
  facet normal -0.587787 -0.809015 -0
    outer loop
      vertex -4.875 -8.44375 55
      vertex -6.52402 -7.24566 46
      vertex -4.875 -8.44375 46
    endloop
  endfacet
  facet normal -0.743142 0.669134 0
    outer loop
      vertex -7.88792 5.73091 46
      vertex -6.52402 7.24566 55
      vertex -6.52402 7.24566 46
    endloop
  endfacet
  facet normal -0.743142 0.669134 0
    outer loop
      vertex -6.52402 7.24566 55
      vertex -7.88792 5.73091 46
      vertex -7.88792 5.73091 55
    endloop
  endfacet
  facet normal -0.587787 0.809015 0
    outer loop
      vertex -4.875 8.44375 46
      vertex -6.52402 7.24566 55
      vertex -4.875 8.44375 55
    endloop
  endfacet
  facet normal -0.587787 0.809015 0
    outer loop
      vertex -6.52402 7.24566 55
      vertex -4.875 8.44375 46
      vertex -6.52402 7.24566 46
    endloop
  endfacet
  facet normal -0.994522 -0.104528 0
    outer loop
      vertex -9.53694 -2.02714 46
      vertex -9.75 0 55
      vertex -9.75 0 46
    endloop
  endfacet
  facet normal -0.994522 -0.104528 0
    outer loop
      vertex -9.75 0 55
      vertex -9.53694 -2.02714 46
      vertex -9.53694 -2.02714 55
    endloop
  endfacet
  facet normal 0.951056 -0.309017 0
    outer loop
      vertex 8.90707 -3.96568 55
      vertex 9.53694 -2.02714 46
      vertex 9.53694 -2.02714 55
    endloop
  endfacet
  facet normal 0.951056 -0.309017 0
    outer loop
      vertex 9.53694 -2.02714 46
      vertex 8.90707 -3.96568 55
      vertex 8.90707 -3.96568 46
    endloop
  endfacet
  facet normal -0.207912 -0.978147 0
    outer loop
      vertex -3.01292 -9.2728 46
      vertex -1.01915 -9.69659 55
      vertex -3.01292 -9.2728 55
    endloop
  endfacet
  facet normal -0.207912 -0.978147 -0
    outer loop
      vertex -1.01915 -9.69659 55
      vertex -3.01292 -9.2728 46
      vertex -1.01915 -9.69659 46
    endloop
  endfacet
  facet normal 0 0 1
    outer loop
      vertex 9.53694 2.02714 55
      vertex 9.53694 -2.02714 55
      vertex 9.75 0 55
    endloop
  endfacet
  facet normal 0 0 1
    outer loop
      vertex 8.90707 3.96568 55
      vertex 9.53694 -2.02714 55
      vertex 9.53694 2.02714 55
    endloop
  endfacet
  facet normal 0 0 1
    outer loop
      vertex 8.90707 3.96568 55
      vertex 8.90707 -3.96568 55
      vertex 9.53694 -2.02714 55
    endloop
  endfacet
  facet normal 0 0 1
    outer loop
      vertex 7.88792 5.73091 55
      vertex 8.90707 -3.96568 55
      vertex 8.90707 3.96568 55
    endloop
  endfacet
  facet normal 0 0 1
    outer loop
      vertex 7.88792 5.73091 55
      vertex 7.88792 -5.73091 55
      vertex 8.90707 -3.96568 55
    endloop
  endfacet
  facet normal 0 0 1
    outer loop
      vertex 6.52402 7.24566 55
      vertex 7.88792 -5.73091 55
      vertex 7.88792 5.73091 55
    endloop
  endfacet
  facet normal 0 0 1
    outer loop
      vertex 6.52402 7.24566 55
      vertex 6.52402 -7.24566 55
      vertex 7.88792 -5.73091 55
    endloop
  endfacet
  facet normal 0 0 1
    outer loop
      vertex 4.875 8.44375 55
      vertex 6.52402 -7.24566 55
      vertex 6.52402 7.24566 55
    endloop
  endfacet
  facet normal 0 0 1
    outer loop
      vertex 4.875 8.44375 55
      vertex 4.875 -8.44375 55
      vertex 6.52402 -7.24566 55
    endloop
  endfacet
  facet normal 0 0 1
    outer loop
      vertex 3.01292 9.2728 55
      vertex 4.875 -8.44375 55
      vertex 4.875 8.44375 55
    endloop
  endfacet
  facet normal 0 0 1
    outer loop
      vertex 3.01292 9.2728 55
      vertex 3.01292 -9.2728 55
      vertex 4.875 -8.44375 55
    endloop
  endfacet
  facet normal 0 0 1
    outer loop
      vertex 1.01915 9.69659 55
      vertex 3.01292 -9.2728 55
      vertex 3.01292 9.2728 55
    endloop
  endfacet
  facet normal 0 0 1
    outer loop
      vertex 1.01915 9.69659 55
      vertex 1.01915 -9.69659 55
      vertex 3.01292 -9.2728 55
    endloop
  endfacet
  facet normal -0 0 1
    outer loop
      vertex -1.01915 9.69659 55
      vertex 1.01915 -9.69659 55
      vertex 1.01915 9.69659 55
    endloop
  endfacet
  facet normal 0 0 1
    outer loop
      vertex -1.01915 9.69659 55
      vertex -1.01915 -9.69659 55
      vertex 1.01915 -9.69659 55
    endloop
  endfacet
  facet normal -0 0 1
    outer loop
      vertex -3.01292 9.2728 55
      vertex -1.01915 -9.69659 55
      vertex -1.01915 9.69659 55
    endloop
  endfacet
  facet normal 0 0 1
    outer loop
      vertex -3.01292 9.2728 55
      vertex -3.01292 -9.2728 55
      vertex -1.01915 -9.69659 55
    endloop
  endfacet
  facet normal -0 0 1
    outer loop
      vertex -4.875 8.44375 55
      vertex -3.01292 -9.2728 55
      vertex -3.01292 9.2728 55
    endloop
  endfacet
  facet normal 0 0 1
    outer loop
      vertex -4.875 8.44375 55
      vertex -4.875 -8.44375 55
      vertex -3.01292 -9.2728 55
    endloop
  endfacet
  facet normal -0 0 1
    outer loop
      vertex -6.52402 7.24566 55
      vertex -4.875 -8.44375 55
      vertex -4.875 8.44375 55
    endloop
  endfacet
  facet normal 0 0 1
    outer loop
      vertex -6.52402 7.24566 55
      vertex -6.52402 -7.24566 55
      vertex -4.875 -8.44375 55
    endloop
  endfacet
  facet normal -0 0 1
    outer loop
      vertex -7.88792 5.73091 55
      vertex -6.52402 -7.24566 55
      vertex -6.52402 7.24566 55
    endloop
  endfacet
  facet normal 0 0 1
    outer loop
      vertex -7.88792 5.73091 55
      vertex -7.88792 -5.73091 55
      vertex -6.52402 -7.24566 55
    endloop
  endfacet
  facet normal -0 0 1
    outer loop
      vertex -8.90707 3.96568 55
      vertex -7.88792 -5.73091 55
      vertex -7.88792 5.73091 55
    endloop
  endfacet
  facet normal 0 0 1
    outer loop
      vertex -8.90707 3.96568 55
      vertex -8.90707 -3.96568 55
      vertex -7.88792 -5.73091 55
    endloop
  endfacet
  facet normal -0 0 1
    outer loop
      vertex -9.53694 2.02714 55
      vertex -8.90707 -3.96568 55
      vertex -8.90707 3.96568 55
    endloop
  endfacet
  facet normal 0 0 1
    outer loop
      vertex -9.53694 2.02714 55
      vertex -9.53694 -2.02714 55
      vertex -8.90707 -3.96568 55
    endloop
  endfacet
  facet normal 0 -0 1
    outer loop
      vertex -9.53694 -2.02714 55
      vertex -9.53694 2.02714 55
      vertex -9.75 0 55
    endloop
  endfacet
endsolid OpenSCAD_Model
