solid OpenSCAD_Model
  facet normal -0 0 1
    outer loop
      vertex -47.5 2.25 4.75
      vertex 45 -2.25 4.75
      vertex 45 2.25 4.75
    endloop
  endfacet
  facet normal 0 0 1
    outer loop
      vertex 45 -2.25 4.75
      vertex -47.5 2.25 4.75
      vertex -47.5 -2.25 4.75
    endloop
  endfacet
  facet normal 0 0 1
    outer loop
      vertex 45 2.25 4.75
      vertex 55 10 4.75
      vertex 45 10 4.75
    endloop
  endfacet
  facet normal 0 0 1
    outer loop
      vertex 55 10 4.75
      vertex 45 2.25 4.75
      vertex 55 -10 4.75
    endloop
  endfacet
  facet normal -0 0 1
    outer loop
      vertex 45 -2.25 4.75
      vertex 55 -10 4.75
      vertex 45 2.25 4.75
    endloop
  endfacet
  facet normal 0 0 1
    outer loop
      vertex 55 -10 4.75
      vertex 45 -2.25 4.75
      vertex 45 -10 4.75
    endloop
  endfacet
  facet normal 0 0 -1
    outer loop
      vertex -47.5 -2.25 -4.75
      vertex 45 2.25 -4.75
      vertex 45 -2.25 -4.75
    endloop
  endfacet
  facet normal -0 0 -1
    outer loop
      vertex 45 2.25 -4.75
      vertex -47.5 -2.25 -4.75
      vertex -47.5 2.25 -4.75
    endloop
  endfacet
  facet normal 0 0 -1
    outer loop
      vertex 45 -2.25 -4.75
      vertex 55 -10 -4.75
      vertex 45 -10 -4.75
    endloop
  endfacet
  facet normal 0 0 -1
    outer loop
      vertex 55 -10 -4.75
      vertex 45 -2.25 -4.75
      vertex 55 10 -4.75
    endloop
  endfacet
  facet normal 0 0 -1
    outer loop
      vertex 45 2.25 -4.75
      vertex 55 10 -4.75
      vertex 45 -2.25 -4.75
    endloop
  endfacet
  facet normal -0 0 -1
    outer loop
      vertex 55 10 -4.75
      vertex 45 2.25 -4.75
      vertex 45 10 -4.75
    endloop
  endfacet
  facet normal -1 0 0
    outer loop
      vertex -47.5 -2.25 -4.75
      vertex -47.5 2.25 4.75
      vertex -47.5 2.25 -4.75
    endloop
  endfacet
  facet normal -1 -0 0
    outer loop
      vertex -47.5 2.25 4.75
      vertex -47.5 -2.25 -4.75
      vertex -47.5 -2.25 4.75
    endloop
  endfacet
  facet normal 0 1 -0
    outer loop
      vertex 45 2.25 -4.75
      vertex -47.5 2.25 4.75
      vertex 45 2.25 4.75
    endloop
  endfacet
  facet normal 0 1 0
    outer loop
      vertex -47.5 2.25 4.75
      vertex 45 2.25 -4.75
      vertex -47.5 2.25 -4.75
    endloop
  endfacet
  facet normal 0 -1 0
    outer loop
      vertex -47.5 -2.25 -4.75
      vertex 45 -2.25 4.75
      vertex -47.5 -2.25 4.75
    endloop
  endfacet
  facet normal 0 -1 -0
    outer loop
      vertex 45 -2.25 4.75
      vertex -47.5 -2.25 -4.75
      vertex 45 -2.25 -4.75
    endloop
  endfacet
  facet normal 1 -0 0
    outer loop
      vertex 55 -10 4.75
      vertex 55 10 -4.75
      vertex 55 10 4.75
    endloop
  endfacet
  facet normal 1 0 0
    outer loop
      vertex 55 10 -4.75
      vertex 55 -10 4.75
      vertex 55 -10 -4.75
    endloop
  endfacet
  facet normal -1 0 0
    outer loop
      vertex 45 2.25 -4.75
      vertex 45 10 4.75
      vertex 45 10 -4.75
    endloop
  endfacet
  facet normal -1 -0 0
    outer loop
      vertex 45 10 4.75
      vertex 45 2.25 -4.75
      vertex 45 2.25 4.75
    endloop
  endfacet
  facet normal -1 0 0
    outer loop
      vertex 45 -10 -4.75
      vertex 45 -2.25 4.75
      vertex 45 -2.25 -4.75
    endloop
  endfacet
  facet normal -1 -0 0
    outer loop
      vertex 45 -2.25 4.75
      vertex 45 -10 -4.75
      vertex 45 -10 4.75
    endloop
  endfacet
  facet normal 0 1 -0
    outer loop
      vertex 55 10 -4.75
      vertex 45 10 4.75
      vertex 55 10 4.75
    endloop
  endfacet
  facet normal 0 1 0
    outer loop
      vertex 45 10 4.75
      vertex 55 10 -4.75
      vertex 45 10 -4.75
    endloop
  endfacet
  facet normal 0 -1 0
    outer loop
      vertex 45 -10 -4.75
      vertex 55 -10 4.75
      vertex 45 -10 4.75
    endloop
  endfacet
  facet normal 0 -1 -0
    outer loop
      vertex 55 -10 4.75
      vertex 45 -10 -4.75
      vertex 55 -10 -4.75
    endloop
  endfacet
endsolid OpenSCAD_Model
