<?xml version="1.0" encoding="UTF-8" standalone="no"?>
<!-- Created with Inkscape (http://www.inkscape.org/) -->

<svg
   width="100mm"
   height="100mm"
   viewBox="0 0 354.33071 354.33071"
   id="svg4382"
   version="1.1"
   inkscape:version="1.1.1 (c3084ef, 2021-09-22)"
   sodipodi:docname="inflatableGibbon.svg"
   xmlns:inkscape="http://www.inkscape.org/namespaces/inkscape"
   xmlns:sodipodi="http://sodipodi.sourceforge.net/DTD/sodipodi-0.dtd"
   xmlns="http://www.w3.org/2000/svg"
   xmlns:svg="http://www.w3.org/2000/svg"
   xmlns:rdf="http://www.w3.org/1999/02/22-rdf-syntax-ns#"
   xmlns:cc="http://creativecommons.org/ns#"
   xmlns:dc="http://purl.org/dc/elements/1.1/">
  <defs
     id="defs4384" />
  <sodipodi:namedview
     id="base"
     pagecolor="#ffffff"
     bordercolor="#666666"
     borderopacity="1.0"
     inkscape:pageopacity="0.0"
     inkscape:pageshadow="2"
     inkscape:zoom="3.959798"
     inkscape:cx="190.79256"
     inkscape:cy="132.83506"
     inkscape:document-units="px"
     inkscape:current-layer="layer1"
     showgrid="false"
     inkscape:window-width="1312"
     inkscape:window-height="812"
     inkscape:window-x="0"
     inkscape:window-y="25"
     inkscape:window-maximized="0"
     inkscape:pagecheckerboard="0"
     showguides="false"
     width="100mm" />
  <metadata
     id="metadata4387">
    <rdf:RDF>
      <cc:Work
         rdf:about="">
        <dc:format>image/svg+xml</dc:format>
        <dc:type
           rdf:resource="http://purl.org/dc/dcmitype/StillImage" />
      </cc:Work>
    </rdf:RDF>
  </metadata>
  <g
     inkscape:label="Layer 1"
     inkscape:groupmode="layer"
     id="layer1">
    <path
       id="path93344"
       style="fill:#ffffff;stroke:#000000;stroke-width:0.962122;stroke-linecap:round;stroke-linejoin:round"
       d="M 332.01367 6.8203125 C 316.94729 6.9271331 309.25835 11.467885 302.9375 18.837891 C 294.47547 28.704547 285.08982 63.625023 281.68164 81.347656 C 278.27336 99.070312 263.27543 129.06446 251.6875 137.92578 C 240.09965 146.78711 220.40625 145.25977 220.40625 145.25977 C 219.50244 141.23092 218.92079 137.69542 219.05078 135.61523 C 219.10153 134.80329 219.2763 133.81741 219.44922 132.83594 L 142.98047 132.83594 C 142.95966 133.77028 142.98246 134.73595 142.89453 135.61523 C 142.64161 138.14441 142.18523 141.78742 141.65625 145.75781 C 132.36918 144.68285 115.45699 143.5701 106.37109 148.38477 C 90.373128 156.86217 83.097744 168.05506 70.611328 182.99609 C 59.825636 195.90207 30.395351 206.12743 19.017578 215.09961 C 10.304496 221.97054 3.7520709 233.21645 9.3339844 252.22852 C 13.988078 268.08043 23.285595 275.20102 30.0625 277.76562 C 41.473549 282.08396 53.051951 279.53682 58.111328 272.91797 C 62.373259 267.34241 58.745251 260.36421 53.369141 261.27734 C 47.993008 262.19046 48.04572 265.403 41.541016 263.74219 C 35.036331 262.08139 27.214163 258.8906 28.257812 246.40234 C 30.653486 217.73583 60.004606 218.89488 81.166016 206.28516 C 94.979496 198.05391 91.549514 193.12153 110.60742 177.875 C 116.1466 173.44362 132.04665 172.78422 138.07227 173.47266 C 137.89118 175.3057 137.78142 177.14954 137.74023 178.99609 C 137.77063 189.97347 140.27667 200.71214 144.9668 209.95117 C 140.83996 214.40976 121.60144 235.23342 112.04883 246.95703 C 101.445 259.9708 91.514006 286.33125 93.732422 302.38672 C 95.704591 316.65993 104.30822 331.6832 109.15234 339.25781 L 83.769531 339.25781 C 74.97359 339.25781 67.890625 346.33872 67.890625 355.13477 L 67.890625 356.00195 C 67.890625 364.79785 74.97359 371.87891 83.769531 371.87891 L 140.93164 371.87891 C 149.72759 371.87891 156.81055 364.79785 156.81055 356.00195 L 156.81055 355.13477 C 156.81055 346.36459 149.7679 339.30313 141.00781 339.26172 C 136.28308 329.25258 130.14895 315.56317 127.4707 307.68945 C 124.57876 297.0856 128.43678 283.10814 134.2207 272.98633 C 138.70632 265.13653 157.60418 242.36994 166.0293 232.34375 C 171.53436 235.20997 177.42902 236.68646 183.38281 236.69141 C 188.74192 236.64735 194.05446 235.40966 199.07422 233.03711 C 207.91253 243.57677 225.97084 265.41579 230.29688 272.98633 C 236.08077 283.10814 239.93878 297.0856 237.04688 307.68945 C 236.65039 309.14314 233.43923 325.91645 229.52148 339.42383 C 221.76781 340.48311 215.82617 347.08107 215.82617 355.13477 L 215.82617 356.00195 C 215.82617 364.79785 222.90721 371.87891 231.70312 371.87891 L 288.86523 371.87891 C 297.66125 371.87891 304.74219 364.79785 304.74219 356.00195 L 304.74219 355.13477 C 304.74219 346.33872 297.66125 339.25781 288.86523 339.25781 L 255.36523 339.25781 C 260.20938 331.6832 268.81305 316.65993 270.78516 302.38672 C 273.0036 286.33125 263.07257 259.9708 252.46875 246.95703 C 243.46532 235.90725 226.64328 217.64096 220.98438 211.51562 C 226.19418 201.94601 228.99772 190.61252 229.02734 178.99609 C 228.953 177.61711 228.83824 176.24173 228.68555 174.87305 C 229.35299 174.82995 229.85491 174.77152 230.55859 174.73242 C 242.82804 174.05077 272.82032 167.23628 287.13477 147.46875 C 301.44921 127.70119 304.85737 101.11522 310.31055 82.029297 C 317.07786 58.343571 313.71875 34.996093 335.53125 28.861328 C 347.59498 25.468402 355.98055 30.224633 358.70703 36.359375 C 361.43361 42.494139 355.29883 45.904285 355.29883 51.357422 C 355.29883 56.810529 361.4336 57.492181 367.56836 54.083984 C 373.70304 50.675781 378.83788 29.068739 368.52344 18.554688 C 363.44913 13.382169 358.70696 8.4140858 338.93945 7.0507812 C 336.46847 6.880372 334.16596 6.8050438 332.01367 6.8203125 z "
       transform="scale(0.9375)" />
  </g>
</svg>
