<?xml version="1.0" encoding="UTF-8" standalone="no"?>
<!-- Created with Inkscape (http://www.inkscape.org/) -->

<svg
   width="100mm"
   height="100mm"
   viewBox="0 0 354.33071 354.33071"
   id="svg4382"
   version="1.1"
   inkscape:version="1.1.1 (c3084ef, 2021-09-22)"
   sodipodi:docname="inflatableGibbonBackup.svg"
   xmlns:inkscape="http://www.inkscape.org/namespaces/inkscape"
   xmlns:sodipodi="http://sodipodi.sourceforge.net/DTD/sodipodi-0.dtd"
   xmlns="http://www.w3.org/2000/svg"
   xmlns:svg="http://www.w3.org/2000/svg"
   xmlns:rdf="http://www.w3.org/1999/02/22-rdf-syntax-ns#"
   xmlns:cc="http://creativecommons.org/ns#"
   xmlns:dc="http://purl.org/dc/elements/1.1/">
  <defs
     id="defs4384" />
  <sodipodi:namedview
     id="base"
     pagecolor="#ffffff"
     bordercolor="#666666"
     borderopacity="1.0"
     inkscape:pageopacity="0.0"
     inkscape:pageshadow="2"
     inkscape:zoom="0.35"
     inkscape:cx="-118.57143"
     inkscape:cy="648.57143"
     inkscape:document-units="px"
     inkscape:current-layer="layer1"
     showgrid="false"
     inkscape:window-width="1312"
     inkscape:window-height="812"
     inkscape:window-x="0"
     inkscape:window-y="25"
     inkscape:window-maximized="0"
     inkscape:pagecheckerboard="0"
     showguides="false"
     width="100mm" />
  <metadata
     id="metadata4387">
    <rdf:RDF>
      <cc:Work
         rdf:about="">
        <dc:format>image/svg+xml</dc:format>
        <dc:type
           rdf:resource="http://purl.org/dc/dcmitype/StillImage" />
      </cc:Work>
    </rdf:RDF>
  </metadata>
  <g
     inkscape:label="Layer 1"
     inkscape:groupmode="layer"
     id="layer1">
    <path
       id="path93344"
       style="fill:#ffffff;stroke:#000000;stroke-width:0.901989;stroke-linecap:round;stroke-linejoin:round"
       d="m 311.26241,6.3933612 c -14.12473,0.1001443 -21.33319,4.3576498 -27.25899,11.2670298 -7.93315,9.24999 -16.73177,41.988257 -19.92694,58.603226 -3.19526,16.61499 -17.255,44.733863 -28.11868,53.041353 -10.86361,8.3075 -29.32608,6.87591 -29.32608,6.87591 -0.84732,-3.77704 -1.39395,-7.09072 -1.27208,-9.04089 0.12625,-2.01993 0.70809,-4.69762 1.4678,-7.51194 6.25007,-4.47752 9.65547,-10.01428 9.66817,-15.71933 0,-3.52801 -1.30567,-7.016972 -3.82321,-10.244814 0.74828,-1.468032 1.2279,-3.073854 1.36646,-4.752842 l 0.63079,-7.648233 c 0.55216,-6.693738 -4.52441,-11.926371 -11.38237,-11.733566 l -9.49869,0.267347 c -1.20919,0.03397 -2.3885,0.236417 -3.51745,0.580116 -5.82594,-2.18695 -12.26739,-3.327974 -18.80167,-3.330473 -6.35195,0.02309 -12.61226,1.121727 -18.30019,3.211653 -1.00546,-0.272546 -2.05009,-0.431331 -3.11556,-0.461296 l -9.49695,-0.267347 c -6.85793,-0.192805 -11.93445,5.039828 -11.38234,11.733566 l 0.63079,7.648233 c 0.10041,1.217156 0.38133,2.394614 0.81252,3.510463 -0.0708,0.434711 -0.12908,0.87048 -0.17473,1.307033 -2.49905,3.208269 -3.79777,6.67428 -3.81451,10.18016 0.0313,4.85156 2.51673,9.5967 7.16247,13.67491 0.3214,3.21546 0.46937,6.59272 0.17299,9.55636 -0.23711,2.3711 -0.66608,5.78518 -1.162,9.50742 -8.70663,-1.00778 -24.56139,-2.04996 -33.079417,2.46379 -14.998093,7.94757 -21.81899,18.43966 -33.525005,32.44688 -10.111586,12.09935 -37.702238,21.68699 -48.3689,30.09841 -8.1685146,6.4415 -14.3106209,16.98378 -9.077577,34.80759 4.363213,14.86117 13.079142,21.53636 19.43249,23.94068 10.697858,4.04844 21.552965,1.66026 26.296131,-4.54491 3.99556,-5.22709 0.594802,-11.76837 -4.445301,-10.91231 -5.040124,0.85605 -4.990635,3.86703 -11.088795,2.31002 -6.098142,-1.557 -13.431916,-4.54802 -12.453495,-16.25576 2.245944,-26.87486 29.76197,-25.78698 49.600791,-37.6086 12.950138,-7.71679 9.734629,-12.34152 27.601418,-26.63514 5.19298,-4.15442 20.1002,-4.77269 25.74921,-4.12728 -0.16977,1.71848 -0.27416,3.4463 -0.31277,5.17744 0.0285,10.29129 2.37931,20.35871 6.7763,29.0203 -3.86891,4.17993 -21.90646,23.7031 -30.86203,34.69399 -9.941085,12.20041 -19.251148,36.91296 -17.171383,51.96496 1.848909,13.38114 9.914615,27.46521 14.455983,34.56641 H 78.533951 c -8.246195,0 -14.885824,6.63788 -14.885824,14.88417 v 0.81421 c 0,8.24615 6.639629,14.88404 14.885824,14.88404 h 53.590029 c 8.2462,0 14.88583,-6.63789 14.88583,-14.88404 v -0.81421 c 0,-8.22204 -6.60161,-14.84185 -14.81419,-14.88067 -4.42944,-9.38357 -10.18027,-22.21699 -12.69113,-29.5986 -2.7112,-9.94111 0.90479,-23.04507 6.32722,-32.53427 4.20527,-7.35919 21.92204,-28.70356 29.82059,-38.10311 5.161,2.68708 10.68805,4.07197 16.26973,4.07661 5.02416,-0.0413 10.00332,-1.20058 14.70934,-3.42485 8.28592,9.88093 25.21624,30.35397 29.2719,37.45135 5.4224,9.4892 9.03843,22.59316 6.32727,32.53427 -0.3717,1.36283 -3.38126,17.08751 -7.05415,29.75068 -7.26907,0.99308 -12.83967,7.17825 -12.83967,14.72859 v 0.81421 c 0,8.24615 6.63788,14.88404 14.88405,14.88404 h 53.58999 c 8.24626,0 14.88587,-6.63789 14.88587,-14.88404 v -0.81421 c 0,-8.24629 -6.63961,-14.88417 -14.88587,-14.88417 h -31.4054 c 4.54139,-7.1012 12.60711,-21.18527 14.45596,-34.56641 2.07979,-15.052 -7.23033,-39.76455 -17.17141,-51.96496 -8.44072,-10.35917 -24.21122,-27.4837 -29.51644,-33.2262 4.88419,-8.97151 7.51212,-19.59769 7.53989,-30.48809 -0.0697,-1.2928 -0.17664,-2.58203 -0.31979,-3.86517 0.62573,-0.0404 1.09468,-0.0944 1.75438,-0.13105 11.50261,-0.63905 39.62148,-7.02844 53.04127,-25.5605 13.41979,-18.53209 16.61448,-43.455294 21.72683,-61.348343 6.34436,-22.205368 3.19442,-44.094082 23.64364,-49.845424 11.30975,-3.180868 19.17238,1.278338 21.72846,7.029659 2.55617,5.751341 -3.19593,8.947011 -3.19593,14.059327 0,5.112288 5.75164,5.75158 11.50298,2.556396 5.75126,-3.195191 10.56616,-23.451402 0.89637,-33.308325 -4.75716,-4.849236 -9.2039,-9.5066674 -27.73594,-10.7847654 -2.31655,-0.1597587 -4.47545,-0.2309778 -6.49322,-0.2166634 z"
       sodipodi:nodetypes="sssscsccccscccccccssccccscssssssssssscccsscsssssssccscccsscssssssscssccccsssssssss" />
  </g>
</svg>
