<?xml version="1.0" encoding="UTF-8" standalone="no"?>
<!-- Created with Inkscape (http://www.inkscape.org/) -->

<svg
   width="100mm"
   height="100mm"
   viewBox="0 0 354.33071 354.33071"
   id="svg4382"
   version="1.1"
   inkscape:version="1.1.1 (c3084ef, 2021-09-22)"
   sodipodi:docname="inflatableGibbonTorsoNoEars.svg"
   xmlns:inkscape="http://www.inkscape.org/namespaces/inkscape"
   xmlns:sodipodi="http://sodipodi.sourceforge.net/DTD/sodipodi-0.dtd"
   xmlns="http://www.w3.org/2000/svg"
   xmlns:svg="http://www.w3.org/2000/svg"
   xmlns:rdf="http://www.w3.org/1999/02/22-rdf-syntax-ns#"
   xmlns:cc="http://creativecommons.org/ns#"
   xmlns:dc="http://purl.org/dc/elements/1.1/">
  <defs
     id="defs4384" />
  <sodipodi:namedview
     id="base"
     pagecolor="#ffffff"
     bordercolor="#666666"
     borderopacity="1.0"
     inkscape:pageopacity="0.0"
     inkscape:pageshadow="2"
     inkscape:zoom="0.98994949"
     inkscape:cx="153.03811"
     inkscape:cy="95.964492"
     inkscape:document-units="px"
     inkscape:current-layer="layer1"
     showgrid="false"
     inkscape:window-width="1312"
     inkscape:window-height="812"
     inkscape:window-x="0"
     inkscape:window-y="25"
     inkscape:window-maximized="0"
     inkscape:pagecheckerboard="0"
     showguides="false"
     width="100mm" />
  <metadata
     id="metadata4387">
    <rdf:RDF>
      <cc:Work
         rdf:about="">
        <dc:format>image/svg+xml</dc:format>
        <dc:type
           rdf:resource="http://purl.org/dc/dcmitype/StillImage" />
      </cc:Work>
    </rdf:RDF>
  </metadata>
  <g
     inkscape:label="Layer 1"
     inkscape:groupmode="layer"
     id="layer1">
    <path
       style="fill:#ffffff;stroke:#000000;stroke-width:0.901989;stroke-linecap:round;stroke-linejoin:round"
       d="m 190.27114,70.376728 c -5.82594,-2.18695 -12.26739,-3.327974 -18.80167,-3.330473 -6.35195,0.02309 -12.61226,1.121727 -18.30019,3.211653"
       id="path116723" />
    <path
       id="path116327"
       style="fill:#ffffff;stroke:#000000;stroke-width:0.962122;stroke-linecap:round;stroke-linejoin:round"
       d="m 332.01367,6.8203125 c -15.06638,0.1068206 -22.75532,4.6475725 -29.07617,12.0175785 -8.46203,9.866656 -17.84768,44.787132 -21.25586,62.509765 -3.40828,17.722656 -18.40621,47.716804 -29.99414,56.578124 -11.58785,8.86133 -31.28125,7.33399 -31.28125,7.33399 -0.90381,-4.02885 -1.48546,-7.56435 -1.35547,-9.64454 0.13467,-2.15459 0.7541,-5.00977 1.56445,-8.01171 6.66675,-4.77603 10.29896,-10.6822 10.3125,-16.76758 0,-3.76321 -1.39274,-7.48471 -4.07812,-10.927737 l -0.24414,-0.0039 c -1.54804,-15.935509 -20.59285,-28.312755 -43.57031,-28.316406 -22.23292,0.01755 -41.24717,11.6349 -43.70899,26.99414 v 0 c -0.0755,0.463692 -0.1388,0.928875 -0.1875,1.394531 -2.66565,3.422158 -4.0505,7.119768 -4.06836,10.859378 0.0334,5.17499 2.68517,10.23584 7.64063,14.58594 0.34282,3.42982 0.49973,7.03214 0.18359,10.19335 -0.25292,2.52918 -0.7093,6.17219 -1.23828,10.14258 -9.28707,-1.07496 -26.19926,-2.18771 -35.28516,2.62696 -15.997962,8.4774 -23.273346,19.67029 -35.759762,34.61132 -10.785692,12.90598 -40.215977,23.13134 -51.59375,32.10352 -8.713082,6.87093 -15.2655071,18.11684 -9.6835936,37.12891 4.6540936,15.85191 13.9516106,22.9725 20.7285156,25.5371 11.411049,4.31834 22.989451,1.7712 28.048828,-4.84765 4.261931,-5.57556 0.633923,-12.55376 -4.742187,-11.64063 -5.376133,0.91312 -5.323421,4.12566 -11.828125,2.46485 -6.504685,-1.6608 -14.326853,-4.85159 -13.283204,-17.33985 2.395674,-28.66651 31.746794,-27.50746 52.908204,-40.11718 13.81348,-8.23125 10.383498,-13.16363 29.441404,-28.41016 5.53918,-4.43138 21.43923,-5.09078 27.46485,-4.40234 -0.18109,1.83304 -0.29085,3.67688 -0.33204,5.52343 0.0304,10.97738 2.53644,21.71605 7.22657,30.95508 -4.12684,4.45859 -23.36536,25.28225 -32.91797,37.00586 -10.60383,13.01377 -20.534824,39.37422 -18.316408,55.42969 1.972169,14.27321 10.575798,29.29648 15.419918,36.87109 H 83.769531 c -8.795941,0 -15.878906,7.08091 -15.878906,15.87696 v 0.86718 c 0,8.7959 7.082965,15.87696 15.878906,15.87696 h 57.162109 c 8.79595,0 15.87891,-7.08106 15.87891,-15.87696 v -0.86718 c 0,-8.77018 -7.04265,-15.83164 -15.80274,-15.87305 -4.72473,-10.00914 -10.85886,-23.69855 -13.53711,-31.57227 -2.89194,-10.60385 0.96608,-24.58131 6.75,-34.70312 4.48562,-7.8498 23.38348,-30.61639 31.8086,-40.64258 5.50506,2.86622 11.39972,4.34271 17.35351,4.34766 5.35911,-0.0441 10.67165,-1.28175 15.69141,-3.6543 8.83831,10.53966 26.89662,32.37868 31.22266,39.94922 5.78389,10.12181 9.6419,24.09927 6.75,34.70312 -0.39649,1.45369 -3.60765,18.227 -7.5254,31.73438 -7.75367,1.05928 -13.69531,7.65724 -13.69531,15.71094 v 0.86718 c 0,8.7959 7.08104,15.87696 15.87695,15.87696 h 57.16211 c 8.79602,0 15.87696,-7.08106 15.87696,-15.87696 v -0.86718 c 0,-8.79605 -7.08094,-15.87696 -15.87696,-15.87696 h -33.5 c 4.84415,-7.57461 13.44782,-22.59788 15.41993,-36.87109 2.21844,-16.05547 -7.71259,-42.41592 -18.31641,-55.42969 -9.00343,-11.04978 -25.82547,-29.31607 -31.48437,-35.44141 5.2098,-9.56961 8.01334,-20.9031 8.04296,-32.51953 -0.0743,-1.37898 -0.1891,-2.75436 -0.34179,-4.12304 0.66744,-0.0431 1.16936,-0.10153 1.87304,-0.14063 12.26945,-0.68165 42.26173,-7.49614 56.57618,-27.26367 14.31444,-19.76756 17.7226,-46.35353 23.17578,-65.439453 6.76731,-23.685726 3.4082,-47.033204 25.2207,-53.167969 12.06373,-3.392926 20.4493,1.363305 23.17578,7.498047 2.72658,6.134764 -3.4082,9.54491 -3.4082,14.998047 0,5.453107 6.13477,6.134759 12.26953,2.726562 6.13468,-3.408203 11.26952,-25.015245 0.95508,-35.529296 C 363.44913,13.382169 358.70696,8.4140858 338.93945,7.0507812 336.46847,6.880372 334.16596,6.8050438 332.01367,6.8203125 Z"
       transform="scale(0.9375)"
       sodipodi:nodetypes="sscscsccccccccccscssssssssssscccsscsssssssccscccsscssssssscscccccscscsssss" />
  </g>
</svg>
