solid OpenSCAD_Model
  facet normal 1 -0 0
    outer loop
      vertex 45 -13 5
      vertex 45 221 -5
      vertex 45 221 5
    endloop
  endfacet
  facet normal 1 0 0
    outer loop
      vertex 45 221 -5
      vertex 45 -13 5
      vertex 45 -13 -5
    endloop
  endfacet
  facet normal -0 0 1
    outer loop
      vertex -32 21 5
      vertex -8 5 5
      vertex -8 21 5
    endloop
  endfacet
  facet normal 0 0 1
    outer loop
      vertex -8 5 5
      vertex -32 21 5
      vertex -32 5 5
    endloop
  endfacet
  facet normal -0 0 1
    outer loop
      vertex -32 47 5
      vertex -8 31 5
      vertex -8 47 5
    endloop
  endfacet
  facet normal 0 0 1
    outer loop
      vertex -8 31 5
      vertex -32 47 5
      vertex -32 31 5
    endloop
  endfacet
  facet normal -0 0 1
    outer loop
      vertex -32 73 5
      vertex -8 57 5
      vertex -8 73 5
    endloop
  endfacet
  facet normal 0 0 1
    outer loop
      vertex -8 57 5
      vertex -32 73 5
      vertex -32 57 5
    endloop
  endfacet
  facet normal -0 0 1
    outer loop
      vertex -32 99 5
      vertex -8 83 5
      vertex -8 99 5
    endloop
  endfacet
  facet normal 0 0 1
    outer loop
      vertex -8 83 5
      vertex -32 99 5
      vertex -32 83 5
    endloop
  endfacet
  facet normal -0 0 1
    outer loop
      vertex -32 125 5
      vertex -8 109 5
      vertex -8 125 5
    endloop
  endfacet
  facet normal 0 0 1
    outer loop
      vertex -8 109 5
      vertex -32 125 5
      vertex -32 109 5
    endloop
  endfacet
  facet normal -0 0 1
    outer loop
      vertex -32 151 5
      vertex -8 135 5
      vertex -8 151 5
    endloop
  endfacet
  facet normal 0 0 1
    outer loop
      vertex -8 135 5
      vertex -32 151 5
      vertex -32 135 5
    endloop
  endfacet
  facet normal -0 0 1
    outer loop
      vertex -32 177 5
      vertex -8 161 5
      vertex -8 177 5
    endloop
  endfacet
  facet normal 0 0 1
    outer loop
      vertex -8 161 5
      vertex -32 177 5
      vertex -32 161 5
    endloop
  endfacet
  facet normal -0 0 1
    outer loop
      vertex -32 203 5
      vertex -8 187 5
      vertex -8 203 5
    endloop
  endfacet
  facet normal 0 0 1
    outer loop
      vertex -8 187 5
      vertex -32 203 5
      vertex -32 187 5
    endloop
  endfacet
  facet normal -0 0 1
    outer loop
      vertex 8 21 5
      vertex 32 5 5
      vertex 32 21 5
    endloop
  endfacet
  facet normal 0 0 1
    outer loop
      vertex 32 5 5
      vertex 8 21 5
      vertex 8 5 5
    endloop
  endfacet
  facet normal -0 0 1
    outer loop
      vertex 8 47 5
      vertex 32 31 5
      vertex 32 47 5
    endloop
  endfacet
  facet normal 0 0 1
    outer loop
      vertex 32 31 5
      vertex 8 47 5
      vertex 8 31 5
    endloop
  endfacet
  facet normal -0 0 1
    outer loop
      vertex 8 73 5
      vertex 32 57 5
      vertex 32 73 5
    endloop
  endfacet
  facet normal 0 0 1
    outer loop
      vertex 32 57 5
      vertex 8 73 5
      vertex 8 57 5
    endloop
  endfacet
  facet normal -0 0 1
    outer loop
      vertex 8 99 5
      vertex 32 83 5
      vertex 32 99 5
    endloop
  endfacet
  facet normal 0 0 1
    outer loop
      vertex 32 83 5
      vertex 8 99 5
      vertex 8 83 5
    endloop
  endfacet
  facet normal -0 0 1
    outer loop
      vertex 8 125 5
      vertex 32 109 5
      vertex 32 125 5
    endloop
  endfacet
  facet normal 0 0 1
    outer loop
      vertex 32 109 5
      vertex 8 125 5
      vertex 8 109 5
    endloop
  endfacet
  facet normal -0 0 1
    outer loop
      vertex 8 151 5
      vertex 32 135 5
      vertex 32 151 5
    endloop
  endfacet
  facet normal 0 0 1
    outer loop
      vertex 32 135 5
      vertex 8 151 5
      vertex 8 135 5
    endloop
  endfacet
  facet normal -0 0 1
    outer loop
      vertex 8 177 5
      vertex 32 161 5
      vertex 32 177 5
    endloop
  endfacet
  facet normal 0 0 1
    outer loop
      vertex 32 161 5
      vertex 8 177 5
      vertex 8 161 5
    endloop
  endfacet
  facet normal -0 0 1
    outer loop
      vertex 8 203 5
      vertex 32 187 5
      vertex 32 203 5
    endloop
  endfacet
  facet normal 0 0 1
    outer loop
      vertex 32 187 5
      vertex 8 203 5
      vertex 8 187 5
    endloop
  endfacet
  facet normal 0 0 1
    outer loop
      vertex 32 203 5
      vertex 45 221 5
      vertex 32 213 5
    endloop
  endfacet
  facet normal 0 0 1
    outer loop
      vertex 45 221 5
      vertex 8 213 5
      vertex 32 213 5
    endloop
  endfacet
  facet normal 0 0 1
    outer loop
      vertex -8 203 5
      vertex 8 203 5
      vertex 8 213 5
    endloop
  endfacet
  facet normal 0 0 1
    outer loop
      vertex 8 203 5
      vertex -8 203 5
      vertex 8 187 5
    endloop
  endfacet
  facet normal 0 0 1
    outer loop
      vertex 8 187 5
      vertex -8 187 5
      vertex 8 177 5
    endloop
  endfacet
  facet normal 0 0 1
    outer loop
      vertex -8 177 5
      vertex 8 177 5
      vertex -8 187 5
    endloop
  endfacet
  facet normal 0 0 1
    outer loop
      vertex -8 161 5
      vertex 8 161 5
      vertex -8 177 5
    endloop
  endfacet
  facet normal 0 0 1
    outer loop
      vertex 8 161 5
      vertex -8 161 5
      vertex 8 151 5
    endloop
  endfacet
  facet normal 0 0 1
    outer loop
      vertex 8 151 5
      vertex -8 151 5
      vertex 8 135 5
    endloop
  endfacet
  facet normal 0 0 1
    outer loop
      vertex -8 135 5
      vertex 8 135 5
      vertex -8 151 5
    endloop
  endfacet
  facet normal 0 0 1
    outer loop
      vertex -8 125 5
      vertex 8 125 5
      vertex -8 135 5
    endloop
  endfacet
  facet normal 0 0 1
    outer loop
      vertex 8 125 5
      vertex -8 125 5
      vertex 8 109 5
    endloop
  endfacet
  facet normal 0 0 1
    outer loop
      vertex 8 109 5
      vertex -8 109 5
      vertex 8 99 5
    endloop
  endfacet
  facet normal 0 0 1
    outer loop
      vertex -8 99 5
      vertex 8 99 5
      vertex -8 109 5
    endloop
  endfacet
  facet normal 0 0 1
    outer loop
      vertex -8 83 5
      vertex 8 83 5
      vertex -8 99 5
    endloop
  endfacet
  facet normal 0 0 1
    outer loop
      vertex 8 83 5
      vertex -8 83 5
      vertex 8 73 5
    endloop
  endfacet
  facet normal 0 0 1
    outer loop
      vertex 8 73 5
      vertex -8 73 5
      vertex 8 57 5
    endloop
  endfacet
  facet normal 0 0 1
    outer loop
      vertex -8 57 5
      vertex 8 57 5
      vertex -8 73 5
    endloop
  endfacet
  facet normal 0 0 1
    outer loop
      vertex -8 203 5
      vertex 8 213 5
      vertex -8 213 5
    endloop
  endfacet
  facet normal 0 0 1
    outer loop
      vertex 45 221 5
      vertex -8 213 5
      vertex 8 213 5
    endloop
  endfacet
  facet normal -0 0 1
    outer loop
      vertex -45 221 5
      vertex -8 213 5
      vertex 45 221 5
    endloop
  endfacet
  facet normal 0 0 1
    outer loop
      vertex -45 221 5
      vertex -32 203 5
      vertex -32 213 5
    endloop
  endfacet
  facet normal 0 0 1
    outer loop
      vertex -32 203 5
      vertex -45 221 5
      vertex -32 187 5
    endloop
  endfacet
  facet normal 0 0 1
    outer loop
      vertex -32 187 5
      vertex -45 221 5
      vertex -32 177 5
    endloop
  endfacet
  facet normal 0 0 1
    outer loop
      vertex -32 177 5
      vertex -45 221 5
      vertex -32 161 5
    endloop
  endfacet
  facet normal 0 0 1
    outer loop
      vertex -32 161 5
      vertex -45 221 5
      vertex -32 151 5
    endloop
  endfacet
  facet normal 0 0 1
    outer loop
      vertex -32 151 5
      vertex -45 221 5
      vertex -32 135 5
    endloop
  endfacet
  facet normal 0 0 1
    outer loop
      vertex -32 135 5
      vertex -45 221 5
      vertex -32 125 5
    endloop
  endfacet
  facet normal 0 0 1
    outer loop
      vertex -32 125 5
      vertex -45 221 5
      vertex -32 109 5
    endloop
  endfacet
  facet normal 0 0 1
    outer loop
      vertex -32 109 5
      vertex -45 221 5
      vertex -32 99 5
    endloop
  endfacet
  facet normal 0 0 1
    outer loop
      vertex -45 -13 5
      vertex -32 99 5
      vertex -45 221 5
    endloop
  endfacet
  facet normal 0 0 1
    outer loop
      vertex -32 99 5
      vertex -45 -13 5
      vertex -32 83 5
    endloop
  endfacet
  facet normal 0 0 1
    outer loop
      vertex -32 83 5
      vertex -45 -13 5
      vertex -32 73 5
    endloop
  endfacet
  facet normal 0 0 1
    outer loop
      vertex -32 73 5
      vertex -45 -13 5
      vertex -32 57 5
    endloop
  endfacet
  facet normal 0 0 1
    outer loop
      vertex -32 57 5
      vertex -45 -13 5
      vertex -32 47 5
    endloop
  endfacet
  facet normal 0 0 1
    outer loop
      vertex -32 47 5
      vertex -45 -13 5
      vertex -32 31 5
    endloop
  endfacet
  facet normal 0 0 1
    outer loop
      vertex -32 31 5
      vertex -45 -13 5
      vertex -32 21 5
    endloop
  endfacet
  facet normal 0 0 1
    outer loop
      vertex -32 21 5
      vertex -45 -13 5
      vertex -32 5 5
    endloop
  endfacet
  facet normal 0 0 1
    outer loop
      vertex -8 213 5
      vertex -45 221 5
      vertex -32 213 5
    endloop
  endfacet
  facet normal 0 0 1
    outer loop
      vertex 32 187 5
      vertex 45 221 5
      vertex 32 203 5
    endloop
  endfacet
  facet normal 0 0 1
    outer loop
      vertex 32 177 5
      vertex 45 221 5
      vertex 32 187 5
    endloop
  endfacet
  facet normal 0 0 1
    outer loop
      vertex 32 161 5
      vertex 45 221 5
      vertex 32 177 5
    endloop
  endfacet
  facet normal 0 0 1
    outer loop
      vertex 32 151 5
      vertex 45 221 5
      vertex 32 161 5
    endloop
  endfacet
  facet normal 0 0 1
    outer loop
      vertex 32 135 5
      vertex 45 221 5
      vertex 32 151 5
    endloop
  endfacet
  facet normal 0 0 1
    outer loop
      vertex 32 125 5
      vertex 45 221 5
      vertex 32 135 5
    endloop
  endfacet
  facet normal 0 0 1
    outer loop
      vertex 32 109 5
      vertex 45 221 5
      vertex 32 125 5
    endloop
  endfacet
  facet normal 0 0 1
    outer loop
      vertex 45 221 5
      vertex 32 109 5
      vertex 45 -13 5
    endloop
  endfacet
  facet normal -0 0 1
    outer loop
      vertex 32 99 5
      vertex 45 -13 5
      vertex 32 109 5
    endloop
  endfacet
  facet normal -0 0 1
    outer loop
      vertex 32 83 5
      vertex 45 -13 5
      vertex 32 99 5
    endloop
  endfacet
  facet normal -0 0 1
    outer loop
      vertex 32 73 5
      vertex 45 -13 5
      vertex 32 83 5
    endloop
  endfacet
  facet normal -0 0 1
    outer loop
      vertex 32 57 5
      vertex 45 -13 5
      vertex 32 73 5
    endloop
  endfacet
  facet normal -0 0 1
    outer loop
      vertex 32 47 5
      vertex 45 -13 5
      vertex 32 57 5
    endloop
  endfacet
  facet normal -0 0 1
    outer loop
      vertex 32 31 5
      vertex 45 -13 5
      vertex 32 47 5
    endloop
  endfacet
  facet normal -0 0 1
    outer loop
      vertex 32 21 5
      vertex 45 -13 5
      vertex 32 31 5
    endloop
  endfacet
  facet normal -0 0 1
    outer loop
      vertex 32 5 5
      vertex 45 -13 5
      vertex 32 21 5
    endloop
  endfacet
  facet normal -0 0 1
    outer loop
      vertex 32 -5 5
      vertex 45 -13 5
      vertex 32 5 5
    endloop
  endfacet
  facet normal -0 0 1
    outer loop
      vertex 8 -5 5
      vertex 45 -13 5
      vertex 32 -5 5
    endloop
  endfacet
  facet normal 0 0 1
    outer loop
      vertex 8 187 5
      vertex -8 203 5
      vertex -8 187 5
    endloop
  endfacet
  facet normal 0 0 1
    outer loop
      vertex 8 177 5
      vertex -8 177 5
      vertex 8 161 5
    endloop
  endfacet
  facet normal 0 0 1
    outer loop
      vertex -8 151 5
      vertex 8 151 5
      vertex -8 161 5
    endloop
  endfacet
  facet normal 0 0 1
    outer loop
      vertex 8 135 5
      vertex -8 135 5
      vertex 8 125 5
    endloop
  endfacet
  facet normal 0 0 1
    outer loop
      vertex -8 109 5
      vertex 8 109 5
      vertex -8 125 5
    endloop
  endfacet
  facet normal 0 0 1
    outer loop
      vertex 8 99 5
      vertex -8 99 5
      vertex 8 83 5
    endloop
  endfacet
  facet normal 0 0 1
    outer loop
      vertex -8 73 5
      vertex 8 73 5
      vertex -8 83 5
    endloop
  endfacet
  facet normal 0 0 1
    outer loop
      vertex 8 57 5
      vertex -8 57 5
      vertex 8 47 5
    endloop
  endfacet
  facet normal 0 0 1
    outer loop
      vertex -8 47 5
      vertex 8 47 5
      vertex -8 57 5
    endloop
  endfacet
  facet normal 0 0 1
    outer loop
      vertex 8 47 5
      vertex -8 47 5
      vertex 8 31 5
    endloop
  endfacet
  facet normal 0 0 1
    outer loop
      vertex -8 31 5
      vertex 8 31 5
      vertex -8 47 5
    endloop
  endfacet
  facet normal 0 0 1
    outer loop
      vertex 8 31 5
      vertex -8 31 5
      vertex 8 21 5
    endloop
  endfacet
  facet normal 0 0 1
    outer loop
      vertex -8 21 5
      vertex 8 21 5
      vertex -8 31 5
    endloop
  endfacet
  facet normal 0 0 1
    outer loop
      vertex 8 21 5
      vertex -8 21 5
      vertex 8 5 5
    endloop
  endfacet
  facet normal 0 0 1
    outer loop
      vertex -8 5 5
      vertex 8 5 5
      vertex -8 21 5
    endloop
  endfacet
  facet normal 0 0 1
    outer loop
      vertex 8 5 5
      vertex -8 5 5
      vertex 8 -5 5
    endloop
  endfacet
  facet normal 0 0 1
    outer loop
      vertex -8 -5 5
      vertex 8 -5 5
      vertex -8 5 5
    endloop
  endfacet
  facet normal -0 0 1
    outer loop
      vertex -8 -5 5
      vertex 45 -13 5
      vertex 8 -5 5
    endloop
  endfacet
  facet normal 0 0 1
    outer loop
      vertex -45 -13 5
      vertex -8 -5 5
      vertex -32 -5 5
    endloop
  endfacet
  facet normal 0 0 1
    outer loop
      vertex -8 -5 5
      vertex -45 -13 5
      vertex 45 -13 5
    endloop
  endfacet
  facet normal 0 0 1
    outer loop
      vertex -32 5 5
      vertex -45 -13 5
      vertex -32 -5 5
    endloop
  endfacet
  facet normal 0 0 -1
    outer loop
      vertex -45 -13 -5
      vertex 45 221 -5
      vertex 45 -13 -5
    endloop
  endfacet
  facet normal -0 0 -1
    outer loop
      vertex 45 221 -5
      vertex -45 -13 -5
      vertex -45 221 -5
    endloop
  endfacet
  facet normal -1 0 0
    outer loop
      vertex -45 -13 -5
      vertex -45 221 5
      vertex -45 221 -5
    endloop
  endfacet
  facet normal -1 -0 0
    outer loop
      vertex -45 221 5
      vertex -45 -13 -5
      vertex -45 -13 5
    endloop
  endfacet
  facet normal 0 -1 0
    outer loop
      vertex -45 -13 -5
      vertex 45 -13 5
      vertex -45 -13 5
    endloop
  endfacet
  facet normal 0 -1 -0
    outer loop
      vertex 45 -13 5
      vertex -45 -13 -5
      vertex 45 -13 -5
    endloop
  endfacet
  facet normal -1 0 0
    outer loop
      vertex -8 -5 0
      vertex -8 5 5
      vertex -8 5 0
    endloop
  endfacet
  facet normal -1 -0 0
    outer loop
      vertex -8 5 5
      vertex -8 -5 0
      vertex -8 -5 5
    endloop
  endfacet
  facet normal -0 0 1
    outer loop
      vertex -32 5 0
      vertex -8 -5 0
      vertex -8 5 0
    endloop
  endfacet
  facet normal 0 0 1
    outer loop
      vertex -8 -5 0
      vertex -32 5 0
      vertex -32 -5 0
    endloop
  endfacet
  facet normal 1 -0 0
    outer loop
      vertex -32 -5 5
      vertex -32 5 0
      vertex -32 5 5
    endloop
  endfacet
  facet normal 1 0 0
    outer loop
      vertex -32 5 0
      vertex -32 -5 5
      vertex -32 -5 0
    endloop
  endfacet
  facet normal 0 -1 0
    outer loop
      vertex -32 5 0
      vertex -8 5 5
      vertex -32 5 5
    endloop
  endfacet
  facet normal 0 -1 -0
    outer loop
      vertex -8 5 5
      vertex -32 5 0
      vertex -8 5 0
    endloop
  endfacet
  facet normal 0 1 -0
    outer loop
      vertex -8 -5 0
      vertex -32 -5 5
      vertex -8 -5 5
    endloop
  endfacet
  facet normal 0 1 0
    outer loop
      vertex -32 -5 5
      vertex -8 -5 0
      vertex -32 -5 0
    endloop
  endfacet
  facet normal -1 0 0
    outer loop
      vertex 32 -5 0
      vertex 32 5 5
      vertex 32 5 0
    endloop
  endfacet
  facet normal -1 -0 0
    outer loop
      vertex 32 5 5
      vertex 32 -5 0
      vertex 32 -5 5
    endloop
  endfacet
  facet normal -0 0 1
    outer loop
      vertex 8 5 0
      vertex 32 -5 0
      vertex 32 5 0
    endloop
  endfacet
  facet normal 0 0 1
    outer loop
      vertex 32 -5 0
      vertex 8 5 0
      vertex 8 -5 0
    endloop
  endfacet
  facet normal 1 -0 0
    outer loop
      vertex 8 -5 5
      vertex 8 5 0
      vertex 8 5 5
    endloop
  endfacet
  facet normal 1 0 0
    outer loop
      vertex 8 5 0
      vertex 8 -5 5
      vertex 8 -5 0
    endloop
  endfacet
  facet normal 0 -1 0
    outer loop
      vertex 8 5 0
      vertex 32 5 5
      vertex 8 5 5
    endloop
  endfacet
  facet normal 0 -1 -0
    outer loop
      vertex 32 5 5
      vertex 8 5 0
      vertex 32 5 0
    endloop
  endfacet
  facet normal 0 1 -0
    outer loop
      vertex 32 -5 0
      vertex 8 -5 5
      vertex 32 -5 5
    endloop
  endfacet
  facet normal 0 1 0
    outer loop
      vertex 8 -5 5
      vertex 32 -5 0
      vertex 8 -5 0
    endloop
  endfacet
  facet normal -1 0 0
    outer loop
      vertex -8 21 0
      vertex -8 31 5
      vertex -8 31 0
    endloop
  endfacet
  facet normal -1 -0 0
    outer loop
      vertex -8 31 5
      vertex -8 21 0
      vertex -8 21 5
    endloop
  endfacet
  facet normal -0 0 1
    outer loop
      vertex -32 31 0
      vertex -8 21 0
      vertex -8 31 0
    endloop
  endfacet
  facet normal 0 0 1
    outer loop
      vertex -8 21 0
      vertex -32 31 0
      vertex -32 21 0
    endloop
  endfacet
  facet normal 1 -0 0
    outer loop
      vertex -32 21 5
      vertex -32 31 0
      vertex -32 31 5
    endloop
  endfacet
  facet normal 1 0 0
    outer loop
      vertex -32 31 0
      vertex -32 21 5
      vertex -32 21 0
    endloop
  endfacet
  facet normal 0 -1 0
    outer loop
      vertex -32 31 0
      vertex -8 31 5
      vertex -32 31 5
    endloop
  endfacet
  facet normal 0 -1 -0
    outer loop
      vertex -8 31 5
      vertex -32 31 0
      vertex -8 31 0
    endloop
  endfacet
  facet normal 0 1 -0
    outer loop
      vertex -8 21 0
      vertex -32 21 5
      vertex -8 21 5
    endloop
  endfacet
  facet normal 0 1 0
    outer loop
      vertex -32 21 5
      vertex -8 21 0
      vertex -32 21 0
    endloop
  endfacet
  facet normal -1 0 0
    outer loop
      vertex 32 21 0
      vertex 32 31 5
      vertex 32 31 0
    endloop
  endfacet
  facet normal -1 -0 0
    outer loop
      vertex 32 31 5
      vertex 32 21 0
      vertex 32 21 5
    endloop
  endfacet
  facet normal -0 0 1
    outer loop
      vertex 8 31 0
      vertex 32 21 0
      vertex 32 31 0
    endloop
  endfacet
  facet normal 0 0 1
    outer loop
      vertex 32 21 0
      vertex 8 31 0
      vertex 8 21 0
    endloop
  endfacet
  facet normal 1 -0 0
    outer loop
      vertex 8 21 5
      vertex 8 31 0
      vertex 8 31 5
    endloop
  endfacet
  facet normal 1 0 0
    outer loop
      vertex 8 31 0
      vertex 8 21 5
      vertex 8 21 0
    endloop
  endfacet
  facet normal 0 -1 0
    outer loop
      vertex 8 31 0
      vertex 32 31 5
      vertex 8 31 5
    endloop
  endfacet
  facet normal 0 -1 -0
    outer loop
      vertex 32 31 5
      vertex 8 31 0
      vertex 32 31 0
    endloop
  endfacet
  facet normal 0 1 -0
    outer loop
      vertex 32 21 0
      vertex 8 21 5
      vertex 32 21 5
    endloop
  endfacet
  facet normal 0 1 0
    outer loop
      vertex 8 21 5
      vertex 32 21 0
      vertex 8 21 0
    endloop
  endfacet
  facet normal -1 0 0
    outer loop
      vertex -8 47 0
      vertex -8 57 5
      vertex -8 57 0
    endloop
  endfacet
  facet normal -1 -0 0
    outer loop
      vertex -8 57 5
      vertex -8 47 0
      vertex -8 47 5
    endloop
  endfacet
  facet normal -0 0 1
    outer loop
      vertex -32 57 0
      vertex -8 47 0
      vertex -8 57 0
    endloop
  endfacet
  facet normal 0 0 1
    outer loop
      vertex -8 47 0
      vertex -32 57 0
      vertex -32 47 0
    endloop
  endfacet
  facet normal 1 -0 0
    outer loop
      vertex -32 47 5
      vertex -32 57 0
      vertex -32 57 5
    endloop
  endfacet
  facet normal 1 0 0
    outer loop
      vertex -32 57 0
      vertex -32 47 5
      vertex -32 47 0
    endloop
  endfacet
  facet normal 0 -1 0
    outer loop
      vertex -32 57 0
      vertex -8 57 5
      vertex -32 57 5
    endloop
  endfacet
  facet normal 0 -1 -0
    outer loop
      vertex -8 57 5
      vertex -32 57 0
      vertex -8 57 0
    endloop
  endfacet
  facet normal 0 1 -0
    outer loop
      vertex -8 47 0
      vertex -32 47 5
      vertex -8 47 5
    endloop
  endfacet
  facet normal 0 1 0
    outer loop
      vertex -32 47 5
      vertex -8 47 0
      vertex -32 47 0
    endloop
  endfacet
  facet normal -1 0 0
    outer loop
      vertex 32 47 0
      vertex 32 57 5
      vertex 32 57 0
    endloop
  endfacet
  facet normal -1 -0 0
    outer loop
      vertex 32 57 5
      vertex 32 47 0
      vertex 32 47 5
    endloop
  endfacet
  facet normal -0 0 1
    outer loop
      vertex 8 57 0
      vertex 32 47 0
      vertex 32 57 0
    endloop
  endfacet
  facet normal 0 0 1
    outer loop
      vertex 32 47 0
      vertex 8 57 0
      vertex 8 47 0
    endloop
  endfacet
  facet normal 1 -0 0
    outer loop
      vertex 8 47 5
      vertex 8 57 0
      vertex 8 57 5
    endloop
  endfacet
  facet normal 1 0 0
    outer loop
      vertex 8 57 0
      vertex 8 47 5
      vertex 8 47 0
    endloop
  endfacet
  facet normal 0 -1 0
    outer loop
      vertex 8 57 0
      vertex 32 57 5
      vertex 8 57 5
    endloop
  endfacet
  facet normal 0 -1 -0
    outer loop
      vertex 32 57 5
      vertex 8 57 0
      vertex 32 57 0
    endloop
  endfacet
  facet normal 0 1 -0
    outer loop
      vertex 32 47 0
      vertex 8 47 5
      vertex 32 47 5
    endloop
  endfacet
  facet normal 0 1 0
    outer loop
      vertex 8 47 5
      vertex 32 47 0
      vertex 8 47 0
    endloop
  endfacet
  facet normal -1 0 0
    outer loop
      vertex -8 73 0
      vertex -8 83 5
      vertex -8 83 0
    endloop
  endfacet
  facet normal -1 -0 0
    outer loop
      vertex -8 83 5
      vertex -8 73 0
      vertex -8 73 5
    endloop
  endfacet
  facet normal -0 0 1
    outer loop
      vertex -32 83 0
      vertex -8 73 0
      vertex -8 83 0
    endloop
  endfacet
  facet normal 0 0 1
    outer loop
      vertex -8 73 0
      vertex -32 83 0
      vertex -32 73 0
    endloop
  endfacet
  facet normal 1 -0 0
    outer loop
      vertex -32 73 5
      vertex -32 83 0
      vertex -32 83 5
    endloop
  endfacet
  facet normal 1 0 0
    outer loop
      vertex -32 83 0
      vertex -32 73 5
      vertex -32 73 0
    endloop
  endfacet
  facet normal 0 -1 0
    outer loop
      vertex -32 83 0
      vertex -8 83 5
      vertex -32 83 5
    endloop
  endfacet
  facet normal 0 -1 -0
    outer loop
      vertex -8 83 5
      vertex -32 83 0
      vertex -8 83 0
    endloop
  endfacet
  facet normal 0 1 -0
    outer loop
      vertex -8 73 0
      vertex -32 73 5
      vertex -8 73 5
    endloop
  endfacet
  facet normal 0 1 0
    outer loop
      vertex -32 73 5
      vertex -8 73 0
      vertex -32 73 0
    endloop
  endfacet
  facet normal -1 0 0
    outer loop
      vertex 32 73 0
      vertex 32 83 5
      vertex 32 83 0
    endloop
  endfacet
  facet normal -1 -0 0
    outer loop
      vertex 32 83 5
      vertex 32 73 0
      vertex 32 73 5
    endloop
  endfacet
  facet normal -0 0 1
    outer loop
      vertex 8 83 0
      vertex 32 73 0
      vertex 32 83 0
    endloop
  endfacet
  facet normal 0 0 1
    outer loop
      vertex 32 73 0
      vertex 8 83 0
      vertex 8 73 0
    endloop
  endfacet
  facet normal 1 -0 0
    outer loop
      vertex 8 73 5
      vertex 8 83 0
      vertex 8 83 5
    endloop
  endfacet
  facet normal 1 0 0
    outer loop
      vertex 8 83 0
      vertex 8 73 5
      vertex 8 73 0
    endloop
  endfacet
  facet normal 0 -1 0
    outer loop
      vertex 8 83 0
      vertex 32 83 5
      vertex 8 83 5
    endloop
  endfacet
  facet normal 0 -1 -0
    outer loop
      vertex 32 83 5
      vertex 8 83 0
      vertex 32 83 0
    endloop
  endfacet
  facet normal 0 1 -0
    outer loop
      vertex 32 73 0
      vertex 8 73 5
      vertex 32 73 5
    endloop
  endfacet
  facet normal 0 1 0
    outer loop
      vertex 8 73 5
      vertex 32 73 0
      vertex 8 73 0
    endloop
  endfacet
  facet normal -1 0 0
    outer loop
      vertex -8 99 0
      vertex -8 109 5
      vertex -8 109 0
    endloop
  endfacet
  facet normal -1 -0 0
    outer loop
      vertex -8 109 5
      vertex -8 99 0
      vertex -8 99 5
    endloop
  endfacet
  facet normal -0 0 1
    outer loop
      vertex -32 109 0
      vertex -8 99 0
      vertex -8 109 0
    endloop
  endfacet
  facet normal 0 0 1
    outer loop
      vertex -8 99 0
      vertex -32 109 0
      vertex -32 99 0
    endloop
  endfacet
  facet normal 1 -0 0
    outer loop
      vertex -32 99 5
      vertex -32 109 0
      vertex -32 109 5
    endloop
  endfacet
  facet normal 1 0 0
    outer loop
      vertex -32 109 0
      vertex -32 99 5
      vertex -32 99 0
    endloop
  endfacet
  facet normal 0 -1 0
    outer loop
      vertex -32 109 0
      vertex -8 109 5
      vertex -32 109 5
    endloop
  endfacet
  facet normal 0 -1 -0
    outer loop
      vertex -8 109 5
      vertex -32 109 0
      vertex -8 109 0
    endloop
  endfacet
  facet normal 0 1 -0
    outer loop
      vertex -8 99 0
      vertex -32 99 5
      vertex -8 99 5
    endloop
  endfacet
  facet normal 0 1 0
    outer loop
      vertex -32 99 5
      vertex -8 99 0
      vertex -32 99 0
    endloop
  endfacet
  facet normal -1 0 0
    outer loop
      vertex 32 99 0
      vertex 32 109 5
      vertex 32 109 0
    endloop
  endfacet
  facet normal -1 -0 0
    outer loop
      vertex 32 109 5
      vertex 32 99 0
      vertex 32 99 5
    endloop
  endfacet
  facet normal -0 0 1
    outer loop
      vertex 8 109 0
      vertex 32 99 0
      vertex 32 109 0
    endloop
  endfacet
  facet normal 0 0 1
    outer loop
      vertex 32 99 0
      vertex 8 109 0
      vertex 8 99 0
    endloop
  endfacet
  facet normal 1 -0 0
    outer loop
      vertex 8 99 5
      vertex 8 109 0
      vertex 8 109 5
    endloop
  endfacet
  facet normal 1 0 0
    outer loop
      vertex 8 109 0
      vertex 8 99 5
      vertex 8 99 0
    endloop
  endfacet
  facet normal 0 -1 0
    outer loop
      vertex 8 109 0
      vertex 32 109 5
      vertex 8 109 5
    endloop
  endfacet
  facet normal 0 -1 -0
    outer loop
      vertex 32 109 5
      vertex 8 109 0
      vertex 32 109 0
    endloop
  endfacet
  facet normal 0 1 -0
    outer loop
      vertex 32 99 0
      vertex 8 99 5
      vertex 32 99 5
    endloop
  endfacet
  facet normal 0 1 0
    outer loop
      vertex 8 99 5
      vertex 32 99 0
      vertex 8 99 0
    endloop
  endfacet
  facet normal -1 0 0
    outer loop
      vertex -8 125 0
      vertex -8 135 5
      vertex -8 135 0
    endloop
  endfacet
  facet normal -1 -0 0
    outer loop
      vertex -8 135 5
      vertex -8 125 0
      vertex -8 125 5
    endloop
  endfacet
  facet normal -0 0 1
    outer loop
      vertex -32 135 0
      vertex -8 125 0
      vertex -8 135 0
    endloop
  endfacet
  facet normal 0 0 1
    outer loop
      vertex -8 125 0
      vertex -32 135 0
      vertex -32 125 0
    endloop
  endfacet
  facet normal 1 -0 0
    outer loop
      vertex -32 125 5
      vertex -32 135 0
      vertex -32 135 5
    endloop
  endfacet
  facet normal 1 0 0
    outer loop
      vertex -32 135 0
      vertex -32 125 5
      vertex -32 125 0
    endloop
  endfacet
  facet normal 0 -1 0
    outer loop
      vertex -32 135 0
      vertex -8 135 5
      vertex -32 135 5
    endloop
  endfacet
  facet normal 0 -1 -0
    outer loop
      vertex -8 135 5
      vertex -32 135 0
      vertex -8 135 0
    endloop
  endfacet
  facet normal 0 1 -0
    outer loop
      vertex -8 125 0
      vertex -32 125 5
      vertex -8 125 5
    endloop
  endfacet
  facet normal 0 1 0
    outer loop
      vertex -32 125 5
      vertex -8 125 0
      vertex -32 125 0
    endloop
  endfacet
  facet normal -1 0 0
    outer loop
      vertex 32 125 0
      vertex 32 135 5
      vertex 32 135 0
    endloop
  endfacet
  facet normal -1 -0 0
    outer loop
      vertex 32 135 5
      vertex 32 125 0
      vertex 32 125 5
    endloop
  endfacet
  facet normal -0 0 1
    outer loop
      vertex 8 135 0
      vertex 32 125 0
      vertex 32 135 0
    endloop
  endfacet
  facet normal 0 0 1
    outer loop
      vertex 32 125 0
      vertex 8 135 0
      vertex 8 125 0
    endloop
  endfacet
  facet normal 1 -0 0
    outer loop
      vertex 8 125 5
      vertex 8 135 0
      vertex 8 135 5
    endloop
  endfacet
  facet normal 1 0 0
    outer loop
      vertex 8 135 0
      vertex 8 125 5
      vertex 8 125 0
    endloop
  endfacet
  facet normal 0 -1 0
    outer loop
      vertex 8 135 0
      vertex 32 135 5
      vertex 8 135 5
    endloop
  endfacet
  facet normal 0 -1 -0
    outer loop
      vertex 32 135 5
      vertex 8 135 0
      vertex 32 135 0
    endloop
  endfacet
  facet normal 0 1 -0
    outer loop
      vertex 32 125 0
      vertex 8 125 5
      vertex 32 125 5
    endloop
  endfacet
  facet normal 0 1 0
    outer loop
      vertex 8 125 5
      vertex 32 125 0
      vertex 8 125 0
    endloop
  endfacet
  facet normal -1 0 0
    outer loop
      vertex -8 151 0
      vertex -8 161 5
      vertex -8 161 0
    endloop
  endfacet
  facet normal -1 -0 0
    outer loop
      vertex -8 161 5
      vertex -8 151 0
      vertex -8 151 5
    endloop
  endfacet
  facet normal -0 0 1
    outer loop
      vertex -32 161 0
      vertex -8 151 0
      vertex -8 161 0
    endloop
  endfacet
  facet normal 0 0 1
    outer loop
      vertex -8 151 0
      vertex -32 161 0
      vertex -32 151 0
    endloop
  endfacet
  facet normal 1 -0 0
    outer loop
      vertex -32 151 5
      vertex -32 161 0
      vertex -32 161 5
    endloop
  endfacet
  facet normal 1 0 0
    outer loop
      vertex -32 161 0
      vertex -32 151 5
      vertex -32 151 0
    endloop
  endfacet
  facet normal 0 -1 0
    outer loop
      vertex -32 161 0
      vertex -8 161 5
      vertex -32 161 5
    endloop
  endfacet
  facet normal 0 -1 -0
    outer loop
      vertex -8 161 5
      vertex -32 161 0
      vertex -8 161 0
    endloop
  endfacet
  facet normal 0 1 -0
    outer loop
      vertex -8 151 0
      vertex -32 151 5
      vertex -8 151 5
    endloop
  endfacet
  facet normal 0 1 0
    outer loop
      vertex -32 151 5
      vertex -8 151 0
      vertex -32 151 0
    endloop
  endfacet
  facet normal -1 0 0
    outer loop
      vertex 32 151 0
      vertex 32 161 5
      vertex 32 161 0
    endloop
  endfacet
  facet normal -1 -0 0
    outer loop
      vertex 32 161 5
      vertex 32 151 0
      vertex 32 151 5
    endloop
  endfacet
  facet normal -0 0 1
    outer loop
      vertex 8 161 0
      vertex 32 151 0
      vertex 32 161 0
    endloop
  endfacet
  facet normal 0 0 1
    outer loop
      vertex 32 151 0
      vertex 8 161 0
      vertex 8 151 0
    endloop
  endfacet
  facet normal 1 -0 0
    outer loop
      vertex 8 151 5
      vertex 8 161 0
      vertex 8 161 5
    endloop
  endfacet
  facet normal 1 0 0
    outer loop
      vertex 8 161 0
      vertex 8 151 5
      vertex 8 151 0
    endloop
  endfacet
  facet normal 0 -1 0
    outer loop
      vertex 8 161 0
      vertex 32 161 5
      vertex 8 161 5
    endloop
  endfacet
  facet normal 0 -1 -0
    outer loop
      vertex 32 161 5
      vertex 8 161 0
      vertex 32 161 0
    endloop
  endfacet
  facet normal 0 1 -0
    outer loop
      vertex 32 151 0
      vertex 8 151 5
      vertex 32 151 5
    endloop
  endfacet
  facet normal 0 1 0
    outer loop
      vertex 8 151 5
      vertex 32 151 0
      vertex 8 151 0
    endloop
  endfacet
  facet normal -1 0 0
    outer loop
      vertex -8 177 0
      vertex -8 187 5
      vertex -8 187 0
    endloop
  endfacet
  facet normal -1 -0 0
    outer loop
      vertex -8 187 5
      vertex -8 177 0
      vertex -8 177 5
    endloop
  endfacet
  facet normal -0 0 1
    outer loop
      vertex -32 187 0
      vertex -8 177 0
      vertex -8 187 0
    endloop
  endfacet
  facet normal 0 0 1
    outer loop
      vertex -8 177 0
      vertex -32 187 0
      vertex -32 177 0
    endloop
  endfacet
  facet normal 1 -0 0
    outer loop
      vertex -32 177 5
      vertex -32 187 0
      vertex -32 187 5
    endloop
  endfacet
  facet normal 1 0 0
    outer loop
      vertex -32 187 0
      vertex -32 177 5
      vertex -32 177 0
    endloop
  endfacet
  facet normal 0 -1 0
    outer loop
      vertex -32 187 0
      vertex -8 187 5
      vertex -32 187 5
    endloop
  endfacet
  facet normal 0 -1 -0
    outer loop
      vertex -8 187 5
      vertex -32 187 0
      vertex -8 187 0
    endloop
  endfacet
  facet normal 0 1 -0
    outer loop
      vertex -8 177 0
      vertex -32 177 5
      vertex -8 177 5
    endloop
  endfacet
  facet normal 0 1 0
    outer loop
      vertex -32 177 5
      vertex -8 177 0
      vertex -32 177 0
    endloop
  endfacet
  facet normal -1 0 0
    outer loop
      vertex 32 177 0
      vertex 32 187 5
      vertex 32 187 0
    endloop
  endfacet
  facet normal -1 -0 0
    outer loop
      vertex 32 187 5
      vertex 32 177 0
      vertex 32 177 5
    endloop
  endfacet
  facet normal -0 0 1
    outer loop
      vertex 8 187 0
      vertex 32 177 0
      vertex 32 187 0
    endloop
  endfacet
  facet normal 0 0 1
    outer loop
      vertex 32 177 0
      vertex 8 187 0
      vertex 8 177 0
    endloop
  endfacet
  facet normal 1 -0 0
    outer loop
      vertex 8 177 5
      vertex 8 187 0
      vertex 8 187 5
    endloop
  endfacet
  facet normal 1 0 0
    outer loop
      vertex 8 187 0
      vertex 8 177 5
      vertex 8 177 0
    endloop
  endfacet
  facet normal 0 -1 0
    outer loop
      vertex 8 187 0
      vertex 32 187 5
      vertex 8 187 5
    endloop
  endfacet
  facet normal 0 -1 -0
    outer loop
      vertex 32 187 5
      vertex 8 187 0
      vertex 32 187 0
    endloop
  endfacet
  facet normal 0 1 -0
    outer loop
      vertex 32 177 0
      vertex 8 177 5
      vertex 32 177 5
    endloop
  endfacet
  facet normal 0 1 0
    outer loop
      vertex 8 177 5
      vertex 32 177 0
      vertex 8 177 0
    endloop
  endfacet
  facet normal 0 1 -0
    outer loop
      vertex 45 221 -5
      vertex -45 221 5
      vertex 45 221 5
    endloop
  endfacet
  facet normal 0 1 0
    outer loop
      vertex -45 221 5
      vertex 45 221 -5
      vertex -45 221 -5
    endloop
  endfacet
  facet normal -1 0 0
    outer loop
      vertex -8 203 0
      vertex -8 213 5
      vertex -8 213 0
    endloop
  endfacet
  facet normal -1 -0 0
    outer loop
      vertex -8 213 5
      vertex -8 203 0
      vertex -8 203 5
    endloop
  endfacet
  facet normal -0 0 1
    outer loop
      vertex -32 213 0
      vertex -8 203 0
      vertex -8 213 0
    endloop
  endfacet
  facet normal 0 0 1
    outer loop
      vertex -8 203 0
      vertex -32 213 0
      vertex -32 203 0
    endloop
  endfacet
  facet normal 1 -0 0
    outer loop
      vertex -32 203 5
      vertex -32 213 0
      vertex -32 213 5
    endloop
  endfacet
  facet normal 1 0 0
    outer loop
      vertex -32 213 0
      vertex -32 203 5
      vertex -32 203 0
    endloop
  endfacet
  facet normal 0 -1 0
    outer loop
      vertex -32 213 0
      vertex -8 213 5
      vertex -32 213 5
    endloop
  endfacet
  facet normal 0 -1 -0
    outer loop
      vertex -8 213 5
      vertex -32 213 0
      vertex -8 213 0
    endloop
  endfacet
  facet normal 0 1 -0
    outer loop
      vertex -8 203 0
      vertex -32 203 5
      vertex -8 203 5
    endloop
  endfacet
  facet normal 0 1 0
    outer loop
      vertex -32 203 5
      vertex -8 203 0
      vertex -32 203 0
    endloop
  endfacet
  facet normal -1 0 0
    outer loop
      vertex 32 203 0
      vertex 32 213 5
      vertex 32 213 0
    endloop
  endfacet
  facet normal -1 -0 0
    outer loop
      vertex 32 213 5
      vertex 32 203 0
      vertex 32 203 5
    endloop
  endfacet
  facet normal -0 0 1
    outer loop
      vertex 8 213 0
      vertex 32 203 0
      vertex 32 213 0
    endloop
  endfacet
  facet normal 0 0 1
    outer loop
      vertex 32 203 0
      vertex 8 213 0
      vertex 8 203 0
    endloop
  endfacet
  facet normal 1 -0 0
    outer loop
      vertex 8 203 5
      vertex 8 213 0
      vertex 8 213 5
    endloop
  endfacet
  facet normal 1 0 0
    outer loop
      vertex 8 213 0
      vertex 8 203 5
      vertex 8 203 0
    endloop
  endfacet
  facet normal 0 -1 0
    outer loop
      vertex 8 213 0
      vertex 32 213 5
      vertex 8 213 5
    endloop
  endfacet
  facet normal 0 -1 -0
    outer loop
      vertex 32 213 5
      vertex 8 213 0
      vertex 32 213 0
    endloop
  endfacet
  facet normal 0 1 -0
    outer loop
      vertex 32 203 0
      vertex 8 203 5
      vertex 32 203 5
    endloop
  endfacet
  facet normal 0 1 0
    outer loop
      vertex 8 203 5
      vertex 32 203 0
      vertex 8 203 0
    endloop
  endfacet
endsolid OpenSCAD_Model
