solid OpenSCAD_Model
  facet normal 1 -0 0
    outer loop
      vertex 40 -13 2.5
      vertex 40 13 -2.5
      vertex 40 13 2.5
    endloop
  endfacet
  facet normal 1 0 0
    outer loop
      vertex 40 13 -2.5
      vertex 40 -13 2.5
      vertex 40 -13 -2.5
    endloop
  endfacet
  facet normal 0 0 1
    outer loop
      vertex 40 13 2.5
      vertex 33 6 2.5
      vertex 40 -13 2.5
    endloop
  endfacet
  facet normal 0 0 1
    outer loop
      vertex 40 13 2.5
      vertex -33 6 2.5
      vertex 33 6 2.5
    endloop
  endfacet
  facet normal 0 0 1
    outer loop
      vertex -33 6 2.5
      vertex -40 13 2.5
      vertex -33 -6 2.5
    endloop
  endfacet
  facet normal -0 0 1
    outer loop
      vertex -40 13 2.5
      vertex -33 6 2.5
      vertex 40 13 2.5
    endloop
  endfacet
  facet normal -0 0 1
    outer loop
      vertex 33 -6 2.5
      vertex 40 -13 2.5
      vertex 33 6 2.5
    endloop
  endfacet
  facet normal -0 0 1
    outer loop
      vertex -33 -6 2.5
      vertex 40 -13 2.5
      vertex 33 -6 2.5
    endloop
  endfacet
  facet normal 0 0 1
    outer loop
      vertex -33 -6 2.5
      vertex -40 -13 2.5
      vertex 40 -13 2.5
    endloop
  endfacet
  facet normal 0 0 1
    outer loop
      vertex -40 -13 2.5
      vertex -33 -6 2.5
      vertex -40 13 2.5
    endloop
  endfacet
  facet normal 0 0 -1
    outer loop
      vertex -40 -13 -2.5
      vertex 40 13 -2.5
      vertex 40 -13 -2.5
    endloop
  endfacet
  facet normal -0 0 -1
    outer loop
      vertex 40 13 -2.5
      vertex -40 -13 -2.5
      vertex -40 13 -2.5
    endloop
  endfacet
  facet normal -1 0 0
    outer loop
      vertex -40 -13 -2.5
      vertex -40 13 2.5
      vertex -40 13 -2.5
    endloop
  endfacet
  facet normal -1 -0 0
    outer loop
      vertex -40 13 2.5
      vertex -40 -13 -2.5
      vertex -40 -13 2.5
    endloop
  endfacet
  facet normal 0 1 -0
    outer loop
      vertex 40 13 -2.5
      vertex -40 13 2.5
      vertex 40 13 2.5
    endloop
  endfacet
  facet normal 0 1 0
    outer loop
      vertex -40 13 2.5
      vertex 40 13 -2.5
      vertex -40 13 -2.5
    endloop
  endfacet
  facet normal 0 -1 0
    outer loop
      vertex -40 -13 -2.5
      vertex 40 -13 2.5
      vertex -40 -13 2.5
    endloop
  endfacet
  facet normal 0 -1 -0
    outer loop
      vertex 40 -13 2.5
      vertex -40 -13 -2.5
      vertex 40 -13 -2.5
    endloop
  endfacet
  facet normal 1 -0 0
    outer loop
      vertex 33 -6 7.5
      vertex 33 6 2.5
      vertex 33 6 7.5
    endloop
  endfacet
  facet normal 1 0 0
    outer loop
      vertex 33 6 2.5
      vertex 33 -6 7.5
      vertex 33 -6 2.5
    endloop
  endfacet
  facet normal 0 0 1
    outer loop
      vertex 33 6 7.5
      vertex 32 5 7.5
      vertex 33 -6 7.5
    endloop
  endfacet
  facet normal 0 0 1
    outer loop
      vertex 33 6 7.5
      vertex 8 5 7.5
      vertex 32 5 7.5
    endloop
  endfacet
  facet normal 0 0 1
    outer loop
      vertex 8 5 7.5
      vertex -8 5 7.5
      vertex 8 -5 7.5
    endloop
  endfacet
  facet normal 0 0 1
    outer loop
      vertex 33 6 7.5
      vertex -8 5 7.5
      vertex 8 5 7.5
    endloop
  endfacet
  facet normal -0 0 1
    outer loop
      vertex -33 6 7.5
      vertex -8 5 7.5
      vertex 33 6 7.5
    endloop
  endfacet
  facet normal 0 0 1
    outer loop
      vertex -32 5 7.5
      vertex -33 6 7.5
      vertex -32 -5 7.5
    endloop
  endfacet
  facet normal 0 0 1
    outer loop
      vertex -8 5 7.5
      vertex -33 6 7.5
      vertex -32 5 7.5
    endloop
  endfacet
  facet normal -0 0 1
    outer loop
      vertex 32 -5 7.5
      vertex 33 -6 7.5
      vertex 32 5 7.5
    endloop
  endfacet
  facet normal -0 0 1
    outer loop
      vertex 8 -5 7.5
      vertex 33 -6 7.5
      vertex 32 -5 7.5
    endloop
  endfacet
  facet normal 0 0 1
    outer loop
      vertex -8 -5 7.5
      vertex 8 -5 7.5
      vertex -8 5 7.5
    endloop
  endfacet
  facet normal -0 0 1
    outer loop
      vertex -8 -5 7.5
      vertex 33 -6 7.5
      vertex 8 -5 7.5
    endloop
  endfacet
  facet normal 0 0 1
    outer loop
      vertex -33 -6 7.5
      vertex -8 -5 7.5
      vertex -32 -5 7.5
    endloop
  endfacet
  facet normal 0 0 1
    outer loop
      vertex -8 -5 7.5
      vertex -33 -6 7.5
      vertex 33 -6 7.5
    endloop
  endfacet
  facet normal 0 0 1
    outer loop
      vertex -33 -6 7.5
      vertex -32 -5 7.5
      vertex -33 6 7.5
    endloop
  endfacet
  facet normal -1 0 0
    outer loop
      vertex -33 -6 2.5
      vertex -33 6 7.5
      vertex -33 6 2.5
    endloop
  endfacet
  facet normal -1 -0 0
    outer loop
      vertex -33 6 7.5
      vertex -33 -6 2.5
      vertex -33 -6 7.5
    endloop
  endfacet
  facet normal 0 1 -0
    outer loop
      vertex 33 6 2.5
      vertex -33 6 7.5
      vertex 33 6 7.5
    endloop
  endfacet
  facet normal 0 1 0
    outer loop
      vertex -33 6 7.5
      vertex 33 6 2.5
      vertex -33 6 2.5
    endloop
  endfacet
  facet normal 0 -1 0
    outer loop
      vertex -33 -6 2.5
      vertex 33 -6 7.5
      vertex -33 -6 7.5
    endloop
  endfacet
  facet normal 0 -1 -0
    outer loop
      vertex 33 -6 7.5
      vertex -33 -6 2.5
      vertex 33 -6 2.5
    endloop
  endfacet
  facet normal -1 0 0
    outer loop
      vertex -8 -5 0
      vertex -8 5 7.5
      vertex -8 5 0
    endloop
  endfacet
  facet normal -1 -0 0
    outer loop
      vertex -8 5 7.5
      vertex -8 -5 0
      vertex -8 -5 7.5
    endloop
  endfacet
  facet normal -0 0 1
    outer loop
      vertex -32 5 0
      vertex -8 -5 0
      vertex -8 5 0
    endloop
  endfacet
  facet normal 0 0 1
    outer loop
      vertex -8 -5 0
      vertex -32 5 0
      vertex -32 -5 0
    endloop
  endfacet
  facet normal 1 -0 0
    outer loop
      vertex -32 -5 7.5
      vertex -32 5 0
      vertex -32 5 7.5
    endloop
  endfacet
  facet normal 1 0 0
    outer loop
      vertex -32 5 0
      vertex -32 -5 7.5
      vertex -32 -5 0
    endloop
  endfacet
  facet normal 0 -1 0
    outer loop
      vertex -32 5 0
      vertex -8 5 7.5
      vertex -32 5 7.5
    endloop
  endfacet
  facet normal 0 -1 -0
    outer loop
      vertex -8 5 7.5
      vertex -32 5 0
      vertex -8 5 0
    endloop
  endfacet
  facet normal 0 1 -0
    outer loop
      vertex -8 -5 0
      vertex -32 -5 7.5
      vertex -8 -5 7.5
    endloop
  endfacet
  facet normal 0 1 0
    outer loop
      vertex -32 -5 7.5
      vertex -8 -5 0
      vertex -32 -5 0
    endloop
  endfacet
  facet normal -1 0 0
    outer loop
      vertex 32 -5 0
      vertex 32 5 7.5
      vertex 32 5 0
    endloop
  endfacet
  facet normal -1 -0 0
    outer loop
      vertex 32 5 7.5
      vertex 32 -5 0
      vertex 32 -5 7.5
    endloop
  endfacet
  facet normal -0 0 1
    outer loop
      vertex 8 5 0
      vertex 32 -5 0
      vertex 32 5 0
    endloop
  endfacet
  facet normal 0 0 1
    outer loop
      vertex 32 -5 0
      vertex 8 5 0
      vertex 8 -5 0
    endloop
  endfacet
  facet normal 1 -0 0
    outer loop
      vertex 8 -5 7.5
      vertex 8 5 0
      vertex 8 5 7.5
    endloop
  endfacet
  facet normal 1 0 0
    outer loop
      vertex 8 5 0
      vertex 8 -5 7.5
      vertex 8 -5 0
    endloop
  endfacet
  facet normal 0 -1 0
    outer loop
      vertex 8 5 0
      vertex 32 5 7.5
      vertex 8 5 7.5
    endloop
  endfacet
  facet normal 0 -1 -0
    outer loop
      vertex 32 5 7.5
      vertex 8 5 0
      vertex 32 5 0
    endloop
  endfacet
  facet normal 0 1 -0
    outer loop
      vertex 32 -5 0
      vertex 8 -5 7.5
      vertex 32 -5 7.5
    endloop
  endfacet
  facet normal 0 1 0
    outer loop
      vertex 8 -5 7.5
      vertex 32 -5 0
      vertex 8 -5 0
    endloop
  endfacet
endsolid OpenSCAD_Model
