solid OpenSCAD_Model
  facet normal 1 -0 0
    outer loop
      vertex 49 -15.75 -1.25
      vertex 49 173.25 -3.75
      vertex 49 173.25 -1.25
    endloop
  endfacet
  facet normal 1 0 0
    outer loop
      vertex 49 173.25 -3.75
      vertex 49 -15.75 -1.25
      vertex 49 -15.75 -3.75
    endloop
  endfacet
  facet normal 0 0 1
    outer loop
      vertex -8 173.25 -1.25
      vertex -34.5 167.25 -1.25
      vertex -8 167.25 -1.25
    endloop
  endfacet
  facet normal 0 0 1
    outer loop
      vertex -49 173.25 -1.25
      vertex -34.5 147.75 -1.25
      vertex -34.5 167.25 -1.25
    endloop
  endfacet
  facet normal 0 0 1
    outer loop
      vertex -34.5 147.75 -1.25
      vertex -49 173.25 -1.25
      vertex -34.5 135.75 -1.25
    endloop
  endfacet
  facet normal 0 0 1
    outer loop
      vertex -34.5 135.75 -1.25
      vertex -49 173.25 -1.25
      vertex -34.5 116.25 -1.25
    endloop
  endfacet
  facet normal 0 0 1
    outer loop
      vertex -34.5 116.25 -1.25
      vertex -49 173.25 -1.25
      vertex -34.5 104.25 -1.25
    endloop
  endfacet
  facet normal 0 0 1
    outer loop
      vertex -34.5 104.25 -1.25
      vertex -49 173.25 -1.25
      vertex -34.5 84.75 -1.25
    endloop
  endfacet
  facet normal 0 0 1
    outer loop
      vertex -34.5 84.75 -1.25
      vertex -49 173.25 -1.25
      vertex -34.5 72.75 -1.25
    endloop
  endfacet
  facet normal 0 0 1
    outer loop
      vertex -49 -15.75 -1.25
      vertex -34.5 72.75 -1.25
      vertex -49 173.25 -1.25
    endloop
  endfacet
  facet normal 0 0 1
    outer loop
      vertex -34.5 72.75 -1.25
      vertex -49 -15.75 -1.25
      vertex -34.5 53.25 -1.25
    endloop
  endfacet
  facet normal 0 0 1
    outer loop
      vertex -34.5 53.25 -1.25
      vertex -49 -15.75 -1.25
      vertex -34.5 41.25 -1.25
    endloop
  endfacet
  facet normal 0 0 1
    outer loop
      vertex -34.5 41.25 -1.25
      vertex -49 -15.75 -1.25
      vertex -34.5 21.75 -1.25
    endloop
  endfacet
  facet normal 0 0 1
    outer loop
      vertex -34.5 21.75 -1.25
      vertex -49 -15.75 -1.25
      vertex -34.5 9.75 -1.25
    endloop
  endfacet
  facet normal -0 0 1
    outer loop
      vertex -49 173.25 -1.25
      vertex -34.5 167.25 -1.25
      vertex -8 173.25 -1.25
    endloop
  endfacet
  facet normal -0 0 1
    outer loop
      vertex -34.5 147.75 -1.25
      vertex -8 135.75 -1.25
      vertex -8 147.75 -1.25
    endloop
  endfacet
  facet normal 0 0 1
    outer loop
      vertex -8 135.75 -1.25
      vertex -34.5 147.75 -1.25
      vertex -34.5 135.75 -1.25
    endloop
  endfacet
  facet normal -0 0 1
    outer loop
      vertex -34.5 116.25 -1.25
      vertex -8 104.25 -1.25
      vertex -8 116.25 -1.25
    endloop
  endfacet
  facet normal 0 0 1
    outer loop
      vertex -8 104.25 -1.25
      vertex -34.5 116.25 -1.25
      vertex -34.5 104.25 -1.25
    endloop
  endfacet
  facet normal -0 0 1
    outer loop
      vertex -34.5 84.75 -1.25
      vertex -8 72.75 -1.25
      vertex -8 84.75 -1.25
    endloop
  endfacet
  facet normal 0 0 1
    outer loop
      vertex -8 72.75 -1.25
      vertex -34.5 84.75 -1.25
      vertex -34.5 72.75 -1.25
    endloop
  endfacet
  facet normal -0 0 1
    outer loop
      vertex -34.5 53.25 -1.25
      vertex -8 41.25 -1.25
      vertex -8 53.25 -1.25
    endloop
  endfacet
  facet normal 0 0 1
    outer loop
      vertex -8 41.25 -1.25
      vertex -34.5 53.25 -1.25
      vertex -34.5 41.25 -1.25
    endloop
  endfacet
  facet normal -0 0 1
    outer loop
      vertex -34.5 21.75 -1.25
      vertex -8 9.75 -1.25
      vertex -8 21.75 -1.25
    endloop
  endfacet
  facet normal 0 0 1
    outer loop
      vertex -8 9.75 -1.25
      vertex -34.5 21.75 -1.25
      vertex -34.5 9.75 -1.25
    endloop
  endfacet
  facet normal -0 0 1
    outer loop
      vertex -34.5 -9.75 -1.25
      vertex -8 -15.75 -1.25
      vertex -8 -9.75 -1.25
    endloop
  endfacet
  facet normal 0 0 1
    outer loop
      vertex -34.5 -9.75 -1.25
      vertex -49 -15.75 -1.25
      vertex -8 -15.75 -1.25
    endloop
  endfacet
  facet normal 0 0 1
    outer loop
      vertex -34.5 9.75 -1.25
      vertex -49 -15.75 -1.25
      vertex -34.5 -9.75 -1.25
    endloop
  endfacet
  facet normal -0 0 1
    outer loop
      vertex 8 21.75 -1.25
      vertex 34.5 9.75 -1.25
      vertex 34.5 21.75 -1.25
    endloop
  endfacet
  facet normal 0 0 1
    outer loop
      vertex 34.5 9.75 -1.25
      vertex 8 21.75 -1.25
      vertex 8 9.75 -1.25
    endloop
  endfacet
  facet normal -0 0 1
    outer loop
      vertex 8 53.25 -1.25
      vertex 34.5 41.25 -1.25
      vertex 34.5 53.25 -1.25
    endloop
  endfacet
  facet normal 0 0 1
    outer loop
      vertex 34.5 41.25 -1.25
      vertex 8 53.25 -1.25
      vertex 8 41.25 -1.25
    endloop
  endfacet
  facet normal -0 0 1
    outer loop
      vertex 8 84.75 -1.25
      vertex 34.5 72.75 -1.25
      vertex 34.5 84.75 -1.25
    endloop
  endfacet
  facet normal 0 0 1
    outer loop
      vertex 34.5 72.75 -1.25
      vertex 8 84.75 -1.25
      vertex 8 72.75 -1.25
    endloop
  endfacet
  facet normal -0 0 1
    outer loop
      vertex 8 116.25 -1.25
      vertex 34.5 104.25 -1.25
      vertex 34.5 116.25 -1.25
    endloop
  endfacet
  facet normal 0 0 1
    outer loop
      vertex 34.5 104.25 -1.25
      vertex 8 116.25 -1.25
      vertex 8 104.25 -1.25
    endloop
  endfacet
  facet normal -0 0 1
    outer loop
      vertex 8 147.75 -1.25
      vertex 34.5 135.75 -1.25
      vertex 34.5 147.75 -1.25
    endloop
  endfacet
  facet normal 0 0 1
    outer loop
      vertex 34.5 135.75 -1.25
      vertex 8 147.75 -1.25
      vertex 8 135.75 -1.25
    endloop
  endfacet
  facet normal 0 0 1
    outer loop
      vertex 34.5 147.75 -1.25
      vertex 49 173.25 -1.25
      vertex 34.5 167.25 -1.25
    endloop
  endfacet
  facet normal -0 0 1
    outer loop
      vertex 8 173.25 -1.25
      vertex 34.5 167.25 -1.25
      vertex 49 173.25 -1.25
    endloop
  endfacet
  facet normal 0 0 1
    outer loop
      vertex 34.5 167.25 -1.25
      vertex 8 173.25 -1.25
      vertex 8 167.25 -1.25
    endloop
  endfacet
  facet normal 0 0 1
    outer loop
      vertex 34.5 135.75 -1.25
      vertex 49 173.25 -1.25
      vertex 34.5 147.75 -1.25
    endloop
  endfacet
  facet normal 0 0 1
    outer loop
      vertex 34.5 116.25 -1.25
      vertex 49 173.25 -1.25
      vertex 34.5 135.75 -1.25
    endloop
  endfacet
  facet normal 0 0 1
    outer loop
      vertex 34.5 104.25 -1.25
      vertex 49 173.25 -1.25
      vertex 34.5 116.25 -1.25
    endloop
  endfacet
  facet normal 0 0 1
    outer loop
      vertex 34.5 84.75 -1.25
      vertex 49 173.25 -1.25
      vertex 34.5 104.25 -1.25
    endloop
  endfacet
  facet normal 0 0 1
    outer loop
      vertex 49 173.25 -1.25
      vertex 34.5 84.75 -1.25
      vertex 49 -15.75 -1.25
    endloop
  endfacet
  facet normal -0 0 1
    outer loop
      vertex 34.5 72.75 -1.25
      vertex 49 -15.75 -1.25
      vertex 34.5 84.75 -1.25
    endloop
  endfacet
  facet normal -0 0 1
    outer loop
      vertex 34.5 53.25 -1.25
      vertex 49 -15.75 -1.25
      vertex 34.5 72.75 -1.25
    endloop
  endfacet
  facet normal -0 0 1
    outer loop
      vertex 34.5 41.25 -1.25
      vertex 49 -15.75 -1.25
      vertex 34.5 53.25 -1.25
    endloop
  endfacet
  facet normal -0 0 1
    outer loop
      vertex 34.5 21.75 -1.25
      vertex 49 -15.75 -1.25
      vertex 34.5 41.25 -1.25
    endloop
  endfacet
  facet normal -0 0 1
    outer loop
      vertex 34.5 9.75 -1.25
      vertex 49 -15.75 -1.25
      vertex 34.5 21.75 -1.25
    endloop
  endfacet
  facet normal -0 0 1
    outer loop
      vertex 34.5 -9.75 -1.25
      vertex 49 -15.75 -1.25
      vertex 34.5 9.75 -1.25
    endloop
  endfacet
  facet normal 0 0 1
    outer loop
      vertex 8 -15.75 -1.25
      vertex 34.5 -9.75 -1.25
      vertex 8 -9.75 -1.25
    endloop
  endfacet
  facet normal 0 0 1
    outer loop
      vertex 34.5 -9.75 -1.25
      vertex 8 -15.75 -1.25
      vertex 49 -15.75 -1.25
    endloop
  endfacet
  facet normal 0 0 -1
    outer loop
      vertex -49 -15.75 -3.75
      vertex 49 173.25 -3.75
      vertex 49 -15.75 -3.75
    endloop
  endfacet
  facet normal -0 0 -1
    outer loop
      vertex 49 173.25 -3.75
      vertex -49 -15.75 -3.75
      vertex -49 173.25 -3.75
    endloop
  endfacet
  facet normal -1 0 0
    outer loop
      vertex -49 -15.75 -3.75
      vertex -49 173.25 -1.25
      vertex -49 173.25 -3.75
    endloop
  endfacet
  facet normal -1 -0 0
    outer loop
      vertex -49 173.25 -1.25
      vertex -49 -15.75 -3.75
      vertex -49 -15.75 -1.25
    endloop
  endfacet
  facet normal 0 -1 0
    outer loop
      vertex -49 -15.75 -3.75
      vertex -8 -15.75 -1.25
      vertex -49 -15.75 -1.25
    endloop
  endfacet
  facet normal 0 -1 -0
    outer loop
      vertex -8 -15.75 -1.25
      vertex -49 -15.75 -3.75
      vertex 8 -15.75 -1.25
    endloop
  endfacet
  facet normal 0 -1 0
    outer loop
      vertex 49 -15.75 -3.75
      vertex 8 -15.75 -1.25
      vertex -49 -15.75 -3.75
    endloop
  endfacet
  facet normal 0 -1 0
    outer loop
      vertex 8 -15.75 -1.25
      vertex 49 -15.75 -3.75
      vertex 49 -15.75 -1.25
    endloop
  endfacet
  facet normal 0 -1 0
    outer loop
      vertex -8 -15.75 -1.25
      vertex 8 -15.75 3.5
      vertex -8 -15.75 3.5
    endloop
  endfacet
  facet normal 0 -1 -0
    outer loop
      vertex 8 -15.75 3.5
      vertex -8 -15.75 -1.25
      vertex 8 -15.75 -1.25
    endloop
  endfacet
  facet normal 1 -0 0
    outer loop
      vertex 8 9.75 3.5
      vertex 8 21.75 -1.25
      vertex 8 21.75 3.5
    endloop
  endfacet
  facet normal 1 0 0
    outer loop
      vertex 8 21.75 -1.25
      vertex 8 9.75 3.5
      vertex 8 9.75 -1.25
    endloop
  endfacet
  facet normal 1 -0 0
    outer loop
      vertex 8 -15.75 3.5
      vertex 8 -9.75 -1.25
      vertex 8 -9.75 3.5
    endloop
  endfacet
  facet normal 1 0 0
    outer loop
      vertex 8 -9.75 -1.25
      vertex 8 -15.75 3.5
      vertex 8 -15.75 -1.25
    endloop
  endfacet
  facet normal -0 0 1
    outer loop
      vertex -32.5 -7.75 3.5
      vertex -8 -9.75 3.5
      vertex -8 -7.75 3.5
    endloop
  endfacet
  facet normal 0 0 1
    outer loop
      vertex -32.5 -7.75 3.5
      vertex -34.5 -9.75 3.5
      vertex -8 -9.75 3.5
    endloop
  endfacet
  facet normal 0 0 1
    outer loop
      vertex -32.5 7.25 3.5
      vertex -34.5 -9.75 3.5
      vertex -32.5 -7.75 3.5
    endloop
  endfacet
  facet normal 0 0 1
    outer loop
      vertex -8 9.75 3.5
      vertex -32.5 7.25 3.5
      vertex -8 7.25 3.5
    endloop
  endfacet
  facet normal 0 0 1
    outer loop
      vertex -34.5 -9.75 3.5
      vertex -32.5 7.25 3.5
      vertex -34.5 9.75 3.5
    endloop
  endfacet
  facet normal -0 0 1
    outer loop
      vertex -34.5 9.75 3.5
      vertex -32.5 7.25 3.5
      vertex -8 9.75 3.5
    endloop
  endfacet
  facet normal -0 0 1
    outer loop
      vertex -32.5 23.75 3.5
      vertex -8 21.75 3.5
      vertex -8 23.75 3.5
    endloop
  endfacet
  facet normal 0 0 1
    outer loop
      vertex -32.5 23.75 3.5
      vertex -34.5 21.75 3.5
      vertex -8 21.75 3.5
    endloop
  endfacet
  facet normal 0 0 1
    outer loop
      vertex -32.5 38.75 3.5
      vertex -34.5 21.75 3.5
      vertex -32.5 23.75 3.5
    endloop
  endfacet
  facet normal 0 0 1
    outer loop
      vertex -8 41.25 3.5
      vertex -32.5 38.75 3.5
      vertex -8 38.75 3.5
    endloop
  endfacet
  facet normal 0 0 1
    outer loop
      vertex -34.5 21.75 3.5
      vertex -32.5 38.75 3.5
      vertex -34.5 41.25 3.5
    endloop
  endfacet
  facet normal -0 0 1
    outer loop
      vertex -34.5 41.25 3.5
      vertex -32.5 38.75 3.5
      vertex -8 41.25 3.5
    endloop
  endfacet
  facet normal -0 0 1
    outer loop
      vertex -32.5 55.25 3.5
      vertex -8 53.25 3.5
      vertex -8 55.25 3.5
    endloop
  endfacet
  facet normal 0 0 1
    outer loop
      vertex -32.5 55.25 3.5
      vertex -34.5 53.25 3.5
      vertex -8 53.25 3.5
    endloop
  endfacet
  facet normal 0 0 1
    outer loop
      vertex -32.5 70.25 3.5
      vertex -34.5 53.25 3.5
      vertex -32.5 55.25 3.5
    endloop
  endfacet
  facet normal 0 0 1
    outer loop
      vertex -8 72.75 3.5
      vertex -32.5 70.25 3.5
      vertex -8 70.25 3.5
    endloop
  endfacet
  facet normal 0 0 1
    outer loop
      vertex -34.5 53.25 3.5
      vertex -32.5 70.25 3.5
      vertex -34.5 72.75 3.5
    endloop
  endfacet
  facet normal -0 0 1
    outer loop
      vertex -34.5 72.75 3.5
      vertex -32.5 70.25 3.5
      vertex -8 72.75 3.5
    endloop
  endfacet
  facet normal -0 0 1
    outer loop
      vertex -32.5 86.75 3.5
      vertex -8 84.75 3.5
      vertex -8 86.75 3.5
    endloop
  endfacet
  facet normal 0 0 1
    outer loop
      vertex -32.5 86.75 3.5
      vertex -34.5 84.75 3.5
      vertex -8 84.75 3.5
    endloop
  endfacet
  facet normal 0 0 1
    outer loop
      vertex -32.5 101.75 3.5
      vertex -34.5 84.75 3.5
      vertex -32.5 86.75 3.5
    endloop
  endfacet
  facet normal 0 0 1
    outer loop
      vertex -8 104.25 3.5
      vertex -32.5 101.75 3.5
      vertex -8 101.75 3.5
    endloop
  endfacet
  facet normal 0 0 1
    outer loop
      vertex -34.5 84.75 3.5
      vertex -32.5 101.75 3.5
      vertex -34.5 104.25 3.5
    endloop
  endfacet
  facet normal -0 0 1
    outer loop
      vertex -34.5 104.25 3.5
      vertex -32.5 101.75 3.5
      vertex -8 104.25 3.5
    endloop
  endfacet
  facet normal -0 0 1
    outer loop
      vertex -32.5 118.25 3.5
      vertex -8 116.25 3.5
      vertex -8 118.25 3.5
    endloop
  endfacet
  facet normal 0 0 1
    outer loop
      vertex -32.5 118.25 3.5
      vertex -34.5 116.25 3.5
      vertex -8 116.25 3.5
    endloop
  endfacet
  facet normal 0 0 1
    outer loop
      vertex -32.5 133.25 3.5
      vertex -34.5 116.25 3.5
      vertex -32.5 118.25 3.5
    endloop
  endfacet
  facet normal 0 0 1
    outer loop
      vertex -8 135.75 3.5
      vertex -32.5 133.25 3.5
      vertex -8 133.25 3.5
    endloop
  endfacet
  facet normal 0 0 1
    outer loop
      vertex -34.5 116.25 3.5
      vertex -32.5 133.25 3.5
      vertex -34.5 135.75 3.5
    endloop
  endfacet
  facet normal -0 0 1
    outer loop
      vertex -34.5 135.75 3.5
      vertex -32.5 133.25 3.5
      vertex -8 135.75 3.5
    endloop
  endfacet
  facet normal -0 0 1
    outer loop
      vertex -32.5 149.75 3.5
      vertex -8 147.75 3.5
      vertex -8 149.75 3.5
    endloop
  endfacet
  facet normal 0 0 1
    outer loop
      vertex -32.5 149.75 3.5
      vertex -34.5 147.75 3.5
      vertex -8 147.75 3.5
    endloop
  endfacet
  facet normal 0 0 1
    outer loop
      vertex -32.5 164.75 3.5
      vertex -34.5 147.75 3.5
      vertex -32.5 149.75 3.5
    endloop
  endfacet
  facet normal 0 0 1
    outer loop
      vertex -8 167.25 3.5
      vertex -32.5 164.75 3.5
      vertex -8 164.75 3.5
    endloop
  endfacet
  facet normal 0 0 1
    outer loop
      vertex -34.5 147.75 3.5
      vertex -32.5 164.75 3.5
      vertex -34.5 167.25 3.5
    endloop
  endfacet
  facet normal -0 0 1
    outer loop
      vertex -34.5 167.25 3.5
      vertex -32.5 164.75 3.5
      vertex -8 167.25 3.5
    endloop
  endfacet
  facet normal 0 0 1
    outer loop
      vertex -8 167.25 3.5
      vertex 8 167.25 3.5
      vertex 8 173.25 3.5
    endloop
  endfacet
  facet normal 0 0 1
    outer loop
      vertex 8 167.25 3.5
      vertex -8 167.25 3.5
      vertex 8 164.75 3.5
    endloop
  endfacet
  facet normal 0 0 1
    outer loop
      vertex 8 164.75 3.5
      vertex -8 164.75 3.5
      vertex 8 149.75 3.5
    endloop
  endfacet
  facet normal 0 0 1
    outer loop
      vertex -8 149.75 3.5
      vertex 8 149.75 3.5
      vertex -8 164.75 3.5
    endloop
  endfacet
  facet normal 0 0 1
    outer loop
      vertex -8 147.75 3.5
      vertex 8 147.75 3.5
      vertex -8 149.75 3.5
    endloop
  endfacet
  facet normal 0 0 1
    outer loop
      vertex 8 147.75 3.5
      vertex -8 147.75 3.5
      vertex 8 135.75 3.5
    endloop
  endfacet
  facet normal 0 0 1
    outer loop
      vertex 8 135.75 3.5
      vertex -8 135.75 3.5
      vertex 8 133.25 3.5
    endloop
  endfacet
  facet normal 0 0 1
    outer loop
      vertex -8 133.25 3.5
      vertex 8 133.25 3.5
      vertex -8 135.75 3.5
    endloop
  endfacet
  facet normal 0 0 1
    outer loop
      vertex -8 118.25 3.5
      vertex 8 118.25 3.5
      vertex -8 133.25 3.5
    endloop
  endfacet
  facet normal 0 0 1
    outer loop
      vertex 8 118.25 3.5
      vertex -8 118.25 3.5
      vertex 8 116.25 3.5
    endloop
  endfacet
  facet normal 0 0 1
    outer loop
      vertex 8 116.25 3.5
      vertex -8 116.25 3.5
      vertex 8 104.25 3.5
    endloop
  endfacet
  facet normal 0 0 1
    outer loop
      vertex -8 104.25 3.5
      vertex 8 104.25 3.5
      vertex -8 116.25 3.5
    endloop
  endfacet
  facet normal 0 0 1
    outer loop
      vertex -8 101.75 3.5
      vertex 8 101.75 3.5
      vertex -8 104.25 3.5
    endloop
  endfacet
  facet normal 0 0 1
    outer loop
      vertex 8 101.75 3.5
      vertex -8 101.75 3.5
      vertex 8 86.75 3.5
    endloop
  endfacet
  facet normal 0 0 1
    outer loop
      vertex 8 86.75 3.5
      vertex -8 86.75 3.5
      vertex 8 84.75 3.5
    endloop
  endfacet
  facet normal 0 0 1
    outer loop
      vertex -8 84.75 3.5
      vertex 8 84.75 3.5
      vertex -8 86.75 3.5
    endloop
  endfacet
  facet normal 0 0 1
    outer loop
      vertex -8 72.75 3.5
      vertex 8 72.75 3.5
      vertex -8 84.75 3.5
    endloop
  endfacet
  facet normal 0 0 1
    outer loop
      vertex 8 72.75 3.5
      vertex -8 72.75 3.5
      vertex 8 70.25 3.5
    endloop
  endfacet
  facet normal 0 0 1
    outer loop
      vertex 8 70.25 3.5
      vertex -8 70.25 3.5
      vertex 8 55.25 3.5
    endloop
  endfacet
  facet normal 0 0 1
    outer loop
      vertex -8 55.25 3.5
      vertex 8 55.25 3.5
      vertex -8 70.25 3.5
    endloop
  endfacet
  facet normal 0 0 1
    outer loop
      vertex -8 53.25 3.5
      vertex 8 53.25 3.5
      vertex -8 55.25 3.5
    endloop
  endfacet
  facet normal 0 0 1
    outer loop
      vertex 8 53.25 3.5
      vertex -8 53.25 3.5
      vertex 8 41.25 3.5
    endloop
  endfacet
  facet normal 0 0 1
    outer loop
      vertex 8 41.25 3.5
      vertex -8 41.25 3.5
      vertex 8 38.75 3.5
    endloop
  endfacet
  facet normal 0 0 1
    outer loop
      vertex -8 38.75 3.5
      vertex 8 38.75 3.5
      vertex -8 41.25 3.5
    endloop
  endfacet
  facet normal 0 0 1
    outer loop
      vertex -8 167.25 3.5
      vertex 8 173.25 3.5
      vertex -8 173.25 3.5
    endloop
  endfacet
  facet normal 0 0 1
    outer loop
      vertex 8 164.75 3.5
      vertex -8 167.25 3.5
      vertex -8 164.75 3.5
    endloop
  endfacet
  facet normal 0 0 1
    outer loop
      vertex 8 149.75 3.5
      vertex -8 149.75 3.5
      vertex 8 147.75 3.5
    endloop
  endfacet
  facet normal 0 0 1
    outer loop
      vertex -8 135.75 3.5
      vertex 8 135.75 3.5
      vertex -8 147.75 3.5
    endloop
  endfacet
  facet normal 0 0 1
    outer loop
      vertex 8 133.25 3.5
      vertex -8 133.25 3.5
      vertex 8 118.25 3.5
    endloop
  endfacet
  facet normal 0 0 1
    outer loop
      vertex -8 116.25 3.5
      vertex 8 116.25 3.5
      vertex -8 118.25 3.5
    endloop
  endfacet
  facet normal 0 0 1
    outer loop
      vertex 8 104.25 3.5
      vertex -8 104.25 3.5
      vertex 8 101.75 3.5
    endloop
  endfacet
  facet normal 0 0 1
    outer loop
      vertex -8 86.75 3.5
      vertex 8 86.75 3.5
      vertex -8 101.75 3.5
    endloop
  endfacet
  facet normal 0 0 1
    outer loop
      vertex 8 84.75 3.5
      vertex -8 84.75 3.5
      vertex 8 72.75 3.5
    endloop
  endfacet
  facet normal 0 0 1
    outer loop
      vertex -8 70.25 3.5
      vertex 8 70.25 3.5
      vertex -8 72.75 3.5
    endloop
  endfacet
  facet normal 0 0 1
    outer loop
      vertex 8 55.25 3.5
      vertex -8 55.25 3.5
      vertex 8 53.25 3.5
    endloop
  endfacet
  facet normal 0 0 1
    outer loop
      vertex -8 41.25 3.5
      vertex 8 41.25 3.5
      vertex -8 53.25 3.5
    endloop
  endfacet
  facet normal 0 0 1
    outer loop
      vertex 8 38.75 3.5
      vertex -8 38.75 3.5
      vertex 8 23.75 3.5
    endloop
  endfacet
  facet normal 0 0 1
    outer loop
      vertex -8 23.75 3.5
      vertex 8 23.75 3.5
      vertex -8 38.75 3.5
    endloop
  endfacet
  facet normal 0 0 1
    outer loop
      vertex 8 23.75 3.5
      vertex -8 23.75 3.5
      vertex 8 21.75 3.5
    endloop
  endfacet
  facet normal 0 0 1
    outer loop
      vertex -8 21.75 3.5
      vertex 8 21.75 3.5
      vertex -8 23.75 3.5
    endloop
  endfacet
  facet normal 0 0 1
    outer loop
      vertex 8 21.75 3.5
      vertex -8 21.75 3.5
      vertex 8 9.75 3.5
    endloop
  endfacet
  facet normal 0 0 1
    outer loop
      vertex -8 9.75 3.5
      vertex 8 9.75 3.5
      vertex -8 21.75 3.5
    endloop
  endfacet
  facet normal 0 0 1
    outer loop
      vertex 8 9.75 3.5
      vertex -8 9.75 3.5
      vertex 8 7.25 3.5
    endloop
  endfacet
  facet normal 0 0 1
    outer loop
      vertex -8 7.25 3.5
      vertex 8 7.25 3.5
      vertex -8 9.75 3.5
    endloop
  endfacet
  facet normal 0 0 1
    outer loop
      vertex 8 7.25 3.5
      vertex -8 7.25 3.5
      vertex 8 -7.75 3.5
    endloop
  endfacet
  facet normal 0 0 1
    outer loop
      vertex -8 -7.75 3.5
      vertex 8 -7.75 3.5
      vertex -8 7.25 3.5
    endloop
  endfacet
  facet normal 0 0 1
    outer loop
      vertex 8 -7.75 3.5
      vertex -8 -7.75 3.5
      vertex 8 -9.75 3.5
    endloop
  endfacet
  facet normal 0 0 1
    outer loop
      vertex -8 -9.75 3.5
      vertex 8 -9.75 3.5
      vertex -8 -7.75 3.5
    endloop
  endfacet
  facet normal 0 0 1
    outer loop
      vertex 8 -9.75 3.5
      vertex -8 -9.75 3.5
      vertex 8 -15.75 3.5
    endloop
  endfacet
  facet normal 0 0 1
    outer loop
      vertex 8 -15.75 3.5
      vertex -8 -9.75 3.5
      vertex -8 -15.75 3.5
    endloop
  endfacet
  facet normal 0 0 1
    outer loop
      vertex 34.5 167.25 3.5
      vertex 32.5 164.75 3.5
      vertex 34.5 147.75 3.5
    endloop
  endfacet
  facet normal -0 0 1
    outer loop
      vertex 8 167.25 3.5
      vertex 32.5 164.75 3.5
      vertex 34.5 167.25 3.5
    endloop
  endfacet
  facet normal 0 0 1
    outer loop
      vertex 32.5 164.75 3.5
      vertex 8 167.25 3.5
      vertex 8 164.75 3.5
    endloop
  endfacet
  facet normal -0 0 1
    outer loop
      vertex 32.5 149.75 3.5
      vertex 34.5 147.75 3.5
      vertex 32.5 164.75 3.5
    endloop
  endfacet
  facet normal 0 0 1
    outer loop
      vertex 8 147.75 3.5
      vertex 32.5 149.75 3.5
      vertex 8 149.75 3.5
    endloop
  endfacet
  facet normal 0 0 1
    outer loop
      vertex 32.5 149.75 3.5
      vertex 8 147.75 3.5
      vertex 34.5 147.75 3.5
    endloop
  endfacet
  facet normal 0 0 1
    outer loop
      vertex 34.5 135.75 3.5
      vertex 32.5 133.25 3.5
      vertex 34.5 116.25 3.5
    endloop
  endfacet
  facet normal -0 0 1
    outer loop
      vertex 8 135.75 3.5
      vertex 32.5 133.25 3.5
      vertex 34.5 135.75 3.5
    endloop
  endfacet
  facet normal 0 0 1
    outer loop
      vertex 32.5 133.25 3.5
      vertex 8 135.75 3.5
      vertex 8 133.25 3.5
    endloop
  endfacet
  facet normal -0 0 1
    outer loop
      vertex 32.5 118.25 3.5
      vertex 34.5 116.25 3.5
      vertex 32.5 133.25 3.5
    endloop
  endfacet
  facet normal 0 0 1
    outer loop
      vertex 8 116.25 3.5
      vertex 32.5 118.25 3.5
      vertex 8 118.25 3.5
    endloop
  endfacet
  facet normal 0 0 1
    outer loop
      vertex 32.5 118.25 3.5
      vertex 8 116.25 3.5
      vertex 34.5 116.25 3.5
    endloop
  endfacet
  facet normal 0 0 1
    outer loop
      vertex 34.5 104.25 3.5
      vertex 32.5 101.75 3.5
      vertex 34.5 84.75 3.5
    endloop
  endfacet
  facet normal -0 0 1
    outer loop
      vertex 8 104.25 3.5
      vertex 32.5 101.75 3.5
      vertex 34.5 104.25 3.5
    endloop
  endfacet
  facet normal 0 0 1
    outer loop
      vertex 32.5 101.75 3.5
      vertex 8 104.25 3.5
      vertex 8 101.75 3.5
    endloop
  endfacet
  facet normal -0 0 1
    outer loop
      vertex 32.5 86.75 3.5
      vertex 34.5 84.75 3.5
      vertex 32.5 101.75 3.5
    endloop
  endfacet
  facet normal 0 0 1
    outer loop
      vertex 8 84.75 3.5
      vertex 32.5 86.75 3.5
      vertex 8 86.75 3.5
    endloop
  endfacet
  facet normal 0 0 1
    outer loop
      vertex 32.5 86.75 3.5
      vertex 8 84.75 3.5
      vertex 34.5 84.75 3.5
    endloop
  endfacet
  facet normal 0 0 1
    outer loop
      vertex 34.5 72.75 3.5
      vertex 32.5 70.25 3.5
      vertex 34.5 53.25 3.5
    endloop
  endfacet
  facet normal -0 0 1
    outer loop
      vertex 8 72.75 3.5
      vertex 32.5 70.25 3.5
      vertex 34.5 72.75 3.5
    endloop
  endfacet
  facet normal 0 0 1
    outer loop
      vertex 32.5 70.25 3.5
      vertex 8 72.75 3.5
      vertex 8 70.25 3.5
    endloop
  endfacet
  facet normal -0 0 1
    outer loop
      vertex 32.5 55.25 3.5
      vertex 34.5 53.25 3.5
      vertex 32.5 70.25 3.5
    endloop
  endfacet
  facet normal 0 0 1
    outer loop
      vertex 8 53.25 3.5
      vertex 32.5 55.25 3.5
      vertex 8 55.25 3.5
    endloop
  endfacet
  facet normal 0 0 1
    outer loop
      vertex 32.5 55.25 3.5
      vertex 8 53.25 3.5
      vertex 34.5 53.25 3.5
    endloop
  endfacet
  facet normal 0 0 1
    outer loop
      vertex 34.5 41.25 3.5
      vertex 32.5 38.75 3.5
      vertex 34.5 21.75 3.5
    endloop
  endfacet
  facet normal -0 0 1
    outer loop
      vertex 8 41.25 3.5
      vertex 32.5 38.75 3.5
      vertex 34.5 41.25 3.5
    endloop
  endfacet
  facet normal 0 0 1
    outer loop
      vertex 32.5 38.75 3.5
      vertex 8 41.25 3.5
      vertex 8 38.75 3.5
    endloop
  endfacet
  facet normal -0 0 1
    outer loop
      vertex 32.5 23.75 3.5
      vertex 34.5 21.75 3.5
      vertex 32.5 38.75 3.5
    endloop
  endfacet
  facet normal 0 0 1
    outer loop
      vertex 8 21.75 3.5
      vertex 32.5 23.75 3.5
      vertex 8 23.75 3.5
    endloop
  endfacet
  facet normal 0 0 1
    outer loop
      vertex 32.5 23.75 3.5
      vertex 8 21.75 3.5
      vertex 34.5 21.75 3.5
    endloop
  endfacet
  facet normal 0 0 1
    outer loop
      vertex 34.5 9.75 3.5
      vertex 32.5 7.25 3.5
      vertex 34.5 -9.75 3.5
    endloop
  endfacet
  facet normal -0 0 1
    outer loop
      vertex 8 9.75 3.5
      vertex 32.5 7.25 3.5
      vertex 34.5 9.75 3.5
    endloop
  endfacet
  facet normal 0 0 1
    outer loop
      vertex 32.5 7.25 3.5
      vertex 8 9.75 3.5
      vertex 8 7.25 3.5
    endloop
  endfacet
  facet normal -0 0 1
    outer loop
      vertex 32.5 -7.75 3.5
      vertex 34.5 -9.75 3.5
      vertex 32.5 7.25 3.5
    endloop
  endfacet
  facet normal 0 0 1
    outer loop
      vertex 8 -9.75 3.5
      vertex 32.5 -7.75 3.5
      vertex 8 -7.75 3.5
    endloop
  endfacet
  facet normal 0 0 1
    outer loop
      vertex 32.5 -7.75 3.5
      vertex 8 -9.75 3.5
      vertex 34.5 -9.75 3.5
    endloop
  endfacet
  facet normal -1 0 0
    outer loop
      vertex -8 9.75 -1.25
      vertex -8 21.75 3.5
      vertex -8 21.75 -1.25
    endloop
  endfacet
  facet normal -1 -0 0
    outer loop
      vertex -8 21.75 3.5
      vertex -8 9.75 -1.25
      vertex -8 9.75 3.5
    endloop
  endfacet
  facet normal -1 0 0
    outer loop
      vertex -8 -15.75 -1.25
      vertex -8 -9.75 3.5
      vertex -8 -9.75 -1.25
    endloop
  endfacet
  facet normal -1 -0 0
    outer loop
      vertex -8 -9.75 3.5
      vertex -8 -15.75 -1.25
      vertex -8 -15.75 3.5
    endloop
  endfacet
  facet normal 1 -0 0
    outer loop
      vertex 34.5 -9.75 3.5
      vertex 34.5 9.75 -1.25
      vertex 34.5 9.75 3.5
    endloop
  endfacet
  facet normal 1 0 0
    outer loop
      vertex 34.5 9.75 -1.25
      vertex 34.5 -9.75 3.5
      vertex 34.5 -9.75 -1.25
    endloop
  endfacet
  facet normal -1 0 0
    outer loop
      vertex -34.5 -9.75 -1.25
      vertex -34.5 9.75 3.5
      vertex -34.5 9.75 -1.25
    endloop
  endfacet
  facet normal -1 -0 0
    outer loop
      vertex -34.5 9.75 3.5
      vertex -34.5 -9.75 -1.25
      vertex -34.5 -9.75 3.5
    endloop
  endfacet
  facet normal 0 1 -0
    outer loop
      vertex -8 9.75 -1.25
      vertex -34.5 9.75 3.5
      vertex -8 9.75 3.5
    endloop
  endfacet
  facet normal 0 1 0
    outer loop
      vertex -34.5 9.75 3.5
      vertex -8 9.75 -1.25
      vertex -34.5 9.75 -1.25
    endloop
  endfacet
  facet normal 0 1 -0
    outer loop
      vertex 34.5 9.75 -1.25
      vertex 8 9.75 3.5
      vertex 34.5 9.75 3.5
    endloop
  endfacet
  facet normal 0 1 0
    outer loop
      vertex 8 9.75 3.5
      vertex 34.5 9.75 -1.25
      vertex 8 9.75 -1.25
    endloop
  endfacet
  facet normal 0 -1 0
    outer loop
      vertex -34.5 -9.75 -1.25
      vertex -8 -9.75 3.5
      vertex -34.5 -9.75 3.5
    endloop
  endfacet
  facet normal 0 -1 -0
    outer loop
      vertex -8 -9.75 3.5
      vertex -34.5 -9.75 -1.25
      vertex -8 -9.75 -1.25
    endloop
  endfacet
  facet normal 0 -1 0
    outer loop
      vertex 8 -9.75 -1.25
      vertex 34.5 -9.75 3.5
      vertex 8 -9.75 3.5
    endloop
  endfacet
  facet normal 0 -1 -0
    outer loop
      vertex 34.5 -9.75 3.5
      vertex 8 -9.75 -1.25
      vertex 34.5 -9.75 -1.25
    endloop
  endfacet
  facet normal -1 0 0
    outer loop
      vertex -8 -7.75 0
      vertex -8 7.25 3.5
      vertex -8 7.25 0
    endloop
  endfacet
  facet normal -1 -0 0
    outer loop
      vertex -8 7.25 3.5
      vertex -8 -7.75 0
      vertex -8 -7.75 3.5
    endloop
  endfacet
  facet normal -0 0 1
    outer loop
      vertex -32.5 7.25 0
      vertex -8 -7.75 0
      vertex -8 7.25 0
    endloop
  endfacet
  facet normal 0 0 1
    outer loop
      vertex -8 -7.75 0
      vertex -32.5 7.25 0
      vertex -32.5 -7.75 0
    endloop
  endfacet
  facet normal 1 -0 0
    outer loop
      vertex -32.5 -7.75 3.5
      vertex -32.5 7.25 0
      vertex -32.5 7.25 3.5
    endloop
  endfacet
  facet normal 1 0 0
    outer loop
      vertex -32.5 7.25 0
      vertex -32.5 -7.75 3.5
      vertex -32.5 -7.75 0
    endloop
  endfacet
  facet normal 0 -1 0
    outer loop
      vertex -32.5 7.25 0
      vertex -8 7.25 3.5
      vertex -32.5 7.25 3.5
    endloop
  endfacet
  facet normal 0 -1 -0
    outer loop
      vertex -8 7.25 3.5
      vertex -32.5 7.25 0
      vertex -8 7.25 0
    endloop
  endfacet
  facet normal 0 1 -0
    outer loop
      vertex -8 -7.75 0
      vertex -32.5 -7.75 3.5
      vertex -8 -7.75 3.5
    endloop
  endfacet
  facet normal 0 1 0
    outer loop
      vertex -32.5 -7.75 3.5
      vertex -8 -7.75 0
      vertex -32.5 -7.75 0
    endloop
  endfacet
  facet normal -1 0 0
    outer loop
      vertex 32.5 -7.75 0
      vertex 32.5 7.25 3.5
      vertex 32.5 7.25 0
    endloop
  endfacet
  facet normal -1 -0 0
    outer loop
      vertex 32.5 7.25 3.5
      vertex 32.5 -7.75 0
      vertex 32.5 -7.75 3.5
    endloop
  endfacet
  facet normal -0 0 1
    outer loop
      vertex 8 7.25 0
      vertex 32.5 -7.75 0
      vertex 32.5 7.25 0
    endloop
  endfacet
  facet normal 0 0 1
    outer loop
      vertex 32.5 -7.75 0
      vertex 8 7.25 0
      vertex 8 -7.75 0
    endloop
  endfacet
  facet normal 1 -0 0
    outer loop
      vertex 8 -7.75 3.5
      vertex 8 7.25 0
      vertex 8 7.25 3.5
    endloop
  endfacet
  facet normal 1 0 0
    outer loop
      vertex 8 7.25 0
      vertex 8 -7.75 3.5
      vertex 8 -7.75 0
    endloop
  endfacet
  facet normal 0 -1 0
    outer loop
      vertex 8 7.25 0
      vertex 32.5 7.25 3.5
      vertex 8 7.25 3.5
    endloop
  endfacet
  facet normal 0 -1 -0
    outer loop
      vertex 32.5 7.25 3.5
      vertex 8 7.25 0
      vertex 32.5 7.25 0
    endloop
  endfacet
  facet normal 0 1 -0
    outer loop
      vertex 32.5 -7.75 0
      vertex 8 -7.75 3.5
      vertex 32.5 -7.75 3.5
    endloop
  endfacet
  facet normal 0 1 0
    outer loop
      vertex 8 -7.75 3.5
      vertex 32.5 -7.75 0
      vertex 8 -7.75 0
    endloop
  endfacet
  facet normal 1 -0 0
    outer loop
      vertex 8 41.25 3.5
      vertex 8 53.25 -1.25
      vertex 8 53.25 3.5
    endloop
  endfacet
  facet normal 1 0 0
    outer loop
      vertex 8 53.25 -1.25
      vertex 8 41.25 3.5
      vertex 8 41.25 -1.25
    endloop
  endfacet
  facet normal -1 0 0
    outer loop
      vertex -8 41.25 -1.25
      vertex -8 53.25 3.5
      vertex -8 53.25 -1.25
    endloop
  endfacet
  facet normal -1 -0 0
    outer loop
      vertex -8 53.25 3.5
      vertex -8 41.25 -1.25
      vertex -8 41.25 3.5
    endloop
  endfacet
  facet normal 1 -0 0
    outer loop
      vertex 34.5 21.75 3.5
      vertex 34.5 41.25 -1.25
      vertex 34.5 41.25 3.5
    endloop
  endfacet
  facet normal 1 0 0
    outer loop
      vertex 34.5 41.25 -1.25
      vertex 34.5 21.75 3.5
      vertex 34.5 21.75 -1.25
    endloop
  endfacet
  facet normal -1 0 0
    outer loop
      vertex -34.5 21.75 -1.25
      vertex -34.5 41.25 3.5
      vertex -34.5 41.25 -1.25
    endloop
  endfacet
  facet normal -1 -0 0
    outer loop
      vertex -34.5 41.25 3.5
      vertex -34.5 21.75 -1.25
      vertex -34.5 21.75 3.5
    endloop
  endfacet
  facet normal 0 1 -0
    outer loop
      vertex -8 41.25 -1.25
      vertex -34.5 41.25 3.5
      vertex -8 41.25 3.5
    endloop
  endfacet
  facet normal 0 1 0
    outer loop
      vertex -34.5 41.25 3.5
      vertex -8 41.25 -1.25
      vertex -34.5 41.25 -1.25
    endloop
  endfacet
  facet normal 0 1 -0
    outer loop
      vertex 34.5 41.25 -1.25
      vertex 8 41.25 3.5
      vertex 34.5 41.25 3.5
    endloop
  endfacet
  facet normal 0 1 0
    outer loop
      vertex 8 41.25 3.5
      vertex 34.5 41.25 -1.25
      vertex 8 41.25 -1.25
    endloop
  endfacet
  facet normal 0 -1 0
    outer loop
      vertex -34.5 21.75 -1.25
      vertex -8 21.75 3.5
      vertex -34.5 21.75 3.5
    endloop
  endfacet
  facet normal 0 -1 -0
    outer loop
      vertex -8 21.75 3.5
      vertex -34.5 21.75 -1.25
      vertex -8 21.75 -1.25
    endloop
  endfacet
  facet normal 0 -1 0
    outer loop
      vertex 8 21.75 -1.25
      vertex 34.5 21.75 3.5
      vertex 8 21.75 3.5
    endloop
  endfacet
  facet normal 0 -1 -0
    outer loop
      vertex 34.5 21.75 3.5
      vertex 8 21.75 -1.25
      vertex 34.5 21.75 -1.25
    endloop
  endfacet
  facet normal -1 0 0
    outer loop
      vertex -8 23.75 0
      vertex -8 38.75 3.5
      vertex -8 38.75 0
    endloop
  endfacet
  facet normal -1 -0 0
    outer loop
      vertex -8 38.75 3.5
      vertex -8 23.75 0
      vertex -8 23.75 3.5
    endloop
  endfacet
  facet normal -0 0 1
    outer loop
      vertex -32.5 38.75 0
      vertex -8 23.75 0
      vertex -8 38.75 0
    endloop
  endfacet
  facet normal 0 0 1
    outer loop
      vertex -8 23.75 0
      vertex -32.5 38.75 0
      vertex -32.5 23.75 0
    endloop
  endfacet
  facet normal 1 -0 0
    outer loop
      vertex -32.5 23.75 3.5
      vertex -32.5 38.75 0
      vertex -32.5 38.75 3.5
    endloop
  endfacet
  facet normal 1 0 0
    outer loop
      vertex -32.5 38.75 0
      vertex -32.5 23.75 3.5
      vertex -32.5 23.75 0
    endloop
  endfacet
  facet normal 0 -1 0
    outer loop
      vertex -32.5 38.75 0
      vertex -8 38.75 3.5
      vertex -32.5 38.75 3.5
    endloop
  endfacet
  facet normal 0 -1 -0
    outer loop
      vertex -8 38.75 3.5
      vertex -32.5 38.75 0
      vertex -8 38.75 0
    endloop
  endfacet
  facet normal 0 1 -0
    outer loop
      vertex -8 23.75 0
      vertex -32.5 23.75 3.5
      vertex -8 23.75 3.5
    endloop
  endfacet
  facet normal 0 1 0
    outer loop
      vertex -32.5 23.75 3.5
      vertex -8 23.75 0
      vertex -32.5 23.75 0
    endloop
  endfacet
  facet normal -1 0 0
    outer loop
      vertex 32.5 23.75 0
      vertex 32.5 38.75 3.5
      vertex 32.5 38.75 0
    endloop
  endfacet
  facet normal -1 -0 0
    outer loop
      vertex 32.5 38.75 3.5
      vertex 32.5 23.75 0
      vertex 32.5 23.75 3.5
    endloop
  endfacet
  facet normal -0 0 1
    outer loop
      vertex 8 38.75 0
      vertex 32.5 23.75 0
      vertex 32.5 38.75 0
    endloop
  endfacet
  facet normal 0 0 1
    outer loop
      vertex 32.5 23.75 0
      vertex 8 38.75 0
      vertex 8 23.75 0
    endloop
  endfacet
  facet normal 1 -0 0
    outer loop
      vertex 8 23.75 3.5
      vertex 8 38.75 0
      vertex 8 38.75 3.5
    endloop
  endfacet
  facet normal 1 0 0
    outer loop
      vertex 8 38.75 0
      vertex 8 23.75 3.5
      vertex 8 23.75 0
    endloop
  endfacet
  facet normal 0 -1 0
    outer loop
      vertex 8 38.75 0
      vertex 32.5 38.75 3.5
      vertex 8 38.75 3.5
    endloop
  endfacet
  facet normal 0 -1 -0
    outer loop
      vertex 32.5 38.75 3.5
      vertex 8 38.75 0
      vertex 32.5 38.75 0
    endloop
  endfacet
  facet normal 0 1 -0
    outer loop
      vertex 32.5 23.75 0
      vertex 8 23.75 3.5
      vertex 32.5 23.75 3.5
    endloop
  endfacet
  facet normal 0 1 0
    outer loop
      vertex 8 23.75 3.5
      vertex 32.5 23.75 0
      vertex 8 23.75 0
    endloop
  endfacet
  facet normal 1 -0 0
    outer loop
      vertex 8 72.75 3.5
      vertex 8 84.75 -1.25
      vertex 8 84.75 3.5
    endloop
  endfacet
  facet normal 1 0 0
    outer loop
      vertex 8 84.75 -1.25
      vertex 8 72.75 3.5
      vertex 8 72.75 -1.25
    endloop
  endfacet
  facet normal -1 0 0
    outer loop
      vertex -8 72.75 -1.25
      vertex -8 84.75 3.5
      vertex -8 84.75 -1.25
    endloop
  endfacet
  facet normal -1 -0 0
    outer loop
      vertex -8 84.75 3.5
      vertex -8 72.75 -1.25
      vertex -8 72.75 3.5
    endloop
  endfacet
  facet normal 1 -0 0
    outer loop
      vertex 34.5 53.25 3.5
      vertex 34.5 72.75 -1.25
      vertex 34.5 72.75 3.5
    endloop
  endfacet
  facet normal 1 0 0
    outer loop
      vertex 34.5 72.75 -1.25
      vertex 34.5 53.25 3.5
      vertex 34.5 53.25 -1.25
    endloop
  endfacet
  facet normal -1 0 0
    outer loop
      vertex -34.5 53.25 -1.25
      vertex -34.5 72.75 3.5
      vertex -34.5 72.75 -1.25
    endloop
  endfacet
  facet normal -1 -0 0
    outer loop
      vertex -34.5 72.75 3.5
      vertex -34.5 53.25 -1.25
      vertex -34.5 53.25 3.5
    endloop
  endfacet
  facet normal 0 1 -0
    outer loop
      vertex -8 72.75 -1.25
      vertex -34.5 72.75 3.5
      vertex -8 72.75 3.5
    endloop
  endfacet
  facet normal 0 1 0
    outer loop
      vertex -34.5 72.75 3.5
      vertex -8 72.75 -1.25
      vertex -34.5 72.75 -1.25
    endloop
  endfacet
  facet normal 0 1 -0
    outer loop
      vertex 34.5 72.75 -1.25
      vertex 8 72.75 3.5
      vertex 34.5 72.75 3.5
    endloop
  endfacet
  facet normal 0 1 0
    outer loop
      vertex 8 72.75 3.5
      vertex 34.5 72.75 -1.25
      vertex 8 72.75 -1.25
    endloop
  endfacet
  facet normal 0 -1 0
    outer loop
      vertex -34.5 53.25 -1.25
      vertex -8 53.25 3.5
      vertex -34.5 53.25 3.5
    endloop
  endfacet
  facet normal 0 -1 -0
    outer loop
      vertex -8 53.25 3.5
      vertex -34.5 53.25 -1.25
      vertex -8 53.25 -1.25
    endloop
  endfacet
  facet normal 0 -1 0
    outer loop
      vertex 8 53.25 -1.25
      vertex 34.5 53.25 3.5
      vertex 8 53.25 3.5
    endloop
  endfacet
  facet normal 0 -1 -0
    outer loop
      vertex 34.5 53.25 3.5
      vertex 8 53.25 -1.25
      vertex 34.5 53.25 -1.25
    endloop
  endfacet
  facet normal -1 0 0
    outer loop
      vertex -8 55.25 0
      vertex -8 70.25 3.5
      vertex -8 70.25 0
    endloop
  endfacet
  facet normal -1 -0 0
    outer loop
      vertex -8 70.25 3.5
      vertex -8 55.25 0
      vertex -8 55.25 3.5
    endloop
  endfacet
  facet normal -0 0 1
    outer loop
      vertex -32.5 70.25 0
      vertex -8 55.25 0
      vertex -8 70.25 0
    endloop
  endfacet
  facet normal 0 0 1
    outer loop
      vertex -8 55.25 0
      vertex -32.5 70.25 0
      vertex -32.5 55.25 0
    endloop
  endfacet
  facet normal 1 -0 0
    outer loop
      vertex -32.5 55.25 3.5
      vertex -32.5 70.25 0
      vertex -32.5 70.25 3.5
    endloop
  endfacet
  facet normal 1 0 0
    outer loop
      vertex -32.5 70.25 0
      vertex -32.5 55.25 3.5
      vertex -32.5 55.25 0
    endloop
  endfacet
  facet normal 0 -1 0
    outer loop
      vertex -32.5 70.25 0
      vertex -8 70.25 3.5
      vertex -32.5 70.25 3.5
    endloop
  endfacet
  facet normal 0 -1 -0
    outer loop
      vertex -8 70.25 3.5
      vertex -32.5 70.25 0
      vertex -8 70.25 0
    endloop
  endfacet
  facet normal 0 1 -0
    outer loop
      vertex -8 55.25 0
      vertex -32.5 55.25 3.5
      vertex -8 55.25 3.5
    endloop
  endfacet
  facet normal 0 1 0
    outer loop
      vertex -32.5 55.25 3.5
      vertex -8 55.25 0
      vertex -32.5 55.25 0
    endloop
  endfacet
  facet normal -1 0 0
    outer loop
      vertex 32.5 55.25 0
      vertex 32.5 70.25 3.5
      vertex 32.5 70.25 0
    endloop
  endfacet
  facet normal -1 -0 0
    outer loop
      vertex 32.5 70.25 3.5
      vertex 32.5 55.25 0
      vertex 32.5 55.25 3.5
    endloop
  endfacet
  facet normal -0 0 1
    outer loop
      vertex 8 70.25 0
      vertex 32.5 55.25 0
      vertex 32.5 70.25 0
    endloop
  endfacet
  facet normal 0 0 1
    outer loop
      vertex 32.5 55.25 0
      vertex 8 70.25 0
      vertex 8 55.25 0
    endloop
  endfacet
  facet normal 1 -0 0
    outer loop
      vertex 8 55.25 3.5
      vertex 8 70.25 0
      vertex 8 70.25 3.5
    endloop
  endfacet
  facet normal 1 0 0
    outer loop
      vertex 8 70.25 0
      vertex 8 55.25 3.5
      vertex 8 55.25 0
    endloop
  endfacet
  facet normal 0 -1 0
    outer loop
      vertex 8 70.25 0
      vertex 32.5 70.25 3.5
      vertex 8 70.25 3.5
    endloop
  endfacet
  facet normal 0 -1 -0
    outer loop
      vertex 32.5 70.25 3.5
      vertex 8 70.25 0
      vertex 32.5 70.25 0
    endloop
  endfacet
  facet normal 0 1 -0
    outer loop
      vertex 32.5 55.25 0
      vertex 8 55.25 3.5
      vertex 32.5 55.25 3.5
    endloop
  endfacet
  facet normal 0 1 0
    outer loop
      vertex 8 55.25 3.5
      vertex 32.5 55.25 0
      vertex 8 55.25 0
    endloop
  endfacet
  facet normal 1 -0 0
    outer loop
      vertex 8 104.25 3.5
      vertex 8 116.25 -1.25
      vertex 8 116.25 3.5
    endloop
  endfacet
  facet normal 1 0 0
    outer loop
      vertex 8 116.25 -1.25
      vertex 8 104.25 3.5
      vertex 8 104.25 -1.25
    endloop
  endfacet
  facet normal -1 0 0
    outer loop
      vertex -8 104.25 -1.25
      vertex -8 116.25 3.5
      vertex -8 116.25 -1.25
    endloop
  endfacet
  facet normal -1 -0 0
    outer loop
      vertex -8 116.25 3.5
      vertex -8 104.25 -1.25
      vertex -8 104.25 3.5
    endloop
  endfacet
  facet normal 1 -0 0
    outer loop
      vertex 34.5 84.75 3.5
      vertex 34.5 104.25 -1.25
      vertex 34.5 104.25 3.5
    endloop
  endfacet
  facet normal 1 0 0
    outer loop
      vertex 34.5 104.25 -1.25
      vertex 34.5 84.75 3.5
      vertex 34.5 84.75 -1.25
    endloop
  endfacet
  facet normal -1 0 0
    outer loop
      vertex -34.5 84.75 -1.25
      vertex -34.5 104.25 3.5
      vertex -34.5 104.25 -1.25
    endloop
  endfacet
  facet normal -1 -0 0
    outer loop
      vertex -34.5 104.25 3.5
      vertex -34.5 84.75 -1.25
      vertex -34.5 84.75 3.5
    endloop
  endfacet
  facet normal 0 1 -0
    outer loop
      vertex -8 104.25 -1.25
      vertex -34.5 104.25 3.5
      vertex -8 104.25 3.5
    endloop
  endfacet
  facet normal 0 1 0
    outer loop
      vertex -34.5 104.25 3.5
      vertex -8 104.25 -1.25
      vertex -34.5 104.25 -1.25
    endloop
  endfacet
  facet normal 0 1 -0
    outer loop
      vertex 34.5 104.25 -1.25
      vertex 8 104.25 3.5
      vertex 34.5 104.25 3.5
    endloop
  endfacet
  facet normal 0 1 0
    outer loop
      vertex 8 104.25 3.5
      vertex 34.5 104.25 -1.25
      vertex 8 104.25 -1.25
    endloop
  endfacet
  facet normal 0 -1 0
    outer loop
      vertex -34.5 84.75 -1.25
      vertex -8 84.75 3.5
      vertex -34.5 84.75 3.5
    endloop
  endfacet
  facet normal 0 -1 -0
    outer loop
      vertex -8 84.75 3.5
      vertex -34.5 84.75 -1.25
      vertex -8 84.75 -1.25
    endloop
  endfacet
  facet normal 0 -1 0
    outer loop
      vertex 8 84.75 -1.25
      vertex 34.5 84.75 3.5
      vertex 8 84.75 3.5
    endloop
  endfacet
  facet normal 0 -1 -0
    outer loop
      vertex 34.5 84.75 3.5
      vertex 8 84.75 -1.25
      vertex 34.5 84.75 -1.25
    endloop
  endfacet
  facet normal -1 0 0
    outer loop
      vertex -8 86.75 0
      vertex -8 101.75 3.5
      vertex -8 101.75 0
    endloop
  endfacet
  facet normal -1 -0 0
    outer loop
      vertex -8 101.75 3.5
      vertex -8 86.75 0
      vertex -8 86.75 3.5
    endloop
  endfacet
  facet normal -0 0 1
    outer loop
      vertex -32.5 101.75 0
      vertex -8 86.75 0
      vertex -8 101.75 0
    endloop
  endfacet
  facet normal 0 0 1
    outer loop
      vertex -8 86.75 0
      vertex -32.5 101.75 0
      vertex -32.5 86.75 0
    endloop
  endfacet
  facet normal 1 -0 0
    outer loop
      vertex -32.5 86.75 3.5
      vertex -32.5 101.75 0
      vertex -32.5 101.75 3.5
    endloop
  endfacet
  facet normal 1 0 0
    outer loop
      vertex -32.5 101.75 0
      vertex -32.5 86.75 3.5
      vertex -32.5 86.75 0
    endloop
  endfacet
  facet normal 0 -1 0
    outer loop
      vertex -32.5 101.75 0
      vertex -8 101.75 3.5
      vertex -32.5 101.75 3.5
    endloop
  endfacet
  facet normal 0 -1 -0
    outer loop
      vertex -8 101.75 3.5
      vertex -32.5 101.75 0
      vertex -8 101.75 0
    endloop
  endfacet
  facet normal 0 1 -0
    outer loop
      vertex -8 86.75 0
      vertex -32.5 86.75 3.5
      vertex -8 86.75 3.5
    endloop
  endfacet
  facet normal 0 1 0
    outer loop
      vertex -32.5 86.75 3.5
      vertex -8 86.75 0
      vertex -32.5 86.75 0
    endloop
  endfacet
  facet normal -1 0 0
    outer loop
      vertex 32.5 86.75 0
      vertex 32.5 101.75 3.5
      vertex 32.5 101.75 0
    endloop
  endfacet
  facet normal -1 -0 0
    outer loop
      vertex 32.5 101.75 3.5
      vertex 32.5 86.75 0
      vertex 32.5 86.75 3.5
    endloop
  endfacet
  facet normal -0 0 1
    outer loop
      vertex 8 101.75 0
      vertex 32.5 86.75 0
      vertex 32.5 101.75 0
    endloop
  endfacet
  facet normal 0 0 1
    outer loop
      vertex 32.5 86.75 0
      vertex 8 101.75 0
      vertex 8 86.75 0
    endloop
  endfacet
  facet normal 1 -0 0
    outer loop
      vertex 8 86.75 3.5
      vertex 8 101.75 0
      vertex 8 101.75 3.5
    endloop
  endfacet
  facet normal 1 0 0
    outer loop
      vertex 8 101.75 0
      vertex 8 86.75 3.5
      vertex 8 86.75 0
    endloop
  endfacet
  facet normal 0 -1 0
    outer loop
      vertex 8 101.75 0
      vertex 32.5 101.75 3.5
      vertex 8 101.75 3.5
    endloop
  endfacet
  facet normal 0 -1 -0
    outer loop
      vertex 32.5 101.75 3.5
      vertex 8 101.75 0
      vertex 32.5 101.75 0
    endloop
  endfacet
  facet normal 0 1 -0
    outer loop
      vertex 32.5 86.75 0
      vertex 8 86.75 3.5
      vertex 32.5 86.75 3.5
    endloop
  endfacet
  facet normal 0 1 0
    outer loop
      vertex 8 86.75 3.5
      vertex 32.5 86.75 0
      vertex 8 86.75 0
    endloop
  endfacet
  facet normal 1 -0 0
    outer loop
      vertex 8 135.75 3.5
      vertex 8 147.75 -1.25
      vertex 8 147.75 3.5
    endloop
  endfacet
  facet normal 1 0 0
    outer loop
      vertex 8 147.75 -1.25
      vertex 8 135.75 3.5
      vertex 8 135.75 -1.25
    endloop
  endfacet
  facet normal -1 0 0
    outer loop
      vertex -8 135.75 -1.25
      vertex -8 147.75 3.5
      vertex -8 147.75 -1.25
    endloop
  endfacet
  facet normal -1 -0 0
    outer loop
      vertex -8 147.75 3.5
      vertex -8 135.75 -1.25
      vertex -8 135.75 3.5
    endloop
  endfacet
  facet normal 1 -0 0
    outer loop
      vertex 34.5 116.25 3.5
      vertex 34.5 135.75 -1.25
      vertex 34.5 135.75 3.5
    endloop
  endfacet
  facet normal 1 0 0
    outer loop
      vertex 34.5 135.75 -1.25
      vertex 34.5 116.25 3.5
      vertex 34.5 116.25 -1.25
    endloop
  endfacet
  facet normal -1 0 0
    outer loop
      vertex -34.5 116.25 -1.25
      vertex -34.5 135.75 3.5
      vertex -34.5 135.75 -1.25
    endloop
  endfacet
  facet normal -1 -0 0
    outer loop
      vertex -34.5 135.75 3.5
      vertex -34.5 116.25 -1.25
      vertex -34.5 116.25 3.5
    endloop
  endfacet
  facet normal 0 1 -0
    outer loop
      vertex -8 135.75 -1.25
      vertex -34.5 135.75 3.5
      vertex -8 135.75 3.5
    endloop
  endfacet
  facet normal 0 1 0
    outer loop
      vertex -34.5 135.75 3.5
      vertex -8 135.75 -1.25
      vertex -34.5 135.75 -1.25
    endloop
  endfacet
  facet normal 0 1 -0
    outer loop
      vertex 34.5 135.75 -1.25
      vertex 8 135.75 3.5
      vertex 34.5 135.75 3.5
    endloop
  endfacet
  facet normal 0 1 0
    outer loop
      vertex 8 135.75 3.5
      vertex 34.5 135.75 -1.25
      vertex 8 135.75 -1.25
    endloop
  endfacet
  facet normal 0 -1 0
    outer loop
      vertex -34.5 116.25 -1.25
      vertex -8 116.25 3.5
      vertex -34.5 116.25 3.5
    endloop
  endfacet
  facet normal 0 -1 -0
    outer loop
      vertex -8 116.25 3.5
      vertex -34.5 116.25 -1.25
      vertex -8 116.25 -1.25
    endloop
  endfacet
  facet normal 0 -1 0
    outer loop
      vertex 8 116.25 -1.25
      vertex 34.5 116.25 3.5
      vertex 8 116.25 3.5
    endloop
  endfacet
  facet normal 0 -1 -0
    outer loop
      vertex 34.5 116.25 3.5
      vertex 8 116.25 -1.25
      vertex 34.5 116.25 -1.25
    endloop
  endfacet
  facet normal -1 0 0
    outer loop
      vertex -8 118.25 0
      vertex -8 133.25 3.5
      vertex -8 133.25 0
    endloop
  endfacet
  facet normal -1 -0 0
    outer loop
      vertex -8 133.25 3.5
      vertex -8 118.25 0
      vertex -8 118.25 3.5
    endloop
  endfacet
  facet normal -0 0 1
    outer loop
      vertex -32.5 133.25 0
      vertex -8 118.25 0
      vertex -8 133.25 0
    endloop
  endfacet
  facet normal 0 0 1
    outer loop
      vertex -8 118.25 0
      vertex -32.5 133.25 0
      vertex -32.5 118.25 0
    endloop
  endfacet
  facet normal 1 -0 0
    outer loop
      vertex -32.5 118.25 3.5
      vertex -32.5 133.25 0
      vertex -32.5 133.25 3.5
    endloop
  endfacet
  facet normal 1 0 0
    outer loop
      vertex -32.5 133.25 0
      vertex -32.5 118.25 3.5
      vertex -32.5 118.25 0
    endloop
  endfacet
  facet normal 0 -1 0
    outer loop
      vertex -32.5 133.25 0
      vertex -8 133.25 3.5
      vertex -32.5 133.25 3.5
    endloop
  endfacet
  facet normal 0 -1 -0
    outer loop
      vertex -8 133.25 3.5
      vertex -32.5 133.25 0
      vertex -8 133.25 0
    endloop
  endfacet
  facet normal 0 1 -0
    outer loop
      vertex -8 118.25 0
      vertex -32.5 118.25 3.5
      vertex -8 118.25 3.5
    endloop
  endfacet
  facet normal 0 1 0
    outer loop
      vertex -32.5 118.25 3.5
      vertex -8 118.25 0
      vertex -32.5 118.25 0
    endloop
  endfacet
  facet normal -1 0 0
    outer loop
      vertex 32.5 118.25 0
      vertex 32.5 133.25 3.5
      vertex 32.5 133.25 0
    endloop
  endfacet
  facet normal -1 -0 0
    outer loop
      vertex 32.5 133.25 3.5
      vertex 32.5 118.25 0
      vertex 32.5 118.25 3.5
    endloop
  endfacet
  facet normal -0 0 1
    outer loop
      vertex 8 133.25 0
      vertex 32.5 118.25 0
      vertex 32.5 133.25 0
    endloop
  endfacet
  facet normal 0 0 1
    outer loop
      vertex 32.5 118.25 0
      vertex 8 133.25 0
      vertex 8 118.25 0
    endloop
  endfacet
  facet normal 1 -0 0
    outer loop
      vertex 8 118.25 3.5
      vertex 8 133.25 0
      vertex 8 133.25 3.5
    endloop
  endfacet
  facet normal 1 0 0
    outer loop
      vertex 8 133.25 0
      vertex 8 118.25 3.5
      vertex 8 118.25 0
    endloop
  endfacet
  facet normal 0 -1 0
    outer loop
      vertex 8 133.25 0
      vertex 32.5 133.25 3.5
      vertex 8 133.25 3.5
    endloop
  endfacet
  facet normal 0 -1 -0
    outer loop
      vertex 32.5 133.25 3.5
      vertex 8 133.25 0
      vertex 32.5 133.25 0
    endloop
  endfacet
  facet normal 0 1 -0
    outer loop
      vertex 32.5 118.25 0
      vertex 8 118.25 3.5
      vertex 32.5 118.25 3.5
    endloop
  endfacet
  facet normal 0 1 0
    outer loop
      vertex 8 118.25 3.5
      vertex 32.5 118.25 0
      vertex 8 118.25 0
    endloop
  endfacet
  facet normal 0 1 -0
    outer loop
      vertex 49 173.25 -3.75
      vertex 8 173.25 -1.25
      vertex 49 173.25 -1.25
    endloop
  endfacet
  facet normal 0 1 0
    outer loop
      vertex 8 173.25 -1.25
      vertex 49 173.25 -3.75
      vertex -8 173.25 -1.25
    endloop
  endfacet
  facet normal 0 1 0
    outer loop
      vertex -49 173.25 -3.75
      vertex -8 173.25 -1.25
      vertex 49 173.25 -3.75
    endloop
  endfacet
  facet normal 0 1 0
    outer loop
      vertex -8 173.25 -1.25
      vertex -49 173.25 -3.75
      vertex -49 173.25 -1.25
    endloop
  endfacet
  facet normal 0 1 -0
    outer loop
      vertex 8 173.25 -1.25
      vertex -8 173.25 3.5
      vertex 8 173.25 3.5
    endloop
  endfacet
  facet normal 0 1 0
    outer loop
      vertex -8 173.25 3.5
      vertex 8 173.25 -1.25
      vertex -8 173.25 -1.25
    endloop
  endfacet
  facet normal 1 -0 0
    outer loop
      vertex 8 167.25 3.5
      vertex 8 173.25 -1.25
      vertex 8 173.25 3.5
    endloop
  endfacet
  facet normal 1 0 0
    outer loop
      vertex 8 173.25 -1.25
      vertex 8 167.25 3.5
      vertex 8 167.25 -1.25
    endloop
  endfacet
  facet normal -1 0 0
    outer loop
      vertex -8 167.25 -1.25
      vertex -8 173.25 3.5
      vertex -8 173.25 -1.25
    endloop
  endfacet
  facet normal -1 -0 0
    outer loop
      vertex -8 173.25 3.5
      vertex -8 167.25 -1.25
      vertex -8 167.25 3.5
    endloop
  endfacet
  facet normal 1 -0 0
    outer loop
      vertex 34.5 147.75 3.5
      vertex 34.5 167.25 -1.25
      vertex 34.5 167.25 3.5
    endloop
  endfacet
  facet normal 1 0 0
    outer loop
      vertex 34.5 167.25 -1.25
      vertex 34.5 147.75 3.5
      vertex 34.5 147.75 -1.25
    endloop
  endfacet
  facet normal -1 0 0
    outer loop
      vertex -34.5 147.75 -1.25
      vertex -34.5 167.25 3.5
      vertex -34.5 167.25 -1.25
    endloop
  endfacet
  facet normal -1 -0 0
    outer loop
      vertex -34.5 167.25 3.5
      vertex -34.5 147.75 -1.25
      vertex -34.5 147.75 3.5
    endloop
  endfacet
  facet normal 0 1 -0
    outer loop
      vertex -8 167.25 -1.25
      vertex -34.5 167.25 3.5
      vertex -8 167.25 3.5
    endloop
  endfacet
  facet normal 0 1 0
    outer loop
      vertex -34.5 167.25 3.5
      vertex -8 167.25 -1.25
      vertex -34.5 167.25 -1.25
    endloop
  endfacet
  facet normal 0 1 -0
    outer loop
      vertex 34.5 167.25 -1.25
      vertex 8 167.25 3.5
      vertex 34.5 167.25 3.5
    endloop
  endfacet
  facet normal 0 1 0
    outer loop
      vertex 8 167.25 3.5
      vertex 34.5 167.25 -1.25
      vertex 8 167.25 -1.25
    endloop
  endfacet
  facet normal 0 -1 0
    outer loop
      vertex -34.5 147.75 -1.25
      vertex -8 147.75 3.5
      vertex -34.5 147.75 3.5
    endloop
  endfacet
  facet normal 0 -1 -0
    outer loop
      vertex -8 147.75 3.5
      vertex -34.5 147.75 -1.25
      vertex -8 147.75 -1.25
    endloop
  endfacet
  facet normal 0 -1 0
    outer loop
      vertex 8 147.75 -1.25
      vertex 34.5 147.75 3.5
      vertex 8 147.75 3.5
    endloop
  endfacet
  facet normal 0 -1 -0
    outer loop
      vertex 34.5 147.75 3.5
      vertex 8 147.75 -1.25
      vertex 34.5 147.75 -1.25
    endloop
  endfacet
  facet normal -1 0 0
    outer loop
      vertex -8 149.75 0
      vertex -8 164.75 3.5
      vertex -8 164.75 0
    endloop
  endfacet
  facet normal -1 -0 0
    outer loop
      vertex -8 164.75 3.5
      vertex -8 149.75 0
      vertex -8 149.75 3.5
    endloop
  endfacet
  facet normal -0 0 1
    outer loop
      vertex -32.5 164.75 0
      vertex -8 149.75 0
      vertex -8 164.75 0
    endloop
  endfacet
  facet normal 0 0 1
    outer loop
      vertex -8 149.75 0
      vertex -32.5 164.75 0
      vertex -32.5 149.75 0
    endloop
  endfacet
  facet normal 1 -0 0
    outer loop
      vertex -32.5 149.75 3.5
      vertex -32.5 164.75 0
      vertex -32.5 164.75 3.5
    endloop
  endfacet
  facet normal 1 0 0
    outer loop
      vertex -32.5 164.75 0
      vertex -32.5 149.75 3.5
      vertex -32.5 149.75 0
    endloop
  endfacet
  facet normal 0 -1 0
    outer loop
      vertex -32.5 164.75 0
      vertex -8 164.75 3.5
      vertex -32.5 164.75 3.5
    endloop
  endfacet
  facet normal 0 -1 -0
    outer loop
      vertex -8 164.75 3.5
      vertex -32.5 164.75 0
      vertex -8 164.75 0
    endloop
  endfacet
  facet normal 0 1 -0
    outer loop
      vertex -8 149.75 0
      vertex -32.5 149.75 3.5
      vertex -8 149.75 3.5
    endloop
  endfacet
  facet normal 0 1 0
    outer loop
      vertex -32.5 149.75 3.5
      vertex -8 149.75 0
      vertex -32.5 149.75 0
    endloop
  endfacet
  facet normal -1 0 0
    outer loop
      vertex 32.5 149.75 0
      vertex 32.5 164.75 3.5
      vertex 32.5 164.75 0
    endloop
  endfacet
  facet normal -1 -0 0
    outer loop
      vertex 32.5 164.75 3.5
      vertex 32.5 149.75 0
      vertex 32.5 149.75 3.5
    endloop
  endfacet
  facet normal -0 0 1
    outer loop
      vertex 8 164.75 0
      vertex 32.5 149.75 0
      vertex 32.5 164.75 0
    endloop
  endfacet
  facet normal 0 0 1
    outer loop
      vertex 32.5 149.75 0
      vertex 8 164.75 0
      vertex 8 149.75 0
    endloop
  endfacet
  facet normal 1 -0 0
    outer loop
      vertex 8 149.75 3.5
      vertex 8 164.75 0
      vertex 8 164.75 3.5
    endloop
  endfacet
  facet normal 1 0 0
    outer loop
      vertex 8 164.75 0
      vertex 8 149.75 3.5
      vertex 8 149.75 0
    endloop
  endfacet
  facet normal 0 -1 0
    outer loop
      vertex 8 164.75 0
      vertex 32.5 164.75 3.5
      vertex 8 164.75 3.5
    endloop
  endfacet
  facet normal 0 -1 -0
    outer loop
      vertex 32.5 164.75 3.5
      vertex 8 164.75 0
      vertex 32.5 164.75 0
    endloop
  endfacet
  facet normal 0 1 -0
    outer loop
      vertex 32.5 149.75 0
      vertex 8 149.75 3.5
      vertex 32.5 149.75 3.5
    endloop
  endfacet
  facet normal 0 1 0
    outer loop
      vertex 8 149.75 3.5
      vertex 32.5 149.75 0
      vertex 8 149.75 0
    endloop
  endfacet
endsolid OpenSCAD_Model
