solid OpenSCAD_Model
  facet normal 1 -0 0
    outer loop
      vertex 48.5 -15.75 -1.25
      vertex 48.5 15.75 -3.75
      vertex 48.5 15.75 -1.25
    endloop
  endfacet
  facet normal 1 0 0
    outer loop
      vertex 48.5 15.75 -3.75
      vertex 48.5 -15.75 -1.25
      vertex 48.5 -15.75 -3.75
    endloop
  endfacet
  facet normal 0 0 1
    outer loop
      vertex 48.5 15.75 -1.25
      vertex 34.5 9.75 -1.25
      vertex 48.5 -15.75 -1.25
    endloop
  endfacet
  facet normal 0 0 1
    outer loop
      vertex 48.5 15.75 -1.25
      vertex -34.5 9.75 -1.25
      vertex 34.5 9.75 -1.25
    endloop
  endfacet
  facet normal 0 0 1
    outer loop
      vertex -34.5 9.75 -1.25
      vertex -48.5 15.75 -1.25
      vertex -34.5 -9.75 -1.25
    endloop
  endfacet
  facet normal -0 0 1
    outer loop
      vertex -48.5 15.75 -1.25
      vertex -34.5 9.75 -1.25
      vertex 48.5 15.75 -1.25
    endloop
  endfacet
  facet normal -0 0 1
    outer loop
      vertex 34.5 -9.75 -1.25
      vertex 48.5 -15.75 -1.25
      vertex 34.5 9.75 -1.25
    endloop
  endfacet
  facet normal -0 0 1
    outer loop
      vertex -34.5 -9.75 -1.25
      vertex 48.5 -15.75 -1.25
      vertex 34.5 -9.75 -1.25
    endloop
  endfacet
  facet normal 0 0 1
    outer loop
      vertex -34.5 -9.75 -1.25
      vertex -48.5 -15.75 -1.25
      vertex 48.5 -15.75 -1.25
    endloop
  endfacet
  facet normal 0 0 1
    outer loop
      vertex -48.5 -15.75 -1.25
      vertex -34.5 -9.75 -1.25
      vertex -48.5 15.75 -1.25
    endloop
  endfacet
  facet normal 0 0 -1
    outer loop
      vertex -48.5 -15.75 -3.75
      vertex 48.5 15.75 -3.75
      vertex 48.5 -15.75 -3.75
    endloop
  endfacet
  facet normal -0 0 -1
    outer loop
      vertex 48.5 15.75 -3.75
      vertex -48.5 -15.75 -3.75
      vertex -48.5 15.75 -3.75
    endloop
  endfacet
  facet normal -1 0 0
    outer loop
      vertex -48.5 -15.75 -3.75
      vertex -48.5 15.75 -1.25
      vertex -48.5 15.75 -3.75
    endloop
  endfacet
  facet normal -1 -0 0
    outer loop
      vertex -48.5 15.75 -1.25
      vertex -48.5 -15.75 -3.75
      vertex -48.5 -15.75 -1.25
    endloop
  endfacet
  facet normal 0 1 -0
    outer loop
      vertex 48.5 15.75 -3.75
      vertex -48.5 15.75 -1.25
      vertex 48.5 15.75 -1.25
    endloop
  endfacet
  facet normal 0 1 0
    outer loop
      vertex -48.5 15.75 -1.25
      vertex 48.5 15.75 -3.75
      vertex -48.5 15.75 -3.75
    endloop
  endfacet
  facet normal 0 -1 0
    outer loop
      vertex -48.5 -15.75 -3.75
      vertex 48.5 -15.75 -1.25
      vertex -48.5 -15.75 -1.25
    endloop
  endfacet
  facet normal 0 -1 -0
    outer loop
      vertex 48.5 -15.75 -1.25
      vertex -48.5 -15.75 -3.75
      vertex 48.5 -15.75 -3.75
    endloop
  endfacet
  facet normal 1 -0 0
    outer loop
      vertex 34.5 -9.75 7.5
      vertex 34.5 9.75 -1.25
      vertex 34.5 9.75 7.5
    endloop
  endfacet
  facet normal 1 0 0
    outer loop
      vertex 34.5 9.75 -1.25
      vertex 34.5 -9.75 7.5
      vertex 34.5 -9.75 -1.25
    endloop
  endfacet
  facet normal 0 0 1
    outer loop
      vertex 34.5 9.75 7.5
      vertex 32.5 7.25 7.5
      vertex 34.5 -9.75 7.5
    endloop
  endfacet
  facet normal 0 0 1
    outer loop
      vertex 34.5 9.75 7.5
      vertex 8 7.25 7.5
      vertex 32.5 7.25 7.5
    endloop
  endfacet
  facet normal 0 0 1
    outer loop
      vertex 8 7.25 7.5
      vertex -8 7.25 7.5
      vertex 8 -7.75 7.5
    endloop
  endfacet
  facet normal 0 0 1
    outer loop
      vertex 34.5 9.75 7.5
      vertex -8 7.25 7.5
      vertex 8 7.25 7.5
    endloop
  endfacet
  facet normal -0 0 1
    outer loop
      vertex -34.5 9.75 7.5
      vertex -8 7.25 7.5
      vertex 34.5 9.75 7.5
    endloop
  endfacet
  facet normal 0 0 1
    outer loop
      vertex -34.5 -9.75 7.5
      vertex -32.5 7.25 7.5
      vertex -34.5 9.75 7.5
    endloop
  endfacet
  facet normal 0 0 1
    outer loop
      vertex -8 7.25 7.5
      vertex -34.5 9.75 7.5
      vertex -32.5 7.25 7.5
    endloop
  endfacet
  facet normal -0 0 1
    outer loop
      vertex 32.5 -7.75 7.5
      vertex 34.5 -9.75 7.5
      vertex 32.5 7.25 7.5
    endloop
  endfacet
  facet normal -0 0 1
    outer loop
      vertex 8 -7.75 7.5
      vertex 34.5 -9.75 7.5
      vertex 32.5 -7.75 7.5
    endloop
  endfacet
  facet normal 0 0 1
    outer loop
      vertex -8 -7.75 7.5
      vertex 8 -7.75 7.5
      vertex -8 7.25 7.5
    endloop
  endfacet
  facet normal -0 0 1
    outer loop
      vertex -8 -7.75 7.5
      vertex 34.5 -9.75 7.5
      vertex 8 -7.75 7.5
    endloop
  endfacet
  facet normal 0 0 1
    outer loop
      vertex -34.5 -9.75 7.5
      vertex -8 -7.75 7.5
      vertex -32.5 -7.75 7.5
    endloop
  endfacet
  facet normal 0 0 1
    outer loop
      vertex -8 -7.75 7.5
      vertex -34.5 -9.75 7.5
      vertex 34.5 -9.75 7.5
    endloop
  endfacet
  facet normal 0 0 1
    outer loop
      vertex -32.5 7.25 7.5
      vertex -34.5 -9.75 7.5
      vertex -32.5 -7.75 7.5
    endloop
  endfacet
  facet normal -1 0 0
    outer loop
      vertex -34.5 -9.75 -1.25
      vertex -34.5 9.75 7.5
      vertex -34.5 9.75 -1.25
    endloop
  endfacet
  facet normal -1 -0 0
    outer loop
      vertex -34.5 9.75 7.5
      vertex -34.5 -9.75 -1.25
      vertex -34.5 -9.75 7.5
    endloop
  endfacet
  facet normal 0 1 -0
    outer loop
      vertex 34.5 9.75 -1.25
      vertex -34.5 9.75 7.5
      vertex 34.5 9.75 7.5
    endloop
  endfacet
  facet normal 0 1 0
    outer loop
      vertex -34.5 9.75 7.5
      vertex 34.5 9.75 -1.25
      vertex -34.5 9.75 -1.25
    endloop
  endfacet
  facet normal 0 -1 0
    outer loop
      vertex -34.5 -9.75 -1.25
      vertex 34.5 -9.75 7.5
      vertex -34.5 -9.75 7.5
    endloop
  endfacet
  facet normal 0 -1 -0
    outer loop
      vertex 34.5 -9.75 7.5
      vertex -34.5 -9.75 -1.25
      vertex 34.5 -9.75 -1.25
    endloop
  endfacet
  facet normal -1 0 0
    outer loop
      vertex -8 -7.75 0
      vertex -8 7.25 7.5
      vertex -8 7.25 0
    endloop
  endfacet
  facet normal -1 -0 0
    outer loop
      vertex -8 7.25 7.5
      vertex -8 -7.75 0
      vertex -8 -7.75 7.5
    endloop
  endfacet
  facet normal -0 0 1
    outer loop
      vertex -32.5 7.25 0
      vertex -8 -7.75 0
      vertex -8 7.25 0
    endloop
  endfacet
  facet normal 0 0 1
    outer loop
      vertex -8 -7.75 0
      vertex -32.5 7.25 0
      vertex -32.5 -7.75 0
    endloop
  endfacet
  facet normal 1 -0 0
    outer loop
      vertex -32.5 -7.75 7.5
      vertex -32.5 7.25 0
      vertex -32.5 7.25 7.5
    endloop
  endfacet
  facet normal 1 0 0
    outer loop
      vertex -32.5 7.25 0
      vertex -32.5 -7.75 7.5
      vertex -32.5 -7.75 0
    endloop
  endfacet
  facet normal 0 -1 0
    outer loop
      vertex -32.5 7.25 0
      vertex -8 7.25 7.5
      vertex -32.5 7.25 7.5
    endloop
  endfacet
  facet normal 0 -1 -0
    outer loop
      vertex -8 7.25 7.5
      vertex -32.5 7.25 0
      vertex -8 7.25 0
    endloop
  endfacet
  facet normal 0 1 -0
    outer loop
      vertex -8 -7.75 0
      vertex -32.5 -7.75 7.5
      vertex -8 -7.75 7.5
    endloop
  endfacet
  facet normal 0 1 0
    outer loop
      vertex -32.5 -7.75 7.5
      vertex -8 -7.75 0
      vertex -32.5 -7.75 0
    endloop
  endfacet
  facet normal -1 0 0
    outer loop
      vertex 32.5 -7.75 0
      vertex 32.5 7.25 7.5
      vertex 32.5 7.25 0
    endloop
  endfacet
  facet normal -1 -0 0
    outer loop
      vertex 32.5 7.25 7.5
      vertex 32.5 -7.75 0
      vertex 32.5 -7.75 7.5
    endloop
  endfacet
  facet normal -0 0 1
    outer loop
      vertex 8 7.25 0
      vertex 32.5 -7.75 0
      vertex 32.5 7.25 0
    endloop
  endfacet
  facet normal 0 0 1
    outer loop
      vertex 32.5 -7.75 0
      vertex 8 7.25 0
      vertex 8 -7.75 0
    endloop
  endfacet
  facet normal 1 -0 0
    outer loop
      vertex 8 -7.75 7.5
      vertex 8 7.25 0
      vertex 8 7.25 7.5
    endloop
  endfacet
  facet normal 1 0 0
    outer loop
      vertex 8 7.25 0
      vertex 8 -7.75 7.5
      vertex 8 -7.75 0
    endloop
  endfacet
  facet normal 0 -1 0
    outer loop
      vertex 8 7.25 0
      vertex 32.5 7.25 7.5
      vertex 8 7.25 7.5
    endloop
  endfacet
  facet normal 0 -1 -0
    outer loop
      vertex 32.5 7.25 7.5
      vertex 8 7.25 0
      vertex 32.5 7.25 0
    endloop
  endfacet
  facet normal 0 1 -0
    outer loop
      vertex 32.5 -7.75 0
      vertex 8 -7.75 7.5
      vertex 32.5 -7.75 7.5
    endloop
  endfacet
  facet normal 0 1 0
    outer loop
      vertex 8 -7.75 7.5
      vertex 32.5 -7.75 0
      vertex 8 -7.75 0
    endloop
  endfacet
endsolid OpenSCAD_Model
